<?xml version="1.0" encoding="utf-8"?>
<!-- Generator: Adobe Illustrator 23.0.0, SVG Export Plug-In . SVG Version: 6.00 Build 0)  -->
<svg version="1.1" id="圖層_1" xmlns="http://www.w3.org/2000/svg" xmlns:xlink="http://www.w3.org/1999/xlink" x="0px" y="0px"
	 viewBox="0 0 40 40" style="enable-background:new 0 0 40 40;" xml:space="preserve">
<style type="text/css">
	.st0{fill:none;}
	.st1{fill:#A4D5E3;}
	.st2{fill:#007798;}
	.st3{fill:#FFFFFF;}
</style>
<rect class="st0" width="40" height="40"/>
<g>
	<circle class="st1" cx="20" cy="20" r="20"/>
	<circle class="st2" cx="20" cy="20" r="18.3"/>
	<g>
		<g>
			<path class="st3" d="M25.8,18.2c0-3.6-2.9-6.5-6.5-6.5h-1.2c-3.6,0-6.5,2.9-6.5,6.5v7.2c0,3.6,2.9,6.5,6.5,6.5h1.2
				c0.9,0,1.7-0.2,2.5-0.5c0.3-0.1,0.4-0.4,0.3-0.7c-0.1-0.3-0.4-0.4-0.7-0.3c-0.7,0.3-1.4,0.4-2.1,0.4h-1.2c-3,0-5.5-2.5-5.5-5.5
				v-7.2c0-3,2.5-5.5,5.5-5.5h1.2c3,0,5.5,2.5,5.5,5.5C24.8,18.2,25.2,19.5,25.8,18.2z"/>
		</g>
		<g>
			<path class="st3" d="M6.5,26.3c-1.5,0-2.7-1.2-2.7-2.7v-2c0-0.3,0.2-0.5,0.5-0.5c0.3,0,0.5,0.2,0.5,0.5v2c0,0.9,0.8,1.7,1.7,1.7
				s1.7-0.8,1.7-1.7V19c0-0.3,0.2-0.5,0.5-0.5c0.3,0,0.5,0.2,0.5,0.5v4.6C9.3,25.1,8,26.3,6.5,26.3z"/>
		</g>
		<g>
			<path class="st3" d="M8.8,17.5c-0.1,0-0.3-0.1-0.4-0.1c-0.1-0.1-0.1-0.2-0.1-0.4c0-0.1,0.1-0.3,0.1-0.4c0.2-0.2,0.5-0.2,0.7,0
				c0.1,0.1,0.1,0.2,0.1,0.4c0,0.1-0.1,0.3-0.1,0.4C9,17.4,8.9,17.5,8.8,17.5z"/>
		</g>
		<g>
			<path class="st3" d="M8.8,15.1c-0.3,0-0.5-0.2-0.5-0.5v-2.5c0-3,2.5-5.5,5.5-5.5s5.5,2.5,5.5,5.5v0.1c0,0.3-0.2,0.5-0.5,0.5
				c-0.3,0-0.5-0.2-0.5-0.5v-0.1c0-2.5-2-4.5-4.5-4.5s-4.5,2-4.5,4.5v2.5C9.3,14.9,9,15.1,8.8,15.1z"/>
		</g>
		<g>
			<path class="st3" d="M18.8,16.4c-0.3,0-0.5-0.2-0.5-0.5v-3.6c0-0.3,0.2-0.5,0.5-0.5c0.3,0,0.5,0.2,0.5,0.5v3.6
				C19.3,16.2,19,16.4,18.8,16.4z"/>
		</g>
		<g>
			<path class="st3" d="M18.8,20.7L18.8,20.7c-1,0-1.8-0.8-1.8-1.8v-1.7c0-1,0.8-1.8,1.8-1.8c1,0,1.8,0.8,1.8,1.8v1.7
				C20.5,19.9,19.8,20.7,18.8,20.7z M18.8,16.4c-0.4,0-0.8,0.3-0.8,0.8v1.7c0,0.4,0.3,0.8,0.8,0.8h0c0.4,0,0.8-0.3,0.8-0.8v-1.7
				C19.5,16.8,19.2,16.4,18.8,16.4z"/>
		</g>
		<g>
			<path class="st3" d="M20.1,24l-1.5,4.2h-0.3l-1.4-4.2l-0.7,4.1h-1l1-6.3H17l1.6,4.2l1.5-4.2h0.8l0.9,6.3h-1L20.1,24z"/>
			<path class="st3" d="M26.4,26.1c0,0.6-0.2,1.1-0.6,1.5c-0.4,0.4-0.9,0.6-1.5,0.6c-0.6,0-1.1-0.2-1.5-0.6
				c-0.4-0.4-0.6-0.9-0.6-1.5c0-0.6,0.2-1.1,0.6-1.5c0.4-0.4,0.9-0.6,1.5-0.6c0.6,0,1.1,0.2,1.5,0.6C26.2,24.9,26.4,25.5,26.4,26.1z
				 M23.2,26.1c0,0.4,0.1,0.7,0.3,0.9c0.2,0.2,0.5,0.4,0.8,0.4c0.3,0,0.6-0.1,0.8-0.4c0.2-0.3,0.3-0.5,0.3-0.9
				c0-0.3-0.1-0.6-0.3-0.9c-0.2-0.3-0.5-0.4-0.8-0.4c-0.3,0-0.6,0.1-0.8,0.4C23.3,25.4,23.2,25.7,23.2,26.1z"/>
			<path class="st3" d="M28.2,24.5c0.2-0.4,0.6-0.5,1.2-0.5c0.2,0,0.3,0,0.5,0.1l-0.1,0.9c-0.1-0.1-0.3-0.1-0.5-0.1
				c-0.7,0-1,0.5-1,1.5v1.8h-1v-4h1V24.5z"/>
			<path class="st3" d="M31.2,26.2c0,0.4,0.1,0.7,0.3,0.9c0.2,0.2,0.4,0.4,0.7,0.4c0.5,0,0.8-0.2,0.9-0.7l0.9,0.2
				c-0.3,0.8-0.9,1.2-1.8,1.2c-0.6,0-1.1-0.2-1.4-0.6c-0.4-0.4-0.5-0.9-0.5-1.5c0-0.6,0.2-1.2,0.5-1.6c0.3-0.4,0.8-0.6,1.4-0.6
				c0.6,0,1.1,0.2,1.4,0.6c0.3,0.4,0.5,0.9,0.5,1.5v0.1H31.2z M33,25.6c0-0.3-0.1-0.5-0.3-0.7c-0.2-0.2-0.4-0.3-0.7-0.3
				c-0.3,0-0.5,0.1-0.7,0.3c-0.2,0.2-0.3,0.5-0.3,0.7H33z"/>
		</g>
	</g>
</g>
</svg>
