<?xml version="1.0" encoding="utf-8"?>
<!-- Generator: Adobe Illustrator 23.0.0, SVG Export Plug-In . SVG Version: 6.00 Build 0)  -->
<svg version="1.1" id="圖層_1" xmlns="http://www.w3.org/2000/svg" xmlns:xlink="http://www.w3.org/1999/xlink" x="0px" y="0px"
	 viewBox="0 0 40 40" style="enable-background:new 0 0 40 40;" xml:space="preserve">
<style type="text/css">
	.st0{fill:none;}
	.st1{fill:#FFC7B3;}
</style>
<rect class="st0" width="40" height="40"/>
<g>
	<g>
		<g>
			<g>
				<path class="st1" d="M20,38.2C10,38.2,1.8,30,1.8,20S10,1.8,20,1.8c5.7,0,10.9,2.6,14.4,7c0.2,0.3,0.2,0.7-0.1,1
					c-0.3,0.2-0.7,0.2-1-0.1c-3.2-4.1-8-6.5-13.3-6.5C10.7,3.2,3.2,10.7,3.2,20S10.7,36.8,20,36.8c3,0,5.9-0.8,8.5-2.3
					c0.3-0.2,0.8-0.1,1,0.2c0.2,0.3,0.1,0.8-0.2,1C26.4,37.3,23.2,38.2,20,38.2z"/>
			</g>
		</g>
		<g>
			<g>
				<path class="st1" d="M31.7,33.8c-0.2,0-0.4-0.1-0.5-0.2c-0.1-0.1-0.2-0.3-0.2-0.5c0-0.2,0.1-0.4,0.2-0.5c0.3-0.3,0.7-0.3,1,0
					c0.1,0.1,0.2,0.3,0.2,0.5c0,0.2-0.1,0.4-0.2,0.5C32.1,33.7,31.9,33.8,31.7,33.8z"/>
			</g>
		</g>
		<g>
			<g>
				<path class="st1" d="M33.9,31.3c-0.1,0-0.3,0-0.4-0.1c-0.3-0.2-0.4-0.7-0.1-1c2.3-3,3.5-6.5,3.5-10.2c0-1.1-0.1-2.1-0.3-3.2
					c-0.1-0.4,0.2-0.7,0.6-0.8c0.4-0.1,0.7,0.2,0.8,0.6c0.2,1.1,0.3,2.3,0.3,3.5c0,4-1.3,7.9-3.8,11.1
					C34.3,31.3,34.1,31.3,33.9,31.3z"/>
			</g>
		</g>
	</g>
	<g>
		<g>
			<path class="st1" d="M17.1,26.6c-0.2,0-0.4-0.1-0.5-0.2L10.2,20c-0.3-0.3-0.3-0.7,0-1c0.3-0.3,0.7-0.3,1,0l5.9,5.9L33.3,8.8
				c0.3-0.3,0.7-0.3,1,0c0.3,0.3,0.3,0.7,0,1L17.6,26.4C17.5,26.6,17.3,26.6,17.1,26.6z"/>
		</g>
	</g>
</g>
</svg>
