<?xml version="1.0" encoding="utf-8"?>
<!-- Generator: Adobe Illustrator 23.0.0, SVG Export Plug-In . SVG Version: 6.00 Build 0)  -->
<svg version="1.1" id="圖層_1" xmlns="http://www.w3.org/2000/svg" xmlns:xlink="http://www.w3.org/1999/xlink" x="0px" y="0px"
	 viewBox="0 0 40 40" style="enable-background:new 0 0 40 40;" xml:space="preserve">
<style type="text/css">
	.st0{fill:none;}
	.st1{fill:#FFC7B3;}
</style>
<rect x="0" y="0" class="st0" width="40" height="40"/>
<g>
	<g>
		<path class="st1" d="M22.1,15.6L15.9,11v18l6.1-4.6L28,20L22.1,15.6z M22.1,15.6L15.9,11v18l6.1-4.6L28,20L22.1,15.6z M22.1,15.6
			L15.9,11v18l6.1-4.6L28,20L22.1,15.6z M17.9,4.1V0.1c-4,0.4-7.7,2-10.7,4.4l2.8,2.9C12.4,5.6,15,4.5,17.9,4.1z M7.3,10.2L4.4,7.3
			C2,10.3,0.4,14,0,18h4.1C4.4,15.1,5.6,12.4,7.3,10.2z M4.1,22H0c0.4,4,2,7.7,4.4,10.7l2.9-2.9C5.6,27.6,4.4,24.9,4.1,22z
			 M7.3,35.5c3,2.4,6.7,4,10.7,4.4v-4.1c-2.9-0.4-5.6-1.5-7.8-3.2L7.3,35.5z M40,20c0,10.3-7.9,18.9-17.9,19.9v-4.1
			C29.9,34.9,36,28.1,36,20S29.9,5.1,22.1,4.1V0.1C32.1,1.1,40,9.7,40,20z"/>
	</g>
</g>
</svg>
