<?xml version="1.0" encoding="utf-8"?>
<!-- Generator: Adobe Illustrator 23.0.0, SVG Export Plug-In . SVG Version: 6.00 Build 0)  -->
<svg version="1.1" id="圖層_1" xmlns="http://www.w3.org/2000/svg" xmlns:xlink="http://www.w3.org/1999/xlink" x="0px" y="0px"
	 viewBox="0 0 90 60" style="enable-background:new 0 0 90 60;" xml:space="preserve">
<style type="text/css">
	.st0{fill:none;}
	.st1{fill:#FFC7B3;}
	.st2{fill:none;stroke:#FFC7B3;stroke-width:2;stroke-miterlimit:10;}
</style>
<rect class="st0" width="90" height="60"/>
<g>
	<g>
		<path class="st1" d="M21.3,26.8h-6.1c0.6-6,3-11.5,6.6-16l4.3,4.2C23.5,18.6,21.8,22.5,21.3,26.8z"/>
	</g>
	<g>
		<path class="st1" d="M30.3,11l-4.2-4.4C30.4,3,36,0.6,42,0v6.1C37.7,6.6,33.8,8.4,30.3,11z"/>
	</g>
	<g>
		<path class="st1" d="M48.1,6.1V0c6,0.6,11.5,3,16,6.6L59.8,11C56.4,8.4,52.5,6.6,48.1,6.1z"/>
	</g>
	<g>
		<path class="st1" d="M45.2,60C60.6,60,73.5,48.1,75,33.2h-6.1C67.4,45,57.2,54,45,54s-22.4-9.2-23.9-20.8H15
			C16.8,48.1,29.6,60,45.2,60z"/>
	</g>
	<path class="st1" d="M0,0.2c6.8,0,12.2,5.5,12.2,12.2c0,0-12.5,18.3,0,35.6C16,53.2,6.8,60,0,60"/>
	<g>
		<circle class="st1" cx="45.8" cy="29.2" r="11.7"/>
		<path class="st1" d="M40.5,24.8c0,0-8.7,1.3-12.3-8.7c0,0,1.9,13.8,10.2,17.3L40.5,24.8z"/>
	</g>
</g>
<line class="st2" x1="90" y1="33" x2="69" y2="33"/>
</svg>
