<?xml version="1.0" encoding="utf-8"?>
<!-- Generator: Adobe Illustrator 23.0.0, SVG Export Plug-In . SVG Version: 6.00 Build 0)  -->
<svg version="1.1" id="圖層_1" xmlns="http://www.w3.org/2000/svg" xmlns:xlink="http://www.w3.org/1999/xlink" x="0px" y="0px"
	 viewBox="0 0 90 60" style="enable-background:new 0 0 90 60;" xml:space="preserve">
<style type="text/css">
	.st0{fill:none;}
	.st1{fill:#FFC7B3;}
	.st2{fill:none;stroke:#FFC7B3;stroke-width:2;stroke-miterlimit:10;}
</style>
<rect class="st0" width="90" height="60"/>
<g>
	<path class="st1" d="M0,0.2c6.8,0,12.2,5.5,12.2,12.2c0,0-12.5,18.3,0,35.6C16,53.2,6.8,60,0,60"/>
	<g>
		<g>
			<path class="st1" d="M59.7,11l4.2-4.4C59.6,3,54,0.6,48,0v6.1C52.4,6.6,56.4,8.4,59.7,11z"/>
		</g>
		<g>
			<path class="st1" d="M42,6.1V0c-6,0.6-11.6,3-16.1,6.6l4.4,4.4C33.6,8.4,37.5,6.6,42,6.1z"/>
		</g>
		<g>
			<path class="st1" d="M21.6,11c-3.6,4.5-6,10-6.6,16h6.2c0.6-4.3,2.2-8.4,4.8-11.7L21.6,11z"/>
		</g>
		<g>
			<path class="st1" d="M45,60c-15.6,0-28.3-11.9-30-26.8h6.2C22.7,44.8,32.7,54,45,54s22.4-9.2,23.9-20.8H75
				C73.2,48.1,60.4,60,45,60z"/>
		</g>
		<g>
			<path class="st1" d="M64.5,29.7c0,0-17.7,23.2-40.2-3.4C24.2,26.1,46.5,35.6,64.5,29.7z"/>
			<path class="st1" d="M38.8,31.5c0,0-8.4-1.7-10.8-12.6C28.1,18.9,23.4,30.4,38.8,31.5z"/>
			<path class="st1" d="M42,33.6c0,0-7.2-2.7-7.8-12.9C34.2,20.7,28.3,30.4,42,33.6z"/>
			<path class="st1" d="M44.1,34.9c0,0-5.5-3.3-4.3-11.8C39.8,23.1,33.3,30.3,44.1,34.9z"/>
		</g>
	</g>
</g>
<line class="st2" x1="90" y1="33" x2="69" y2="33"/>
</svg>
