<?xml version="1.0" encoding="utf-8"?>
<!-- Generator: Adobe Illustrator 23.0.0, SVG Export Plug-In . SVG Version: 6.00 Build 0)  -->
<svg version="1.1" id="圖層_1" xmlns="http://www.w3.org/2000/svg" xmlns:xlink="http://www.w3.org/1999/xlink" x="0px" y="0px"
	 viewBox="0 0 200 200" style="enable-background:new 0 0 200 200;" xml:space="preserve">
<style type="text/css">
	.st0{fill:#FFFFFF;}
</style>
<g>
	<g>
		<g>
			<g>
				<g>
					<path class="st0" d="M65.2,129.1c-0.6,0-1.2-0.3-1.7-0.8L42,101.8c-0.5-0.6-0.6-1.5-0.3-2.3c0.4-0.7,1.1-1.2,1.9-1.2H54V68.2
						c0-1.2,1-2.1,2.1-2.1h18.2c1.2,0,2.1,1,2.1,2.1v30.1h10.3c0.8,0,1.6,0.5,1.9,1.2c0.4,0.7,0.2,1.6-0.3,2.3l-21.5,26.5
						C66.4,128.8,65.8,129.1,65.2,129.1z M48.2,102.6l17,21l17-21h-7.9c-1.2,0-2.1-1-2.1-2.1V70.4h-14v30.1c0,1.2-1,2.1-2.1,2.1
						H48.2z"/>
				</g>
			</g>
		</g>
		<g>
			<g>
				<path class="st0" d="M156,161.5H65c-1.4,0-2.5-1.1-2.5-2.5v-17.4c0-1.4,1.1-2.5,2.5-2.5s2.5,1.1,2.5,2.5v15h86.1v-16.9
					c0-1.4,1.1-2.5,2.5-2.5s2.5,1.1,2.5,2.5V159C158.4,160.4,157.3,161.5,156,161.5z"/>
			</g>
		</g>
		<g>
			<g>
				<path class="st0" d="M156,126.5c-0.6,0-1.3-0.3-1.7-0.7c-0.5-0.5-0.7-1.1-0.7-1.7c0-0.7,0.2-1.3,0.7-1.7c0.9-0.9,2.6-0.9,3.5,0
					c0.5,0.5,0.7,1.1,0.7,1.7s-0.3,1.3-0.7,1.7C157.3,126.2,156.6,126.5,156,126.5z"/>
			</g>
		</g>
		<g>
			<g>
				<path class="st0" d="M156,117.5c-1.4,0-2.5-1.1-2.5-2.5V78.5l-35.9-35.1H67.4v23.7c0,1.4-1.1,2.5-2.5,2.5s-2.5-1.1-2.5-2.5V41
					c0-1.4,1.1-2.5,2.5-2.5h53.7c0.6,0,1.3,0.3,1.7,0.7l37.4,36.5c0.5,0.5,0.7,1.1,0.7,1.8V115C158.4,116.4,157.3,117.5,156,117.5z"
					/>
			</g>
		</g>
		<g>
			<g>
				<path class="st0" d="M118.6,79.9c-1.4,0-2.5-1.1-2.5-2.5V41c0-1.4,1.1-2.5,2.5-2.5s2.5,1.1,2.5,2.5v36.5
					C121.1,78.8,120,79.9,118.6,79.9z"/>
			</g>
		</g>
		<g>
			<g>
				<path class="st0" d="M156,79.9h-37.4c-1.4,0-2.5-1.1-2.5-2.5s1.1-2.5,2.5-2.5H156c1.4,0,2.5,1.1,2.5,2.5
					C158.4,78.8,157.3,79.9,156,79.9z"/>
			</g>
		</g>
	</g>
	<g>
		<g>
			<g>
				<g>
					<path class="st0" d="M143.6,115.7H89.8c-1.4,0-2.6-1.2-2.6-2.6s1.2-2.6,2.6-2.6h53.7c1.4,0,2.6,1.2,2.6,2.6
						S145,115.7,143.6,115.7z"/>
				</g>
			</g>
		</g>
	</g>
	<g>
		<g>
			<g>
				<g>
					<path class="st0" d="M143.6,135.7H89.8c-1.4,0-2.6-1.2-2.6-2.6c0-1.4,1.2-2.6,2.6-2.6h53.7c1.4,0,2.6,1.2,2.6,2.6
						C146.1,134.6,145,135.7,143.6,135.7z"/>
				</g>
			</g>
		</g>
	</g>
</g>
</svg>
