<?xml version="1.0" encoding="utf-8"?>
<!-- Generator: Adobe Illustrator 23.0.0, SVG Export Plug-In . SVG Version: 6.00 Build 0)  -->
<svg version="1.1" id="圖層_1" xmlns="http://www.w3.org/2000/svg" xmlns:xlink="http://www.w3.org/1999/xlink" x="0px" y="0px"
	 viewBox="0 0 200 200" style="enable-background:new 0 0 200 200;" xml:space="preserve">
<style type="text/css">
	.st0{fill:#FFC7B3;}
</style>
<g>
	<g>
		<g>
			<path class="st0" d="M63.4,93.6c-1.3,0-2.3-1-2.3-2.3V78.4c0-1.3,1-2.3,2.3-2.3s2.3,1,2.3,2.3v12.8
				C65.8,92.6,64.7,93.6,63.4,93.6z"/>
		</g>
	</g>
	<g>
		<g>
			<path class="st0" d="M63.4,123.9c-1.3,0-2.3-1-2.3-2.3v-12.8c0-1.3,1-2.3,2.3-2.3s2.3,1,2.3,2.3v12.8
				C65.8,122.8,64.7,123.9,63.4,123.9z"/>
		</g>
	</g>
	<g>
		<g>
			<g>
				<path class="st0" d="M156,158.5H63.4c-1.3,0-2.3-1-2.3-2.3V139c0-1.3,1-2.3,2.3-2.3s2.3,1,2.3,2.3v14.8h87.9V46.1h-34.4
					c-1.3,0-2.3-1-2.3-2.3s1-2.3,2.3-2.3H156c1.3,0,2.3,1,2.3,2.3v112.4C158.3,157.5,157.3,158.5,156,158.5z"/>
			</g>
		</g>
		<g>
			<g>
				<path class="st0" d="M108.4,46.2c-0.6,0-1.2-0.3-1.7-0.7c-0.4-0.4-0.7-1-0.7-1.6c0-0.6,0.3-1.2,0.7-1.7c0.9-0.9,2.4-0.9,3.3,0
					c0.4,0.4,0.7,1.1,0.7,1.7c0,0.6-0.3,1.2-0.7,1.7C109.6,45.9,109,46.2,108.4,46.2z"/>
			</g>
		</g>
		<g>
			<g>
				<path class="st0" d="M63.4,63.3c-1.3,0-2.3-1-2.3-2.3V43.8c0-1.3,1-2.3,2.3-2.3h34.2c1.3,0,2.3,1,2.3,2.3s-1,2.3-2.3,2.3H65.8
					V61C65.8,62.3,64.7,63.3,63.4,63.3z"/>
			</g>
		</g>
		<g>
			<g>
				<path class="st0" d="M74.2,80.8H52.7c-6.1,0-11-5-11-11c0-6.2,5-11.1,11-11.1h21.5c6.1,0,11,5,11,11
					C85.2,75.8,80.3,80.8,74.2,80.8z M52.7,63.3c-3.5,0-6.4,2.9-6.4,6.4c0,3.6,2.9,6.4,6.4,6.4h21.5c3.5,0,6.4-2.9,6.4-6.4
					c0-3.6-2.9-6.4-6.4-6.4H52.7z"/>
			</g>
		</g>
		<g>
			<g>
				<path class="st0" d="M74.2,111.1H52.7c-6.1,0-11-5-11-11c0-6.2,5-11.1,11-11.1h21.5c6.1,0,11,5,11,11
					C85.2,106.1,80.3,111.1,74.2,111.1z M52.7,93.6c-3.5,0-6.4,2.9-6.4,6.4c0,3.6,2.9,6.4,6.4,6.4h21.5c3.5,0,6.4-2.9,6.4-6.4
					c0-3.6-2.9-6.4-6.4-6.4H52.7z"/>
			</g>
		</g>
		<g>
			<g>
				<path class="st0" d="M74.2,141.4H52.7c-6.1,0-11-5-11-11c0-6.2,5-11.1,11-11.1h21.5c6.1,0,11,5,11,11
					C85.2,136.4,80.3,141.4,74.2,141.4z M52.7,123.9c-3.5,0-6.4,2.9-6.4,6.4c0,3.6,2.9,6.4,6.4,6.4h21.5c3.5,0,6.4-2.9,6.4-6.4
					c0-3.6-2.9-6.4-6.4-6.4H52.7z"/>
			</g>
		</g>
		<g>
			<g>
				<g>
					<path class="st0" d="M118.2,94.1c-8.1,0-14.8-6.6-14.8-14.8s6.6-14.8,14.8-14.8S133,71.3,133,79.4S126.3,94.1,118.2,94.1z
						 M118.2,69.3c-5.6,0-10.1,4.5-10.1,10.1c0,5.6,4.5,10.1,10.1,10.1c5.6,0,10.1-4.5,10.1-10.1C128.3,73.8,123.8,69.3,118.2,69.3z
						"/>
				</g>
			</g>
			<g>
				<g>
					<path class="st0" d="M141.2,135.4h-32.8c-1.3,0-2.3-1-2.3-2.3s1-2.3,2.3-2.3h30.4V125c0-11.4-9.3-20.7-20.7-20.7
						c-11.4,0-20.7,9.3-20.7,20.7v8.1c0,1.3-1,2.3-2.3,2.3c-1.3,0-2.3-1-2.3-2.3V125c0-14,11.4-25.3,25.3-25.3
						c14,0,25.3,11.4,25.3,25.3v8.1C143.5,134.3,142.5,135.4,141.2,135.4z"/>
				</g>
			</g>
		</g>
	</g>
</g>
</svg>
