<?xml version="1.0" encoding="utf-8"?>
<!-- Generator: Adobe Illustrator 23.0.0, SVG Export Plug-In . SVG Version: 6.00 Build 0)  -->
<svg version="1.1" id="圖層_1" xmlns="http://www.w3.org/2000/svg" xmlns:xlink="http://www.w3.org/1999/xlink" x="0px" y="0px"
	 viewBox="0 0 200 200" style="enable-background:new 0 0 200 200;" xml:space="preserve">
<style type="text/css">
	.st0{fill:#FFFFFF;}
</style>
<g>
	<g>
		<g>
			<g>
				<g>
					<path class="st0" d="M122.3,159.8h-87c-1.6,0-2.9-1.3-2.9-2.9V92.1c0-1.6,1.3-2.9,2.9-2.9s2.9,1.3,2.9,2.9V154h84.1
						c1.6,0,2.9,1.3,2.9,2.9C125.1,158.5,123.8,159.8,122.3,159.8z"/>
				</g>
			</g>
			<g>
				<g>
					<path class="st0" d="M122.3,159.8c-1.6,0-2.9-1.3-2.9-2.9V79.5L85.4,46H38.1v20.2c0,1.6-1.3,2.9-2.9,2.9s-2.9-1.3-2.9-2.9v-23
						c0-1.6,1.3-2.9,2.9-2.9h51.3c0.8,0,1.5,0.3,2,0.8l35.7,35.2c0.5,0.5,0.9,1.3,0.9,2V157C125.1,158.5,123.8,159.8,122.3,159.8z"
						/>
				</g>
			</g>
			<g>
				<g>
					<path class="st0" d="M35.3,82c-0.7,0-1.5-0.3-2-0.8s-0.9-1.3-0.9-2s0.3-1.5,0.9-2c1-1.1,3-1.1,4,0c0.5,0.5,0.9,1.3,0.9,2
						s-0.3,1.5-0.9,2C36.7,81.7,36,82,35.3,82z"/>
				</g>
			</g>
			<g>
				<g>
					<path class="st0" d="M86.5,81.1c-1.6,0-2.9-1.3-2.9-2.9V43.1c0-1.6,1.3-2.9,2.9-2.9s2.9,1.3,2.9,2.9v35.2
						C89.4,79.8,88.1,81.1,86.5,81.1z"/>
				</g>
			</g>
			<g>
				<g>
					<path class="st0" d="M122.3,81.1H86.5c-1.6,0-2.9-1.3-2.9-2.9s1.3-2.9,2.9-2.9h35.7c1.6,0,2.9,1.3,2.9,2.9
						S123.8,81.1,122.3,81.1z"/>
				</g>
			</g>
		</g>
	</g>
	<g>
		<g>
			<g>
				<path class="st0" d="M127,158c-6.2-2-9.7-8.8-7.6-15l25.5-78.3c0.1-0.3,0.3-0.6,0.5-0.9L161.5,43c0.7-0.9,2-1.3,3.1-1
					c1.1,0.4,1.9,1.4,2,2.6l0.9,26.4c0,0.3,0,0.7-0.1,1L142,150.3C140,156.6,133.2,160,127,158z M150.1,66.9l-25.3,77.8
					c-1.1,3.2,0.7,6.7,4,7.8c3.2,1.1,6.7-0.7,7.8-4l25.3-77.8l-0.6-18L150.1,66.9z"/>
			</g>
		</g>
		<g>
			<g>
				<path class="st0" d="M139.3,149.5l-17.2-5.6c-1.5-0.5-2.3-2.1-1.8-3.6s2.1-2.3,3.6-1.8L141,144c1.5,0.5,2.3,2.1,1.8,3.6
					C142.4,149.1,140.8,149.9,139.3,149.5z"/>
			</g>
		</g>
		<g>
			<g>
				<path class="st0" d="M163.9,73.9l-17.2-5.6c-1.5-0.5-2.3-2.1-1.8-3.6s2.1-2.3,3.6-1.8l17.2,5.6c1.5,0.5,2.3,2.1,1.8,3.6
					C167,73.5,165.4,74.4,163.9,73.9z"/>
			</g>
		</g>
	</g>
</g>
</svg>
