<?xml version="1.0" encoding="utf-8"?>
<!-- Generator: Adobe Illustrator 23.0.0, SVG Export Plug-In . SVG Version: 6.00 Build 0)  -->
<svg version="1.1" id="圖層_1" xmlns="http://www.w3.org/2000/svg" xmlns:xlink="http://www.w3.org/1999/xlink" x="0px" y="0px"
	 viewBox="0 0 200 200" style="enable-background:new 0 0 200 200;" xml:space="preserve">
<style type="text/css">
	.st0{fill:#FFC7B3;}
</style>
<g>
	<g>
		<g>
			<g>
				<g>
					<path class="st0" d="M127.3,78.3H72.7c-1.4,0-2.6-1.2-2.6-2.6s1.2-2.6,2.6-2.6h54.7c1.4,0,2.6,1.2,2.6,2.6
						C130,77.2,128.8,78.3,127.3,78.3z"/>
				</g>
			</g>
		</g>
	</g>
	<g>
		<g>
			<g>
				<g>
					<path class="st0" d="M144.9,165.5H55.1c-1.4,0-2.6-1.2-2.6-2.6v-37.3c0-1.4,1.2-2.6,2.6-2.6c1.4,0,2.6,1.2,2.6,2.6v34.7h84.5
						V49.1H119c-1.4,0-2.6-1.2-2.6-2.6s1.2-2.6,2.6-2.6h25.9c1.4,0,2.6,1.2,2.6,2.6v116.4C147.5,164.3,146.3,165.5,144.9,165.5z"/>
				</g>
			</g>
		</g>
	</g>
	<g>
		<g>
			<g>
				<g>
					<path class="st0" d="M55.1,109.2c-1.4,0-2.6-1.2-2.6-2.6V46.5c0-1.4,1.2-2.6,2.6-2.6h25c1.4,0,2.6,1.2,2.6,2.6
						s-1.2,2.6-2.6,2.6H57.7v57.5C57.7,108.1,56.6,109.2,55.1,109.2z"/>
				</g>
			</g>
		</g>
	</g>
	<g>
		<g>
			<g>
				<g>
					<path class="st0" d="M55.1,118.7c-0.7,0-1.4-0.3-1.9-0.8s-0.8-1.2-0.8-1.9c0-0.7,0.3-1.4,0.8-1.8c1-1,2.8-1,3.7,0
						c0.5,0.5,0.8,1.2,0.8,1.8c0,0.7-0.3,1.4-0.8,1.9C56.5,118.4,55.8,118.7,55.1,118.7z"/>
				</g>
			</g>
		</g>
	</g>
	<g>
		<g>
			<g>
				<g>
					<path class="st0" d="M119,57H81c-1.4,0-2.6-1.2-2.6-2.6V37.1c0-1.4,1.2-2.6,2.6-2.6h38c1.4,0,2.6,1.2,2.6,2.6v17.3
						C121.6,55.8,120.4,57,119,57z M83.7,51.7h32.7v-12H83.7V51.7z"/>
				</g>
			</g>
		</g>
	</g>
	<g>
		<g>
			<g>
				<g>
					<path class="st0" d="M127.3,98.7H72.7c-1.4,0-2.6-1.2-2.6-2.6s1.2-2.6,2.6-2.6h54.7c1.4,0,2.6,1.2,2.6,2.6
						C130,97.6,128.8,98.7,127.3,98.7z"/>
				</g>
			</g>
		</g>
	</g>
	<g>
		<g>
			<path class="st0" d="M123.6,131.6c-4.5,1.6-16.9,2.8-37,3.7c2.4,6.7,7.9,9.9,16.5,9.9c3.9,0,7.9-0.9,11.9-2.7
				c1.1,1.4,1.7,3.3,2.2,5.8c-4.6,2.7-9.4,4-14.3,4c-8-0.1-14.3-2.2-18.9-6.2c-4-3.9-5.9-8.9-5.9-15c0-6.7,1.6-12.1,5.1-16.3
				c4.7-5.5,10.8-8.3,18-8.3c6.9,0,12.3,1.9,16.4,5.7c4.3,4.3,6.6,9.6,6.7,15.9C124.1,130.3,123.9,131.5,123.6,131.6z M113.6,119
				c-2.8-3.7-7-5.6-12.5-5.6c-4.1,0-7.8,1.6-10.9,4.8c-2.6,2.7-4,6.2-4.3,10.8c3.6-0.2,13.6-1.1,30.2-2.5
				C116,124,115.2,121.4,113.6,119z"/>
		</g>
	</g>
</g>
</svg>
