<?xml version="1.0" encoding="utf-8"?>
<!-- Generator: Adobe Illustrator 23.0.0, SVG Export Plug-In . SVG Version: 6.00 Build 0)  -->
<svg version="1.1" id="圖層_1" xmlns="http://www.w3.org/2000/svg" xmlns:xlink="http://www.w3.org/1999/xlink" x="0px" y="0px"
	 viewBox="0 0 200 200" style="enable-background:new 0 0 200 200;" xml:space="preserve">
<style type="text/css">
	.st0{fill:#FFFFFF;}
</style>
<g>
	<g>
		<g>
			<path class="st0" d="M64.7,122.7h-7.1c-1.5,0-2.7-1.2-2.7-2.7v-3.8c-0.8-0.3-1.7-0.6-2.5-1l-2.6,2.7c-0.5,0.5-1.2,0.8-1.9,0.8
				l0,0c-0.7,0-1.4-0.3-1.9-0.8l-5-5c-1-1.1-1-2.8,0-3.8l2.7-2.7c-0.4-0.8-0.7-1.6-1-2.5H39c-1.5,0-2.7-1.2-2.7-2.7v-7.1
				c0-1.5,1.2-2.7,2.7-2.7h3.7c0.3-0.9,0.6-1.7,1-2.5L41,86.2c-1-1.1-1-2.8,0-3.8l5-5c1-1,2.8-1,3.8,0l2.6,2.7
				c0.8-0.4,1.6-0.7,2.5-1v-3.8c0-1.5,1.2-2.7,2.7-2.7h7.1c1.5,0,2.7,1.2,2.7,2.7V79c0.8,0.3,1.7,0.6,2.5,1l2.6-2.7c1-1,2.8-1,3.8,0
				l5,5c1,1.1,1,2.8,0,3.8l-2.7,2.7c0.4,0.8,0.7,1.6,1,2.5h3.7c1.5,0,2.7,1.2,2.7,2.7v7.1c0,1.5-1.2,2.7-2.7,2.7h-3.7
				c-0.3,0.9-0.6,1.7-1,2.5l2.7,2.7c1,1.1,1,2.8,0,3.8l-5,5c-0.5,0.5-1.2,0.8-1.9,0.8l0,0c-0.7,0-1.4-0.3-1.9-0.8l-2.6-2.7
				c-0.8,0.4-1.6,0.7-2.5,1v3.8C67.4,121.5,66.2,122.7,64.7,122.7z M60.3,117.3H62v-3.1c0-1.3,0.9-2.4,2.1-2.6c1.7-0.4,3.3-1,4.7-2
				c1.1-0.7,2.5-0.5,3.4,0.4l2.2,2.2l1.2-1.2l-2.2-2.2c-0.9-0.9-1-2.3-0.4-3.4c0.9-1.5,1.6-3.1,2-4.7c0.3-1.2,1.4-2.1,2.6-2.1h3.1
				v-1.7h-3.1c-1.3,0-2.4-0.9-2.6-2.1c-0.4-1.7-1-3.3-2-4.7c-0.7-1.1-0.5-2.5,0.4-3.4l2.2-2.2l-1.2-1.2l-2.2,2.2
				c-0.9,0.9-2.3,1.1-3.4,0.4c-1.5-0.9-3-1.6-4.7-2c-1.2-0.3-2.1-1.4-2.1-2.6v-3.1h-1.7v3.1c0,1.3-0.9,2.4-2.1,2.6
				c-1.7,0.4-3.3,1-4.7,2c-1.1,0.7-2.5,0.6-3.4-0.4l-2.2-2.2l-1.2,1.2l2.2,2.2c0.9,0.9,1,2.3,0.4,3.4c-0.9,1.5-1.6,3.1-2,4.7
				c-0.3,1.2-1.4,2.1-2.6,2.1h-3.1v1.7h3.1c1.3,0,2.4,0.9,2.6,2.1c0.4,1.7,1,3.3,2,4.7c0.7,1.1,0.5,2.5-0.4,3.4l-2.2,2.2l1.2,1.2
				l2.2-2.2c0.9-0.9,2.3-1.1,3.4-0.4c1.5,0.9,3,1.6,4.7,2c1.2,0.3,2.1,1.4,2.1,2.6V117.3z M61.2,106.5c-4.9,0-8.9-4-8.9-8.9
				s4-8.9,8.9-8.9s8.9,4,8.9,8.9C70,102.5,66.1,106.5,61.2,106.5z M61.2,94.1c-1.9,0-3.5,1.6-3.5,3.5s1.6,3.5,3.5,3.5
				s3.5-1.6,3.5-3.5C64.6,95.7,63.1,94.1,61.2,94.1z"/>
		</g>
	</g>
	<g>
		<g>
			<path class="st0" d="M161.1,167.5H61.2c-1.5,0-2.7-1.2-2.7-2.7v-42.9c0-1.5,1.2-2.7,2.7-2.7s2.7,1.2,2.7,2.7v40.2h94.5v-18.5
				c0-1.5,1.2-2.7,2.7-2.7s2.7,1.2,2.7,2.7v21.2C163.8,166.3,162.6,167.5,161.1,167.5z"/>
		</g>
	</g>
	<g>
		<g>
			<path class="st0" d="M161.1,133.5c-0.7,0-1.4-0.3-1.9-0.8s-0.8-1.2-0.8-1.9s0.3-1.4,0.8-1.9c1-1,2.8-1,3.8,0
				c0.5,0.5,0.8,1.2,0.8,1.9s-0.3,1.4-0.8,1.9C162.5,133.2,161.8,133.5,161.1,133.5z"/>
		</g>
	</g>
	<g>
		<g>
			<path class="st0" d="M161.1,119.2c-1.5,0-2.7-1.2-2.7-2.7V76.4L119,37.9H63.9v37.3c0,1.5-1.2,2.7-2.7,2.7s-2.7-1.2-2.7-2.7v-40
				c0-1.5,1.2-2.7,2.7-2.7h58.9c0.7,0,1.4,0.3,1.9,0.8l41,40c0.5,0.5,0.8,1.2,0.8,1.9v41.3C163.8,118,162.6,119.2,161.1,119.2z"/>
		</g>
	</g>
	<g>
		<g>
			<path class="st0" d="M120.1,77.9c-1.5,0-2.7-1.2-2.7-2.7v-40c0-1.5,1.2-2.7,2.7-2.7s2.7,1.2,2.7,2.7v40
				C122.8,76.7,121.6,77.9,120.1,77.9z"/>
		</g>
	</g>
	<g>
		<g>
			<path class="st0" d="M161.1,77.9h-41c-1.5,0-2.7-1.2-2.7-2.7s1.2-2.7,2.7-2.7h41c1.5,0,2.7,1.2,2.7,2.7S162.6,77.9,161.1,77.9z"
				/>
		</g>
	</g>
</g>
</svg>
