<?xml version="1.0" encoding="utf-8"?>
<!-- Generator: Adobe Illustrator 23.0.0, SVG Export Plug-In . SVG Version: 6.00 Build 0)  -->
<svg version="1.1" id="圖層_1" xmlns="http://www.w3.org/2000/svg" xmlns:xlink="http://www.w3.org/1999/xlink" x="0px" y="0px"
	 viewBox="0 0 200 200" style="enable-background:new 0 0 200 200;" xml:space="preserve">
<style type="text/css">
	.st0{fill:#FFC7B3;}
</style>
<g>
	<g>
		<g>
			<g>
				<path class="st0" d="M72.6,132.8L72.6,132.8c-0.9,0-1.7-0.2-2.6-0.5c-7.2-2.9-11.8-9.7-11.8-17.4c0-7.7,4.6-14.5,11.8-17.4
					c0.8-0.3,1.7-0.5,2.6-0.5c3.9,0,7.1,3.2,7.1,7.2v21.3c0,1.9-0.8,3.7-2.1,5.1C76.2,132,74.4,132.8,72.6,132.8z M72.6,102
					c-0.2,0-0.5,0-0.7,0.1c-5.3,2.1-8.7,7.1-8.7,12.8c0,5.6,3.4,10.6,8.7,12.8c0.7,0.3,1.6,0.1,2.2-0.5c0.4-0.4,0.7-1,0.7-1.6v-21.3
					C74.7,102.9,73.6,102,72.6,102z"/>
			</g>
		</g>
		<g>
			<g>
				<path class="st0" d="M128.3,132.8L128.3,132.8c-3.9,0-7.1-3.2-7.1-7.2v-21.3c0-4,3.2-7.2,7.1-7.2c0.9,0,1.7,0.2,2.6,0.5
					c7.2,2.9,11.8,9.7,11.8,17.4c0,7.7-4.6,14.5-11.8,17.4C130,132.6,129.2,132.8,128.3,132.8z M128.3,102c-1,0-2.1,0.9-2.1,2.2
					v21.3c0,1.6,1.6,2.6,2.9,2.1c5.3-2.1,8.7-7.2,8.7-12.8c0-5.6-3.4-10.6-8.7-12.8C128.8,102.1,128.5,102,128.3,102z"/>
			</g>
		</g>
		<g>
			<g>
				<path class="st0" d="M58.5,117.4c-0.8,0-1.6-0.4-2.1-1.1c-5.3-8.2-8.1-17.6-8.1-27.3c0-13.9,5.5-26.8,15.6-36.5
					c10.3-9.9,23.8-15,38.2-14.4c5.2,0.2,10.3,1.2,15.2,3c1.3,0.5,2,1.9,1.5,3.2c-0.5,1.3-1.9,2-3.2,1.5c-4.4-1.6-9-2.5-13.7-2.7
					c-13.1-0.5-25.3,4.1-34.6,13C58.3,64.8,53.3,76.5,53.3,89c0,8.7,2.5,17.2,7.3,24.6c0.7,1.1,0.4,2.7-0.7,3.4
					C59.5,117.3,59,117.4,58.5,117.4z"/>
			</g>
		</g>
		<g>
			<g>
				<path class="st0" d="M125.5,50.3c-0.6,0-1.3-0.3-1.8-0.7c-0.4-0.5-0.7-1.1-0.7-1.8c0-0.6,0.3-1.3,0.7-1.8c0.9-0.9,2.6-0.9,3.5,0
					c0.5,0.4,0.7,1.1,0.7,1.7c0,0.7-0.2,1.3-0.7,1.8C126.8,50.1,126.2,50.3,125.5,50.3z"/>
			</g>
		</g>
		<g>
			<g>
				<path class="st0" d="M141.5,117.4c-0.5,0-0.9-0.1-1.3-0.4c-1.1-0.7-1.5-2.3-0.7-3.4c5.3-8.2,7.8-17.6,7.2-27.2
					c-0.6-11.3-5.6-21.9-13.9-30c-1-1-1-2.5,0-3.5c1-1,2.5-1,3.5,0c9.2,9,14.7,20.8,15.4,33.3c0.6,10.7-2.2,21.1-8,30.2
					C143.1,117,142.3,117.4,141.5,117.4z"/>
			</g>
		</g>
		<g>
			<g>
				<path class="st0" d="M92.2,153.9c-10.4,0-24.9-3.3-31.9-10.4c-3-3.1-4.5-6.6-4.5-10.6l0.3-18c0-1.4,1.1-2.4,2.5-2.4c0,0,0,0,0,0
					c1.4,0,2.5,1.1,2.4,2.5l-0.3,18c0,2.6,1,4.9,3.1,7c5.8,5.9,18.7,8.9,28.4,8.9c1.4,0,2.5,1.1,2.5,2.5S93.6,153.9,92.2,153.9z"/>
			</g>
		</g>
		<g>
			<g>
				<path class="st0" d="M100.3,162c-5.8,0-10.6-4.7-10.6-10.6c0-5.8,4.7-10.6,10.6-10.6c5.8,0,10.6,4.7,10.6,10.6
					C110.9,157.2,106.1,162,100.3,162z M100.3,145.8c-3.1,0-5.6,2.5-5.6,5.6c0,3.1,2.5,5.6,5.6,5.6s5.6-2.5,5.6-5.6
					C105.9,148.3,103.4,145.8,100.3,145.8z"/>
			</g>
		</g>
	</g>
	<g>
		<g>
			<g>
				<path class="st0" d="M96.8,105.3c-4.5-1.3-8.2-4.3-10.4-8.5c-4.6-8.5-1.4-19.1,7-23.7c4.1-2.2,8.8-2.7,13.3-1.4
					c4.5,1.3,8.2,4.3,10.4,8.5c2.2,4.1,2.7,8.8,1.4,13.3c-1.3,4.5-4.3,8.2-8.4,10.4C106,106.2,101.3,106.6,96.8,105.3z M105.1,77.2
					c-3-0.9-6.2-0.6-9,0.9c-5.7,3.1-7.8,10.3-4.7,16c1.5,2.8,4,4.8,7,5.7c3,0.9,6.2,0.6,9-0.9c2.8-1.5,4.8-4,5.7-7
					c0.9-3,0.6-6.2-0.9-9C110.6,80.1,108.1,78.1,105.1,77.2z"/>
			</g>
		</g>
		<g>
			<g>
				<path class="st0" d="M91.5,123c-1.5-0.4-2.4-2-1.9-3.5l5.2-17.7c0.4-1.5,2-2.4,3.5-1.9l0,0c1.5,0.4,2.4,2,1.9,3.5l-5.2,17.7
					C94.6,122.6,93,123.4,91.5,123L91.5,123z"/>
			</g>
		</g>
	</g>
</g>
</svg>
