<?xml version="1.0" encoding="utf-8"?>
<!-- Generator: Adobe Illustrator 23.0.0, SVG Export Plug-In . SVG Version: 6.00 Build 0)  -->
<svg version="1.1" id="圖層_1" xmlns="http://www.w3.org/2000/svg" xmlns:xlink="http://www.w3.org/1999/xlink" x="0px" y="0px"
	 viewBox="0 0 90 60" style="enable-background:new 0 0 90 60;" xml:space="preserve">
<style type="text/css">
	.st0{fill:none;}
	.st1{fill:#FFC7B3;}
	.st2{fill:none;stroke:#FFC7B3;stroke-width:2;stroke-miterlimit:10;}
</style>
<rect class="st0" width="90" height="60"/>
<g>
	<g>
		<path class="st1" d="M68.7,26.8h6.1c-0.6-6-3-11.5-6.6-16L63.8,15C66.5,18.6,68.2,22.5,68.7,26.8z"/>
	</g>
	<g>
		<path class="st1" d="M59.7,11l4.2-4.4C59.5,3,54,0.6,48,0v6.1C52.4,6.6,56.2,8.4,59.7,11z"/>
	</g>
	<g>
		<path class="st1" d="M41.9,6.1V0c-6,0.6-11.6,3-16.1,6.6l4.4,4.4C33.6,8.4,37.5,6.6,41.9,6.1z"/>
	</g>
	<g>
		<path class="st1" d="M44.9,60C29.4,60,16.7,48.1,15,33.2h6.1C22.6,45,32.9,54,45,54s22.4-9.2,23.9-20.8H75
			C73.2,48.1,60.5,60,44.9,60z"/>
	</g>
	<path class="st1" d="M90,0.2c-6.8,0-12.1,5.5-12.1,12.2c0,0,12.4,18.3,0,35.6C74,53.2,83.4,60,90,60"/>
	<g>
		<circle class="st1" cx="44.2" cy="29.2" r="11.7"/>
		<path class="st1" d="M49.5,24.8c0,0,8.7,1.3,12.3-8.7c0,0-1.9,13.8-10.2,17.3L49.5,24.8z"/>
	</g>
</g>
<line class="st2" x1="0" y1="33" x2="21" y2="33"/>
</svg>
