<?xml version="1.0" encoding="utf-8"?>
<!-- Generator: Adobe Illustrator 23.0.0, SVG Export Plug-In . SVG Version: 6.00 Build 0)  -->
<svg version="1.1" id="圖層_1" xmlns="http://www.w3.org/2000/svg" xmlns:xlink="http://www.w3.org/1999/xlink" x="0px" y="0px"
	 viewBox="0 0 200 200" style="enable-background:new 0 0 200 200;" xml:space="preserve">
<style type="text/css">
	.st0{fill:#FFFFFF;}
</style>
<g>
	<g>
		<g>
			<g>
				<path class="st0" d="M66.4,150.4c-0.1,0-0.2,0-0.3,0c-0.8-0.1-1.4-0.5-1.9-1.1l-17.9-24.5c-0.8-1.1-0.7-2.6,0.3-3.6
					c0.9-0.9,23.1-23.1,44.4-14.5c8.3,3.3,17.6,5.1,29.5,5.6c10.3,0.4,16,3.4,16.9,8.7c0.1,0.6,0.4,4.2-2.7,7.5
					c-3.4,3.6-9.3,5.1-17.7,4.6c-12.6-0.5-27.6,0-29.8,1.6c-1.1,1.1-2.8,1-3.9-0.1s-1-2.9,0.1-3.9c3.8-3.7,22.9-3.5,33.9-3.1
					c8.2,0.5,11.7-1.2,13.3-2.8c1.4-1.4,1.3-3,1.3-3c-0.4-2.1-4.7-3.7-11.7-4c-12.4-0.5-22.6-2.5-31.4-6c-14.9-6-31.4,7-36.7,11.6
					l15,20.6c4.7-2.3,16.6-6.2,41.8-4.5c2.9,0.2,5.8,0.3,8.5,0.2c1.6-0.1,2.8,1.2,2.8,2.7s-1.2,2.8-2.7,2.8c-2.9,0-5.9,0-9-0.3
					c-31-2.2-40.3,4.7-40.4,4.7C67.6,150.2,67,150.4,66.4,150.4z"/>
			</g>
		</g>
		<g>
			<g>
				<path class="st0" d="M125.4,144.8c-0.7,0-1.4-0.3-2-0.8c-0.5-0.5-0.8-1.2-0.8-1.9s0.3-1.5,0.8-2c1-1,2.9-1,3.9,0
					c0.5,0.5,0.8,1.2,0.8,2c0,0.7-0.3,1.4-0.8,1.9C126.9,144.5,126.2,144.8,125.4,144.8z"/>
			</g>
		</g>
		<g>
			<g>
				<path class="st0" d="M133.4,143.5c-1.3,0-2.4-0.9-2.7-2.1c-0.3-1.5,0.6-3,2.1-3.3c11.9-2.8,21.3-8.9,28.7-18.5
					c1.7-2.3,2.7-4.9,2.8-7.5c-1.6,0.1-6.6,0.7-20.1,9.2c-1.3,0.8-3,0.4-3.8-0.9s-0.4-3,0.9-3.8c20.1-12.6,24.6-10.2,26.1-9.4
					c1.5,0.8,2.4,2.3,2.4,4.1c0.1,4.1-1.3,8.2-4,11.7c-8.2,10.7-18.7,17.4-31.8,20.5C133.8,143.4,133.6,143.5,133.4,143.5z"/>
			</g>
		</g>
		<g>
			<g>
				<path class="st0" d="M48.5,162.3c-0.2,0-0.4,0-0.6-0.1c-0.7-0.2-1.4-0.7-1.8-1.3l-15.6-27.3c-0.8-1.3-0.3-3,1-3.8l15.6-9
					c1.2-0.7,2.8-0.4,3.6,0.8l17.9,24.5c0.4,0.6,0.6,1.4,0.5,2.1c-0.1,0.7-0.6,1.4-1.2,1.8L50,161.9
					C49.6,162.2,49.1,162.3,48.5,162.3z M36.7,133.2l12.8,22.4l13-8.6l-14.7-20.2L36.7,133.2z"/>
			</g>
		</g>
	</g>
	<g>
		<g>
			<g>
				<path class="st0" d="M134.7,88.8c-1.3,0-2.5-1-2.7-2.3c-0.3-1.5,0.8-2.9,2.3-3.2c4.6-0.8,7.9-4.6,7.9-9.2c0-5.1-4.3-9.3-9.5-9.3
					h-1.9c-1.5,0-2.8-1.2-2.8-2.8c0-1.5,1.2-2.8,2.8-2.8h1.9c8.3,0,15,6.7,15,14.8c0,7.3-5.3,13.4-12.5,14.6
					C135,88.8,134.8,88.8,134.7,88.8z"/>
			</g>
		</g>
		<g>
			<g>
				<path class="st0" d="M121.6,89h-15.3c-1.5,0-2.8-1.2-2.8-2.8c0-1.5,1.2-2.8,2.8-2.8h15.3c1.5,0,2.8,1.2,2.8,2.8
					S123.1,89,121.6,89z"/>
			</g>
		</g>
		<g>
			<g>
				<path class="st0" d="M92,89H78.4c-1.5,0-2.8-1.2-2.8-2.8c0-1.5,1.2-2.8,2.8-2.8H92c1.5,0,2.8,1.2,2.8,2.8S93.5,89,92,89z"/>
			</g>
		</g>
		<g>
			<g>
				<path class="st0" d="M64.8,88.7c-0.3,0-0.5,0-0.8-0.1L62,88c-5.9-2.4-9.6-7.8-9.6-13.8c0-8.2,6.8-14.8,15-14.8h1.9
					c1.5,0,2.8,1.2,2.8,2.8c0,1.5-1.2,2.8-2.8,2.8h-1.9c-5.2,0-9.5,4.2-9.5,9.3c0,3.8,2.3,7.2,5.9,8.6l1.8,0.5
					c1.5,0.4,2.3,2,1.9,3.4C67.1,88,66,88.7,64.8,88.7z"/>
			</g>
		</g>
		<g>
			<g>
				<path class="st0" d="M69.3,64.9c-1.5,0-2.8-1.2-2.8-2.8c0-5.4,1.3-10,3.9-13.6c0.9-1.2,2.6-1.5,3.9-0.6c1.2,0.9,1.5,2.6,0.6,3.9
					C73,54.5,72,58,72,62.2C72.1,63.6,70.8,64.9,69.3,64.9z"/>
			</g>
		</g>
		<g>
			<g>
				<path class="st0" d="M130.7,64.9c-1.5,0-2.8-1.2-2.8-2.8c0-12.7-9.1-18.9-27.9-18.9c-7.2,0-13.1,0.9-17.5,2.8
					c-1.4,0.6-3-0.1-3.6-1.5s0.1-3,1.5-3.6c5.1-2.1,11.7-3.2,19.6-3.2c27.7,0,33.5,13.3,33.5,24.4C133.5,63.6,132.2,64.9,130.7,64.9
					z"/>
			</g>
		</g>
		<g>
			<g>
				<path class="st0" d="M100,64.9c-1.5,0-2.8-1.2-2.8-2.8V40.4c0-1.5,1.2-2.8,2.8-2.8c1.5,0,2.8,1.2,2.8,2.8v21.7
					C102.8,63.6,101.5,64.9,100,64.9z"/>
			</g>
		</g>
		<g>
			<g>
				<path class="st0" d="M100,64.9H84.3c-1.5,0-2.8-1.2-2.8-2.8c0-1.5,1.2-2.8,2.8-2.8H100c1.5,0,2.8,1.2,2.8,2.8
					C102.8,63.6,101.5,64.9,100,64.9z"/>
			</g>
		</g>
		<g>
			<g>
				<path class="st0" d="M115.7,64.9H100c-1.5,0-2.8-1.2-2.8-2.8c0-1.5,1.2-2.8,2.8-2.8h15.7c1.5,0,2.8,1.2,2.8,2.8
					C118.5,63.6,117.2,64.9,115.7,64.9z"/>
			</g>
		</g>
		<g>
			<g>
				<g>
					<path class="st0" d="M128.2,95.4c-5.1,0-9.3-4.1-9.3-9.2s4.2-9.2,9.3-9.2s9.3,4.1,9.3,9.2S133.3,95.4,128.2,95.4z M128.2,82.5
						c-2.1,0-3.8,1.7-3.8,3.7s1.7,3.7,3.8,3.7s3.8-1.7,3.8-3.7S130.2,82.5,128.2,82.5z"/>
				</g>
			</g>
			<g>
				<g>
					<path class="st0" d="M71.8,95.5L71.8,95.5c-0.5,0-1,0-1.4-0.1c-4.1-0.6-7.4-4-7.8-8.1c-0.1-0.8-0.1-1.5,0-2.3
						c0.7-4.8,5.1-8.4,10.2-7.9c4.2,0.4,7.7,3.6,8.3,7.7c0.4,2.7-0.3,5.4-2.1,7.4C77.2,94.3,74.6,95.5,71.8,95.5z M71.8,82.5
						c-1.9,0-3.5,1.4-3.8,3.2c0,0.3,0,0.6,0,0.9c0.2,1.6,1.5,3,3.2,3.2c0.2,0,0.4,0,0.6,0l0,0c1.1,0,2.2-0.5,2.9-1.3
						c0.7-0.8,1-1.9,0.8-2.9c-0.2-1.6-1.7-2.9-3.4-3.1C72.1,82.6,72,82.5,71.8,82.5z"/>
				</g>
			</g>
		</g>
	</g>
</g>
</svg>
