<?xml version="1.0" encoding="utf-8"?>
<!-- Generator: Adobe Illustrator 23.0.0, SVG Export Plug-In . SVG Version: 6.00 Build 0)  -->
<svg version="1.1" id="圖層_1" xmlns="http://www.w3.org/2000/svg" xmlns:xlink="http://www.w3.org/1999/xlink" x="0px" y="0px"
	 viewBox="0 0 200 200" style="enable-background:new 0 0 200 200;" xml:space="preserve">
<style type="text/css">
	.st0{fill:#FFC7B3;}
</style>
<g>
	<g>
		<g>
			<g>
				<path class="st0" d="M122.9,159c-22.9,0-41.5-18.8-41.5-42c0-23.1,18.6-42,41.5-42s41.5,18.8,41.5,42
					C164.4,140.1,145.8,159,122.9,159z M122.9,81c-19.6,0-35.5,16.1-35.5,36s15.9,36,35.5,36s35.5-16.1,35.5-36S142.5,81,122.9,81z"
					/>
			</g>
		</g>
		<g>
			<g>
				<g>
					<path class="st0" d="M122.9,120c-7.2,0-13-5.9-13-13.2c0-7.3,5.8-13.2,13-13.2c7.2,0,13,5.9,13,13.2c0,1.7-1.3,3-3,3
						c-1.7,0-3-1.3-3-3c0-3.9-3.2-7.2-7-7.2c-3.9,0-7,3.2-7,7.2c0,3.9,3.2,7.2,7,7.2c1.7,0,3,1.3,3,3S124.6,120,122.9,120z"/>
				</g>
			</g>
			<g>
				<g>
					<path class="st0" d="M122.9,140.3c-7.2,0-13-5.9-13-13.2c0-1.7,1.3-3,3-3c1.7,0,3,1.3,3,3c0,3.9,3.2,7.2,7,7.2
						c3.9,0,7-3.2,7-7.2c0-3.9-3.2-7.2-7-7.2c-1.7,0-3-1.3-3-3s1.3-3,3-3c7.2,0,13,5.9,13,13.2C136,134.4,130.1,140.3,122.9,140.3z"
						/>
				</g>
			</g>
			<g>
				<g>
					<path class="st0" d="M122.9,99.7c-1.7,0-3-1.3-3-3V92c0-1.7,1.3-3,3-3c1.7,0,3,1.3,3,3v4.7C125.9,98.4,124.6,99.7,122.9,99.7z"
						/>
				</g>
			</g>
			<g>
				<g>
					<path class="st0" d="M122.9,145c-1.7,0-3-1.3-3-3v-4.7c0-1.7,1.3-3,3-3c1.7,0,3,1.3,3,3v4.7C125.9,143.7,124.6,145,122.9,145z"
						/>
				</g>
			</g>
		</g>
	</g>
	<g>
		<g>
			<g>
				<path class="st0" d="M143.9,159H38.6c-1.7,0-3-1.3-3-3v-37.3c0-1.7,1.3-3,3-3h44.9c1.7,0,3,1.3,3,3c0,1.7-1.3,3-3,3H41.6V153
					h102.3c1.7,0,3,1.3,3,3C146.9,157.6,145.6,159,143.9,159z"/>
			</g>
		</g>
		<g>
			<g>
				<path class="st0" d="M83.5,121.7H38.6c-1.7,0-3-1.3-3-3V81.3c0-1.7,1.3-3,3-3h89.9c1.7,0-19,1.3-19,3c0,1.7-5.3,3-7,3H41.6v31.3
					h41.9c1.7,0,3,1.3,3,3C86.5,120.3,85.1,121.7,83.5,121.7z"/>
			</g>
		</g>
		<g>
			<g>
				<path class="st0" d="M133.8,80.6c-1.7,0-3-1.3-3-3V47H83.5c-1.7,0-3-1.3-3-3s1.3-3,3-3h50.2c1.7,0,3,1.3,3,3v33.6
					C136.8,79.2,135.4,80.6,133.8,80.6z"/>
			</g>
		</g>
		<g>
			<g>
				<path class="st0" d="M70.6,47c-0.8,0-1.6-0.3-2.1-0.9c-0.5-0.5-0.9-1.3-0.9-2.1c0-0.8,0.3-1.6,0.9-2.1c1.1-1.1,3.1-1.1,4.2,0
					c0.6,0.6,0.9,1.3,0.9,2.1c0,0.8-0.3,1.6-0.9,2.1C72.2,46.7,71.4,47,70.6,47z"/>
			</g>
		</g>
		<g>
			<g>
				<path class="st0" d="M106,84.3H38.6c-1.7,0-3-1.3-3-3V44c0-1.7,1.3-3,3-3h17.8c1.7,0,3,1.3,3,3s-1.3,3-3,3H41.6v31.3H117
					c1.7,0-6,1.3-6,3C110.9,83,104.9,84.3,106,84.3z"/>
			</g>
		</g>
	</g>
</g>
</svg>
