<?xml version="1.0" encoding="utf-8"?>
<!-- Generator: Adobe Illustrator 23.0.0, SVG Export Plug-In . SVG Version: 6.00 Build 0)  -->
<svg version="1.1" id="圖層_1" xmlns="http://www.w3.org/2000/svg" xmlns:xlink="http://www.w3.org/1999/xlink" x="0px" y="0px"
	 viewBox="0 0 90 60" style="enable-background:new 0 0 90 60;" xml:space="preserve">
<style type="text/css">
	.st0{fill:none;}
	.st1{fill:#FFC7B3;}
	.st2{fill:none;stroke:#FFC7B3;stroke-width:2;stroke-miterlimit:10;}
</style>
<rect class="st0" width="90" height="60"/>
<g>
	<path class="st1" d="M89.9,0.2c-6.8,0-12.1,5.5-12.1,12.2c0,0,12.4,18.3,0,35.6c-3.9,5.4,5.5,12.1,12.1,12.1"/>
	<g>
		<g>
			<path class="st1" d="M30.1,11l-4.2-4.4c4.5-3.6,9.9-6,16-6.6v6.1C37.5,6.6,33.6,8.4,30.1,11z"/>
		</g>
		<g>
			<path class="st1" d="M48,6.1V0c6,0.6,11.5,3,16,6.6L59.7,11C56.2,8.4,52.4,6.6,48,6.1z"/>
		</g>
		<g>
			<path class="st1" d="M68.2,11c3.6,4.5,6,10,6.6,16h-6.1c-0.6-4.3-2.2-8.4-4.8-11.7L68.2,11z"/>
		</g>
		<g>
			<path class="st1" d="M44.9,60c15.4,0,28.4-11.9,29.9-26.8h-6.2C67.1,45,56.9,54,44.7,54s-22.4-9.2-23.9-20.8H15
				C16.6,48.1,29.4,60,44.9,60z"/>
		</g>
		<g>
			<path class="st1" d="M25.4,29.7c0,0,17.7,23.2,40.2-3.4C65.7,26.1,43.4,35.6,25.4,29.7z"/>
			<path class="st1" d="M51,31.5c0,0,8.4-1.7,10.8-12.6C61.8,18.9,66.5,30.4,51,31.5z"/>
			<path class="st1" d="M47.9,33.6c0,0,7.2-2.7,7.8-12.9C55.6,20.7,61.5,30.4,47.9,33.6z"/>
			<path class="st1" d="M45.8,34.9c0,0,5.5-3.3,4.4-11.8C50.2,23.1,56.5,30.3,45.8,34.9z"/>
		</g>
	</g>
</g>
<line class="st2" x1="21" y1="33" x2="0" y2="33"/>
</svg>
