<?xml version="1.0" encoding="utf-8"?>
<!-- Generator: Adobe Illustrator 23.0.0, SVG Export Plug-In . SVG Version: 6.00 Build 0)  -->
<svg version="1.1" id="圖層_1" xmlns="http://www.w3.org/2000/svg" xmlns:xlink="http://www.w3.org/1999/xlink" x="0px" y="0px"
	 viewBox="0 0 1800 1750" style="enable-background:new 0 0 1800 1750;" xml:space="preserve">
<style type="text/css">
	.st0{fill:none;stroke:#A3A3A3;stroke-width:3;stroke-miterlimit:10;}
	.st1{fill:none;stroke:#A3A3A3;stroke-width:3;stroke-miterlimit:10;stroke-dasharray:14.969,14.969;}
	.st2{fill:#F4F4F4;}
</style>
<g>
	<g>
		<g>
			<g>
				<path class="st0" d="M42,729.2c0.6-0.2,2.6-1.8,5.9-4.6"/>
				<path class="st1" d="M59.2,714.8c78.4-67.7,430.1-356.1,1227.1-501.9"/>
				<path class="st0" d="M1293.6,211.6c2.5-0.4,4.9-0.9,7.4-1.3"/>
			</g>
		</g>
		<g>
			<path class="st2" d="M1743.6,75.7c-3.7,62.4-308.7,113.4-331.5,112c-12.8-0.8-27.1-4.6-26.4-16.3c0.2-3.9,5.1-9.4,13.5-15.7l0,0
				l-18.9-38.8c-2.6-5.3,0.1-11.6,5.6-13.4l3.7-1.2c6.7-2.2,14.1-1.4,20.2,2.3l37.1,22.6c15.5-8,32.9-16.2,51.3-24.3l-71.8-52.9
				c-5.7-4.2-5.1-12.9,1.1-16.3l6.3-3.5c10.6-5.8,23-6.9,34.5-3.2l122.4,40.2c39.7-13.1,75.3-21.5,96.1-20.2
				c5.5,0.3,11.1,0.8,16.4,1.5l-38.6,14.7l-1.7,12.6l59.5-23.2C1736.2,56.7,1744.3,63.4,1743.6,75.7z M1585.9,174.4l43.2,55.4
				c2.6,3.4,7.2,4.6,11.2,3l6.4-2.5c11.6-4.6,19-16.1,18.3-28.6l-2.8-50c-0.2-3.1-3.2-5.2-6.2-4.4l-67.6,19.4
				C1585.1,167.8,1583.8,171.7,1585.9,174.4z"/>
		</g>
	</g>
	<g>
		<path class="st2" d="M818.2,1192.7c-5.7-20.4-23.8-35.3-45.4-35.3c-18.5,0-34.6,11.1-42.3,27.2c-7.7-16.1-23.8-27.2-42.3-27.2
			c-21.5,0-39.7,14.9-45.4,35.3c0,0-13.5,33.1,27.7,74.4c41.2,41.3,59.9,59.8,59.9,59.8s18.7-18.5,59.9-59.8
			C831.7,1225.7,818.2,1192.7,818.2,1192.7z"/>
		<path class="st2" d="M1693.6,943.2c-4.7-16.7-19.6-29-37.2-29c-15.2,0-28.3,9.1-34.7,22.3c-6.3-13.2-19.5-22.3-34.7-22.3
			c-17.7,0-32.5,12.2-37.2,29c0,0-11.1,27.1,22.7,61c33.8,33.9,49.1,49.1,49.1,49.1s15.3-15.2,49.1-49.1
			C1704.7,970.3,1693.6,943.2,1693.6,943.2z"/>
		<path class="st2" d="M280.1,1287.4c-3.7-13.4-15.7-23.2-29.8-23.2c-12.2,0-22.7,7.3-27.8,17.9c-5.1-10.6-15.6-17.9-27.8-17.9
			c-14.2,0-26.1,9.8-29.8,23.2c0,0-8.9,21.7,18.2,48.9s39.4,39.3,39.4,39.3s12.3-12.2,39.4-39.3S280.1,1287.4,280.1,1287.4z"/>
		<g>
			<g>
				<g>
					<path class="st2" d="M935.7,1558.7c12.4,0,22.4,9.1,22.4,20.4c0,11.3-10,20.4-22.4,20.4c-12.4,0-22.4-9.1-22.4-20.4
						C913.3,1567.8,923.3,1558.7,935.7,1558.7z"/>
					<path class="st2" d="M961.1,1652.3l-3.1-35.7l-13.2-18.6h-18.3l-13.2,18.7l-3.1,35.6c0,0.6,0.1,1.2,0.1,1.8
						c0,0.2-0.1,0.5-0.1,0.7v60.2c0,5.3,4.7,9.6,10.5,9.6c5.8,0,10.5-4.3,10.5-9.6v-47.9h8.7v47.9c0,5.3,4.7,9.6,10.5,9.6
						c5.8,0,10.5-4.3,10.5-9.6v-60.2c0-0.3-0.1-0.5-0.1-0.7C961.1,1653.6,961.1,1652.9,961.1,1652.3z"/>
					<g>
						<path class="st2" d="M927.3,1617h-25.6c-1.9,0-3.7-0.6-5.3-1.6l-38-25c-4.5-2.9-5.7-8.9-2.7-13.4c2.9-4.4,8.9-5.7,13.4-2.7
							l35.5,23.4h22.7c5.3,0,9.7,4.3,9.7,9.7C937,1612.7,932.7,1617,927.3,1617z"/>
						<path class="st2" d="M969.6,1617h-25.6c-5.3,0-9.7-4.3-9.7-9.7c0-5.3,4.3-9.7,9.7-9.7h22.6l29.2-20c4.4-3,10.4-1.9,13.4,2.5
							c3,4.4,1.9,10.4-2.5,13.4l-31.7,21.6C973.5,1616.4,971.6,1617,969.6,1617z"/>
					</g>
				</g>
			</g>
			<g>
				<path class="st2" d="M768.2,1390.3c20.8,0,37.7,16.9,37.7,37.7c0,20.8-16.9,37.7-37.7,37.7s-37.7-16.9-37.7-37.7
					C730.6,1407.2,747.4,1390.3,768.2,1390.3z"/>
				<g>
					<path class="st2" d="M768.2,1465.7c-23.7,0-42.8,17.5-42.8,39v72.3c0,1.1-0.1,2.1,0,3.1c0,0.4,0,0.8,0,1.2V1708
						c0,7.7,5.7,14.7,14,16.3c11.4,2.1,21.5-5.7,21.5-15.8v-106.5h14.7l0,106c0,7.7,5.7,14.7,13.9,16.2c11.4,2.2,21.6-5.7,21.6-15.8
						v-127.1c0-0.4,0-0.8,0-1.2c0.1-1,0-2.1,0-3.1v-72.3C811,1483.2,791.9,1465.7,768.2,1465.7z"/>
				</g>
			</g>
			<g>
				<g>
					<path class="st2" d="M866.1,1594.6c-3.7,0-7.4-1.6-9.9-4.8l-70.7-89.9c-4.3-5.4-3.3-13.3,2.1-17.6c5.4-4.3,13.3-3.3,17.6,2.1
						l70.7,89.9c4.3,5.4,3.3,13.3-2.1,17.6C871.6,1593.7,868.8,1594.6,866.1,1594.6z"/>
				</g>
				<g>
					<path class="st2" d="M670.3,1594.6c-2.7,0-5.4-0.9-7.7-2.7c-5.4-4.3-6.4-12.1-2.1-17.6l70.7-89.9c4.3-5.4,12.2-6.4,17.6-2.1
						c5.4,4.3,6.4,12.1,2.1,17.6l-70.7,89.9C677.7,1593,674,1594.6,670.3,1594.6z"/>
				</g>
			</g>
		</g>
		<g>
			<g>
				<g>
					<g>
						<path class="st2" d="M1102.9,1474.8c18.9,0,34.2-15.3,34.2-34.2c0-18.9-15.3-34.2-34.2-34.2c-18.9,0-34.2,15.3-34.2,34.2
							C1068.7,1459.5,1084,1474.8,1102.9,1474.8z"/>
						<path class="st2" d="M1069.7,1628.4v84.8c0,6.4,5.6,11.5,12.6,11.5c7,0,12.6-5.2,12.6-11.5v-84.8h6.2h3.4h6.2v84.8
							c0,6.4,5.7,11.5,12.6,11.5c7,0,12.6-5.2,12.6-11.5v-84.8c0.2,0,0.3,0,0.5,0h-67.4C1069.4,1628.4,1069.5,1628.4,1069.7,1628.4z
							"/>
						<g>
							<path class="st2" d="M1129.3,1525.1c0.5-2,4.2-11.8,8.2-22.7c5.2-14.4-6.7-29.2-23.3-29.2h-22.4c-16.6,0-28.5,14.8-23.3,29.2
								c3.9,11,7.7,20.8,8.2,22.7c5.1,19.6-20.6,48.1-25,103.3h14.9c0.8-0.1,1.8-0.1,2.8,0h67.4c1-0.1,1.9-0.1,2.8,0h14.9
								C1149.8,1573.1,1124.2,1544.6,1129.3,1525.1z"/>
						</g>
					</g>
				</g>
			</g>
			<g>
				<g>
					<path class="st2" d="M1005.7,1594.6c-2.8,0-5.6-0.9-7.9-2.8c-5.4-4.4-6.2-12.3-1.8-17.6l75.4-92.2c4.4-5.3,12.3-6.2,17.6-1.8
						c5.4,4.4,6.2,12.3,1.8,17.6l-75.4,92.2C1012.9,1593,1009.3,1594.6,1005.7,1594.6z"/>
				</g>
				<g>
					<path class="st2" d="M1200.1,1594.6c-3.6,0-7.2-1.6-9.7-4.6l-75.4-92.2c-4.4-5.4-3.6-13.2,1.8-17.6c5.4-4.4,13.2-3.6,17.6,1.8
						l75.4,92.2c4.4,5.4,3.6,13.2-1.8,17.6C1205.7,1593.7,1202.9,1594.6,1200.1,1594.6z"/>
				</g>
			</g>
		</g>
		<g>
			<path class="st2" d="M183.3,1601.6c-34.4,0-62.4,27.9-62.4,62.3c0,0.8,0,1.7,0.1,2.5h0.9c1.3,32.7,28.3,58.9,61.3,58.9
				c33.1,0,60-26.1,61.3-58.9h0.9c0-0.8,0.1-1.7,0.1-2.5C245.5,1629.4,217.7,1601.6,183.3,1601.6z M209.5,1666.4
				c-1.3,13.4-12.5,23.9-26.3,23.9c-13.7,0-25-10.5-26.3-23.9c-0.1-0.8-0.1-1.7-0.1-2.5c0-14.6,11.9-26.4,26.4-26.4
				c14.6,0,26.4,11.8,26.4,26.4C209.7,1664.7,209.6,1665.5,209.5,1666.4z"/>
			<path class="st2" d="M529.4,1601.6c-34.4,0-62.4,27.9-62.4,62.3c0,0.8,0,1.7,0.1,2.5h0.9c1.3,32.7,28.3,58.9,61.3,58.9
				c33.1,0,60-26.1,61.3-58.9h0.9c0-0.8,0.1-1.7,0.1-2.5C591.7,1629.4,563.8,1601.6,529.4,1601.6z M555.7,1666.4
				c-1.3,13.4-12.5,23.9-26.3,23.9c-13.7,0-25-10.5-26.3-23.9c-0.1-0.8-0.1-1.7-0.1-2.5c0-14.6,11.9-26.4,26.4-26.4
				c14.6,0,26.4,11.8,26.4,26.4C555.8,1664.7,555.7,1665.5,555.7,1666.4z"/>
			<path class="st2" d="M635.8,1519.7h-30.7l-71.2-96.3c-9-9.8-21.7-15.3-35.1-15.3H288.1c-13.8,0-26.9,6-36,16.4l-76.7,95.2H86.1
				c-33.7,0-61.1,27.4-61.1,61.1v60.4c0,13.9,11.2,25.1,25.1,25.1h54.8c0-0.8-0.1-1.7-0.1-2.5c0-43.3,35.2-78.4,78.5-78.4
				c43.3,0,78.3,35.1,78.3,78.4c0,0.8,0,1.7-0.1,2.5H451c0-0.8-0.1-1.7-0.1-2.5c0-43.3,35.2-78.4,78.5-78.4
				c43.3,0,78.3,35.1,78.3,78.4c0,0.8,0,1.7-0.1,2.5h39.5c13.9,0,25.1-11.2,25.1-25.1v-85C672.4,1536.1,656,1519.7,635.8,1519.7z
				 M381.2,1519.7H213.6l61.8-78.4c2.9-4.1,7.7-6.5,12.7-6.5h93.1V1519.7z M410.7,1519.7v-84.9h88.8c4.8,0,9.4,2.2,12.4,6l55.9,78.8
				H410.7z"/>
		</g>
		<g>
			<path class="st2" d="M1661.2,1273v-148.5h8.4V1085h-112.9v39.5h8.4v72.1l-117.9-93.8l-327.8,260.7h82.3v361.7H1422v-282h160v282
				h110.8v-361.7h82.3L1661.2,1273z M1309,1586.6h-53.4V1521h53.4V1586.6z M1309,1508.8h-53.4v-65.6h53.4V1508.8z M1375.6,1586.6
				h-53.4V1521h53.4V1586.6z M1375.6,1508.8h-53.4v-65.6h53.4V1508.8z"/>
		</g>
		<path class="st2" d="M1004.8,397.7c-13.1,0-23.8,10.7-23.8,23.8v909.5c0.1,29.2-23.5,53-52.7,53.1c-29,0.1-52.7-23.2-53.1-52.1
			c-0.2-12.3-9.4-23.1-21.6-24.1c-14.2-1.2-26,9.9-26,23.8c0.2,55.4,45.5,100.3,100.9,100c55.4-0.2,100.3-45.5,100-100.9V421.5
			C1028.6,408.3,1018,397.7,1004.8,397.7z"/>
		<path class="st2" d="M1037.1,464.2c-18.3-0.6-31.2-0.1-36.9,0.2c-5.7-0.3-18.7-0.8-36.9-0.2C731,481.6,546,645.5,525.6,833.1
			c33.7-8.2,88.6-28.7,125.6-28.8c67.7-0.3,111.6,30,166.5,55.2c38.8-18.2,81.9-38.9,127.8-49.6c19.2-5.7,37.5-9,54.7-9
			s35.6,3.3,54.7,9c45.9,10.6,89,31.4,127.8,49.6c54.9-25.2,98.8-55.5,166.5-55.2c36.9,0.2,91.9,20.6,125.6,28.8
			C1454.4,645.5,1269.5,481.6,1037.1,464.2z"/>
	</g>
</g>
</svg>
