<?xml version="1.0" encoding="utf-8"?>
<!-- Generator: Adobe Illustrator 23.0.0, SVG Export Plug-In . SVG Version: 6.00 Build 0)  -->
<svg version="1.1" id="圖層_1" xmlns="http://www.w3.org/2000/svg" xmlns:xlink="http://www.w3.org/1999/xlink" x="0px" y="0px"
	 viewBox="0 0 50 40" style="enable-background:new 0 0 50 40;" xml:space="preserve">
<style type="text/css">
	.st0{fill:none;}
	.st1{fill:#FFC7B3;}
</style>
<rect class="st0" width="50" height="40"/>
<g>
	<path class="st1" d="M43,20c0,4.8-1.9,9.3-5.3,12.7S29.8,38,25,38h-0.1c-4.8,0-9.3-1.9-12.7-5.3C8.9,29.3,7,24.8,7,20h2.8
		c0,8.4,6.8,15.2,15.1,15.2H25c8.4,0,15.2-6.8,15.2-15.2S33.4,4.8,25,4.8c-4.2,0-8.1,1.7-10.9,4.6h2.8v2.8H9.1V4.5h2.8v3.1
		C15.3,4.1,20,2,25,2c4.8,0,9.3,1.9,12.7,5.3S43,15.2,43,20z M21.1,20.4c-0.9-1-1.4-2.3-1.4-3.7c0-3,2.5-5.5,5.5-5.5
		s5.5,2.5,5.5,5.5c0,1.4-0.5,2.7-1.4,3.7c2.6,1.4,4.4,4.2,4.4,7.4h-2.8c0-3.1-2.5-5.6-5.6-5.6s-5.6,2.5-5.6,5.6h-2.8
		C16.7,24.6,18.5,21.8,21.1,20.4z M25.1,19.4c1.5,0,2.7-1.2,2.7-2.7S26.6,14,25.1,14s-2.7,1.2-2.7,2.7S23.7,19.4,25.1,19.4z"/>
</g>
</svg>
