<?xml version="1.0" encoding="utf-8"?>
<!-- Generator: Adobe Illustrator 23.0.0, SVG Export Plug-In . SVG Version: 6.00 Build 0)  -->
<svg version="1.1" id="圖層_1" xmlns="http://www.w3.org/2000/svg" xmlns:xlink="http://www.w3.org/1999/xlink" x="0px" y="0px"
	 viewBox="0 0 50 40" style="enable-background:new 0 0 50 40;" xml:space="preserve">
<style type="text/css">
	.st0{fill:none;}
	.st1{fill:#878787;}
</style>
<rect class="st0" width="50" height="40"/>
<g id="layer1_2_" transform="translate(0,-540.36218)">
	<path id="rect3000_2_" class="st1" d="M25.2,545.1c-0.6,0-1.2,0-1.7,0c-3.1,0.1-6.2,0.1-9.3,0.6c-1.1,0.5-1.6,1.7-2.3,2.7
		c-1.2,2-1.8,4.3-2.4,6.5c-0.3,0.3-0.5,0.7-0.8,1c-0.3-0.1,0-0.7,0-1c0.2-0.9-0.9-1.5-1.7-1.1c-0.8,0.3-2,0.4-2.3,1.3
		c0,1,1.1,1.8,2.1,1.7c0.5,0.1,0.7,0.6,0.9,1c0,1.7-0.4,3.4-0.3,5c0,1.1-0.1,2.2,0.3,3.2c0.1,0.1,0.2,0.1,0.3,0.1c0,0.1,0,0.1,0,0.2
		v8.7c0,0.4,0.3,0.7,0.7,0.7h2.9c0.4,0,0.7-0.3,0.7-0.7v-3h25.5v3c0,0.4,0.3,0.7,0.7,0.7h2.9c0.4,0,0.7-0.3,0.7-0.7v-8.7
		c0-0.1,0-0.1,0-0.2c0.5,0,0.4-0.8,0.5-1.2c0.1-2.3,0.1-4.5-0.3-6.8c0.1-0.5,0.5-1,0.9-1.3c1,0,2-0.5,2.2-1.5
		c-0.1-1-1.3-1.1-2.1-1.4c-0.7-0.3-1.8-0.1-1.9,0.8c-0.1,0.4,0.2,1.1,0,1.3c-0.4-0.2-0.6-0.7-0.9-1.1c-0.6-2-1.1-4.1-2.1-6
		c-0.7-1.1-1.4-2.3-2.4-3.1c-1.8-0.4-3.8-0.3-5.6-0.5C28.6,545.1,26.9,545.1,25.2,545.1L25.2,545.1z M25.6,548.2
		c3.1,0,6.2,0,9.2,0.3c1,0.1,1.2,1.3,1.7,1.9c0.5,1,1.1,2,1.2,3.1c-0.8,0.6-2,0.7-2.9,1.1c-1.3,0.4-2.6,0.1-4,0.2
		c-5,0-9.9,0.1-14.9,0c-1.2-0.4-2.5-0.7-3.7-1.2c0-1.1,0.7-2,1.1-3c0.5-0.7,0.8-1.8,1.7-2.1C18.5,548.2,22.1,548.3,25.6,548.2z
		 M11.4,554.9c1.6,0.2,3.2,0.6,4.5,1.5c0.5,0.4,0.6,1.3,0.3,1.8c-1.1,0.4-2.4-0.1-3.4,0.6c-0.7,0.5-0.2,1.5-0.6,2
		c-0.9,0.2-1.9,0.1-2.7-0.2c-0.7-0.6-0.3-1.6-0.3-2.4C9.3,556.9,9.8,555,11.4,554.9z M38.8,554.9c1.1,0.1,1.6,1.3,1.9,2.3
		c0.2,1,0.6,2.2,0.1,3.2c-0.6,0.7-1.7,0.4-2.5,0.5c-0.5,0.2-0.6-0.3-0.6-0.7c0.1-0.7-0.1-1.5-0.9-1.7c-0.9-0.3-2,0-2.9-0.3
		c-0.5-0.8,0-1.9,0.9-2.2C35.9,555.3,37.3,554.9,38.8,554.9L38.8,554.9z"/>
</g>
</svg>
