<?xml version="1.0" encoding="utf-8"?>
<!-- Generator: Adobe Illustrator 23.0.0, SVG Export Plug-In . SVG Version: 6.00 Build 0)  -->
<svg version="1.1" id="圖層_1" xmlns="http://www.w3.org/2000/svg" xmlns:xlink="http://www.w3.org/1999/xlink" x="0px" y="0px"
	 viewBox="0 0 90 90" style="enable-background:new 0 0 90 90;" xml:space="preserve">
<style type="text/css">
	.st0{fill:none;}
	.st1{fill:#475993;}
	.st2{fill:#FFFFFF;}
</style>
<rect class="st0" width="90" height="90"/>
<g>
	<path id="XMLID_24_" class="st1" d="M77.9,0H12.1C5.4,0,0,5.4,0,12.1v65.7C0,84.6,5.4,90,12.1,90h32.4l0.1-32.2h-8.4
		c-1.1,0-2-0.9-2-2l0-10.4c0-1.1,0.9-2,2-2h8.3v-10c0-11.6,7.1-18,17.5-18h8.5c1.1,0,2,0.9,2,2v8.7c0,1.1-0.9,2-2,2l-5.2,0
		c-5.6,0-6.7,2.7-6.7,6.6v8.7H71c1.2,0,2.1,1,2,2.2l-1.2,10.4c-0.1,1-1,1.7-2,1.7H58.6L58.6,90h19.3C84.6,90,90,84.6,90,77.9V12.1
		C90,5.4,84.6,0,77.9,0z"/>
	<path class="st2" d="M69.7,57.8c1,0,1.8-0.7,2-1.7l1.2-10.4c0.1-1.2-0.8-2.2-2-2.2H58.6v-8.7c0-3.9,1.1-6.6,6.7-6.6l5.2,0
		c1.1,0,2-0.9,2-2v-8.7c0-1.1-0.9-2-2-2H62c-10.4,0-17.5,6.3-17.5,18v10h-8.3c-1.1,0-2,0.9-2,2l0,10.4c0,1.1,0.9,2,2,2h8.4L44.6,90
		h14l0.1-32.2H69.7z"/>
</g>
</svg>
