<?xml version="1.0" encoding="utf-8"?>
<!-- Generator: Adobe Illustrator 23.0.0, SVG Export Plug-In . SVG Version: 6.00 Build 0)  -->
<svg version="1.1" id="圖層_1" xmlns="http://www.w3.org/2000/svg" xmlns:xlink="http://www.w3.org/1999/xlink" x="0px" y="0px"
	 viewBox="0 0 40 40" style="enable-background:new 0 0 40 40;" xml:space="preserve">
<style type="text/css">
	.st0{fill:none;}
	.st1{fill:#5D5D5D;}
</style>
<rect y="0" class="st0" width="44" height="40"/>
<g>
	<g>
		<path class="st1" d="M37.1,38H2.9c-0.4,0-0.7-0.3-0.7-0.7v-21c0-0.4,0.3-0.7,0.7-0.7c0.4,0,0.7,0.3,0.7,0.7v20.3h32.8V16.2
			c0-0.4,0.3-0.7,0.7-0.7c0.4,0,0.7,0.3,0.7,0.7v21C37.8,37.7,37.5,38,37.1,38z"/>
	</g>
	<g>
		<path class="st1" d="M37.1,17c-0.2,0-0.3-0.1-0.4-0.2L20,3.6l-5.3,4.2c-0.3,0.2-0.8,0.2-1-0.1c-0.2-0.3-0.2-0.8,0.1-1l5.8-4.6
			c0.3-0.2,0.6-0.2,0.9,0l17.1,13.5c0.3,0.2,0.4,0.7,0.1,1C37.5,16.9,37.3,17,37.1,17z"/>
	</g>
	<g>
		<path class="st1" d="M2.9,17c-0.2,0-0.4-0.1-0.6-0.3c-0.2-0.3-0.2-0.8,0.1-1l9.3-7.4c0.3-0.2,0.8-0.2,1,0.1c0.2,0.3,0.2,0.8-0.1,1
			l-9.3,7.4C3.2,16.9,3,17,2.9,17z"/>
	</g>
	<g>
		<path class="st1" d="M2.9,38c-0.2,0-0.4-0.1-0.6-0.3c-0.2-0.3-0.2-0.8,0.1-1l17.1-13.5c0.3-0.2,0.6-0.2,0.9,0l5.8,4.6
			c0.3,0.2,0.4,0.7,0.1,1c-0.2,0.3-0.7,0.4-1,0.1L20,24.7L3.3,37.8C3.2,37.9,3,38,2.9,38z"/>
	</g>
	<g>
		<path class="st1" d="M28.8,31.3c-0.1,0-0.3,0-0.4-0.1l-3.1-2.3c-0.3-0.2-0.4-0.7-0.1-1c0.2-0.3,0.7-0.4,1-0.1l3.1,2.3
			c0.3,0.2,0.4,0.7,0.1,1C29.3,31.2,29.1,31.3,28.8,31.3z"/>
	</g>
	<g>
		<path class="st1" d="M31,33.2c-0.2,0-0.4-0.1-0.5-0.2c-0.1-0.1-0.2-0.3-0.2-0.5c0-0.2,0.1-0.4,0.2-0.5c0.3-0.3,0.7-0.3,1,0
			c0.1,0.1,0.2,0.3,0.2,0.5c0,0.2-0.1,0.4-0.2,0.5C31.4,33.1,31.2,33.2,31,33.2z"/>
	</g>
	<g>
		<path class="st1" d="M37.1,38c-0.2,0-0.3,0-0.4-0.1l-4-3c-0.3-0.2-0.4-0.7-0.1-1c0.2-0.3,0.7-0.4,1-0.1l4,3c0.3,0.2,0.4,0.7,0.1,1
			C37.6,37.9,37.3,38,37.1,38z"/>
	</g>
	<g>
		<path class="st1" d="M24.1,27.7c-0.2,0-0.4-0.1-0.6-0.3c-0.3-0.3-0.2-0.8,0.1-1l13-10.8c0.3-0.3,0.8-0.2,1,0.1
			c0.3,0.3,0.2,0.8-0.1,1l-13,10.8C24.4,27.7,24.3,27.7,24.1,27.7z"/>
	</g>
	<g>
		<path class="st1" d="M15.9,27.7c-0.2,0-0.3-0.1-0.5-0.2l-13-10.8c-0.3-0.3-0.3-0.7-0.1-1c0.3-0.3,0.7-0.3,1-0.1l13,10.8
			c0.3,0.3,0.3,0.7,0.1,1C16.3,27.6,16.1,27.7,15.9,27.7z"/>
	</g>
	<g>
		<path class="st1" d="M8.8,21.8c-0.4,0-0.7-0.3-0.7-0.7v-9c0-0.4,0.3-0.7,0.7-0.7h22.7c0.4,0,0.7,0.3,0.7,0.7v8.7
			c0,0.4-0.3,0.7-0.7,0.7c-0.4,0-0.7-0.3-0.7-0.7v-8H9.5v8.3C9.5,21.5,9.2,21.8,8.8,21.8z"/>
	</g>
	<g>
		<path class="st1" d="M25.8,17H14.4c-0.4,0-0.7-0.3-0.7-0.7c0-0.4,0.3-0.7,0.7-0.7h11.5c0.4,0,0.7,0.3,0.7,0.7
			C26.6,16.6,26.2,17,25.8,17z"/>
	</g>
	<g>
		<path class="st1" d="M25.8,21.1H14.4c-0.4,0-0.7-0.3-0.7-0.7c0-0.4,0.3-0.7,0.7-0.7h11.5c0.4,0,0.7,0.3,0.7,0.7
			C26.6,20.8,26.2,21.1,25.8,21.1z"/>
	</g>
</g>
</svg>
