<?xml version="1.0" encoding="utf-8"?>
<!-- Generator: Adobe Illustrator 23.0.0, SVG Export Plug-In . SVG Version: 6.00 Build 0)  -->
<svg version="1.1" id="圖層_1" xmlns="http://www.w3.org/2000/svg" xmlns:xlink="http://www.w3.org/1999/xlink" x="0px" y="0px"
	 viewBox="0 0 40 40" style="enable-background:new 0 0 40 40;" xml:space="preserve">
<style type="text/css">
	.st0{fill:none;}
	.st1{fill:#007798;}
</style>
<rect class="st0" width="40" height="40"/>
<g>
	<path class="st1" d="M29.5,14.5L24.1,20h4.1c0,4.5-3.7,8.2-8.2,8.2c-1.4,0-2.7-0.4-3.8-1l-2,2c1.6,1.1,3.7,1.7,5.8,1.7
		c6,0,10.9-4.9,10.9-10.9H35L29.5,14.5z M11.8,20c0-4.5,3.7-8.2,8.2-8.2c1.3,0,2.7,0.4,3.8,1l2-2c-1.6-1.1-3.7-1.7-5.8-1.7
		C14,9.1,9.1,14,9.1,20H5l5.5,5.5L16,20H11.8z"/>
</g>
</svg>
