<?xml version="1.0" encoding="utf-8"?>
<!-- Generator: Adobe Illustrator 23.0.0, SVG Export Plug-In . SVG Version: 6.00 Build 0)  -->
<svg version="1.1" id="圖層_1" xmlns="http://www.w3.org/2000/svg" xmlns:xlink="http://www.w3.org/1999/xlink" x="0px" y="0px"
	 viewBox="0 0 40 40" style="enable-background:new 0 0 40 40;" xml:space="preserve">
<style type="text/css">
	.st0{fill:none;}
	.st1{fill:#727272;}
	.st2{fill:#FFFFFF;}
</style>
<rect class="st0" width="40" height="40"/>
<g>
	<circle class="st1" cx="20" cy="20" r="19.6"/>
	<path class="st2" d="M20,40C9,40,0,31,0,20S9,0,20,0s20,9,20,20S31,40,20,40z M20,0.8C9.4,0.8,0.8,9.4,0.8,20
		c0,10.6,8.6,19.2,19.2,19.2c10.6,0,19.2-8.6,19.2-19.2C39.2,9.4,30.6,0.8,20,0.8z"/>
	<g>
		<g>
			<path class="st2" d="M29,30.7h-4.5l-5-8.1l-5.3,8.1h-3.8l7.2-10.6l-6.7-9.8h4.5l4.6,7.3l4.8-7.3h3.8l-6.7,9.8L29,30.7z"/>
		</g>
	</g>
</g>
</svg>
