<?xml version="1.0" encoding="utf-8"?>
<!-- Generator: Adobe Illustrator 23.0.0, SVG Export Plug-In . SVG Version: 6.00 Build 0)  -->
<svg version="1.1" id="圖層_1" xmlns="http://www.w3.org/2000/svg" xmlns:xlink="http://www.w3.org/1999/xlink" x="0px" y="0px"
	 viewBox="0 0 90 90" style="enable-background:new 0 0 90 90;" xml:space="preserve">
<style type="text/css">
	.st0{fill:none;}
	.st1{fill:#00C300;}
	.st2{fill:#FFFFFF;}
</style>
<rect class="st0" width="90" height="90"/>
<g id="surface1">
	<path class="st1" d="M16.2,90h57.5c9,0,16.2-7.3,16.2-16.2V16.2C90,7.3,82.7,0,73.8,0H16.2C7.3,0,0,7.3,0,16.2v57.5
		C0,82.7,7.3,90,16.2,90z"/>
	<path class="st2" d="M77.8,41c0-14.7-14.7-26.6-32.8-26.6c-18.1,0-32.8,11.9-32.8,26.6c0,13.1,11.7,24.2,27.4,26.2
		c1.1,0.2,2.5,0.7,2.9,1.6c0.3,0.8,0.2,2.1,0.1,3c0,0-0.4,2.3-0.5,2.8c-0.1,0.8-0.7,3.2,2.8,1.8c3.5-1.5,18.9-11.1,25.8-19h0
		C75.5,52.2,77.8,46.9,77.8,41z M32.2,49.8h-6.5C24.7,49.8,24,49,24,48V35c0-0.9,0.8-1.7,1.7-1.7s1.7,0.8,1.7,1.7v11.3h4.8
		c0.9,0,1.7,0.8,1.7,1.7S33.1,49.8,32.2,49.8z M38.9,48c0,0.9-0.8,1.7-1.7,1.7S35.5,49,35.5,48V35c0-0.9,0.8-1.7,1.7-1.7
		s1.7,0.8,1.7,1.7V48z M54.6,48c0,0.7-0.5,1.4-1.2,1.6c-0.2,0.1-0.4,0.1-0.5,0.1c-0.5,0-1-0.3-1.4-0.7L44.8,40V48
		c0,0.9-0.8,1.7-1.7,1.7c-0.9,0-1.7-0.8-1.7-1.7V35c0-0.7,0.5-1.4,1.2-1.6c0.2-0.1,0.4-0.1,0.5-0.1c0.5,0,1.1,0.3,1.4,0.7l6.7,9.1
		V35c0-0.9,0.8-1.7,1.7-1.7s1.7,0.8,1.7,1.7V48z M65.1,39.8c0.9,0,1.7,0.8,1.7,1.7s-0.8,1.7-1.7,1.7h-4.8v3.1h4.8
		c0.9,0,1.7,0.8,1.7,1.7s-0.8,1.7-1.7,1.7h-6.5c-0.9,0-1.7-0.8-1.7-1.7v-6.5c0,0,0,0,0,0V35c0-0.9,0.8-1.7,1.7-1.7h6.5
		c0.9,0,1.7,0.8,1.7,1.7s-0.8,1.7-1.7,1.7h-4.8v3.1L65.1,39.8L65.1,39.8z"/>
</g>
</svg>
