<?xml version="1.0" encoding="utf-8"?>
<!-- Generator: Adobe Illustrator 23.0.0, SVG Export Plug-In . SVG Version: 6.00 Build 0)  -->
<svg version="1.1" id="圖層_1" xmlns="http://www.w3.org/2000/svg" xmlns:xlink="http://www.w3.org/1999/xlink" x="0px" y="0px"
	 viewBox="0 0 50 40" style="enable-background:new 0 0 50 40;" xml:space="preserve">
<style type="text/css">
	.st0{fill:none;}
	.st1{fill:#878787;}
</style>
<rect class="st0" width="50" height="40"/>
<g>
	<path class="st1" d="M49,12.6C49,21,9,30.1,5.9,30.1c-1.7,0-3.7-0.4-3.7-2c0-0.6,0.6-1.3,1.7-2.2l0,0l-2.8-5
		c-0.3-0.7-0.1-1.6,0.7-1.8l0.4-0.2c0.9-0.2,1.9-0.2,2.8,0.2l5.1,2.7c2-1.2,4.2-2.4,6.7-3.7l-9.9-6.4c-0.8-0.6-0.8-1.7,0-2.1
		l0.7-0.4c1.3-0.9,3-1.1,4.6-0.7l16.5,4.3c5.1-2,9.8-3.4,12.5-3.4c0.8,0,1.4,0,2.2,0.1l-5,2.2l-0.1,1.7L46,9.8
		C47.9,10.2,49,11,49,12.6z M28.9,27l6.2,7c0.3,0.4,1,0.6,1.6,0.3l0.8-0.3c1.6-0.7,2.4-2.3,2.2-3.9l-0.8-6.6c0-0.4-0.4-0.7-0.9-0.6
		L29.2,26C28.7,26.1,28.6,26.6,28.9,27z"/>
</g>
</svg>
