<?xml version="1.0" encoding="utf-8"?>
<!-- Generator: Adobe Illustrator 23.0.0, SVG Export Plug-In . SVG Version: 6.00 Build 0)  -->
<svg version="1.1" id="圖層_1" xmlns="http://www.w3.org/2000/svg" xmlns:xlink="http://www.w3.org/1999/xlink" x="0px" y="0px"
	 viewBox="0 0 90 90" style="enable-background:new 0 0 90 90;" xml:space="preserve">
<style type="text/css">
	.st0{fill:none;}
	.st1{fill:#0085B6;}
	.st2{fill:#00A6B6;}
	.st3{fill:#FFFFFF;}
	.st4{fill:#231815;}
	.st5{fill:#FFF100;}
	.st6{fill:#008CD6;}
	.st7{fill:#E60012;}
	.st8{fill-rule:evenodd;clip-rule:evenodd;fill:#231815;}
	.st9{fill-rule:evenodd;clip-rule:evenodd;fill:#FFFFFF;}
	.st10{stroke:#000000;stroke-width:5.9216;stroke-linecap:round;stroke-linejoin:round;stroke-miterlimit:10;}
	.st11{fill:#FFFF00;}
	.st12{fill:#FFD5C5;}
</style>
<rect class="st0" width="90" height="90"/>
<g>
	<path class="st1" d="M79.2,90H10.8C4.9,90,0,85.1,0,79.2V10.8C0,4.9,4.9,0,10.8,0h68.3C85.1,0,90,4.9,90,10.8v68.3
		C90,85.1,85.1,90,79.2,90z"/>
	<circle class="st2" cx="44.4" cy="44.9" r="41.6"/>
	<circle class="st3" cx="44.4" cy="44.9" r="36.7"/>
	<g>
		<g>
			<path class="st3" d="M34.6,52.6c0,0-0.1-0.1-0.1-0.2l0,0c-0.9-0.3-1.3-0.9-1.3-1.6l0,0c0-1,0.7-2,1.6-2.4l0,0c0-0.3,0-0.6,0-0.9
				l0,0c0-0.5,0-1.1,0.1-1.6l0,0c-4.2-0.4-8.3-2.6-11.2-5l0,0c-0.6,1.2-1.9,1.8-3,1.8l0,0c-0.7,0-1.3-0.2-1.8-0.5l0,0
				c-0.5-0.4-0.8-0.9-0.8-1.6l0,0c0-0.4,0.1-0.7,0.3-1.1l0,0c0,0,0,0-0.1,0l0,0c-0.5,0-0.9-0.3-1.2-0.7l0,0
				c-0.3-0.4-0.4-0.9-0.4-1.4l0,0c0-0.4,0.1-0.9,0.4-1.2l0,0c-0.6-0.5-0.9-1.2-0.9-1.9l0,0c0-1.4,1-2.9,2.7-3l0,0c0.1,0,0.2,0,0.4,0
				l0,0c0.1-1.3,1.3-2.1,2.5-2.1l0,0c0.7,0,1.3,0.2,1.9,0.8l0,0c0.5-0.7,1.2-1,1.9-1l0,0c1.5,0,3.2,1.2,3.2,2.9l0,0
				c0,0.5-0.2,1.1-0.6,1.7l0,0c1.9,0.2,4,0.5,6,1.2l0,0c-0.6-1-1-1.9-1.2-3l0,0c-1.2,0-2.2-0.4-2.9-0.9l0,0
				c-0.8-0.6-1.2-1.4-1.2-2.4l0,0c0-0.9,0.4-1.8,1.1-2.4l0,0c0.7-0.5,1.7-0.9,2.9-0.9l0,0c0.5-1.9,1.4-3.9,2.7-5.4l0,0l-4.2,1.4
				c-0.1,0-0.3,0-0.3-0.1l0,0c-0.1-0.1-0.1-0.2,0-0.4l0,0l1-1.8l0,0c1.8-2.6,4.7-4.2,7.6-5l0,0c-0.8-0.4-1.6-0.4-2.6-0.4l0,0
				c-0.2,0-0.4,0-0.6,0l0,0c-0.1,0-0.3-0.1-0.3-0.2l0,0c0-0.1,0-0.3,0.2-0.4l0,0c1.7-0.9,3.3-1.2,4.8-1.2l0,0c2,0,3.5,0.6,4.3,1l0,0
				c0.8-0.4,2.3-1,4.3-1l0,0c1.4,0,3.1,0.3,4.8,1.2l0,0c0.1,0.1,0.2,0.2,0.2,0.4l0,0c0,0.1-0.2,0.2-0.3,0.2l0,0c-0.2,0-0.4,0-0.7,0
				l0,0c-1,0-1.7,0-2.6,0.4l0,0c2.9,0.8,5.8,2.4,7.6,5l0,0l0,0l1,1.8c0.1,0.1,0,0.3,0,0.4l0,0c-0.1,0.1-0.2,0.1-0.3,0.1l0,0L55,19.7
				c1.2,1.5,2.1,3.5,2.7,5.4l0,0c1.2,0,2.2,0.4,2.9,0.9l0,0c0.7,0.6,1.1,1.4,1.1,2.4l0,0c0,1-0.4,1.8-1.2,2.4l0,0
				c-0.7,0.6-1.7,0.9-2.9,0.9l0,0c-0.2,1.1-0.6,2-1.2,3l0,0c2-0.7,4.1-1,6-1.2l0,0c-0.4-0.6-0.6-1.1-0.6-1.7l0,0
				c0-1.7,1.7-2.9,3.2-2.9l0,0c0.7,0,1.5,0.3,1.9,1l0,0c0.6-0.6,1.2-0.8,1.9-0.8l0,0c1.2,0,2.4,0.9,2.5,2.1l0,0c0.1,0,0.3,0,0.4,0
				l0,0c1.7,0,2.7,1.5,2.7,3l0,0c0,0.7-0.3,1.4-0.9,1.9l0,0c0.3,0.3,0.4,0.8,0.4,1.2l0,0c0,0.5-0.2,1-0.4,1.4l0,0
				c-0.3,0.4-0.7,0.7-1.2,0.7l0,0c0,0,0,0-0.1,0l0,0c0.2,0.4,0.3,0.8,0.3,1.1l0,0c0,0.7-0.3,1.2-0.8,1.6l0,0
				c-0.5,0.4-1.1,0.5-1.8,0.5l0,0c-1.1,0-2.4-0.6-3-1.8l0,0c-2.9,2.4-6.9,4.5-11.2,4.9l0,0c0.1,0.5,0.1,1,0.1,1.6l0,0
				c0,0.3,0,0.6,0,0.9l0,0c0.9,0.4,1.5,1.4,1.5,2.4l0,0c0,0.5-0.2,1-0.6,1.3l0,0c0,0-0.1,0.1-0.2,0.1l0,0c-7.2,0.4-14.4,0-21.6,0.5
				l0,0c0,0,0,0,0,0l0,0C34.7,52.7,34.7,52.7,34.6,52.6L34.6,52.6z M23.8,40.2c2.9,2.5,7.1,4.8,11.5,5.1l0,0c0.1,0,0.2,0.1,0.2,0.1
				l0,0c0.1,0.1,0.1,0.2,0.1,0.2l0,0c-0.1,0.6-0.2,1.2-0.2,1.8l0,0c0,0.4,0,0.7,0.1,1.1l0,0c0,0.1-0.1,0.3-0.2,0.3l0,0
				c-0.6,0.2-1.4,1.2-1.4,1.9l0,0c0,0.5,0.2,0.9,1,1.1l0,0c0.1,0,0.2,0.1,0.2,0.2l0,0c7.1-0.4,14.2-0.1,21.2-0.5l0,0
				c0.2-0.2,0.3-0.4,0.3-0.8l0,0c0-0.8-0.7-1.8-1.4-1.9l0,0c-0.1,0-0.2-0.2-0.2-0.3l0,0c0-0.4,0.1-0.7,0.1-1.1l0,0
				c0-0.6-0.1-1.3-0.1-1.8l0,0c0-0.1,0-0.2,0.1-0.2l0,0c0-0.1,0.1-0.1,0.2-0.1l0,0c4.3-0.3,8.5-2.6,11.5-5.1l0,0
				c0.1-0.1,0.2-0.1,0.3-0.1l0,0c0.1,0,0.2,0.1,0.2,0.2l0,0c0.4,1.2,1.6,1.8,2.6,1.8l0,0c0.5,0,1-0.2,1.4-0.4l0,0
				c0.4-0.3,0.6-0.6,0.6-1.1l0,0c0-0.4-0.2-0.9-0.6-1.5l0,0c-0.1-0.1-0.1-0.3,0-0.4l0,0c0.1-0.1,0.3-0.1,0.4-0.1l0,0
				c0.2,0.2,0.4,0.2,0.6,0.2l0,0c0.3,0,0.5-0.2,0.7-0.4l0,0c0.2-0.3,0.3-0.7,0.3-1l0,0c0-0.5-0.2-0.8-0.5-1l0,0
				c-0.1-0.1-0.2-0.2-0.2-0.3l0,0c0-0.1,0.1-0.2,0.2-0.3l0,0c0.6-0.3,0.9-0.9,0.9-1.6l0,0c0-0.6-0.2-1.2-0.6-1.6l0,0
				c-0.4-0.4-0.9-0.7-1.5-0.7l0,0c-0.2,0-0.4,0-0.6,0.1l0,0c-0.1,0-0.2,0-0.3-0.1l0,0c-0.1-0.1-0.1-0.2-0.1-0.3l0,0
				c0-0.1,0-0.1,0-0.2l0,0c0-1-0.9-1.7-1.9-1.7l0,0c-0.6,0-1.2,0.3-1.7,0.9l0,0c-0.1,0.1-0.2,0.1-0.3,0.1l0,0
				c-0.1,0-0.2-0.1-0.2-0.2l0,0c-0.3-0.7-0.9-1-1.6-1l0,0c-0.6,0-1.3,0.3-1.8,0.7l0,0c-0.5,0.4-0.8,1-0.8,1.6l0,0
				c0,0.5,0.2,1.1,0.8,1.7l0,0c0.1,0.1,0.1,0.2,0.1,0.3l0,0c-0.1,0.1-0.2,0.2-0.3,0.2l0,0c-2.3,0.2-5,0.5-7.3,1.6l0,0
				c-0.1,0.1-0.3,0-0.4-0.1l0,0c-0.1-0.1-0.1-0.3,0-0.4l0,0c1-1.4,1.4-2.5,1.7-3.9l0,0c0-0.1,0.2-0.3,0.3-0.3l0,0
				c2.4,0,3.7-1.2,3.7-2.7l0,0c0-1.5-1.1-2.6-3.6-2.7l0,0c-0.1,0-0.3-0.1-0.3-0.2l0,0c-0.6-2.3-1.8-4.8-3.5-6.2l0,0
				c-0.1-0.1-0.1-0.3-0.1-0.4l0,0c0.1-0.1,0.2-0.2,0.4-0.1l0,0l4.6,1.6L58,19.2c-1.8-2.7-4.9-4.3-7.9-4.9l0,0
				c-0.1,0-0.2-0.1-0.2-0.3l0,0c0-0.1,0-0.2,0.1-0.3l0,0c1-0.7,1.9-0.9,2.8-0.9l0,0c-1.1-0.4-2.2-0.6-3.2-0.6l0,0
				c-2,0-3.5,0.6-4.1,1l0,0c-0.1,0.1-0.2,0.1-0.3,0l0,0c-0.6-0.3-2.1-1-4.1-1l0,0c-1,0-2.1,0.2-3.2,0.6l0,0c0.9,0,1.9,0.2,2.8,0.9
				l0,0c0.1,0.1,0.2,0.2,0.1,0.3l0,0c0,0.1-0.1,0.2-0.2,0.2l0,0c-3,0.6-6.1,2.2-7.9,4.9l0,0L32,20.3l4.6-1.6c0.1,0,0.3,0,0.4,0.1
				l0,0c0.1,0.1,0.1,0.3-0.1,0.4l0,0c-1.6,1.4-2.8,4-3.5,6.2l0,0c0,0.1-0.2,0.2-0.3,0.2l0,0c-2.4,0-3.6,1.1-3.6,2.7l0,0
				c0,1.5,1.3,2.7,3.7,2.7l0,0c0.2,0,0.3,0.1,0.3,0.3l0,0c0.3,1.4,0.7,2.5,1.7,3.9l0,0c0.1,0.1,0.1,0.3,0,0.4l0,0
				c-0.1,0.1-0.2,0.1-0.4,0.1l0,0c-2.3-1-5-1.4-7.3-1.6l0,0c-0.1,0-0.2-0.1-0.3-0.2l0,0c0-0.1,0-0.2,0.1-0.3l0,0
				c0.6-0.6,0.8-1.2,0.8-1.7l0,0c0-0.6-0.3-1.2-0.8-1.6l0,0c-0.5-0.4-1.2-0.7-1.8-0.7l0,0c-0.7,0-1.3,0.3-1.6,1l0,0
				c0,0.1-0.1,0.2-0.3,0.2l0,0c-0.1,0-0.2,0-0.3-0.1l0,0c-0.5-0.6-1.1-0.9-1.7-0.9l0,0c-1,0-1.9,0.7-1.9,1.7l0,0c0,0.1,0,0.1,0,0.2
				l0,0c0,0.1,0,0.2-0.1,0.3l0,0C19.7,32,19.6,32,19.5,32l0,0c-0.2-0.1-0.4-0.1-0.6-0.1l0,0c-0.6,0-1.1,0.3-1.5,0.7l0,0
				c-0.4,0.4-0.6,1-0.6,1.6l0,0c0,0.7,0.3,1.2,0.9,1.6l0,0c0.1,0.1,0.2,0.2,0.2,0.3l0,0c0,0.1-0.1,0.2-0.2,0.3l0,0
				c-0.3,0.2-0.5,0.6-0.5,1l0,0c0,0.4,0.1,0.8,0.3,1l0,0c0.2,0.3,0.4,0.4,0.7,0.4l0,0c0.2,0,0.4-0.1,0.6-0.2l0,0
				c0.1-0.1,0.3-0.1,0.4,0l0,0c0.1,0.1,0.1,0.3,0,0.4l0,0c-0.4,0.6-0.6,1.1-0.6,1.5l0,0c0,0.5,0.2,0.8,0.6,1.1l0,0
				c0.4,0.3,0.9,0.4,1.4,0.4l0,0c1,0,2.2-0.5,2.6-1.8l0,0c0-0.1,0.1-0.2,0.2-0.2l0,0c0,0,0.1,0,0.1,0l0,0
				C23.7,40.1,23.8,40.1,23.8,40.2L23.8,40.2z M71.3,31.7l-0.3,0L71.3,31.7L71.3,31.7z"/>
		</g>
		<g>
			<path class="st4" d="M45.3,60.8c0.4,0,0.9,0,1.3,0c0.6,4.1,4.2,3.7,4.6,6.7c0.1,1-0.3,1.4-0.1,2.5c0.2,1.6,1.8,2.4,3.9,2.4
				c1.4,0,3.4,0.5,4.4,1.4c1.7,1.3,2.5,1.6,3.8,1.6c1.1,0,2.2-1.5,1.4-2.6c1.3,0,1.5-1.3,1.1-1.7c0.5,0.3,1.3-0.8,0.9-1.4
				c0.6,0,1.4-0.9,0.9-1.8c0.9-0.7,0.7-2-0.5-3.2c-2.2-1.2-2.8-1.3-6-1.3c-2.1,0.4-1.9-0.6-2.2-2.3c-0.1-1.6-1.3-4.6-3.6-6
				c0.5-0.8,0.6-1.9,0.5-2.9c2.3-0.5,1-3.2-0.3-3.6c0.1-1,0.1-2.1-0.1-3c4.4-0.3,8.7-2.7,11.6-5.2c1.2,3.4,7.1,2.1,4.5-1.5
				c1.8,1.2,2.8-2,1.5-2.8c2.2-1.2,0.7-5.2-2-4.4c0.2-2-2.6-3.2-4.1-1.2c-1.3-3-6.9,0-3.9,3.3c-2.4,0.2-5.1,0.5-7.4,1.6
				c1-1.4,1.5-2.6,1.8-4c2.5,0,4-1.3,4-3c0-1.7-1.4-3-3.9-3c-0.6-2.3-1.9-4.9-3.6-6.4l5.4,1.8l-1-1.8c-1.9-2.8-5.1-4.4-8.1-5
				c1.3-0.9,2.5-0.9,4.1-0.9c-4-2.2-7.8-0.8-8.9-0.2c-1-0.6-4.8-2-8.9,0.2c1.5,0,2.7-0.1,4,0.9c-3.1,0.6-6.3,2.3-8.2,5l-1,1.8
				l5.4-1.8c-1.7,1.5-2.9,4.1-3.6,6.4c-2.5,0-3.9,1.3-3.9,3c0,1.7,1.5,3,4,3c0.3,1.5,0.8,2.6,1.8,4c-2.4-1.1-5.1-1.5-7.4-1.6
				c3-3.3-2.6-6.3-3.9-3.3c-1.5-2-4.4-0.8-4.1,1.2c-2.7-0.8-4.2,3.2-2,4.4c-1.4,0.8-0.3,4,1.5,2.8c-2.6,3.7,3.3,5,4.5,1.6
				c3,2.5,7.2,4.8,11.6,5.2c-0.1,0.9-0.2,2-0.1,3c-1.3,0.4-2.6,3.1-0.3,3.6c-0.1,1,0,2.2,0.5,2.9c-2.4,1.5-3.5,4.4-3.6,6
				c-0.4,1.7-0.2,2.7-2.2,2.3c-3.1,0-3.7,0.1-6,1.3c-1.2,1.2-1.5,2.5-0.5,3.2c-0.5,0.9,0.4,1.8,0.9,1.8c-0.4,0.6,0.4,1.7,0.9,1.4
				c-0.4,0.4-0.2,1.7,1.1,1.7c-0.8,1.1,0.3,2.6,1.4,2.6c1.3,0,2.1-0.3,3.9-1.6c1-0.8,3-1.3,4.4-1.4c2.1,0,3.6-0.8,3.9-2.4
				c0.2-1.1-0.2-1.5-0.1-2.5c0.5-3.1,4.1-2.6,4.6-6.7C44.4,60.8,44.8,60.8,45.3,60.8L45.3,60.8z"/>
		</g>
		<g>
			<g>
				<path class="st3" d="M63,64.9c-1.9-0.1-4,0.1-4.4-0.5c-1-0.5-1-1.7-1.2-2.8c-0.4-2.1-0.7-3.1-1.9-4.3c0,0-0.1-0.1-0.1-0.1
					c-1-1.3-2.2-1.4-4-1.2c0,0,0,0,0,0c-1.2,0.2-1.7,0.7-2.4,1.6c-0.1,0.2-0.3,0.4-0.5,0.6c-1.2,2.4-0.6,3.7,0.5,4.7
					c0.7,0.7,1.7,1.4,2.4,2.2c0.7,0.8,1.2,1.9,1,3.5c-0.4,1.8,0.5,2.4,2,2.3c0.4,0,0.8,0.1,1.2,0.1c2.1,0.2,2.5,0.3,3.8,1
					c1.2,0.9,1.8,1.2,2.8,1.7c1.2,0.4,1.7-1,1-1.8c-0.6-0.5-0.7-0.7-1.6-1.1c-0.6-0.3-0.2-1.1,0.4-0.6c0.8,0.5,0.9,0.8,1.6,1.3
					c0.6,0.3,1.3-0.4,0.6-1.1c-0.6-0.5-0.9-0.8-1.6-1.2c-0.5-0.3-0.1-0.9,0.3-0.5c0.5,0.4,0.9,0.7,1.7,1.4c0.8,0.6,1.1-0.4,0.7-0.7
					c-1.1-1.2-1-1.1-1.7-1.5c-0.2-0.3-0.1-0.6,0.3-0.4c0.5,0.2,0.8,0.4,1.6,1.2c0.5,0.4,1.2-0.3,0.8-0.6c-0.5-0.4-0.8-0.7-1.6-1.2
					c-0.4-0.3-0.2-0.7,0.3-0.4c0.7,0.3,0.5,0.3,1.3,1c0.1,0.4,0.7-0.2,0.3-0.7C65.9,65.7,64.6,64.9,63,64.9L63,64.9z"/>
			</g>
			<g>
				<path class="st3" d="M69.3,33.8c2.1-2.5-1.9-4.8-2.2-0.6c-0.5-3.9-5.5-2.5-2.4,1.7c-2.9,0.1-6.1,0.6-9.1,1.8
					c-0.4,0.2-0.9,0.4-1.3,0.6c-0.8,0.8-1.9,1.5-2.9,2c-0.1,0.1-0.2,0.1-0.4,0.2c0.1,0.6,0.2,1.1,0.4,1.7c0.7,2.6,1.8,5,2.8,6.3
					L54,44.4c0.6,0,1.1-0.1,1.6-0.1c4.5-0.6,8.2-2.6,11.7-5.3c2.3,3.8,4.9,0.8,2.2-1.1c2.9,1.6,3.8-2,0.3-2.3
					c1.7,0.2,2.5-0.4,2.6-1.1V34C72.3,33,70.9,32.2,69.3,33.8L69.3,33.8z"/>
			</g>
			<g>
				<path class="st3" d="M27.4,64.8c1.9-0.1,4,0.1,4.4-0.4c1-0.5,1-1.7,1.2-2.8c0.4-2.1,0.7-3.1,1.9-4.3c0,0,0.1-0.1,0.1-0.1
					c1-1.3,2.2-1.4,4-1.2c0,0,0,0,0,0c1.2,0.2,1.7,0.6,2.4,1.6c0.1,0.2,0.3,0.3,0.5,0.6c1.2,2.4,0.6,3.7-0.5,4.7
					c-0.7,0.7-1.7,1.4-2.4,2.2c-0.7,0.8-1.2,1.9-1,3.5c0.4,1.8-0.5,2.4-2,2.3c-0.4,0-0.8,0.1-1.2,0.1c-2.1,0.2-2.5,0.3-3.8,1
					c-1.2,0.9-1.8,1.2-2.9,1.7c-1.2,0.4-1.7-1-1-1.8c0.6-0.5,0.7-0.7,1.6-1.1c0.6-0.3,0.2-1.1-0.4-0.6c-0.8,0.5-0.9,0.7-1.6,1.3
					c-0.6,0.3-1.3-0.4-0.6-1.1c0.6-0.5,0.9-0.8,1.6-1.2c0.5-0.3,0.1-0.9-0.3-0.5c-0.5,0.4-0.9,0.7-1.7,1.4c-0.8,0.6-1.1-0.4-0.7-0.7
					c1.1-1.2,1-1.1,1.7-1.5c0.2-0.3,0.1-0.6-0.3-0.4c-0.5,0.2-0.8,0.4-1.6,1.2c-0.5,0.4-1.2-0.3-0.8-0.7c0.5-0.4,0.8-0.7,1.6-1.2
					c0.4-0.3,0.2-0.7-0.3-0.4c-0.7,0.3-0.6,0.3-1.3,1c-0.1,0.4-0.7-0.2-0.3-0.7C24.6,65.7,25.8,64.9,27.4,64.8L27.4,64.8z"/>
			</g>
			<g>
				<path class="st3" d="M21.1,33.8c-2.1-2.5,1.9-4.8,2.2-0.6c0.5-3.9,5.5-2.5,2.4,1.7c2.9,0.1,6.1,0.6,9.1,1.8
					c0.4,0.2,0.9,0.4,1.3,0.6c0.8,0.8,1.9,1.4,2.8,1.9c0.1,0.1,0.3,0.1,0.4,0.2c-0.1,0.6-0.2,1.1-0.4,1.7c-0.7,2.6-1.8,5-2.8,6.3
					l0.3-3.1c-0.6,0-1.1-0.1-1.6-0.1c-4.5-0.6-8.2-2.7-11.7-5.3c-2.3,3.8-4.9,0.8-2.2-1.1c-2.9,1.6-3.8-2-0.3-2.3
					c-1.7,0.2-2.5-0.4-2.7-1.1V34C18.2,33,19.5,32.2,21.1,33.8L21.1,33.8z"/>
			</g>
			<g>
				<path class="st3" d="M48.6,45.4l-1-4.5c-1.6,0.2-3.2,0.2-4.8,0l-1,4.5H48.6L48.6,45.4z"/>
			</g>
			<g>
				<path class="st5" d="M50.5,47.7c0.5,0,0.8,0.2,1.1,0.6c0.9,1.1,1.9,2,3.2,2.7c0.7,0.4,1.3-0.4,0.6-0.9c-3.5-2.7-4.6-5.9-5.5-10
					l-1.1,0.4c0.2,1,1.4,4.7,1.9,6.2H39.8c0.6-1.4,1.8-5.2,1.9-6.2l-1.1-0.4c-0.9,4.1-2,7.3-5.6,10c-0.7,0.6-0.1,1.3,0.6,0.9
					c1.3-0.7,2.3-1.7,3.2-2.7c0.3-0.3,0.6-0.6,1.1-0.6L50.5,47.7L50.5,47.7z"/>
			</g>
			<g>
				<path class="st6" d="M46.3,59.2c0.9-3.4,3.8-5.3,7.5-4.6c0.3-0.8,0.5-0.8,0.5-2.5c-1.3-0.5-3-2.4-3.9-2.9C50.3,49,50.1,49,50,49
					h-9.5c-0.1,0-0.3,0-0.4,0.1c-1,0.6-2.6,2.4-3.9,2.9c-0.1,1.7,0.1,1.7,0.5,2.5c3.8-0.6,6.7,1.2,7.5,4.6
					C44.8,59.3,45.6,59.3,46.3,59.2L46.3,59.2z"/>
			</g>
			<g>
				<g>
					<path class="st4" d="M49.2,50c-2.7,0-5.3,0-8,0C40.2,57.9,50.2,57.9,49.2,50L49.2,50z"/>
				</g>
				<g>
					<path class="st7" d="M47.9,51.3L47.9,51.3h-5.4l0,0C42.2,55.8,48.2,55.8,47.9,51.3L47.9,51.3z"/>
				</g>
			</g>
			<g>
				<path class="st3" d="M45.2,39.7c5.7,0,10.4-3.7,11.1-9.4c2.2,0,3.7-0.3,3.7-1.8c0-1.5-1.5-1.8-3.7-1.8c-0.4-3-1.7-5.5-4.1-7.3
					l0.7,2c-2.4-1.8-5.2-3.1-7.7-3.8c-2.4,0.7-5.3,2-7.7,3.8l0.7-2c-2.4,1.9-3.7,4.3-4.1,7.3c-2.2,0-3.7,0.3-3.7,1.8
					c0,1.5,1.5,1.8,3.7,1.8C34.9,36,39.6,39.7,45.2,39.7L45.2,39.7z"/>
			</g>
			<g>
				<g>
					<g>
						<path class="st4" d="M45.2,39c-1.4,0-2.8-1-3.4-1.9c-0.6-1-0.7-2.2-1-3.3c-0.4-1.1-1.3-2.5-1.9-3.4c-0.3-0.4-0.1-0.7,0.1-0.8
							c0.2-0.1,0.4,0,0.5,0.1c1.5,1.9,3.6,2.9,5.7,2.9c2.1,0,4.2-1,5.7-2.9c0.1-0.2,0.3-0.2,0.5-0.1c0.2,0.1,0.4,0.4,0.1,0.8
							c-0.6,0.9-1.6,2.3-1.9,3.4c-0.4,1.1-0.4,2.3-1,3.3C48,38.1,46.7,39,45.2,39L45.2,39z"/>
					</g>
					<g>
						<path class="st7" d="M45.2,38.6c-6.8-3-1.8-7.4,0-4.1C47,31.2,52,35.5,45.2,38.6L45.2,38.6z"/>
					</g>
				</g>
				<g>
					<g>
						<path class="st8" d="M45.2,28.2c0.9,0,1.6,0.6,1.6,1.4c0,0.8-0.7,1.4-1.6,1.4c-0.9,0-1.6-0.6-1.6-1.4
							C43.6,28.8,44.4,28.2,45.2,28.2L45.2,28.2z"/>
					</g>
					<g>
						<path class="st9" d="M45.2,28.6c0.6,0,1,0.4,1,1c0,0.5-0.5,1-1,1c-0.6,0-1-0.4-1-1C44.2,29.1,44.7,28.6,45.2,28.6L45.2,28.6z"
							/>
					</g>
				</g>
			</g>
			<g>
				<g>
					<g>
						<path class="st4" d="M49,19.7c2.2,0,3.2,2.7,3.2,4.6c0,1.8-1,4.6-3.2,4.6c-2.2,0-3.3-2.8-3.3-4.6C45.8,22.4,46.8,19.7,49,19.7
							L49,19.7z"/>
					</g>
					<g>
						<path class="st9" d="M49,27.8c-1.7-0.1-2.3-2.2-2.3-3.5c0-1,0.2-1.8,0.7-2.6c0.2,0.6,0.7,1,1.5,1c0.8,0,1.3-0.5,1.5-1.1
							c0.6,0.8,0.8,1.7,0.8,2.7C51.3,25.6,50.7,27.7,49,27.8L49,27.8z"/>
					</g>
				</g>
				<g>
					<g>
						<path class="st4" d="M41.4,19.7c-2.2,0-3.2,2.7-3.2,4.6c0,1.8,1,4.6,3.2,4.6c2.2,0,3.3-2.7,3.3-4.6
							C44.7,22.4,43.7,19.7,41.4,19.7L41.4,19.7z"/>
					</g>
					<g>
						<path class="st9" d="M41.4,27.8c1.7-0.1,2.3-2.2,2.3-3.5c0-1-0.2-1.8-0.7-2.6c-0.2,0.6-0.7,1-1.5,1c-0.8,0-1.3-0.5-1.5-1.1
							c-0.5,0.8-0.8,1.7-0.8,2.7C39.2,25.6,39.8,27.7,41.4,27.8L41.4,27.8z"/>
					</g>
				</g>
			</g>
		</g>
	</g>
	<g>
		<path class="st10" d="M23.7,73.3c0,0.2,0.1,0.4,0.1,0.7c0,0.2,0,0.5,0,0.7L8.1,76.7c0.1,0.8,0.4,1.6,0.9,2.3
			c0.4,0.7,1,1.3,1.7,1.7c0.7,0.5,1.4,0.8,2.2,1c0.8,0.2,1.6,0.2,2.5,0.1c1.3-0.2,2.5-0.6,3.4-1.3c0.9-0.7,1.6-1.5,2-2.4l3.1,1.9
			c-0.9,1.6-2,2.8-3.3,3.6c-1.4,0.9-2.9,1.4-4.7,1.6c-1.5,0.2-2.9,0.1-4.3-0.2c-1.4-0.3-2.6-0.9-3.6-1.7c-1-0.8-1.9-1.8-2.6-3
			c-0.7-1.2-1.2-2.6-1.4-4.2c-0.2-1.5-0.1-3,0.2-4.4c0.3-1.4,0.9-2.6,1.7-3.6c0.8-1,1.8-1.9,3-2.6c1.2-0.7,2.5-1.1,4-1.3
			c1.5-0.2,2.8-0.1,4.1,0.2c1.3,0.3,2.4,0.9,3.3,1.7c0.9,0.8,1.7,1.8,2.3,3C23.1,70.3,23.5,71.7,23.7,73.3z M19.5,72.2
			c-0.1-0.8-0.4-1.5-0.7-2.2c-0.3-0.7-0.8-1.2-1.3-1.6c-0.5-0.4-1.2-0.8-1.9-1c-0.7-0.2-1.5-0.2-2.5-0.1c-0.8,0.1-1.6,0.4-2.3,0.8
			c-0.7,0.4-1.3,0.9-1.8,1.5c-0.5,0.6-0.8,1.2-1.1,2c-0.3,0.7-0.4,1.5-0.3,2.3L19.5,72.2z"/>
		<path class="st10" d="M28.8,75.1H17.1v-2.9h11.7V75.1z"/>
		<path class="st10" d="M43.3,69.6c0,1.2-0.2,2.3-0.6,3.3c-0.4,1-1,1.9-1.8,2.6c-0.8,0.7-1.6,1.3-2.7,1.7c-1,0.4-2.1,0.6-3.3,0.6
			c-1.2,0-2.3-0.2-3.3-0.6c-1-0.4-1.9-1-2.7-1.7c-0.7-0.7-1.3-1.6-1.8-2.6c-0.4-1-0.6-2.1-0.6-3.3c0-1.2,0.2-2.3,0.6-3.3
			c0.4-1,1-1.9,1.8-2.6c0.7-0.7,1.6-1.3,2.7-1.7c1-0.4,2.1-0.6,3.3-0.6c1.2,0,2.3,0.2,3.3,0.6c1,0.4,1.9,1,2.7,1.7
			c0.8,0.7,1.3,1.6,1.8,2.6C43,67.3,43.3,68.4,43.3,69.6z M40,69.6c0-0.7-0.1-1.5-0.3-2.1c-0.2-0.7-0.6-1.3-1-1.8
			c-0.4-0.5-1-0.9-1.6-1.2c-0.6-0.3-1.4-0.5-2.2-0.5c-0.8,0-1.6,0.2-2.2,0.5c-0.6,0.3-1.2,0.7-1.6,1.2c-0.4,0.5-0.8,1.1-1,1.8
			c-0.2,0.7-0.3,1.4-0.3,2.1c0,0.7,0.1,1.5,0.3,2.1c0.2,0.7,0.6,1.3,1,1.8c0.4,0.5,1,0.9,1.6,1.2c0.6,0.3,1.4,0.5,2.2,0.5
			c0.8,0,1.6-0.2,2.2-0.5c0.6-0.3,1.2-0.7,1.6-1.2c0.4-0.5,0.8-1.1,1-1.8C39.9,71.1,40,70.4,40,69.6z"/>
		<path class="st10" d="M49,65.4l2.1,12.2l0.1,0l5.1-11.4l3.2,0.4l2.4,12.3l0.1,0l4.9-11.4l3.2,0.4l-7,14.9l-3.2-0.4l-2.4-12.1
			l-0.1,0l-5.2,11.2L49,81L45.7,65L49,65.4z"/>
		<path class="st10" d="M73.6,65.6c0.1,0.4,0.1,0.8,0.2,1.3c0,0.5,0.1,0.9,0.1,1.2l0.1,0c0.2-0.4,0.4-0.8,0.7-1.2
			c0.3-0.4,0.7-0.7,1.1-1c0.4-0.3,0.9-0.5,1.4-0.7c0.5-0.2,1.1-0.3,1.6-0.3c1-0.1,1.9,0.1,2.6,0.4c0.7,0.3,1.4,0.7,1.9,1.3
			c0.5,0.5,0.9,1.2,1.2,1.9c0.3,0.8,0.4,1.6,0.5,2.4l0.5,9.6l-3.1,0.2L82,72c0-0.6-0.1-1.2-0.2-1.8c-0.1-0.6-0.3-1.1-0.6-1.5
			c-0.3-0.4-0.7-0.8-1.1-1c-0.5-0.2-1.1-0.3-1.8-0.3c-1.2,0.1-2.2,0.6-2.9,1.6c-0.7,1-1,2.2-1,3.8l0.5,8.3l-3.1,0.2L71,69.1
			c0-0.4-0.1-1-0.1-1.6c-0.1-0.7-0.1-1.2-0.2-1.7L73.6,65.6z"/>
		<path class="st11" d="M23.7,73.3c0,0.2,0.1,0.4,0.1,0.7c0,0.2,0,0.5,0,0.7L8.1,76.7c0.1,0.8,0.4,1.6,0.9,2.3
			c0.4,0.7,1,1.3,1.7,1.7c0.7,0.5,1.4,0.8,2.2,1c0.8,0.2,1.6,0.2,2.5,0.1c1.3-0.2,2.5-0.6,3.4-1.3c0.9-0.7,1.6-1.5,2-2.4l3.1,1.9
			c-0.9,1.6-2,2.8-3.3,3.6c-1.4,0.9-2.9,1.4-4.7,1.6c-1.5,0.2-2.9,0.1-4.3-0.2c-1.4-0.3-2.6-0.9-3.6-1.7c-1-0.8-1.9-1.8-2.6-3
			c-0.7-1.2-1.2-2.6-1.4-4.2c-0.2-1.5-0.1-3,0.2-4.4c0.3-1.4,0.9-2.6,1.7-3.6c0.8-1,1.8-1.9,3-2.6c1.2-0.7,2.5-1.1,4-1.3
			c1.5-0.2,2.8-0.1,4.1,0.2c1.3,0.3,2.4,0.9,3.3,1.7c0.9,0.8,1.7,1.8,2.3,3C23.1,70.3,23.5,71.7,23.7,73.3z M19.5,72.2
			c-0.1-0.8-0.4-1.5-0.7-2.2c-0.3-0.7-0.8-1.2-1.3-1.6c-0.5-0.4-1.2-0.8-1.9-1c-0.7-0.2-1.5-0.2-2.5-0.1c-0.8,0.1-1.6,0.4-2.3,0.8
			c-0.7,0.4-1.3,0.9-1.8,1.5c-0.5,0.6-0.8,1.2-1.1,2c-0.3,0.7-0.4,1.5-0.3,2.3L19.5,72.2z"/>
		<path class="st11" d="M28.8,73.9h-6.9v-2.8h6.9V73.9z"/>
		<path class="st11" d="M43.3,69.6c0,1.2-0.2,2.3-0.6,3.3c-0.4,1-1,1.9-1.8,2.6c-0.8,0.7-1.6,1.3-2.7,1.7c-1,0.4-2.1,0.6-3.3,0.6
			c-1.2,0-2.3-0.2-3.3-0.6c-1-0.4-1.9-1-2.7-1.7c-0.7-0.7-1.3-1.6-1.8-2.6c-0.4-1-0.6-2.1-0.6-3.3c0-1.2,0.2-2.3,0.6-3.3
			c0.4-1,1-1.9,1.8-2.6c0.7-0.7,1.6-1.3,2.7-1.7c1-0.4,2.1-0.6,3.3-0.6c1.2,0,2.3,0.2,3.3,0.6c1,0.4,1.9,1,2.7,1.7
			c0.8,0.7,1.3,1.6,1.8,2.6C43,67.3,43.3,68.4,43.3,69.6z M40,69.6c0-0.7-0.1-1.5-0.3-2.1c-0.2-0.7-0.6-1.3-1-1.8
			c-0.4-0.5-1-0.9-1.6-1.2c-0.6-0.3-1.4-0.5-2.2-0.5c-0.8,0-1.6,0.2-2.2,0.5c-0.6,0.3-1.2,0.7-1.6,1.2c-0.4,0.5-0.8,1.1-1,1.8
			c-0.2,0.7-0.3,1.4-0.3,2.1c0,0.7,0.1,1.5,0.3,2.1c0.2,0.7,0.6,1.3,1,1.8c0.4,0.5,1,0.9,1.6,1.2c0.6,0.3,1.4,0.5,2.2,0.5
			c0.8,0,1.6-0.2,2.2-0.5c0.6-0.3,1.2-0.7,1.6-1.2c0.4-0.5,0.8-1.1,1-1.8C39.9,71.1,40,70.4,40,69.6z"/>
		<path class="st11" d="M49,65.4l2.1,12.2l0.1,0l5.1-11.4l3.2,0.4l2.4,12.3l0.1,0l4.9-11.4l3.2,0.4l-7,14.9l-3.2-0.4l-2.4-12.1
			l-0.1,0l-5.2,11.2L49,81L45.7,65L49,65.4z"/>
		<path class="st11" d="M73.6,65.6c0.1,0.4,0.1,0.8,0.2,1.3c0,0.5,0.1,0.9,0.1,1.2l0.1,0c0.2-0.4,0.4-0.8,0.7-1.2
			c0.3-0.4,0.7-0.7,1.1-1c0.4-0.3,0.9-0.5,1.4-0.7c0.5-0.2,1.1-0.3,1.6-0.3c1-0.1,1.9,0.1,2.6,0.4c0.7,0.3,1.4,0.7,1.9,1.3
			c0.5,0.5,0.9,1.2,1.2,1.9c0.3,0.8,0.4,1.6,0.5,2.4l0.5,9.6l-3.1,0.2L82,72c0-0.6-0.1-1.2-0.2-1.8c-0.1-0.6-0.3-1.1-0.6-1.5
			c-0.3-0.4-0.7-0.8-1.1-1c-0.5-0.2-1.1-0.3-1.8-0.3c-1.2,0.1-2.2,0.6-2.9,1.6c-0.7,1-1,2.2-1,3.8l0.5,8.3l-3.1,0.2L71,69.1
			c0-0.4-0.1-1-0.1-1.6c-0.1-0.7-0.1-1.2-0.2-1.7L73.6,65.6z"/>
		<g>
			<path class="st12" d="M44.3,77.6c-0.3-2-1.8-2.3-2.4-2.3c-0.2,0-0.3-0.1-0.4-0.2c-0.5-0.7-1.1-0.9-1.6-0.9c-0.2,0-0.5,0-0.7,0.1
				c-0.1,0-0.1,0-0.2,0c-0.2,0-0.4-0.1-0.5-0.2c-0.5-0.6-1.1-0.8-1.6-0.8c-0.1,0-0.3,0-0.4,0c0,0-0.1,0-0.1,0
				c-0.3,0-0.6-0.3-0.6-0.6l0-3.7c0-1-0.7-1.4-1.4-1.4c-0.7,0-1.4,0.5-1.4,1.4c0,1.6,0,6.4,0,7.9c0,0.2-0.1,0.5-0.4,0.6
				c-2.8,1.2,0.6,6.5,1.2,7.4C34,84.7,34,84.8,34,85l0.1,2.1c0,0.3,0.3,0.6,0.6,0.6c0,0,0,0,0,0l6.9,0c0.3,0,0.6-0.2,0.6-0.5
				l0.3-2.1c0-0.1,0-0.2,0.1-0.3C44.5,81.9,44.6,79.4,44.3,77.6z"/>
			<path d="M45.4,77.3c-0.2-1.4-1-2.2-1.5-2.6c-0.6-0.4-1.1-0.5-1.6-0.6c-0.6-0.8-1.4-1.2-2.4-1.2c-0.2,0-0.4,0-0.6,0.1
				c-0.5-0.6-1.2-0.9-2-1c-0.1,0-0.2,0-0.3,0c0,0,0,0,0,0l0-1.1l0-2.1c0-0.7-0.3-1.4-0.8-1.9c-0.5-0.4-1-0.6-1.7-0.6
				c-0.7,0-1.3,0.3-1.8,0.7c-0.5,0.5-0.7,1.1-0.7,1.8l0,2.1l0,1.3l0,1.2l0,2.9c-0.7,0.4-1.1,0.9-1.3,1.6c-0.3,1.1-0.1,2.5,0.8,4.4
				c0.6,1.2,1.2,2.3,1.6,2.7l0.1,1.9c0.1,0.9,0.8,1.5,1.7,1.5l6.9,0c0.8,0,1.5-0.6,1.6-1.4l0.3-2C45.2,82.6,45.8,80,45.4,77.3z
				 M42.6,84.9L42.3,87c0,0.3-0.3,0.6-0.6,0.6l-6.9,0c0,0,0,0,0,0c-0.3,0-0.6-0.3-0.6-0.6L34.1,85c0-0.1,0-0.2-0.1-0.3
				c-0.6-0.9-4.1-6.2-1.3-7.4c0.2-0.1,0.4-0.3,0.4-0.6c0-1.4,0-6.3,0-7.9c0-1,0.7-1.4,1.4-1.4c0.7,0,1.4,0.5,1.4,1.4l0,3.7
				c0,0.3,0.3,0.6,0.6,0.6c0,0,0.1,0,0.1,0c0.1,0,0.3,0,0.4,0c0.5,0,1.1,0.2,1.6,0.8c0.1,0.2,0.3,0.2,0.5,0.2c0.1,0,0.1,0,0.2,0
				c0.2,0,0.4-0.1,0.7-0.1c0.5,0,1.2,0.2,1.6,0.9c0.1,0.1,0.3,0.2,0.4,0.2c0.6,0,2.1,0.3,2.4,2.3c0.3,1.8,0.2,4.3-1.7,7.2
				C42.6,84.7,42.6,84.8,42.6,84.9z"/>
		</g>
	</g>
</g>
</svg>
