<?xml version="1.0" encoding="utf-8"?>
<!-- Generator: Adobe Illustrator 23.0.0, SVG Export Plug-In . SVG Version: 6.00 Build 0)  -->
<svg version="1.1" id="圖層_1" xmlns="http://www.w3.org/2000/svg" xmlns:xlink="http://www.w3.org/1999/xlink" x="0px" y="0px"
	 viewBox="0 0 50 40" style="enable-background:new 0 0 50 40;" xml:space="preserve">
<style type="text/css">
	.st0{fill:none;}
	.st1{fill:#FFFFFF;}
</style>
<rect class="st0" width="50" height="40"/>
<g>
	<path class="st1" d="M35,17.8c0,0.5,0.3,0.9,0.9,0.9c0.5,0,0.9-0.3,0.9-0.9v-3.6h3.6v-2.6H34v-0.3c1.5-0.5,2.7-1.9,2.7-3.6
		c0-1.6-3.7-7.7-3.7-7.7s-3.7,6.1-3.7,7.7c0,1.7,1.2,3.1,2.7,3.6v0.3h-6.5v2.6h9.8L35,17.8L35,17.8z"/>
	<path class="st1" d="M39,17.8c0,1.6-1.4,3-3,3c-1.6,0-3-1.4-3-3v-1.5h-7.7V21h7.3v14.9h7.8V16.3H39V17.8z"/>
	<path class="st1" d="M26.2,27.8v1.5c0,1.6-1.4,3-3,3c-1.6,0-3-1.4-3-3v-1.5H9.5V36h21.1v-8.2H26.2z"/>
	<path class="st1" d="M19.1,23.1H9.5v2.7h12.8v3.6c0,0.5,0.3,0.9,0.9,0.9c0.5,0,0.9-0.3,0.9-0.9v-3.6h6.5v-2.7h-9.4v-1.7
		c0.2-0.1,0.5-0.1,0.6-0.2c1.2-0.6,2-1.9,2-3.3c0-1.6-3.6-7.5-3.6-7.5s-3.6,5.8-3.6,7.5c0,1.4,0.8,2.7,2,3.3
		c0.2,0.1,0.3,0.2,0.6,0.2v1.7H19.1z"/>
</g>
</svg>
