<?xml version="1.0" encoding="utf-8"?>
<!-- Generator: Adobe Illustrator 23.0.0, SVG Export Plug-In . SVG Version: 6.00 Build 0)  -->
<svg version="1.1" id="圖層_1" xmlns="http://www.w3.org/2000/svg" xmlns:xlink="http://www.w3.org/1999/xlink" x="0px" y="0px"
	 viewBox="0 0 90 90" style="enable-background:new 0 0 90 90;" xml:space="preserve">
<style type="text/css">
	.st0{fill:none;}
	.st1{fill:#007798;}
	.st2{fill:#FFFFFF;}
</style>
<rect class="st0" width="90" height="90"/>
<g>
	<g>
		<path class="st1" d="M75,90H15C6.7,90,0,83.3,0,75V15C0,6.7,6.7,0,15,0h60c8.3,0,15,6.7,15,15v60C90,83.3,83.3,90,75,90z"/>
	</g>
	<g>
		<path class="st2" d="M9.5,18l-1.4-3c6.2-2.3,10.9-4.6,14.2-6.9h3.4c4.2,2.5,8.9,4.7,14.3,6.7l-1.3,3.1l-1-0.4v9H10.8v-9L9.5,18z
			 M11.5,17.1H37l-3.4-1.5l-3.4-1.6v1.6H18.1v-1.7C16.4,15,14.2,16,11.5,17.1z M12.3,28h23.9v11.8H33v-1.1H15.5v1.1h-3.2V28z
			 M22.6,19.5h-8.8v4.6h8.8V19.5z M15.5,32.3H33v-1.9H15.5V32.3z M15.5,36.3H33v-2.1H15.5V36.3z M18.1,24l-1-1.8
			c-0.4-0.7-0.8-1.2-1-1.6l2-1.1c0.4,0.4,0.9,0.9,1.3,1.5l1.1,1.6L18.1,24z M24.2,10.4c-1.4,0.9-2.7,1.7-4,2.4
			c-0.2,0.1-0.5,0.2-0.8,0.4H29C27.3,12.4,25.7,11.4,24.2,10.4z M34.7,19.5h-9.1v4.6h9.1V19.5z M28,22.5c0.2-0.1,0.5-0.6,1.1-1.4
			l1.1-1.6l2.2,1.1l-1.1,1.9c-0.4,0.7-0.7,1.2-1,1.5L28,22.5z"/>
		<path class="st2" d="M59.1,36.4c-4.6,1.6-8.5,2.7-11.8,3.2l-1-2.9c0.7-0.1,1.3-0.3,1.7-0.3c3.6-0.7,6.4-1.5,8.7-2.4L59.1,36.4z
			 M49,33.9V18.2h26.1v15.7H49z M49.7,9.1h24.6v7.5H49.7V9.1z M71.7,20.7H52.3v1.9h19.4V20.7z M52.3,27h19.4v-2.1H52.3V27z
			 M52.3,31.4h19.4v-2.1H52.3V31.4z M70.9,11.8H53v2.2h18V11.8z M77.9,36.8l-1.2,2.9l-5.9-1.8c-1.8-0.5-3.8-1-5.7-1.4l1.6-2.6
			C70.6,34.6,74.3,35.6,77.9,36.8z"/>
		<path class="st2" d="M12,71.6c0,0.6-0.1,1.2-0.1,1.6c-0.2,3.1-0.6,5.5-1,7.3l-2.7-0.9l0.3-1c0.4-1.5,0.8-3.4,1-5.6
			c0-0.4,0.1-0.8,0.2-1.4L12,71.6z M19.1,56.2c-0.6,1.5-1.6,3.4-2.9,5.7c-1.3,2.3-2.5,4.1-3.6,5.3l1.9-0.2l1.6-0.2l-0.3-1l-0.4-1.2
			l2.3-0.4c0.6,1.4,1.2,3.3,1.6,5.7l-2.5,0.5l-0.1-0.6c0-0.3-0.1-0.5-0.1-0.5c0,0-0.3,0-0.8,0.1c-2.6,0.4-4.9,0.6-7,0.7l-0.6-2.8
			l0.7,0l0.7,0c1.5-2,2.8-4.1,4-6.2c-0.1,0-0.3,0-0.3,0c-1.5,0.3-2.5,0.4-3.2,0.4c-0.6,0-1.1,0-1.4,0.1L8.2,59h0.6l0.5-0.1
			c1.4-2.2,2.6-4.9,3.6-7.9c0.1-0.4,0.3-0.8,0.5-1.4l2.9,0.7c-0.3,0.6-0.5,1.1-0.6,1.4c-0.9,2.1-2.1,4.5-3.5,7l1.4-0.1l1.3-0.1
			c0.5-0.9,1-2.1,1.5-3.3L19.1,56.2z M13.2,78.9c0-0.3,0-0.5,0-0.7c0.1-1.3,0.1-2.4,0.1-3.1c0-1.7-0.1-2.9-0.2-3.7l2.3-0.1
			c0.3,1.3,0.4,2.6,0.4,3.8l0.1,3.6L13.2,78.9z M17.9,76.8l-0.4-2.9c-0.2-1.1-0.4-2-0.7-2.7l2-0.4c0.5,1.1,1,2.6,1.3,4.7
			c0,0.1,0.1,0.3,0.1,0.6L17.9,76.8z M19.5,69.8v-2.9h3.8v-4.5h-3.4v-2.8h3.4v-3.8L21.8,56c-0.3,0-0.8,0.1-1.3,0.1
			c-0.5,0-0.9,0-1.1,0.1l-0.5-2.8h2.7c0.9,0,1.4,0,1.8-0.1v-3.7h2.7V53l1.6-0.4l1.3-0.4l0.8,2.5c-1,0.4-2.3,0.7-3.7,0.9v4h3v2.8h-3
			v4.5h3.2v2.9h-3.2c0,2.3-0.5,4.5-1.6,6.5c-1.1,2.1-2.6,3.7-4.5,5l-2-2.6c3.3-1.8,5-4.7,5.3-8.9H19.5z M39.6,53.5
			c-0.7,3.5-1.7,6.9-3,10.1c2.1,3.2,3.1,6.3,3.1,9.2c0,3.3-1.3,5.1-4,5.4c-0.2,0-0.5,0-0.9,0L33.8,75c0.3,0,0.6,0.1,1,0.1
			c0.8,0,1.4-0.2,1.6-0.5c0.3-0.4,0.4-0.9,0.4-1.7c0-2-1-5-3.1-9.1c1-2.5,1.9-5.3,2.6-8.2c0.1-0.4,0.2-1,0.4-1.6h-3.9v27.5h-2.7V51
			h9.5V53.5z"/>
		<path class="st2" d="M74.3,62.5h-9.8v5.2h11.2v3H64.5v6.7c2.8,0.2,5.1,0.2,6.7,0.2l6.8-0.1l-0.7,3.3h-7.6c-4.7,0-8.2-0.4-10.5-1.3
			c-2.3-0.9-4.2-2.6-5.8-5c-1.6,2.8-3.2,4.9-4.7,6.4l-2.6-2.4c1.8-1.6,3.2-3.4,4.3-5.4c1.1-2,2-4.6,2.7-8l3.1,0.6
			c-0.1,0.3-0.1,0.6-0.1,0.8c-0.3,1.8-0.7,3.4-1.3,4.6c1.5,3,3.7,5,6.5,5.9V62.5H50.1V61h-3v-8.4h13.5L60,51.2
			c-0.3-0.6-0.5-1.1-0.7-1.4l3.5-0.4c0.3,0.4,0.5,0.9,0.7,1.5l0.6,1.6h13.2V61h-3V62.5z M74.1,55.7H50.3v3.8h23.8V55.7z"/>
	</g>
</g>
</svg>
