<?xml version="1.0" encoding="utf-8"?>
<!-- Generator: Adobe Illustrator 23.0.0, SVG Export Plug-In . SVG Version: 6.00 Build 0)  -->
<svg version="1.1" id="圖層_1" xmlns="http://www.w3.org/2000/svg" xmlns:xlink="http://www.w3.org/1999/xlink" x="0px" y="0px"
	 viewBox="0 0 106 60" style="enable-background:new 0 0 106 60;" xml:space="preserve">
<style type="text/css">
	.st0{fill:none;}
	.st1{fill:#D92028;}
	.st2{fill:#EF9929;}
</style>
<rect class="st0" width="106" height="60"/>
<g>
	<g>
		<path class="st1" d="M27.4,46.2c0.4,0,0.8,0,1.3,0c0.5,3.9,3.9,3.5,4.4,6.4c0.1,0.9-0.3,1.3-0.1,2.4c0.2,1.5,1.7,2.2,3.7,2.3
			c1.3,0,3.2,0.5,4.2,1.3c1.6,1.2,2.4,1.5,3.6,1.5c1,0,2.1-1.4,1.3-2.5c1.2,0,1.4-1.2,1-1.6c0.5,0.3,1.2-0.8,0.8-1.3
			c0.5,0,1.4-0.9,0.9-1.7c0.9-0.6,0.6-1.9-0.5-3c-2.1-1.1-2.7-1.2-5.6-1.2c-2,0.3-1.8-0.6-2.1-2.2c-0.1-1.5-1.2-4.3-3.4-5.7
			c0.5-0.7,0.6-1.8,0.5-2.8c2.2-0.5,1-3-0.3-3.4c0.1-1,0.1-2-0.1-2.8c4.2-0.3,8.2-2.5,11-4.9c1.2,3.2,6.7,2,4.3-1.5
			c1.7,1.1,2.7-1.9,1.4-2.7c2.1-1.1,0.7-4.9-1.9-4.2c0.2-1.9-2.5-3-3.9-1.1c-1.2-2.8-6.5,0-3.7,3.1c-2.2,0.1-4.8,0.5-7,1.5
			c1-1.3,1.4-2.4,1.7-3.8c2.4,0,3.8-1.2,3.8-2.8c0-1.6-1.3-2.8-3.7-2.8c-0.6-2.2-1.8-4.6-3.4-6l5.1,1.7l-0.9-1.7
			c-1.8-2.6-4.8-4.2-7.7-4.8c1.3-0.9,2.4-0.8,3.8-0.8C31.9-1,28.4,0.4,27.4,1c-1-0.6-4.6-1.9-8.4,0.2c1.4,0,2.6-0.1,3.8,0.8
			c-2.9,0.6-5.9,2.1-7.7,4.8l-0.9,1.7l5.1-1.7c-1.6,1.4-2.8,3.9-3.4,6c-2.4,0-3.7,1.2-3.7,2.8c0,1.6,1.4,2.8,3.8,2.9
			c0.3,1.4,0.7,2.5,1.7,3.8c-2.2-1-4.8-1.4-7-1.5c2.8-3.1-2.5-6-3.7-3.1c-1.4-1.9-4.1-0.8-3.9,1.1c-2.6-0.7-4,3.1-1.9,4.2
			c-1.3,0.8-0.3,3.8,1.4,2.7c-2.4,3.5,3.1,4.7,4.3,1.5c2.8,2.4,6.8,4.6,11,4.9c-0.1,0.8-0.2,1.9-0.1,2.8c-1.3,0.4-2.5,2.9-0.3,3.4
			c-0.1,1,0,2.1,0.5,2.8c-2.2,1.4-3.3,4.1-3.4,5.7c-0.3,1.6-0.2,2.5-2.1,2.2c-3,0-3.5,0.1-5.6,1.2c-1.1,1.1-1.4,2.4-0.5,3
			c-0.5,0.8,0.3,1.7,0.9,1.7c-0.4,0.5,0.4,1.6,0.9,1.3c-0.4,0.4-0.2,1.6,1,1.6C8.3,58.6,9.3,60,10.3,60c1.2,0,2-0.3,3.7-1.5
			c1-0.8,2.9-1.3,4.2-1.3c2,0,3.4-0.8,3.7-2.3c0.2-1-0.2-1.4-0.1-2.4c0.5-2.9,3.9-2.5,4.4-6.4C26.5,46.2,26.9,46.2,27.4,46.2
			L27.4,46.2z"/>
	</g>
	<g>
		<path class="st2" d="M78.6,46.2c0.4,0,0.8,0,1.3,0c0.5,3.9,3.9,3.5,4.4,6.4c0.1,0.9-0.3,1.3-0.1,2.4c0.2,1.5,1.7,2.2,3.7,2.3
			c1.3,0,3.2,0.5,4.2,1.3c1.6,1.2,2.4,1.5,3.6,1.5c1,0,2.1-1.4,1.3-2.5c1.2,0,1.4-1.2,1-1.6c0.5,0.3,1.2-0.8,0.8-1.3
			c0.5,0,1.4-0.9,0.9-1.7c0.9-0.6,0.6-1.9-0.5-3c-2.1-1.1-2.7-1.2-5.6-1.2c-2,0.3-1.8-0.6-2.1-2.2c-0.1-1.5-1.2-4.3-3.4-5.7
			c0.5-0.7,0.6-1.8,0.5-2.8c2.2-0.5,1-3-0.3-3.4c0.1-1,0.1-2-0.1-2.8c4.2-0.3,8.2-2.5,11-4.9c1.2,3.2,6.7,2,4.3-1.5
			c1.7,1.1,2.7-1.9,1.4-2.7c2.1-1.1,0.7-4.9-1.9-4.2c0.2-1.9-2.5-3-3.9-1.1c-1.2-2.8-6.5,0-3.7,3.1c-2.2,0.1-4.8,0.5-7,1.5
			c1-1.3,1.4-2.4,1.7-3.8c2.4,0,3.8-1.2,3.8-2.8c0-1.6-1.3-2.8-3.7-2.8c-0.6-2.2-1.8-4.6-3.4-6l5.1,1.7l-0.9-1.7
			c-1.8-2.6-4.8-4.2-7.7-4.8c1.3-0.9,2.4-0.8,3.8-0.8C83.2-1,79.6,0.4,78.6,1c-1-0.6-4.6-1.9-8.4,0.2c1.4,0,2.6-0.1,3.8,0.8
			c-2.9,0.6-5.9,2.1-7.7,4.8l-0.9,1.7l5.1-1.7c-1.6,1.4-2.8,3.9-3.4,6c-2.4,0-3.7,1.2-3.7,2.8c0,1.6,1.4,2.8,3.8,2.9
			c0.3,1.4,0.7,2.5,1.7,3.8c-2.2-1-4.8-1.4-7-1.5c2.8-3.1-2.5-6-3.7-3.1c-1.4-1.9-4.1-0.8-3.9,1.1c-2.6-0.7-4,3.1-1.9,4.2
			c-1.3,0.8-0.3,3.8,1.4,2.7c-2.4,3.5,3.1,4.7,4.3,1.5c2.8,2.4,6.8,4.6,11,4.9c-0.1,0.8-0.2,1.9-0.1,2.8c-1.3,0.4-2.5,2.9-0.3,3.4
			c-0.1,1,0,2.1,0.5,2.8c-2.2,1.4-3.3,4.1-3.4,5.7c-0.3,1.6-0.2,2.5-2.1,2.2c-3,0-3.5,0.1-5.6,1.2c-1.1,1.1-1.4,2.4-0.5,3
			c-0.5,0.8,0.3,1.7,0.9,1.7c-0.4,0.5,0.4,1.6,0.9,1.3c-0.4,0.4-0.2,1.6,1,1.6c-0.7,1.1,0.3,2.5,1.3,2.5c1.2,0,2-0.3,3.7-1.5
			c1-0.8,2.9-1.3,4.2-1.3c2,0,3.4-0.8,3.7-2.3c0.2-1-0.2-1.4-0.1-2.4c0.5-2.9,3.9-2.5,4.4-6.4C77.8,46.2,78.2,46.2,78.6,46.2
			L78.6,46.2z"/>
	</g>
</g>
</svg>
