<?xml version="1.0" encoding="utf-8"?>
<!-- Generator: Adobe Illustrator 23.0.0, SVG Export Plug-In . SVG Version: 6.00 Build 0)  -->
<svg version="1.1" id="圖層_1" xmlns="http://www.w3.org/2000/svg" xmlns:xlink="http://www.w3.org/1999/xlink" x="0px" y="0px"
	 viewBox="0 0 40 40" style="enable-background:new 0 0 40 40;" xml:space="preserve">
<style type="text/css">
	.st0{fill:none;}
	.st1{fill:#5D5D5D;}
</style>
<rect y="0" class="st0" width="44" height="40"/>
<g>
	<g>
		<g>
			<path class="st1" d="M8.4,15.4c-0.4,0-0.7-0.3-0.7-0.7V8.2c0-2.9,2.4-5.2,5.2-5.2h8.8c0.4,0,0.7,0.3,0.7,0.7s-0.3,0.7-0.7,0.7
				h-8.8c-2.1,0-3.8,1.7-3.8,3.8v6.5C9.1,15.1,8.8,15.4,8.4,15.4z"/>
		</g>
		<g>
			<path class="st1" d="M8.4,18.7c-0.2,0-0.4-0.1-0.5-0.2c-0.1-0.1-0.2-0.3-0.2-0.5c0-0.2,0.1-0.4,0.2-0.5c0.3-0.3,0.7-0.3,1,0
				C9,17.6,9.1,17.8,9.1,18c0,0.2-0.1,0.4-0.2,0.5C8.8,18.7,8.6,18.7,8.4,18.7z"/>
		</g>
		<g>
			<path class="st1" d="M26.9,37h-14c-2.9,0-5.2-2.3-5.2-5.2V21.3c0-0.4,0.3-0.7,0.7-0.7c0.4,0,0.7,0.3,0.7,0.7v10.5
				c0,2.1,1.7,3.8,3.8,3.8h14c2.1,0,3.8-1.7,3.8-3.8V8.2c0-0.4,0.3-0.7,0.7-0.7s0.7,0.3,0.7,0.7v23.6C32.2,34.7,29.8,37,26.9,37z"/>
		</g>
		<g>
			<path class="st1" d="M27.7,32.5H8.4c-0.4,0-0.7-0.3-0.7-0.7c0-0.4,0.3-0.7,0.7-0.7h19.3c0.4,0,0.7,0.3,0.7,0.7
				C28.5,32.2,28.1,32.5,27.7,32.5z"/>
		</g>
		<g>
			<path class="st1" d="M19.9,34.6c-0.4,0-0.7-0.3-0.7-0.7v-2.1c0-0.4,0.3-0.7,0.7-0.7c0.4,0,0.7,0.3,0.7,0.7v2.1
				C20.7,34.3,20.3,34.6,19.9,34.6z"/>
		</g>
	</g>
	<g>
		<path class="st1" d="M18.7,21.3c-0.1,0-0.2,0-0.3,0c-0.2-0.1-0.4-0.3-0.5-0.6l-1.6-10.6c0-0.2,0.1-0.5,0.3-0.7
			c0.2-0.2,0.5-0.2,0.7-0.1l2.7,1c0.4,0.1,0.6,0.5,0.4,0.9c-0.1,0.4-0.5,0.6-0.9,0.4l-1.6-0.6l1.2,8.1l6.3-5.3L24,13.3
			c-0.4-0.1-0.6-0.5-0.4-0.9c0.1-0.4,0.6-0.6,0.9-0.4l2.7,1c0.2,0.1,0.4,0.3,0.5,0.5c0,0.2,0,0.5-0.2,0.7l-8.2,7
			C19.1,21.2,18.9,21.3,18.7,21.3z"/>
	</g>
	<g>
		<path class="st1" d="M19.9,11.7c-0.1,0-0.2,0-0.3,0c-0.4-0.1-0.6-0.6-0.4-0.9C22.1,3,30.8-0.9,38.6,1.9c0.4,0.1,0.6,0.5,0.4,0.9
			c-0.1,0.4-0.5,0.6-0.9,0.4c-7-2.6-14.9,0.9-17.5,7.9C20.4,11.5,20.2,11.7,19.9,11.7z"/>
	</g>
	<g>
		<path class="st1" d="M24.2,13.3c-0.1,0-0.2,0-0.3,0c-0.4-0.1-0.6-0.6-0.4-0.9c2.3-6,6.3-13.6,15-10.4c0.4,0.1,0.6,0.5,0.4,0.9
			c-0.1,0.4-0.5,0.6-0.9,0.4c-5.9-2.2-9.8,0.7-13.1,9.6C24.8,13.1,24.5,13.3,24.2,13.3z"/>
	</g>
</g>
</svg>
