<?xml version="1.0" encoding="utf-8"?>
<!-- Generator: Adobe Illustrator 23.0.0, SVG Export Plug-In . SVG Version: 6.00 Build 0)  -->
<svg version="1.1" id="圖層_1" xmlns="http://www.w3.org/2000/svg" xmlns:xlink="http://www.w3.org/1999/xlink" x="0px" y="0px"
	 viewBox="0 0 27 108" style="enable-background:new 0 0 27 108;" xml:space="preserve">
<style type="text/css">
	.st0{fill:none;}
	.st1{fill:#FFFFFF;}
	.st2{fill:#7F7F7F;}
	.st3{fill:#FF0000;stroke:#FF0000;stroke-width:2;stroke-miterlimit:10;}
	.st4{fill:#2F92B6;}
</style>
<rect y="81" class="st0" width="27" height="27"/>
<g>
	<path class="st1" d="M17.4,103.9H9.6c-2.5,0-4.6-2-4.6-4.6v-7.8c0-2.5,2-4.6,4.6-4.6h7.8c2.5,0,4.6,2,4.6,4.6v7.8
		C22,101.8,20,103.9,17.4,103.9z"/>
	<path class="st2" d="M17.4,104.4H9.6c-2.8,0-5.1-2.3-5.1-5.1v-7.8c0-2.8,2.3-5.1,5.1-5.1h7.8c2.8,0,5.1,2.3,5.1,5.1v7.8
		C22.5,102.1,20.2,104.4,17.4,104.4z M9.6,87.4c-2.3,0-4.1,1.8-4.1,4.1v7.8c0,2.3,1.8,4.1,4.1,4.1h7.8c2.3,0,4.1-1.8,4.1-4.1v-7.8
		c0-2.3-1.8-4.1-4.1-4.1H9.6z"/>
</g>
<g>
	<g>
		<path class="st3" d="M12,99c-0.1,0-0.2,0-0.2-0.1l-4.6-4.7c-0.1-0.1-0.1-0.3,0-0.5c0.1-0.1,0.3-0.1,0.5,0L12,98
			c1.8-5,5.6-8.9,10.4-10.9c0.2-0.1,0.4,0,0.4,0.2c0.1,0.2,0,0.4-0.2,0.4c-4.8,2-8.6,6-10.2,11C12.3,98.9,12.2,99,12,99L12,99z"/>
	</g>
</g>
<g>
	<rect y="54" class="st0" width="27" height="27"/>
	<g>
		<path class="st1" d="M17.4,76.9H9.6c-2.5,0-4.6-2-4.6-4.6v-7.8c0-2.5,2-4.6,4.6-4.6h7.8c2.5,0,4.6,2,4.6,4.6v7.8
			C22,74.8,20,76.9,17.4,76.9z"/>
		<path class="st2" d="M17.4,77.4H9.6c-2.8,0-5.1-2.3-5.1-5.1v-7.8c0-2.8,2.3-5.1,5.1-5.1h7.8c2.8,0,5.1,2.3,5.1,5.1v7.8
			C22.5,75.1,20.2,77.4,17.4,77.4z M9.6,60.4c-2.3,0-4.1,1.8-4.1,4.1v7.8c0,2.3,1.8,4.1,4.1,4.1h7.8c2.3,0,4.1-1.8,4.1-4.1v-7.8
			c0-2.3-1.8-4.1-4.1-4.1H9.6z"/>
	</g>
</g>
<g>
	<rect y="27" class="st0" width="27" height="27"/>
	<g>
		<circle class="st1" cx="13.7" cy="41.2" r="8.5"/>
		<path class="st2" d="M13.7,50.2c-5,0-9-4-9-9s4-9,9-9c5,0,9,4,9,9S18.7,50.2,13.7,50.2z M13.7,33.2c-4.4,0-8,3.6-8,8s3.6,8,8,8
			s8-3.6,8-8S18.1,33.2,13.7,33.2z"/>
	</g>
	<circle class="st4" cx="13.7" cy="41.2" r="5.4"/>
</g>
<rect class="st0" width="27" height="27"/>
<g>
	<circle class="st1" cx="13.7" cy="13.3" r="8.5"/>
	<path class="st2" d="M13.7,22.3c-5,0-9-4-9-9s4-9,9-9c5,0,9,4,9,9S18.7,22.3,13.7,22.3z M13.7,5.3c-4.4,0-8,3.6-8,8s3.6,8,8,8
		s8-3.6,8-8S18.1,5.3,13.7,5.3z"/>
</g>
</svg>
