<?xml version="1.0" encoding="utf-8"?>
<!-- Generator: Adobe Illustrator 23.0.0, SVG Export Plug-In . SVG Version: 6.00 Build 0)  -->
<svg version="1.1" id="圖層_1" xmlns="http://www.w3.org/2000/svg" xmlns:xlink="http://www.w3.org/1999/xlink" x="0px" y="0px"
	 viewBox="0 0 24 24" style="enable-background:new 0 0 24 24;" xml:space="preserve">
<style type="text/css">
	.st0{fill:none;}
	.st1{fill:#FF684A;}
	.st2{fill:#FFD5C5;}
</style>
<g>
	<path class="st0" d="M12.4,4.5c0-1.9-1.5-3.4-3.4-3.4C7,1,5.5,2.6,5.5,4.5c0,1,0.4,1.8,1,2.5l0-2c0-0.7,0.2-1.3,0.7-1.7
		c0.4-0.4,1.1-0.7,1.7-0.7c0.6,0,1.2,0.2,1.6,0.6c0.5,0.4,0.8,1.1,0.8,1.8l0,2C11.9,6.3,12.4,5.4,12.4,4.5z"/>
	<path class="st1" d="M5.5,4.5C5.5,2.6,7,1,8.9,1c1.9,0,3.4,1.5,3.4,3.4c0,1-0.4,1.9-1.1,2.5l0,1.1c0,0,0,0,0,0c0.1,0,0.2,0,0.3,0
		c1.1-0.8,1.8-2.1,1.8-3.6c0-2.5-2-4.5-4.5-4.5S4.5,2,4.5,4.5c0,1.6,0.8,3,2.1,3.8l0-1.3C5.9,6.3,5.5,5.4,5.5,4.5z"/>
	<path class="st2" d="M18.4,13.3c-0.3-1.9-1.7-2.2-2.3-2.2c-0.2,0-0.3-0.1-0.4-0.2c-0.5-0.7-1.1-0.9-1.6-0.9c-0.2,0-0.5,0-0.6,0.1
		c-0.1,0-0.1,0-0.2,0c-0.2,0-0.4-0.1-0.5-0.2c-0.4-0.6-1-0.8-1.5-0.8c-0.1,0-0.3,0-0.4,0c0,0-0.1,0-0.1,0c-0.3,0-0.6-0.3-0.6-0.6
		l0-3.6c0-0.9-0.7-1.4-1.4-1.4C8.2,3.5,7.5,4,7.5,4.9c0,1.5,0,6.2,0,7.6c0,0.2-0.1,0.4-0.4,0.5c-2.7,1.1,0.6,6.3,1.2,7.2
		c0.1,0.1,0.1,0.2,0.1,0.3l0.1,2c0,0.3,0.3,0.6,0.6,0.6c0,0,0,0,0,0l6.6,0c0.3,0,0.5-0.2,0.6-0.5l0.3-2.1c0-0.1,0-0.2,0.1-0.2
		C18.6,17.4,18.7,15.1,18.4,13.3z"/>
	<path d="M19.4,13.1c-0.2-1.4-0.9-2.1-1.5-2.5c-0.5-0.4-1.1-0.5-1.5-0.5c-0.6-0.7-1.4-1.2-2.3-1.2c-0.2,0-0.4,0-0.6,0.1
		c-0.5-0.6-1.2-0.9-1.9-1c-0.1,0-0.2,0-0.3,0c0,0,0,0,0,0l0-1.1l0-2c0-0.7-0.3-1.3-0.8-1.8c-0.4-0.4-1-0.6-1.6-0.6
		c-0.7,0-1.3,0.3-1.7,0.7c-0.4,0.4-0.7,1-0.7,1.7l0,2l0,1.3l0,1.2l0,2.8c-0.6,0.3-1.1,0.9-1.3,1.6C4.9,14.9,5.2,16.3,6,18
		c0.5,1.2,1.2,2.2,1.5,2.6l0.1,1.9C7.7,23.4,8.4,24,9.2,24l6.6,0c0.8,0,1.5-0.6,1.6-1.4l0.3-2C19.3,18.2,19.8,15.7,19.4,13.1z
		 M16.7,20.4l-0.3,2.1c0,0.3-0.3,0.5-0.6,0.6l-6.6,0c0,0,0,0,0,0c-0.3,0-0.6-0.3-0.6-0.6l-0.1-2c0-0.1,0-0.2-0.1-0.3
		c-0.6-0.9-4-6-1.2-7.2c0.2-0.1,0.4-0.3,0.4-0.5c0-1.4,0-6,0-7.6c0-0.9,0.7-1.4,1.4-1.4c0.7,0,1.4,0.5,1.4,1.4l0,3.6
		c0,0.3,0.3,0.6,0.6,0.6c0,0,0.1,0,0.1,0c0.1,0,0.2,0,0.4,0c0.5,0,1.1,0.2,1.5,0.8C13,10,13.1,10,13.3,10c0.1,0,0.1,0,0.2,0
		c0.2,0,0.4-0.1,0.6-0.1c0.5,0,1.1,0.2,1.6,0.9c0.1,0.1,0.2,0.2,0.4,0.2c0.6,0,2,0.3,2.3,2.2c0.3,1.8,0.2,4.2-1.6,6.9
		C16.8,20.2,16.7,20.3,16.7,20.4z"/>
</g>
</svg>
