<?xml version="1.0" encoding="utf-8"?>
<!-- Generator: Adobe Illustrator 23.0.0, SVG Export Plug-In . SVG Version: 6.00 Build 0)  -->
<svg version="1.1" id="圖層_1" xmlns="http://www.w3.org/2000/svg" xmlns:xlink="http://www.w3.org/1999/xlink" x="0px" y="0px"
	 viewBox="0 0 80 70" style="enable-background:new 0 0 80 70;" xml:space="preserve">
<style type="text/css">
	.st0{fill:none;}
	.st1{fill:#000050;}
</style>
<rect y="10" class="st0" width="80" height="60"/>
<g>
	<path class="st1" d="M43.8,63.3c-4.1,2.4-8.8,3.8-13.8,3.8C15,67.1,2.9,55,2.9,40S15,12.9,30,12.9c5.7,0,11,1.8,15.3,4.8h4.6
		C44.6,12.9,37.7,10,30,10C13.5,10,0,23.5,0,40s13.5,30,30,30c7.1,0,13.7-2.5,18.8-6.7H43.8z"/>
	<path class="st1" d="M24.2,38.4H9.4c0,1.4,0.3,2.8,0.9,4c0.6,1.2,1.5,2.2,2.8,3c0.8,0.5,1.7,0.9,2.7,1.1c1,0.3,2.2,0.4,3.6,0.4
		c0.8,0,1.5,0,2.1-0.1c0.6,0,1-0.1,1.2-0.1l-0.4,2.7c-0.1,0-0.5,0-1.1,0.1c-0.6,0-1.3,0.1-2.2,0.1c-2.2,0-4.1-0.3-5.7-0.8
		c-1.6-0.6-2.9-1.3-4-2.3c-0.9-0.8-1.6-1.9-2.3-3.2c-0.6-1.3-0.9-2.7-0.9-4.3c0-1.6,0.2-3,0.7-4.2c0.5-1.3,1.2-2.4,2.1-3.5
		c0.8-0.9,1.8-1.6,3-2.1c1.2-0.5,2.4-0.8,3.7-0.8c1.3,0,2.4,0.2,3.4,0.6c1,0.4,1.8,1,2.6,1.7c0.8,0.9,1.4,1.9,1.8,3.2
		C24,35.1,24.2,36.7,24.2,38.4z M21,36.1c-0.2-1.7-0.8-3-1.7-4c-0.9-1-2.2-1.4-3.7-1.4c-1.5,0-2.8,0.5-3.8,1.5c-1,1-1.7,2.3-2.1,4
		H21z"/>
	<path class="st1" d="M33,41c-0.8,0.3-1.6,0.5-2.6,0.7c-0.1,0-0.2,0-0.3,0l-0.4-2.4c0.2,0,0.4-0.1,0.5-0.1c0.9-0.2,1.7-0.4,2.5-0.6
		c0.1,0,0.2,0,0.3-0.1v-5.3h-3.2v-2.2H33v-4.8h2.3v4.8h2.9v2.2h-2.9v4.6l1.4-0.5c0.7-0.3,1.2-0.5,1.5-0.6l0.1,2.3l-0.4,0.2
		c-0.3,0.1-0.6,0.2-1,0.4l-1.6,0.6v6.7v0.3c0,0.9-0.2,1.6-0.6,2c-0.4,0.4-1.2,0.6-2.3,0.6h-1.7l-0.6-2.4l2,0.1
		c0.5,0,0.8-0.3,0.8-0.8V41z M42.1,35.9h-0.3c-0.9,0-1.5-0.2-1.9-0.6c-0.4-0.4-0.6-1.2-0.6-2.4v-6.7h2.4v3.2c3.3-0.3,6.7-1,10.1-2
		l0.8,2.1c-2.9,0.9-6.2,1.5-10,1.9c-0.3,0-0.6,0.1-1,0.1v1.4c0,0.6,0.3,0.9,0.9,0.9h7.4c0.5,0,0.8-0.1,0.9-0.2
		c0.1-0.2,0.2-0.7,0.3-1.6c0-0.2,0-0.4,0.1-0.6l2.2,0.7v0.6c-0.1,0.8-0.3,1.6-0.6,2.3c-0.3,0.7-1.1,1-2.3,1H42.1z M39.3,37.6h12.6
		V50h-2.3v-1.2h-7.9V50h-2.3V37.6z M41.6,42h7.9v-2.4h-7.9V42z M41.6,46.7h7.9V44h-7.9V46.7z"/>
	<path class="st1" d="M55.4,36.3c2-3,3.5-6.3,4.6-10l2.3,0.8c-0.1,0.2-0.1,0.4-0.2,0.5c-0.5,1.7-1,3.3-1.6,4.5V50h-2.4V36.7
		C58.1,36.9,58,37,58,37.1c-0.4,0.8-1,1.5-1.7,2.3L55.4,36.3z M62.3,48.6l-1.4-2.1c2.2-1.3,4.1-3.3,5.7-6h-5.1v-2.3h7.4v-2.3h-5.7
		v-8.4H77v8.4h-5.8v2.3h7.6v2.3h-5.4c1.3,2.3,3.1,4.3,5.7,5.9l-1.5,2.1c-2.7-2.1-4.9-4.8-6.4-8.1V50h-2.4v-9.4
		c-0.9,1.9-1.8,3.4-2.8,4.6C65,46.3,63.8,47.4,62.3,48.6z M74.6,29.8h-9.1v3.9h9.1V29.8z"/>
</g>
</svg>
