<?xml version="1.0" encoding="utf-8"?>
<!-- Generator: Adobe Illustrator 23.0.0, SVG Export Plug-In . SVG Version: 6.00 Build 0)  -->
<svg version="1.1" id="圖層_1" xmlns="http://www.w3.org/2000/svg" xmlns:xlink="http://www.w3.org/1999/xlink" x="0px" y="0px"
	 viewBox="0 0 230 290" style="enable-background:new 0 0 230 290;" xml:space="preserve">
<style type="text/css">
	.st0{fill:none;}
	.st1{fill:#FFFFFF;}
	.st2{fill:#BE990E;}
	.st3{fill:#C28302;}
	.st4{fill:#231815;}
	.st5{fill:#FFF100;}
	.st6{fill:#008CD6;}
	.st7{fill:#E60012;}
	.st8{fill-rule:evenodd;clip-rule:evenodd;fill:#231815;}
	.st9{fill-rule:evenodd;clip-rule:evenodd;fill:#FFFFFF;}
</style>
<rect class="st0" width="230" height="290"/>
<g>
	<path class="st1" d="M13.6,232.8c4.6,6.6,17.4,26.1,27.8,33.6c9.9,7.5,19.9,12.4,29.4,16.2c16.2,6.2,30.2,7.5,41.4,7.5
		c2.1,0,3.7,0,5.8,0c9.9-0.4,19.9-2.1,29-5c21.1-6.2,38.5-18.2,51.4-34c5.8-7.5,10.8-15.7,14.5-24.9c1.2-3.3,4.1-0.4,7.5-5
		c2.5-2.9,0.8-11.2,3.3-13.7c0.4-2.1,4.1-4.6,4.6-8.7c0.4-5.8-4.1-8.7-7-12c0-0.4-0.4-0.4-0.4-0.8c-0.4-3.7-0.8-7.5-1.2-10.8
		c-2.1-9.9-5.4-19.9-9.9-28.6c-4.1-8.3-9.5-15.7-16.2-22.4c-8.7-9.1-18.6-16.6-30.2-22.4c-12.8-6.2-26.9-9.9-42.7-10.8
		c-2.5,0-5-0.4-7.5-0.4c-4.1,0-8.3,0.4-12.4,0.8c-10.8,1.2-21.1,3.7-30.7,7.5c-14.1,5.4-26.5,13.7-36.9,23.6
		c-9.1,8.7-16.2,19.1-21.1,30.7c-5,11.6-7.9,24-7.9,37.3c0,1.7,0.4,2.9,0.4,3.7c0,1.2,0.4,2.1-0.4,3.7c-2.1,5-2.5,8.3-2.1,11.2
		c0.8,2.9,2.5,5,5,7.9C5.3,232.4,9.8,232.8,13.6,232.8z"/>
	<rect x="113" y="203.8" class="st2" width="1.2" height="82"/>
	<rect x="113" y="92.4" class="st2" width="1.2" height="75.8"/>
	<path class="st2" d="M224.8,196.4c-0.4-4.1-1.2-3.3-3.3-6.2c-2.5-2.9-4.6-5.4-4.6-7.9c-4.1-50.1-49.7-89.9-105.2-89.9
		c-58.4,0-105.2,43.5-105.2,97.4c0,1.2,0,3.7,0,5c-0.4,2.9-3.3,1.7-2.9,11.6c0.4,6.6,3.3,5.8,4.6,8.7c1.7,5-1.2,5,1.7,12
		c3.3,8.3,6.6,2.5,8.3,5.8c17,33.1,51.8,54.3,94,54.3c45.6,0,83.7-25.3,98.6-63c0.8-2.5,4.1,0.8,7.5-4.6c2.5-3.7,1.2-9.1,1.7-11.2
		C220.7,203.8,225.3,202.6,224.8,196.4z M202.1,142.1c3.3,5.4,5.4,8.3,5,10.4c-0.8,2.1-2.9,2.5-4.1,2.5c-1.2,0.4-2.1,0.4-3.3,2.9
		c-2.1,4.1,0.8,11.2-1.2,10.4c-1.7-0.8-3.7,0.4-4.1,1.2c-0.4,0.8,0,3.3-2.9,5.4c-2.9,2.1-5.4,1.2-5.4,1.2l-3.3-1.2
		c0,0-0.4,0.4-2.9-6.2c-2.1-4.6-2.5-5.8-2.5-5.8l0,0l0,0c0,0,3.3-2.1,10.4-8.7s9.1-19.5,9.1-19.5S198.3,137.1,202.1,142.1z
		 M168.5,167.4c4.1-1.7,7.5-3.7,7.5-3.7s0.8,1.7,2.5,5c1.7,4.1,2.5,6.2,2.5,6.2s-5-1.2-10.8-2.1c-5-0.8-9.9-1.2-9.9-1.2
		S164.4,169,168.5,167.4z M158.1,170.7c0,0-0.8-0.4-9.5-1.2c-9.1-0.8-9.5-0.8-9.5-0.8s-0.8,0-1.7-2.5c-0.8-2.5-1.7-3.3-1.2-7
		c0-5,0.8-5.8,3.7-11.6c2.9-6.6,10.4-11.6,10.4-11.6s4.1,2.9,12.4,11.2c8.7,8.3,12.8,15.7,12.8,15.7s-0.8,0.4-7.9,3.7
		C159.8,169.9,158.1,170.7,158.1,170.7z M194.2,131.3c0.8,0.8,1.2,2.1,1.2,2.1s-0.8,4.6-2.5,8.7c-1.7,4.1-2.1,5.4-6.2,10.4
		c-4.1,5-10.4,8.7-10.4,8.7s0,0-3.7-5s-1.2-2.1-6.6-7.9c-5.4-6.2-2.1-2.1-7.9-7.5s-7-6.2-7-6.2s1.7-4.6,1.7-11.6
		c0-7-3.3-9.5-3.3-9.5s0.8,0,5.8,0.4c5,0.4,13.3,1.2,23.6,5.4C190.5,123.9,192.9,130.5,194.2,131.3z M136.2,99.4
		c2.5-3.3,3.7-2.5,3.7-2.5s6.2,1.7,12,4.1c7.9,2.9,6.6,2.9,15.3,7.5c8.7,4.6,12.8,8.7,12.8,8.7l2.9,2.5c0,0-5.8-2.5-15.3-5
		c-9.5-2.5-19.1-2.1-19.1-2.1s-1.7-1.2-7.5-6.2c-3.7-2.9-4.1-3.7-4.1-3.7S135.4,100.3,136.2,99.4z M81.1,97.4c0,0,12-2.9,14.1-3.3
		c2.9-0.4,5.4-0.8,7.9-0.8c1.2,0,2.1-0.4,3.3,0h1.7h5.4h2.1l10.8,1.2l6.6,1.7c0,0,0.4,7.5,6.6,11.2c4.6,2.5,7,5.4,7,5.4
		s-0.8-0.4-10.4,0c-9.5,0.4-14.1,0.8-14.1,0.8l-5.8,0.4c0,3.3,0-2.1,0,0.8v0.4c0,0,14.1-1.7,19.1-1.7s12,0,12,0s3.3,3.3,3.7,9.1
		c0,5.4-1.2,11.6-1.2,11.6s-5-4.1-13.7-9.1c-8.7-5-12.4-5.4-15.3-5c-1.7,0.4-3.3,1.2-4.1,1.7c0,1.7,0,2.9,0,3.3
		c0,0.4,1.7,2.9,5.4,9.1s5.4,9.5,5.4,9.5h-6.2c0,0-2.5,0.4-2.9-3.3c0-3.7,0.8-6.2-0.8-6.2c-1.7,0-1.7-0.4-2.5,1.2
		c-0.8,1.2-1.2,5.4-4.6,7.5c-3.7,2.5-1.2,2.5-7,2.9c-5.8,0-6.2,0.4-6.2,0.4s0.8-3.3,3.3-8.3c2.9-5.4,0.4-1.2,4.1-8.7
		c3.7-7.9,2.1-11.6,2.1-11.6v-5.8c0,0.4-0.4,0-0.4,0c-0.4,0.4-0.4,0.4-0.8,0.8l0.4,1.2l-0.4,7.5c0,0-3.3,8.7-6.2,14.9
		c-2.9,6.2-3.3,8.7-3.3,8.7s-0.8,0.4-3.7,0c-4.1-0.8-4.6-0.8-7.5-2.9c-5.4-3.3-8.7-7-8.7-7s5-4.1,9.1-6.6c3.7-2.5,9.5-6.2,9.5-6.2
		l0.4-2.1c-1.7,1.2-2.5,1.7-2.5,1.7s-5,3.7-19.9,12.8c-1.2,0.8-15.3,15.7-15.3,15.7s-1.2-5-2.1-6.2c-0.8-1.2-2.1-1.7-2.9-0.4
		c-0.8,1.2-0.8,1.7-1.7,4.1c-0.8,2.5-1.2,12.4-1.2,12.4s0,2.1-2.9,0c-2.5-1.7-5.4-2.9-10.8-11.2c-5-7.5-8.3-16.6-8.3-16.6
		s0-1.2,9.9-10.4S51.7,111,51.7,111l9.5-5.8l9.1-4.1 M108.8,163.2c-1.2-4.1-2.1-3.7-1.7-5.8c0.4-2.1,1.2-2.1,3.3-1.7
		c2.1,0.4,1.7,2.5,5.4,3.7c3.7,1.2,5,0.4,6.2,1.2c1.2,0.8,1.2,1.2,1.7,2.9c0.4,1.7,1.2,1.7,1.7,2.5c0.4,0.8,0.4,2.1,0.4,2.1
		s-4.1-0.4-8.3-0.4c-3.7,0-7.5,0.4-7.5,0.4S110.1,167.4,108.8,163.2z M103,147.1l-1.2,4.1h-5.4l1.2-4.1H103z M80.3,156.2
		c-2.9-0.4-2.5,0.8-4.1,1.2c-1.7,0.8-5.4,0.4-5.4,0.4s-0.8-0.8-0.4-2.1c0.8-1.2,2.9-1.7,2.9-2.9c0.4-1.2,1.2-2.1-0.4-2.5
		c-2.5-0.8-3.7,3.3-6.2,4.6c-2.5,1.2-5,1.2-6.6,0.4c-1.7-0.8-0.4-2.5-0.4-2.5s-1.2,0.4,7-9.1c8.7-9.5,8.7-7.5,8.7-7.5s0.4,0.8,6.2,5
		c5.8,4.6,9.5,4.6,12.8,5.4c3.3,0.8,1.7,1.2,0.8,3.3c-0.8,2.1-3.3,7-5,7.9c-1.2,0.8-1.2,1.2-4.6,0.8
		C81.9,157.8,83.2,156.6,80.3,156.2z M84.8,162.4c0,0-3.3,0-5.8,1.7c-2.5,1.7-3.7,5.8-3.7,5.8H62.4c0,0-2.5-0.4-3.7-2.1
		c-1.7-1.7-1.2-1.7-2.1-3.3c-0.8-1.7,0.4-1.7,2.9-2.9c2.9-0.8,2.1,1.2,5,1.7c3.7,0.4,0.8,0,5.8-0.4c5-0.4,6.6-2.5,8.7-3.3
		c2.1-0.8,2.5-0.8,4.6,0.4C86.1,161.2,84.8,162.4,84.8,162.4z M15.2,154.1c5.8-13.7,11.6-20.3,11.6-20.3s2.1,7,8.3,16.6
		S47.9,162,47.9,162s1.2,1.2-0.8,2.5c-2.1,0.8-2.1,1.2-3.7,3.3c-1.7,2.1-2.9,2.9-4.6,1.7c-2.1-1.2,0-3.3-0.8-4.6
		c-0.8-1.2-3.7-0.4-5.4,0.8c-1.7,0.8-3.3,4.1-3.7,6.2c-0.4,2.5,3.3,3.3,4.1,4.1c0.4,0.8-0.8,5-2.5,6.2c-1.7,1.2-2.9,1.7-9.1,1.7
		c-6.2-0.4-11.6-12-11.6-12S9.4,168.2,15.2,154.1z M27.6,234.9c-6.2-2.5-9.9-5-9.9-5s5.4-4.1,9.9-6.2s9.1-3.7,9.1-3.7s0,3.3,0.8,9.5
		c0.8,5.8,2.5,10.4,2.5,10.4S33.4,237.4,27.6,234.9z M39.2,230.8C38,224.5,38,220,38,220s1.2-1.2,4.6-2.5c1.2-0.8,3.7-1.7,5.4-2.5
		c4.6-1.7,9.1-2.9,9.1-2.9l5.8-0.4c0,0-0.4,2.9,3.7,8.7c3.7,5.4,5.8,6.2,7.9,9.1l1.7,17c0,0-11.2-1.2-18.6-2.9
		c-7-1.2-15.7-3.3-15.7-3.3S40.5,237.8,39.2,230.8z M105.9,231.2c0,0-5,0.4-6.6-0.4c-1.7-0.8-1.7-2.1-3.7-2.9
		c-2.1-0.8-3.7-0.4-3.7-0.4s-2.1-4.1-2.5-6.2c-0.4-2.1,2.5-2.5,2.5-2.5s16.2,1.2,27.8,0.4c20.3-2.1,31.9-5,31.9-5s1.2,6.6,0.8,16.2
		c-0.4,4.6-1.7,14.9-1.7,14.9S132.5,249,113,249c-24.4,0-35.6-1.2-35.6-1.2s-1.2-5-1.2-9.1c0-3.7,0-8.7,0-8.7s1.2-0.4,4.6-1.2
		c3.7-0.8,5.8,0,5.8,0s3.3,3.7,5.8,5.4c2.5,1.7,8.3,4.1,9.5,3.7c12.4-5.8,16.2-11.6,16.2-11.6L105.9,231.2z M152.3,212.1l-1.2-5.4
		c0,0,3.3,0.4,5.8,0.8c2.9,0.4,7,1.7,7,1.7L152.3,212.1z M166,209.6c0,0,5,0.4,9.9,1.7c5.4,1.2,5.8,1.2,12.4,3.7c0,0,0,4.1-0.4,10.4
		c-0.8,7-2.1,9.9-2.1,9.9s-8.3,2.5-15.3,4.6s-18.2,4.1-18.2,4.1s1.7-7.5,1.7-17c0-9.5-1.2-14.1-1.2-14.1s1.7-0.4,7-1.7
		C164.4,210.5,166,209.6,166,209.6z M151.1,212.1c0,0-16.6,3.7-28.2,5c-12.4,1.2-22.8,0.4-26.5,0s-4.6-1.7-4.6-1.7s-0.4-4.1,2.5-7.9
		c2.5-2.9,3.3-2.9,3.3-2.9s15.7-1.2,27.3-0.8s21.1,1.2,23.2,1.7C150.3,206.3,151.1,212.1,151.1,212.1z M59.5,272.2
		c-12.4-9.1-17-30.7-17-30.7s2.5,0.8,16.6,3.7c13.3,2.5,17.4,2.9,17.4,2.9s1.7,8.7,5.4,16.6c5,10.8,17,20.3,17,20.3
		S74,283,59.5,272.2z M113,286.3c-5.4,0-12-0.8-12-0.8s-8.7-6.2-16.6-18.2c-4.1-6.2-7-18.6-7-18.6s23.2,0.8,36.5,0.8
		c22-0.4,36.9-3.3,36.9-3.3s-1.2,10.4-9.5,24c-4.6,7-14.9,14.5-14.9,14.5S122.9,285.9,113,286.3z M166.8,270.1
		c-13.7,11.6-39.4,14.5-39.4,14.5c7.9-6.2,11.6-9.5,14.9-14.5c7.9-12.8,9.5-24.4,9.5-24.4s3.7-0.4,17-3.7
		c14.1-3.7,16.2-4.6,16.2-4.6S178.9,260.2,166.8,270.1z M195,239c-1.7,4.1-4.6,10.4-9.9,17.4c-5,6.6-14.5,12.4-14.5,12.4
		s8.3-10.8,11.6-19.9c3.3-8.3,4.6-12.4,4.6-12.4l9.9-4.6C196.3,232,197.5,234.1,195,239z M199.2,229.5c-5.8,2.9-12,5.4-12,5.4
		s1.2-4.1,2.1-9.9c0.4-5.8,0.4-9.1,0.4-9.1s4.6,1.2,9.1,3.3c4.6,1.7,9.9,5.4,9.9,5.4S205,226.6,199.2,229.5z M221.9,202.2
		c-2.9,4.1-3.7,4.6-4.1,8.3c-0.4,3.3,0.4,5.4-1.2,8.3c-1.7,3.3-3.3,3.7-7.5,4.1c-1.7,0-5.8-3.3-10.4-5c-4.1-1.7-9.1-3.3-11.6-4.6
		c-5.4-2.1-28.6-7.9-41-9.1c-14.1-1.7-40.6-1.2-51-0.4c-5.8,0.4-22,2.5-34.8,6.2c-4.6,1.2-12.8,4.1-12.8,4.1s-9.9,3.7-15.3,6.2
		c-7,3.3-13.7,7-14.5,7.9c-2.1,1.7-3.3,2.5-4.1,1.7s-1.7-1.7-2.9-5c-1.2-2.9,0.4-7.9-0.8-10.4s-3.3-1.2-4.1-5
		C3.6,201.8,7.3,196,7.3,196s4.1-3.7,15.3-8.3c11.2-4.6,20.7-7.5,38.9-12.4c18.2-5,29.4-7,53-6.6c27.3,0.4,42.3,3.3,52.6,5
		c17,2.5,37.7,9.9,46,13.3c7.9,3.3,9.9,6.6,10.4,8.3C224,198.4,224,199.3,221.9,202.2z"/>
	<path class="st2" d="M17.3,232.8c-0.4-0.8-1.2-1.2-2.1-1.2l0,0c-0.4,0-0.8,0-1.2,0l0,0c-1.7,0-3.3-0.4-5-5l0,0
		c-0.8-2.5-1.2-4.1-1.2-5.4l0,0c0-1.2,0.4-2.5,0.4-3.7l0,0c0-0.8,0-1.7-0.4-2.9l0,0c-0.8-2.9-4.1-2.1-4.6-8.7l0,0c0-0.8,0-1.7,0-2.1
		l0,0c0-7.9,2.5-6.6,2.9-9.5l0,0c0-0.4,0-1.2,0-2.1l0,0c0-0.8,0-2.1,0-2.9l0,0c0-26.9,12-51.4,31.1-68.8l0,0
		C56.2,103.2,82.7,92,111.7,92l0,0c55.5,0,101.1,39.8,105.2,89.9l0,0c0.4,2.5,2.1,4.6,4.6,7.9l0,0c2.5,2.9,3.3,2.5,3.3,6.2l0,0l0,0
		l0,0c-0.4-3.7-1.2-3.3-3.3-6.2l0,0c-2.5-2.9-4.6-5.4-4.6-7.9l0,0C212.8,131.7,167.3,92,111.7,92l0,0c-29,0-55.5,10.8-74.6,28.6l0,0
		C18.1,138,6.5,162.4,6.5,189.3l0,0c0,0.8,0,1.7,0,2.9l0,0c0,0.8,0,1.7,0,2.1l0,0c-0.4,2.9-2.9,1.7-2.9,9.5l0,0c0,0.8,0,1.2,0,2.1
		l0,0c0.4,6.6,3.3,5.8,4.6,8.7l0,0c0,1.7,0.4,2.5,0.4,3.3l0,0c0,1.2-0.4,2.1-0.4,3.7l0,0c0,1.2,0.4,2.9,1.2,5.4l0,0
		c1.7,4.1,3.3,4.6,5,4.6l0,0c0.4,0,0.8,0,1.2,0l0,0C16.5,231.6,16.9,231.6,17.3,232.8L17.3,232.8c17,33.1,52.2,53.9,94.5,53.9l0,0
		c45.6,0,83.7-25.3,98.2-62.6l0,0c1.2-2.5,4.1,0.4,7.5-4.6l0,0c2.5-3.7,1.2-9.1,1.7-11.2l0,0c1.2-4.6,5.4-5.8,5.4-11.2l0,0
		c0-0.4,0-0.4,0-0.8l0,0l0,0l0,0c0,0.4,0,0.4,0,0.8l0,0c0,5.4-4.1,7-5.4,11.2l0,0c-0.4,2.1,0.4,7.5-1.7,11.2l0,0
		c-3.3,5.4-6.6,2.1-7.5,4.6l0,0c-14.5,37.7-52.6,63-98.6,63l0,0C69.5,287.1,34.3,266,17.3,232.8L17.3,232.8z M101,285.4
		c0,0-8.7-6.2-16.6-18.2l0,0c-4.1-6.2-6.6-18.6-6.6-18.6l0,0l0,0l0,0c0,0,18.2,0.8,31.5,0.8l0,0c1.7,0,3.3,0,5,0l0,0
		c22-0.4,36.9-3.3,36.9-3.3l0,0l0,0l0,0c0,0-1.2,10.4-9.9,24.4l0,0c-4.6,7-14.9,14.5-14.9,14.5l0,0c0,0-2.9,1.2-13.3,1.2l0,0h-0.4
		l0,0C106.8,286.3,101,285.4,101,285.4L101,285.4z M112.2,285.9h0.4l0,0c9.9,0,12.8-1.2,12.8-1.2l0,0c0,0,10.4-7.5,14.9-14.5l0,0
		c7.9-13.3,9.5-22.8,9.5-24l0,0c-1.7,0.4-15.7,2.9-36.9,3.3l0,0c-1.7,0-3.3,0-5,0l0,0c-12.4,0-29.4-0.8-31.1-0.8l0,0
		c0.4,1.2,2.9,12.8,6.6,18.2l0,0c7.9,12,16.6,18.2,16.6,18.2l0,0C101,285,106.8,285.9,112.2,285.9L112.2,285.9z M127.1,284.6
		c7.9-6.2,11.6-9.5,14.9-14.5l0,0c7.9-12.4,9.5-24.4,9.5-24.4l0,0l0,0l0,0c0,0,3.7-0.4,17-3.7l0,0c14.1-3.7,16.2-4.6,16.2-4.6l0,0
		l0,0v0.4c0,0-6.6,23.2-18.2,33.1l0,0C153.2,281.7,127.5,285,127.1,284.6L127.1,284.6L127.1,284.6L127.1,284.6L127.1,284.6z
		 M142,270.1c-3.3,5-6.6,8.3-14.5,14.5l0,0c1.7,0,7.5-0.8,14.1-2.9l0,0c8.3-2.1,18.2-5.8,24.9-11.6l0,0c5.8-5,10.4-13.3,13.7-20.3
		l0,0c2.9-6.2,4.1-11.6,4.6-12.4l0,0c-0.8,0.4-4.1,1.7-16.2,4.6l0,0c-12,3.3-16.6,3.7-17,3.7l0,0C151.5,246.9,149.9,258.1,142,270.1
		L142,270.1z M98.9,285c0,0-24.9-1.7-39.4-12.4l0,0l0,0l0,0c7,5.4,17,8.3,24.9,10.4l0,0C91.4,283.8,97.2,284.6,98.9,285L98.9,285
		c-2.1-1.7-12.4-10.4-17-20.3l0,0c-3.3-7.5-5.4-15.3-5.4-16.6l0,0c-0.8,0-5-0.4-17.4-2.9l0,0c-12-2.5-15.3-3.3-16.2-3.7l0,0
		c0.4,0.8,1.2,5.8,3.7,11.6l0,0c2.9,6.6,7,14.1,13.3,18.6l0,0l0,0l0,0c-12.4-9.1-17-30.7-17-30.7l0,0l0,0l0,0c0,0,2.5,0.8,16.6,3.7
		l0,0c13.3,2.5,17.4,2.9,17.4,2.9l0,0l0,0l0,0c0,0,2.1,8.7,5.4,16.6l0,0C87.3,275.5,98.9,284.6,98.9,285L98.9,285L98.9,285L98.9,285
		L98.9,285z M170.6,268.9c0,0,7.9-10.8,11.6-19.9l0,0c3.3-8.3,4.6-12.4,4.6-12.4l0,0l0,0l9.9-4.6l0,0c0,0,0,0.4,0,1.2l0,0
		c0,1.2-0.4,2.9-1.7,5.8l0,0c-1.7,4.1-4.6,10.4-9.9,17.4l0,0C180.5,263.1,170.6,269.3,170.6,268.9L170.6,268.9L170.6,268.9
		L170.6,268.9z M182.2,249c-2.9,8.3-9.5,17.4-11.2,19.5l0,0c2.1-1.2,9.9-6.6,14.1-12l0,0c5.4-7,8.3-13.3,9.9-17.4l0,0
		c1.2-2.9,1.7-5,1.7-5.8l0,0c0-0.4,0-0.8,0-1.2l0,0l-9.9,4.6C186.3,237.4,185.1,241.1,182.2,249L182.2,249z M77.4,247.3L77.4,247.3
		L77.4,247.3c0,0-1.2-5.4-1.2-9.1l0,0c0-2.5,0-5.8,0-7.5l0,0c0-0.8,0-1.2,0-1.2l0,0l0,0l0,0c0,0,1.2-0.4,4.6-1.2l0,0
		c1.7-0.4,2.5-0.4,3.7-0.4l0,0c1.7,0,2.1,0,2.5,0.4l0,0c0,0,3.3,3.7,5.8,5.4l0,0c2.5,1.2,7.5,4.1,9.1,3.7l0,0h0.4l0,0
		c6.2-2.9,10.4-5.8,12.8-7.9l0,0c1.7-1.7,2.5-2.9,2.9-3.3l0,0l-11.6,5.4l0,0l0,0c0,0-1.2,0-2.9,0l0,0c-1.2,0-2.9,0-3.7-0.4l0,0
		c-1.7-0.8-1.7-2.1-3.7-2.9l0,0c-0.8-0.4-1.7-0.4-2.5-0.4l0,0c-0.8,0-1.2,0-1.2,0l0,0l0,0l0,0c0,0-2.1-4.1-2.5-6.2l0,0v-0.4l0,0
		c0-2.1,2.9-2.5,2.9-2.5l0,0c0,0,8.3,0.8,17,0.8l0,0c3.7,0,7.5,0,10.8-0.4l0,0c20.3-2.1,31.9-5,31.9-5l0,0l0,0l0,0l0,0l0,0l0,0l0,0
		l0,0l0,0c0,0.8,1.2,5.8,1.2,12.8l0,0c0,0.8,0,2.1,0,2.9l0,0c-0.4,4.6-1.7,14.9-1.7,14.9l0,0l0,0l0,0c0,0-18.2,3.7-37.7,3.7l0,0
		C88.5,248.6,77.4,247.3,77.4,247.3L77.4,247.3z M113,248.2c9.9,0,19.1-0.8,26.1-2.1l0,0c6.6-0.8,10.8-1.7,11.2-2.1l0,0
		c0-0.8,1.7-10.4,1.7-14.9l0,0c0-0.8,0-2.1,0-2.9l0,0c0-7-0.8-12-1.2-12.8l0,0c-1.2,0.4-12.8,3.3-31.9,5l0,0
		c-3.3,0.4-7,0.4-10.8,0.4l0,0c-8.7,0-17-0.8-17-0.8l0,0c0,0-2.5,0.4-2.5,2.1l0,0v0.4l0,0c0.4,2.1,2.1,5.8,2.5,6.2l0,0
		c0,0,0.8,0,1.2,0l0,0c0.8,0,1.7,0,2.5,0.4l0,0c2.1,0.8,2.1,2.1,3.7,2.9l0,0c0.8,0.4,2.5,0.4,3.7,0.4l0,0c1.2,0,2.9,0,2.9,0l0,0
		l12-5.8v0.4c0,0-3.3,5.8-16.2,11.6l0,0h-0.4l0,0c-1.7,0-6.6-2.5-9.1-4.1l0,0c-2.5-1.7-5.8-5.4-5.8-5.4l0,0c0,0-0.8-0.4-2.1-0.4l0,0
		c-0.8,0-2.1,0-3.7,0.4l0,0c-2.9,0.8-4.1,1.2-4.6,1.2l0,0c0,0,0,0.4,0,1.2l0,0c0,1.7,0,5,0,7.5l0,0c0,3.7,1.2,8.3,1.2,9.1l0,0
		C78.6,247.3,89.8,248.2,113,248.2L113,248.2z M76.1,246.9c0,0-11.2-1.2-18.6-2.9l0,0c-7-1.7-15.7-3.7-15.7-3.7l0,0l0,0l0,0
		c0,0-1.2-2.9-2.9-9.5l0,0l0,0l0,0c1.2,6.6,2.5,9.1,2.9,9.5l0,0c0.8,0,8.7,2.1,15.7,3.3l0,0C64.5,245.3,74.9,246.5,76.1,246.9
		L76.1,246.9l-1.7-17c-2.1-2.9-4.1-3.7-7.9-9.1l0,0c-3.3-5-3.7-7.9-3.7-8.7l0,0l-5.8,0.4c0,0-4.6,1.2-9.1,2.9l0,0
		c-1.7,0.8-4.1,1.7-5.4,2.5l0,0c-2.9,1.2-4.1,2.5-4.6,2.5l0,0c0,0.4,0,5,1.2,10.4l0,0l0,0l0,0C38,224.5,38,220,38,220l0,0l0,0l0,0
		c0,0,1.2-1.2,4.6-2.5l0,0c1.2-0.4,3.7-1.7,5.4-2.5l0,0c4.6-1.7,9.1-2.9,9.1-2.9l0,0l5.8-0.4l0,0l0,0l0,0c0,0.4,0,3.3,3.7,8.3l0,0
		c3.7,5.4,5.8,6.2,7.9,9.1l0,0L76.1,246.9L76.1,246.9L76.1,246.9z M151.9,244.4c0,0,1.7-7.5,1.7-17l0,0c0-9.5-1.2-14.1-1.2-14.1l0,0
		l0,0l0,0c0,0,1.7-0.4,7-1.7l0,0c5-1.2,6.6-1.7,6.6-1.7l0,0l0,0l0,0c0,0,5,0.4,9.9,1.7l0,0c5.4,1.2,5.8,1.2,12.4,4.1l0,0l0,0l0,0
		c0,0,0,0.4,0,1.2l0,0c0,1.7,0,5-0.8,9.1l0,0c-0.8,7-2.1,9.9-2.1,9.9l0,0l0,0l0,0c0,0-8.3,2.5-15.3,4.6l0,0
		C163.1,242.4,151.9,244.4,151.9,244.4L151.9,244.4L151.9,244.4L151.9,244.4L151.9,244.4z M153.6,227c0,8.7-1.2,15.7-1.7,17l0,0
		c1.2-0.4,11.6-2.1,18.2-4.1l0,0c6.6-2.1,14.9-4.1,15.3-4.6l0,0c0-0.4,1.2-3.3,2.1-9.9l0,0c0.4-4.1,0.8-7.5,0.8-9.1l0,0
		c0-0.4,0-0.8,0-1.2l0,0c-6.2-2.5-7-2.5-12-3.7l0,0c-5-1.2-9.5-1.7-9.9-1.7l0,0c-0.4,0-2.1,0.8-6.6,1.7l0,0
		c-4.6,0.8-6.2,1.7-6.6,1.7l0,0C152.8,213.8,153.6,218.3,153.6,227L153.6,227z M40.1,239.9c0,0-6.6-2.5-12.8-5l0,0l0,0l0,0
		C33,237,38.8,239,40.1,239.9L40.1,239.9c-0.4-1.2-1.7-5-2.5-10.4l0,0c-0.8-5.4-0.8-8.7-0.8-9.5l0,0c-0.8,0.4-5,1.7-9.1,3.7l0,0
		c-4.1,2.1-9.1,5.4-9.9,5.8l0,0c0.8,0.4,4.6,2.5,9.9,5l0,0l0,0l0,0c-6.2-2.5-9.9-5-9.9-5l0,0l0,0l0,0c0,0,5.4-4.1,9.9-6.2l0,0
		c4.6-2.1,9.1-3.7,9.1-3.7l0,0l0,0l0,0c0,0,0,3.3,0.8,9.5l0,0C38.8,235.7,40.5,239.9,40.1,239.9L40.1,239.9L40.1,239.9L40.1,239.9
		L40.1,239.9z M187.1,234.9c0,0,1.2-4.1,2.1-9.9l0,0c0.4-4.1,0.4-7.5,0.4-8.7l0,0c0-0.4,0-0.4,0-0.4l0,0l0,0l0,0
		c0,0,4.6,1.2,9.1,3.3l0,0c4.6,1.7,9.9,5.4,9.9,5.4l0,0l0,0l0,0c0,0-3.7,2.5-9.1,5l0,0C193.4,232.4,187.1,234.9,187.1,234.9
		L187.1,234.9L187.1,234.9L187.1,234.9L187.1,234.9z M189.6,216.7c0,1.2,0,4.1-0.4,8.7l0,0c-0.4,5-1.7,8.7-2.1,9.5l0,0
		c1.2-0.4,6.6-2.9,11.6-5.4l0,0c5-2.5,8.3-4.6,9.1-5l0,0c-0.8-0.4-5.4-3.7-9.5-5.4l0,0c-4.1-1.7-8.3-2.9-8.7-2.9l0,0
		C189.6,216.3,189.6,216.3,189.6,216.7L189.6,216.7z M13.1,229.9c-0.8-0.8-1.7-1.7-2.9-5l0,0c-0.4-0.8-0.4-2.1-0.4-3.3l0,0
		c0-1.2,0-2.9,0-4.1l0,0c0-1.2,0-2.1-0.4-2.9l0,0c-1.2-2.5-2.9-1.2-4.1-5l0,0c-0.4-1.7-0.4-3.3-0.4-4.6l0,0c0-5.4,2.5-9.1,2.5-9.1
		l0,0c0,0,4.1-3.7,15.3-8.3l0,0c11.2-4.6,20.7-7.5,38.9-12.4l0,0c17.4-4.6,28.2-6.6,49.3-6.6l0,0c1.2,0,2.5,0,3.3,0l0,0
		c27.3,0.4,42.3,3.3,52.6,5l0,0c17,2.5,37.7,9.9,46,13.3l0,0c7.9,3.3,10.4,6.6,10.4,8.3l0,0c0.4,1.2,0.4,2.5,0.4,3.3l0,0
		c0,1.2-0.4,2.5-1.7,4.1l0,0l0,0l0,0c-2.9,4.1-3.7,4.6-3.7,7.9l0,0c-0.4,3.3,0.4,5.4-1.2,8.3l0,0c-1.7,3.3-3.7,3.7-7.5,4.1l0,0l0,0
		l0,0c-2.1,0-6.2-2.9-10.4-5l0,0c-4.1-1.7-9.1-3.3-11.6-4.6l0,0c-5.4-2.1-28.6-7.9-41-9.1l0,0c-6.6-0.8-16.2-1.2-25.3-1.2l0,0
		c-10.4,0-19.9,0.4-25.7,0.8l0,0c-5.8,0.4-22,2.5-34.8,6.2l0,0c-4.6,1.2-12.8,4.1-12.8,4.1l0,0c0,0-9.5,3.7-14.9,6.2l0,0
		c-7.9,3.3-14.1,7-15.3,7.9l0,0c-1.7,1.2-2.5,2.1-3.3,2.1l0,0l0,0l0,0C14,230.3,13.6,230.3,13.1,229.9L13.1,229.9z M4.9,205.1
		c0,1.2,0,2.9,0.4,4.6l0,0c0.8,3.7,2.9,2.5,4.1,5l0,0c0.4,0.8,0.4,2.1,0.4,2.9l0,0c0,1.2,0,2.9,0,4.1l0,0c0,1.2,0,2.5,0.4,3.3l0,0
		c1.2,3.3,2.1,4.1,2.9,5l0,0c0.4,0,0.4,0.4,0.8,0.4l0,0c0.8,0,1.7-0.4,3.3-2.1l0,0c1.2-1.2,7.9-4.6,14.9-7.9l0,0
		c5.4-2.5,14.9-6.2,14.9-6.2l0,0c0,0,8.3-2.9,12.8-4.1l0,0c12.8-3.3,29-5.4,34.8-6.2l0,0c5.4-0.4,15.3-0.8,25.7-0.8l0,0
		c9.1,0,18.6,0.4,25.3,1.2l0,0c12.4,1.2,36,7,41,9.1l0,0c2.5,0.8,7.5,2.5,11.6,4.6l0,0c4.1,1.7,8.3,5,10.4,5l0,0l0,0l0,0
		c3.7-0.4,5.4-0.8,7-4.1l0,0c1.7-2.9,1.2-5,1.2-8.3l0,0c0.4-3.3,1.2-4.1,4.1-8.3l0,0c1.2-1.7,1.7-2.5,1.7-4.1l0,0
		c0-0.8,0-1.7-0.4-2.9l0,0c-0.4-1.2-2.5-4.6-10.4-8.3l0,0c-7.9-3.3-28.6-10.8-46-13.3l0,0c-10.8-1.7-25.3-4.6-52.6-5l0,0
		c-1.2,0-2.5,0-3.3,0l0,0c-21.1,0-31.9,2.1-49.3,6.6l0,0c-18.2,5-27.8,7.5-38.9,12.4l0,0C10.7,192.2,6.5,196,6.5,196l0,0
		C7.3,196,4.9,199.7,4.9,205.1L4.9,205.1z M96.4,217.5c-3.7-0.4-4.6-1.7-4.6-1.7l0,0c0,0,0-0.4,0-0.8l0,0c0-1.2,0.4-4.6,2.5-7l0,0
		c2.5-2.9,3.3-3.3,3.3-3.3l0,0c0,0,12-0.8,22.8-0.8l0,0c1.7,0,2.9,0,4.6,0l0,0c11.6,0.4,21.1,1.2,23.2,1.7l0,0
		c2.1,0.4,2.5,6.2,2.9,6.6l0,0l0,0l0,0l0,0l0,0c0,0-16.6,3.7-28.2,5l0,0c-5,0.4-9.9,0.8-13.7,0.8l0,0
		C103,218.3,98.5,217.9,96.4,217.5L96.4,217.5z M92.7,216.3c0.8,0.4,1.7,0.8,3.7,0.8l0,0c2.1,0,6.6,0.4,12.4,0.4l0,0
		c4.1,0,8.7,0,13.7-0.8l0,0c11.2-1.2,26.9-4.6,28.2-5l0,0c0-0.4,0-1.7-0.4-2.9l0,0c-0.4-1.7-1.2-2.9-2.1-3.3l0,0
		c-2.1-0.4-11.6-1.2-23.2-1.7l0,0c-1.2,0-2.9,0-4.6,0l0,0c-10.8,0-22.8,0.8-22.8,0.8l0,0c0,0,0,0-0.8,0.4l0,0
		c-0.4,0.4-1.2,1.2-2.5,2.5l0,0c-2.5,2.5-2.5,5.4-2.5,6.6l0,0c0,0.4,0,0.8,0,0.8l0,0C91.9,215.8,92.3,216.3,92.7,216.3L92.7,216.3z
		 M150.7,206.3L150.7,206.3c0,0,3.3,0.4,5.8,0.8l0,0c2.9,0.4,7,1.7,7,1.7l0,0h0.4l-12,2.9l0,0L150.7,206.3L150.7,206.3z
		 M152.3,212.1L152.3,212.1L152.3,212.1L152.3,212.1z M152.3,211.7l10.8-2.5c-1.2-0.4-4.1-1.2-6.6-1.7l0,0c-2.1-0.4-5-0.8-5.8-0.8
		l0,0L152.3,211.7L152.3,211.7z M23.9,183.9c-0.8,0-1.2,0-2.1,0l0,0c-6.2-0.4-12-12-12-12l0,0l0,0l0,0c0-0.8,0.4-5,5.4-17.4l0,0
		c5.8-13.7,11.6-20.3,11.6-20.3l0,0l0,0l0,0c0,0,2.1,7,7.9,16.6l0,0c5.8,9.5,12.8,11.6,12.8,11.6l0,0c0,0,0.4,0.4,0.4,1.2l0,0
		c0,0.4-0.4,0.8-1.2,1.2l0,0c-2.1,0.8-2.1,1.2-3.7,3.3l0,0c-0.8,1.2-2.1,1.7-2.9,1.7l0,0c-0.4,0-1.2-0.4-2.1-0.8l0,0
		c0,0-0.4-0.8-0.4-1.2l0,0c0-0.8,0.4-1.7,0.4-2.1l0,0c0-0.4,0-0.4,0-0.4l0,0c0-0.4-0.8-0.4-1.2-0.4l0,0c-1.2,0-2.9,0.8-4.1,1.2l0,0
		c-1.7,0.8-3.3,3.7-3.7,6.2l0,0c0,0,0,0,0,0.4l0,0c0,2.1,3.3,2.9,4.1,3.7l0,0c0,0.4,0,0.4,0,0.8l0,0c0,1.7-1.2,4.6-2.5,5.4l0,0
		C29.3,183.5,28.1,183.9,23.9,183.9L23.9,183.9L23.9,183.9L23.9,183.9z M21.4,183.9c0.8,0,1.7,0,2.1,0l0,0c4.1,0,5.4-0.8,6.6-1.7
		l0,0c1.2-0.8,2.5-3.7,2.5-5.4l0,0c0-0.4,0-0.4,0-0.8l0,0c-0.4-0.8-4.1-1.7-4.1-4.1l0,0c0,0,0,0,0-0.4l0,0c0.4-2.5,2.1-5.4,3.7-6.2
		l0,0c1.2-0.8,2.9-1.2,4.1-1.2l0,0c0.8,0,1.2,0,1.7,0.4l0,0c0,0.4,0,0.4,0,0.8l0,0c0,0.8-0.4,1.7-0.4,2.1l0,0c0,0.4,0,0.8,0.8,1.2
		l0,0c0.8,1.2,1.7,1.2,2.1,1.2l0,0c0.8,0,2.1-0.4,2.9-1.7l0,0c1.7-1.7,1.7-2.5,3.7-3.3l0,0c0.8-0.4,1.2-0.8,1.2-1.2l0,0
		c0-0.4-0.4-0.8-0.4-0.8l0,0c0,0-7-2.5-12.8-12l0,0c-5.4-8.7-7.5-15.3-7.9-16.6l0,0c-0.8,0.8-6.2,7.5-11.6,19.9l0,0
		c-5.4,12.4-5.4,16.6-5.4,17.4l0,0l0,0l0,0C10.2,172.3,15.6,183.5,21.4,183.9L21.4,183.9z M185.1,175.7l-2.5-0.8l0,0
		c-0.4,0-0.8-0.4-3.3-6.2l0,0c-1.7-4.1-2.5-5.4-2.5-5.8l0,0l0,0l0,0l0,0l0,0l0,0l0,0l0,0l0,0l0,0l0,0l0,0l0,0c0,0,0.4,0,0.4-0.4l0,0
		c0.4-0.4,1.2-0.8,2.1-1.7l0,0c1.7-1.2,4.1-3.7,7.9-7l0,0c7-6.6,9.1-19.1,9.1-19.1l0,0l0,0l0,0c0,0,2.1,2.5,5.4,7.5l0,0l0,0l0,0
		c-2.9-4.6-5-6.6-5.4-7.5l0,0c-0.4,1.7-2.5,12.8-9.1,19.1l0,0c-6.2,5.8-9.5,8.3-10.4,8.7l0,0c0,0.4,0.8,1.7,2.5,5.8l0,0
		c2.1,5.4,2.9,6.2,2.9,6.2l0,0L185.1,175.7c0,0,0.4,0,1.7,0l0,0c0.8,0,2.5-0.4,4.1-1.2l0,0c2.9-1.7,2.9-4.1,2.9-5l0,0
		c0.4-0.8,1.7-1.2,2.9-1.2l0,0c0.4,0,0.8,0,1.2,0.4l0,0l0,0l0,0c0.4,0,0.4-0.4,0.4-0.8l0,0c0-1.2-0.4-2.9-0.4-5l0,0
		c0-1.7,0-3.3,0.8-4.6l0,0c1.2-2.5,2.1-2.5,3.3-2.9l0,0c1.2-0.4,3.3-0.4,4.1-2.5l0,0c0-0.4,0-0.4,0-0.8l0,0c0-2.1-2.1-4.6-5-9.5l0,0
		l0,0l0,0c2.9,4.6,5,7.5,5,9.5l0,0c0,0.4,0,0.4,0,0.8l0,0c-0.8,2.5-2.9,2.5-4.1,2.9l0,0c-1.2,0.4-2.1,0.4-3.3,2.9l0,0
		c-0.8,1.2-0.8,2.9-0.8,4.6l0,0c0,2.1,0.4,3.7,0.4,5l0,0c0,0.8,0,1.2-0.4,1.2l0,0c0,0,0,0-0.4,0l0,0c-0.4,0-0.8-0.4-1.2-0.4l0,0
		c-1.2,0-2.5,0.8-2.9,1.2l0,0c-0.4,0.8,0,3.3-3.3,5.4l0,0c-1.7,1.2-3.3,1.2-4.1,1.2l0,0C185.5,176.1,185.1,175.7,185.1,175.7
		L185.1,175.7z M176.8,162.4L176.8,162.4L176.8,162.4L176.8,162.4z M180.5,174.8c0,0-5-1.2-10.8-2.1l0,0c-5-0.8-9.9-1.2-9.9-1.2l0,0
		h-0.4h0.4c0,0,4.6-2.1,8.3-3.7l0,0c4.1-1.7,7.5-3.7,7.5-3.7l0,0l0,0l0,0c0,0,0.8,1.7,2.5,5l0,0
		C180.1,173.2,180.9,174.8,180.5,174.8L180.5,174.8L180.5,174.8L180.5,174.8L180.5,174.8z M169.7,172.8c5.4,0.8,9.9,2.1,10.8,2.1
		l0,0c-0.4-0.4-0.8-2.5-2.5-5.8l0,0c-1.2-2.9-2.1-4.6-2.1-5l0,0c-0.4,0.4-3.7,2.1-7.5,3.3l0,0c-3.3,1.2-7,3.3-8.3,3.7l0,0
		C161.5,171.5,165.6,171.9,169.7,172.8L169.7,172.8z M158.1,171.1L158.1,171.1L158.1,171.1c-0.4,0-0.8,0-1.2-0.4l0,0
		c-1.2-0.4-3.7-0.4-8.3-1.2l0,0c-7-0.8-8.7-0.8-9.1-0.8l0,0l0,0l0,0l0,0l0,0l0,0l0,0l0,0c-0.4,0-0.8,0-1.7-2.5l0,0
		c-0.8-2.5-1.2-3.3-1.2-6.2l0,0c0-0.4,0-0.4,0-0.8l0,0c0-5,1.2-6.2,3.7-11.6l0,0c2.9-6.6,10.4-11.6,10.4-11.6l0,0l0,0l0,0
		c0,0,4.1,2.9,12.4,11.2l0,0c8.7,8.7,12.8,15.7,12.8,15.7l0,0l0,0l0,0c0,0-0.8,0.4-7.9,3.7l0,0C159.8,169.9,158.1,171.1,158.1,171.1
		L158.1,171.1L158.1,171.1L158.1,171.1L158.1,171.1z M158.1,170.7L158.1,170.7L158.1,170.7L158.1,170.7z M148.6,169.4
		c7.9,0.8,9.5,1.2,9.5,1.2l0,0c0.4,0,2.5-1.2,9.1-4.6l0,0c5.8-2.9,7.5-3.3,7.9-3.7l0,0c-0.4-0.8-4.6-7.5-12.8-15.3l0,0
		c-7.9-7.5-12-10.8-12.4-11.2l0,0c-0.8,0.4-7.5,5.4-10.4,11.6l0,0c-2.5,5.8-3.3,6.6-3.7,11.6l0,0c0,0.4,0,0.4,0,0.8l0,0
		c0,2.9,0.4,3.7,1.2,6.2l0,0c0.8,2.5,1.7,2.5,1.7,2.5l0,0l0,0l0,0c0,0,0,0,0.4,0l0,0C139.5,168.6,141.6,168.6,148.6,169.4
		L148.6,169.4z M62,169.9c0,0-2.5-0.4-4.1-2.1l0,0c-1.7-1.7-1.2-1.7-2.1-3.3l0,0c0-0.4-0.4-0.8-0.4-0.8l0,0c0-0.8,1.2-1.2,3.3-2.1
		l0,0c0.4,0,0.8-0.4,1.2-0.4l0,0c1.7,0,1.7,1.7,4.1,1.7l0,0c1.2,0,1.7,0,2.1,0l0,0c0.8,0,0.4-0.4,3.7-0.8l0,0c5-0.4,6.6-2.5,8.7-3.3
		l0,0c0.8-0.4,1.7-0.4,2.1-0.4l0,0c0.8,0,1.2,0.4,2.5,0.8l0,0c1.2,0.4,1.7,1.2,1.7,1.7l0,0c0,0.4-0.4,0.8-0.4,0.8l0,0l0,0l0,0
		c0,0-3.3,0-5.8,1.7l0,0c-2.1,2.5-3.3,6.6-3.3,6.6l0,0l0,0H62L62,169.9z M75.3,169.9c0-0.4,1.7-4.6,4.1-5.8l0,0
		c2.5-1.7,5.4-1.7,5.8-1.7l0,0c0,0,0.4-0.4,0.4-0.8l0,0c0-0.4-0.4-1.2-1.2-1.7l0,0c-1.2-0.4-1.7-0.8-2.5-0.8l0,0
		c-0.4,0-1.2,0.4-2.1,0.4l0,0c-2.1,0.8-3.7,2.9-8.7,3.3l0,0c-3.3,0.4-2.9,0.8-3.7,0.8l0,0c-0.4,0-0.8,0-2.1,0l0,0
		c-2.5-0.4-2.5-2.1-4.1-1.7l0,0c-0.4,0-0.8,0-1.2,0.4l0,0c-2.1,0.8-3.3,1.2-3.3,1.7l0,0c0,0.4,0,0.4,0.4,0.8l0,0
		c0.8,1.7,0.4,1.7,1.7,3.3l0,0c1.2,0.8,3.7,1.7,3.7,1.7l0,0H75.3L75.3,169.9z M84.8,162.4L84.8,162.4L84.8,162.4L84.8,162.4z
		 M139.1,168.6L139.1,168.6L139.1,168.6L139.1,168.6z M125.4,168.2c0,0-4.1-0.4-8.3-0.8l0,0c-0.4,0-1.2,0-1.7,0l0,0
		c-3.3,0-5.8,0.4-5.8,0.4l0,0l0,0l0,0l0,0l0,0l0,0l0,0c0-0.4,0-1.2-1.2-4.1l0,0l0,0l0,0c0.8,2.9,1.2,4.1,1.2,4.6l0,0l0,0l0,0
		c0.4,0,2.9-0.4,5.8-0.4l0,0c0.4,0,1.2,0,1.7,0l0,0C120.9,167.4,125,167.8,125.4,168.2L125.4,168.2c0-0.4,0-0.4,0-0.4l0,0
		c0-0.4,0-0.8-0.4-1.7l0,0c-0.4-0.8-1.2-0.8-1.7-2.5l0,0c-0.4-1.7,0-2.1-1.7-2.9l0,0c-1.2-0.8-2.5,0-6.2-1.2l0,0
		c-3.7-1.2-3.3-3.3-5.4-3.7l0,0c-0.8,0-1.2-0.4-1.7-0.4l0,0c-0.8,0-1.2,0.4-1.7,1.7l0,0c0,0.4,0,0.8,0,0.8l0,0c0,1.2,0.8,1.2,1.7,5
		l0,0l0,0l0,0c-1.2-3.3-1.7-3.7-1.7-5l0,0c0-0.4,0-0.4,0-0.8l0,0c0.4-1.2,0.8-2.1,1.7-2.1l0,0c0.4,0,0.8,0,1.7,0.4l0,0
		c2.1,0.4,1.7,2.5,5.4,3.7l0,0c3.7,1.2,5,0.4,6.2,1.2l0,0c1.2,0.8,1.2,1.2,1.7,2.9l0,0c0.4,1.7,0.8,1.7,1.7,2.5l0,0
		c0.4,0.4,0.4,1.2,0.4,1.7l0,0C125.8,167.8,125.8,168.2,125.4,168.2L125.4,168.2L125.4,168.2L125.4,168.2L125.4,168.2z M47.1,160.7
		c-2.9-2.1-5.8-3.7-11.2-11.6l0,0c-5-7.5-8.3-16.6-8.3-16.6l0,0c0,0,0-1.2,9.9-10.4l0,0c9.9-9.1,14.1-11.2,14.5-11.2l0,0l9.5-5.8
		l9.1-4.1v0.4l-9.1,4.1l-9.5,5.8c0,0-4.6,2.1-14.1,11.2l0,0c-7.5,7-9.1,9.1-9.5,9.9l0,0v0.4l0,0c0,0.4,3.3,9.5,8.3,16.6l0,0
		C41.3,157,44.2,158.7,47.1,160.7L47.1,160.7c1.2,0.4,1.7,0.8,2.1,0.8l0,0c0.8,0,0.8-0.4,0.8-0.8l0,0l0,0l0,0c0,0,0.8-10.4,1.2-12.4
		l0,0c0.8-2.5,0.8-2.9,1.7-4.1l0,0c0.4-0.8,0.8-0.8,1.2-0.8l0,0c0.8,0,1.2,0.4,1.7,1.2l0,0c0.8,1.2,2.1,5,2.1,5.8l0,0
		c1.7-1.7,14.1-14.9,15.3-15.7l0,0c15.3-9.1,19.9-12.8,19.9-12.8l0,0c0,0,0.8-0.8,2.5-1.7l0,0l0,0l0,2.1l0,0c0,0-5.8,3.7-9.5,6.2
		l0,0c-3.7,2.5-8.3,6.2-8.7,6.6l0,0c0.4,0.4,3.7,3.7,8.7,6.6l0,0c2.9,1.7,3.3,2.1,7,2.9l0,0c0.8,0.4,2.1,0.4,2.5,0.4l0,0
		c0.8,0,0.8,0,1.2,0l0,0c0-0.4,0.8-2.9,3.3-8.7l0,0c2.9-6.2,6.2-14.9,6.2-14.9l0,0l0.4-7.5l-0.4-1.2l0,0c0.4-0.4,0.4-0.4,0.8-0.8
		l0,0l0,0l0,0c0.4,0,0.4,0.4,0.4,0.4l0,0l0,0l0,0h0.4v5c0,0,0.4,0.8,0.4,2.5l0,0c0,2.1-0.4,5-2.5,9.5l0,0c-3.3,7.9-1.2,3.3-4.1,8.7
		l0,0c-2.5,4.6-2.9,7.5-3.3,8.3l0,0c0.4,0,1.7,0,6.2-0.4l0,0c5.8,0,3.3-0.4,7-2.9l0,0c3.3-2.5,3.7-6.2,4.6-7.5l0,0
		c0.4-0.8,0.8-1.2,1.7-1.2l0,0c0.4,0,0.4,0,1.2,0l0,0c0.8,0,0.8,0.8,0.8,1.7l0,0c0,0.8,0,2.1,0,3.7l0,0c0,0.4,0,0.4,0,0.8l0,0
		c0,2.9,1.7,3.3,2.5,3.3l0,0h0.4l0,0h5.8c-0.4-0.8-2.1-3.7-5.4-9.1l0,0c-3.7-6.2-5.4-8.3-5.4-9.1l0,0l0,0l0,0v-0.4l0,0
		c0-0.4,0-1.2,0-2.5l0,0l0,0l0,0c0.8-0.4,2.1-1.2,4.1-1.7l0,0c0.4,0,1.2-0.4,2.1-0.4l0,0c2.9,0,6.6,1.2,13.3,5l0,0
		c7.9,4.1,12.8,8.3,13.7,8.7l0,0c0.4-0.8,1.2-5.8,1.2-10.8l0,0c0-0.4,0-0.4,0-0.8l0,0c0-5.4-3.3-8.3-3.3-8.7l0,0c-0.4,0-3.3,0-6.6,0
		l0,0c-1.7,0-3.7,0-5.4,0l0,0c-5,0-19.1,1.7-19.1,1.7l0,0l0,0l0,0v-0.4c0-0.4,0-0.4,0-0.8l0,0v-0.4l0,0l0,0l0,0l0,0l5.8-0.4
		c0,0,4.6-0.4,14.1-0.8l0,0c3.3,0,5.4,0,7,0l0,0c2.1,0,2.9,0,3.3,0l0,0c-0.8-0.8-2.9-2.9-7-5.4l0,0c-6.2-3.3-6.6-10.4-6.6-11.2l0,0
		l-6.6-1.7l-10.8-1.2h-2.1h-5.4H108c-0.4,0-0.8,0-1.2,0l0,0c-0.8,0-1.2,0-2.1,0l0,0c-2.5,0-5,0.4-7.9,0.8l0,0
		c-2.1,0.4-14.1,2.9-14.1,3.3l0,0v-0.4c0,0,12-2.9,14.1-3.3l0,0c2.9-0.4,5.4-0.8,7.9-0.8l0,0c0.8,0,1.2,0,2.1,0l0,0
		c0.4,0,0.8,0,1.2,0l0,0h1.7h5.4h2.1l10.8,1.2l7,1.7l0,0c0,0,0.4,7.5,6.6,11.2l0,0c4.6,2.9,7,5.4,7,5.4l0,0l0,0c0,0,0,0-0.4,0l0,0
		c-0.4,0-1.2,0-2.9,0l0,0c-1.7,0-3.7,0-7,0l0,0c-9.5,0.4-14.1,0.8-14.1,0.8l0,0l-5.8,0.4c0,0.4,0,0.8,0,0.8l0,0c0,0,0,0,0,0.4l0,0
		l0,0l0,0v0.4c1.2,0,14.1-1.7,19.1-1.7l0,0c1.7,0,3.3,0,5.4,0l0,0c3.3,0,6.6,0,6.6,0l0,0l0,0l0,0c0,0,3.3,3.3,3.7,9.1l0,0
		c0,0.4,0,0.4,0,0.8l0,0c0,5.4-1.2,10.8-1.2,10.8l0,0l0,0l0,0c0,0-5-4.1-13.7-9.1l0,0c-7-3.7-10.8-5-13.3-5l0,0
		c-0.8,0-1.2,0-2.1,0.4l0,0c-1.7,0.4-3.3,1.2-3.7,1.7l0,0c0,1.2,0,2.1,0,2.5l0,0c0,0.4,0,0.4,0,0.8l0,0l0,0l0,0
		c0,0.4,2.1,2.9,5.4,9.1l0,0c3.7,6.2,5.4,9.5,5.4,9.5l0,0l0,0h-6.2c0,0,0,0-0.4,0l0,0c-0.8,0-2.5-0.4-2.5-3.3l0,0c0-0.4,0-0.8,0-0.8
		l0,0c0-1.7,0-2.9,0-3.7l0,0c0-0.8,0-1.7-0.8-1.7l0,0c-0.4,0-0.8,0-1.2,0l0,0c-0.8,0-0.8,0-1.2,1.2l0,0c-0.8,1.2-1.2,5.4-4.6,7.5
		l0,0c-3.3,2.1-1.2,2.5-7,2.9l0,0c-4.6,0-5.8,0.4-6.2,0.4l0,0l0,0l0,0l0,0l0,0c0,0,0.4-3.3,3.3-8.7l0,0c2.9-5.4,0.4-1.2,4.1-8.7l0,0
		c2.1-4.1,2.5-7.5,2.5-9.5l0,0c0-1.7-0.4-2.1-0.4-2.5l0,0v-4.6l0,0l0,0c0,0-0.4,0-0.4-0.4l0,0c-0.4,0.4-0.4,0.4-0.8,0.4l0,0l0.4,1.2
		l-0.4,7.9c0,0-3.3,8.7-6.2,14.9l0,0c-2.9,6.2-3.3,8.7-3.3,8.7l0,0l0,0l0,0c0,0-0.4,0-1.2,0l0,0c-0.4,0-1.7,0-2.9-0.4l0,0
		c-4.1-0.8-4.6-1.2-7.5-2.9l0,0c-5.4-3.3-8.7-7-8.7-7l0,0l0,0l0,0c0,0,5-4.1,9.1-6.6l0,0c3.7-2.5,9.1-5.8,9.5-6.2l0,0l0.4-1.7
		c-1.2,0.8-2.5,1.7-2.1,1.7l0,0c0,0-5,3.7-19.9,12.8l0,0c-0.4,0.4-4.6,4.1-7.9,8.3l0,0c-3.7,3.7-7.5,7.9-7.5,7.9l0,0l0,0l0,0
		c0,0-1.2-5-2.1-6.2l0,0c-0.4-0.8-1.2-1.2-1.7-1.2l0,0c-0.4,0-0.8,0.4-1.2,0.8l0,0c-0.8,1.2-0.8,1.7-1.7,4.1l0,0
		c-0.8,2.5-1.2,12.4-1.2,12.4l0,0l0,0l0,0c0,0,0,0.8-0.8,0.8l0,0C48.8,161.6,47.9,161.6,47.1,160.7L47.1,160.7z M176,161.2
		c0,0,0,0-3.7-5l0,0c-3.7-5-1.2-2.1-6.6-7.9l0,0c-5.4-6.2-2.1-2.1-7.9-7.5l0,0c-5.8-5.4-6.6-6.2-6.6-6.2l0,0l0,0l0,0
		c0,0,1.7-4.6,1.7-11.6l0,0c0-7-3.3-9.5-3.3-9.5l0,0l0,0h0.4c0,0,0,0,0.8,0l0,0c0.8,0,2.1,0,5,0.4l0,0c5,0.4,13.3,1.2,23.6,5.4l0,0
		c11.6,4.6,14.5,11.2,15.3,12l0,0l0,0c0.8,0.8,1.2,2.1,1.2,2.1l0,0l0,0l0,0c0,0-0.8,4.6-2.5,8.7l0,0c-1.7,4.1-2.1,5.4-6.2,10.4l0,0
		C182.6,157.4,176.4,161.2,176,161.2L176,161.2L176,161.2L176,161.2L176,161.2z M158.1,140.9c5.8,5.4,2.1,1.2,7.9,7.5l0,0
		c5.4,5.8,2.9,2.9,6.6,7.9l0,0c2.9,3.7,3.3,4.6,3.7,5l0,0c0.8-0.4,6.6-4.1,10.4-8.7l0,0c4.1-5,4.6-6.2,6.2-10.4l0,0
		c1.7-4.1,2.5-8.3,2.5-8.7l0,0c0-0.4-0.4-1.7-1.2-2.1l0,0l0,0l0,0c-0.8-0.8-3.7-7-15.3-12l0,0c-10.4-4.1-18.6-5-23.6-5.4l0,0
		c-2.9,0-4.6-0.4-5-0.4l0,0h-0.4l0,0c0.8,0.8,2.9,3.3,2.9,9.5l0,0c0,6.6-1.2,11.2-1.7,11.6l0,0C151.5,135.1,153.2,136.3,158.1,140.9
		L158.1,140.9z M87.3,158.7c-0.4,0-1.2,0-2.1,0l0,0c-3.3-0.4-2.5-2.1-5.4-2.1l0,0l0,0l0,0c-0.4,0-0.4,0-0.8,0l0,0
		c-2.1,0-1.7,0.8-3.3,1.2l0,0c-0.8,0.4-1.7,0.4-2.9,0.4l0,0c-1.2,0-2.9,0-2.9,0l0,0l0,0l0,0c0,0-0.4-0.4-0.4-1.2l0,0
		c0-0.4,0-0.4,0.4-0.8l0,0c0.8-1.2,2.9-2.1,2.9-2.9l0,0c0-0.8,0.4-1.2,0.4-1.7l0,0c0-0.4,0-0.4-0.8-0.8l0,0H72l0,0
		c-2.1,0-3.3,3.3-5.8,4.6l0,0c-1.2,0.4-2.5,0.8-3.7,0.8l0,0c-0.8,0-2.1-0.4-2.9-0.8l0,0c-0.8-0.4-0.8-0.8-0.8-1.2l0,0
		c0-0.4,0.4-0.8,0.4-1.2l0,0l0,0l0,0c0-0.4,0.8-2.1,7.5-9.1l0,0c5.8-6.6,7.9-7.5,8.3-7.5l0,0c0.4,0,0.4,0,0.4,0.4l0,0
		c0,0,0.4,0.4,0.8,0.8l0,0c0.8,0.8,2.5,2.1,5.4,4.1l0,0c5.8,4.6,9.5,4.6,12.4,5.4l0,0c1.7,0.4,2.1,0.8,2.1,1.2l0,0
		c0,0.4-0.8,1.2-1.2,2.5l0,0c-0.8,2.1-3.3,7-5,7.9l0,0C89,158.3,89,158.7,87.3,158.7L87.3,158.7L87.3,158.7L87.3,158.7z M85.2,158.3
		c0.8,0,1.7,0,2.1,0l0,0c1.2,0,1.2-0.4,2.5-1.2l0,0c1.2-0.8,3.7-5.8,5-7.9l0,0c0.4-1.2,1.2-1.7,1.2-2.1l0,0c0-0.4-0.4-0.8-2.1-0.8
		l0,0c-3.3-0.8-7-0.8-12.8-5.4l0,0c-5.8-4.6-6.2-5-6.2-5l0,0l0,0l0,0l0,0l0,0c-0.4,0-2.5,0.8-8.3,7.5l0,0c-6.2,7-7.5,8.7-7.5,9.1
		l0,0h0.4v0.4c0,0-0.4,0.4-0.4,0.8l0,0c0,0.4,0,0.8,0.8,1.2l0,0c0.8,0.4,1.7,0.8,2.5,0.8l0,0c1.2,0,2.5-0.4,3.7-0.8l0,0
		c2.5-0.8,3.7-4.6,5.8-4.6l0,0h0.4l0,0c0.8,0,0.8,0.4,0.8,0.8l0,0c0,0.4-0.4,1.2-0.4,1.7l0,0c-0.4,1.2-2.5,2.1-2.9,2.9l0,0
		c0,0.4-0.4,0.4-0.4,0.8l0,0c0,0.4,0.4,0.8,0.4,1.2l0,0c0.4,0,1.2,0,2.5,0l0,0c1.2,0,2.1,0,2.9-0.4l0,0c1.2-0.4,1.2-1.2,3.3-1.2l0,0
		c0.4,0,0.4,0,0.8,0l0,0l0,0C83.2,156.6,81.9,157.8,85.2,158.3L85.2,158.3z M96.4,151.2l1.2-4.1h5.4l0,0l-1.2,4.6h-5.4V151.2z
		 M97.7,147.5l-1.2,3.7h5.4l1.2-4.1L97.7,147.5L97.7,147.5z M167.7,114.8c-7.5-2.1-15.3-2.1-17.8-2.1l0,0c-0.8,0-0.8,0-0.8,0l0,0
		l0,0l0,0c0,0-1.7-1.2-7.5-6.2l0,0c-3.7-2.9-4.1-3.7-4.1-3.7l0,0c0,0-0.8-1.7-1.2-2.9l0,0c0-0.4,0-0.4,0-0.4l0,0
		c1.7-2.5,2.9-2.5,3.3-2.5l0,0c0.4,0,0.4,0,0.4,0l0,0c0,0,6.2,1.7,12,4.1l0,0c7.9,2.9,6.6,2.9,15.3,7.5l0,0
		c8.7,4.6,12.8,8.7,12.8,8.7l0,0l2.9,2.5l0,0C183,119.7,177.2,117.2,167.7,114.8L167.7,114.8z M167.7,114.8
		c7.9,2.1,12.8,4.1,14.5,4.6l0,0l-2.1-2.1c0,0-4.1-4.1-12.8-8.7l0,0c-8.7-4.6-7.5-4.6-15.3-7.5l0,0c-5.8-2.1-12-4.1-12-4.1l0,0
		c0,0,0,0-0.4,0l0,0c-0.4,0-1.7,0.4-3.3,2.5l0,0v0.4l0,0c0,0.8,0.8,2.5,0.8,2.5l0,0c0,0,0.4,0.4,4.1,3.7l0,0
		c5.4,4.6,7.5,5.8,7.5,6.2l0,0c0,0,0.4,0,0.8,0l0,0C152.3,112.3,160.2,112.7,167.7,114.8L167.7,114.8z M81.1,97.4L81.1,97.4
		L81.1,97.4L81.1,97.4L81.1,97.4L81.1,97.4z"/>
	<path class="st2" d="M51.7,183.1l3.7-1.2l4.1,13.3c0.8,2.5,0.8,4.1,0.8,5.8c-0.4,1.7-1.2,2.9-2.5,4.6c-1.7,1.2-3.7,2.5-6.6,3.3
		c-2.9,0.8-5.4,1.2-7,1.2c-2.1,0-3.7-0.8-5-2.1c-1.2-1.2-2.1-2.9-2.9-5.4l-4.1-13.3l4.1-1.2l4.1,13.3c0,1.7,0.4,1.7,0.8,2.5
		c0.8,0.8,1.7,1.2,3.3,1.2c1.2,0,2.9,0,4.6-0.4c2.9-0.8,5-2.1,5.8-3.3c0.8-1.2,0.8-3.7,0-6.2L51.7,183.1z"/>
	<path class="st2" d="M43.8,209.6c-2.1,0-3.7-0.8-5-2.1l0,0c-1.2-1.2-2.1-2.9-2.9-5.4l0,0l-4.1-13.3l4.1-1.2l4.1,13.3
		c0.8,2.1,0.8,2.1,1.7,2.9l0,0c0.8,0.8,1.7,1.2,2.9,1.2l0,0c0.4,0,0.4,0,0.8,0l0,0c1.2,0,2.5-0.4,3.7-0.8l0,0c2.9-0.8,5-2.1,5.8-3.3
		l0,0c0.4-0.8,0.8-1.7,0.8-2.5l0,0c0-1.2-0.4-2.1-0.8-3.7l0,0l-3.7-12l0,0l0,0l0,0l0,0l0,0l4.1-1.2l4.1,13.3
		c0.4,1.7,0.8,3.3,0.8,4.6l0,0c0,0.4,0,0.8,0,1.2l0,0c-0.4,1.7-1.2,2.9-2.9,4.6l0,0c-1.7,1.2-3.7,2.5-6.6,3.3l0,0
		c-2.5,0.8-4.6,1.2-6.2,1.2l0,0C44.6,209.6,44.2,209.6,43.8,209.6L43.8,209.6z M32.2,189.3l4.1,12.8c0.8,2.5,1.7,4.1,2.9,5.4l0,0
		c1.2,1.2,2.9,1.7,4.6,2.1l0,0c0.4,0,0.8,0,0.8,0l0,0c1.7,0,3.7-0.4,6.2-1.2l0,0c2.9-0.8,5-2.1,6.6-3.3l0,0c1.7-1.2,2.5-2.9,2.5-4.6
		l0,0c0-0.4,0-0.8,0-1.2l0,0c0-1.2-0.4-2.9-0.8-4.6l0,0L55,181.9l-3.7,1.2l3.7,11.6c0.4,1.2,0.8,2.5,0.8,3.7l0,0
		c0,1.2-0.4,2.1-0.8,2.9l0,0c-0.8,1.2-2.9,2.5-5.8,3.3l0,0c-1.2,0.4-2.5,0.8-3.7,0.8l0,0c-0.4,0-0.4,0-0.8,0l0,0
		c-1.2,0-2.5-0.8-3.3-1.2l0,0c-0.8-0.8-0.8-0.8-1.7-2.9l0,0l-4.1-12.8L32.2,189.3L32.2,189.3z"/>
	<path class="st2" d="M72.4,202.6l-2.9-22.4l4.6-0.4l19.5,15.3L91,177.3l4.1-0.4l2.9,22.4l-4.6,0.4L74,184.4l2.5,17.8L72.4,202.6z"
		/>
	<path class="st2" d="M69.1,180.2l4.6-0.4l19.5,15.3l-2.5-17.4l4.1-0.4l2.9,22.8l-4.6,0.4l-19.5-15.3l2.5,17.4L72,203l0,0
		L69.1,180.2L69.1,180.2z M72.4,202.6L72.4,202.6L72.4,202.6L72.4,202.6z M69.5,180.2l2.9,22.4l4.1-0.4L74,184.4l19.9,15.3l4.1-0.4
		l-2.9-22.4l-3.7,0.4l2.5,17.8L74,179.8L69.5,180.2L69.5,180.2z"/>
	<path class="st2" d="M107.2,198v-22.8h4.1V198H107.2z"/>
	<path class="st2" d="M107.2,198.4L107.2,198.4L107.2,198.4L107.2,198.4L107.2,198.4L107.2,198.4v-22.8h4.6v22.8H107.2L107.2,198.4z
		 M107.2,198h4.1v-22.4h-4.1V198L107.2,198z"/>
	<path class="st2" d="M130.4,180.6c2.5-1.2,5.8-1.7,9.5-1.2c2.5,0,5,0.8,6.6,1.2c2.1,0.8,3.3,1.7,4.6,3.3c0.8,1.2,1.2,2.9,1.2,4.6
		c0,2.5-1.7,4.6-4.1,5.8c-2.5,1.2-5.8,1.7-9.5,1.7c-3.7-0.4-6.6-1.2-9.1-2.5c-2.5-1.7-3.3-3.7-3.3-5.8
		C126.2,183.9,127.5,181.9,130.4,180.6z M122.5,191.8c1.2,1.7,3.3,2.9,6.2,4.1c2.9,1.2,5.8,1.7,9.5,2.1c3.3,0,6.6,0,9.5-0.8
		c2.9-0.8,5.4-1.7,7-3.3c1.7-1.7,2.5-3.3,2.5-5.4s-0.4-3.7-2.1-5.4c-1.2-1.7-3.3-2.9-6.2-4.1c-2.9-1.2-5.8-1.7-9.5-2.1
		c-5.4-0.4-9.9,0.4-13.3,2.1c-3.7,1.7-5.4,4.1-5.4,7.5C120.4,188.1,121.3,190.2,122.5,191.8z"/>
	<path class="st2" d="M140.7,198c-0.8,0-1.7,0-2.1,0l0,0c-3.7-0.4-6.6-0.8-9.5-2.1l0,0c-2.9-1.2-5-2.5-6.2-4.1l0,0l0,0
		c-1.2-1.7-2.1-3.3-2.1-5l0,0v-0.4l0,0c0-3.3,2.1-5.8,5.8-7.5l0,0c2.9-1.2,6.6-2.1,10.8-2.1l0,0c0.8,0,1.7,0,2.5,0l0,0
		c3.7,0.4,6.6,0.8,9.5,2.1l0,0c2.9,1.2,5,2.5,6.2,4.1l0,0c1.2,1.7,2.1,3.3,2.1,5l0,0v0.4l0,0c0,2.1-0.8,3.7-2.9,5.4l0,0
		c-1.7,1.7-4.1,2.5-7,3.3l0,0C145.7,197.6,143.2,198,140.7,198L140.7,198L140.7,198L140.7,198z M128.7,195.5
		c2.9,1.2,5.8,1.7,9.5,2.1l0,0c0.8,0,1.7,0,2.1,0l0,0c2.5,0,5-0.4,7-0.8l0,0c2.9-0.8,5-1.7,6.6-3.3l0,0c1.7-1.7,2.5-3.3,2.5-5.4l0,0
		v-0.4l0,0c0-1.7-0.8-3.3-2.1-5l0,0c-1.2-1.7-3.3-2.9-6.2-4.1l0,0c-2.9-1.2-5.8-1.7-9.5-2.1l0,0c-0.8,0-1.7,0-2.5,0l0,0
		c-4.1,0-7.9,0.8-10.8,2.1l0,0c-3.3,1.7-5.4,4.1-5.4,7.5l0,0v0.4l0,0c0,1.7,0.8,3.3,2.1,4.6l0,0l0,0l0,0
		C124.2,193.1,126.2,194.7,128.7,195.5L128.7,195.5z M138.7,195.5c-3.7-0.4-7-1.2-9.1-2.5l0,0c-2.1-1.7-3.3-3.3-3.3-5.8l0,0v-0.4
		l0,0c0-2.9,1.7-5.4,4.1-6.2l0,0c2.1-0.8,5-1.7,7.9-1.7l0,0c0.4,0,1.2,0,1.7,0l0,0c2.5,0,5,0.8,6.6,1.2l0,0c2.1,0.8,3.3,1.7,4.6,3.3
		l0,0c0.8,1.2,1.2,2.5,1.2,4.1l0,0v0.4l0,0c0,2.5-1.7,4.6-4.1,5.8l0,0c-2.1,1.2-5,1.7-7.9,1.7l0,0
		C139.5,195.5,139.1,195.5,138.7,195.5L138.7,195.5z M125.8,186.8C125.8,186.8,125.8,187.3,125.8,186.8L125.8,186.8
		c0,2.5,1.2,4.6,3.3,5.8l0,0c2.5,1.7,5.4,2.5,9.1,2.5l0,0c0.4,0,1.2,0,1.7,0l0,0c2.9,0,5.8-0.4,7.9-1.7l0,0c2.5-1.2,3.7-2.9,4.1-5.8
		l0,0v-0.4l0,0c0-1.7-0.4-2.9-1.2-4.1l0,0c-0.8-1.2-2.5-2.5-4.6-2.9l0,0c-2.1-0.8-4.1-1.2-6.6-1.2l0,0c-0.4,0-1.2,0-1.7,0l0,0
		c-2.9,0-5.4,0.4-7.5,1.2l0,0C127.5,181.9,126.2,183.9,125.8,186.8L125.8,186.8z"/>
	<path class="st2" d="M165.2,200.9l4.1-22.4l4.6,0.8l13.7,20.7l3.3-17.4l4.1,0.8l-4.1,22.4l-4.1-0.8l-13.7-20.7l-3.3,17.4
		L165.2,200.9z"/>
	<path class="st2" d="M186.3,205.1l-13.7-20.7l-3.3,17.4l-4.1-0.8l0,0l0,0l0,0l0,0l0,0l4.1-22.4l4.6,0.8l13.7,20.3l3.3-17.4l4.1,0.8
		l-4.1,22.4L186.3,205.1L186.3,205.1z M186.7,205.1l4.1,0.8l4.1-22l-3.7-0.8l-3.3,17.8l-14.1-20.7l-4.1-0.8l-4.1,22l3.7,0.8
		l3.3-17.8L186.7,205.1L186.7,205.1z"/>
	<path class="st2" d="M75.7,134.6c-9.5-4.6-16.2-14.5-23.6-22"/>
	<path class="st2" d="M76.1,133.4c-9.5-5-16.6-14.5-24-22.4c-1.2-1.2-2.1,0-1.2,1.2c7,8.3,11.2,12.8,24,23.2
		C76.5,136.7,77.4,134.2,76.1,133.4L76.1,133.4z"/>
	<path class="st0" d="M95.6,121.4c7-6.2,14.1-8.3,22.8-6.2"/>
	<path class="st3" d="M96.4,122.2c6.6-5.4,13.7-7.5,22-6.2c1.7,0.4,1.7-2.1,0.4-2.5c-9.1-1.7-17,0.8-24,6.6
		C93.5,121.4,95.2,123.5,96.4,122.2L96.4,122.2z"/>
	<path class="st0" d="M107.2,119.7c3.7-15.3-16.6-17.4-22.8-22.8"/>
	<path class="st3" d="M108,120.1c1.2-6.6-1.2-11.6-6.6-15.3c-5-3.3-11.6-4.6-16.6-8.7c-1.2-0.8-2.5,0.8-1.2,2.1
		c7.9,7,24.9,7.5,22,22C105.5,121.4,108,121.4,108,120.1L108,120.1z"/>
	<path class="st1" d="M80.3,110.6c0,0,0-0.4-0.4-0.4l0,0c-2.5-0.8-3.3-2.5-3.3-4.6l0,0c0-2.9,2.1-5.4,4.1-6.6l0,0c0-0.8,0-1.7,0-2.5
		l0,0c0-1.7,0-2.9,0.4-4.1l0,0c-11.6-1.2-22.4-7-30.2-13.3l0,0c-1.7,3.3-5,5-8.3,5l0,0c-1.7,0-3.3-0.4-5-1.7l0,0
		c-1.2-0.8-2.1-2.5-2.1-4.1l0,0c0-0.8,0.4-2.1,0.8-2.9l0,0l0,0l0,0c-1.2,0-2.5-0.8-3.3-2.1l0,0c-0.8-1.2-1.2-2.5-1.2-3.7l0,0
		c0-1.2,0.4-2.5,1.2-3.3l0,0c-1.7-1.2-2.5-3.3-2.5-5l0,0c0-3.7,2.9-7.9,7.5-7.9l0,0c0.4,0,0.8,0,0.8,0l0,0c0.4-3.3,3.3-5.8,6.6-5.8
		l0,0c1.7,0,3.7,0.8,5,2.1l0,0c1.2-2.1,3.3-2.9,5.4-2.5l0,0c4.1,0,8.7,3.3,8.7,7.9l0,0c0,1.2-0.4,2.9-1.7,4.6l0,0
		c5,0.4,10.8,1.2,16.2,3.3l0,0c-1.7-2.9-2.5-5.4-3.3-8.3l0,0c-3.3,0-5.8-0.8-7.9-2.5l0,0c-2.1-1.7-3.3-3.7-3.3-6.6l0,0
		c0-2.5,1.2-5,2.9-6.6l0,0c2.1-1.7,4.6-2.5,7.9-2.5l0,0c1.7-5,3.7-10.4,7.5-14.5l0,0l-11.2,3.7c-0.4,0-0.8,0-0.8-0.4l0,0
		c-0.4-0.4-0.4-0.8,0-0.8l0,0l2.5-5l0,0c5-7,12.8-11.2,20.7-13.3l0,0c-2.1-0.8-4.6-1.2-7-1.2l0,0c-0.4,0-1.2,0-1.7,0l0,0
		c-0.4,0-0.8-0.4-0.8-0.8l0,0c0-0.4,0-0.8,0.4-0.8l0,0C89.4,0.8,93.5,0,97.7,0l0,0c5.4,0,9.5,1.7,11.6,2.5l0,0
		c1.7-0.8,6.2-2.5,11.2-2.5l0,0c3.7,0,8.3,0.8,12.8,3.3l0,0c0.4,0,0.4,0.4,0.4,0.8l0,0c0,0.4-0.4,0.8-0.8,0.8l0,0
		c-0.4,0-1.2,0-1.7,0l0,0c-2.5,0-4.6,0-7,1.2l0,0c7.9,2.1,15.7,6.2,20.7,13.3l0,0l0,0l2.5,5c0,0.4,0,0.8,0,0.8l0,0
		c-0.4,0.4-0.4,0.4-0.8,0.4l0,0L135.4,22c3.3,4.1,5.8,9.5,7,14.5l0,0c3.3,0,5.8,0.8,7.9,2.5l0,0c2.1,1.7,2.9,3.7,2.9,6.6l0,0
		c0,2.5-1.2,5-3.3,6.6l0,0c-2.1,1.7-4.6,2.5-7.9,2.5l0,0c-0.8,2.9-1.7,5.4-3.3,8.3l0,0c5.4-2.1,11.2-2.9,16.2-3.3l0,0
		c-1.2-1.7-1.7-2.9-1.7-4.6l0,0c0-4.6,4.6-7.9,8.7-7.9l0,0c2.1,0,4.1,0.8,5.4,2.9l0,0c1.7-1.7,3.3-2.1,5-2.1l0,0
		c3.3,0,6.6,2.5,6.6,5.8l0,0c0.4,0,0.8,0,0.8,0l0,0c4.6,0,7.5,4.1,7.5,7.9l0,0c0,2.1-0.8,3.7-2.5,5l0,0c0.8,0.8,1.2,2.1,1.2,3.3l0,0
		c0,1.2-0.4,2.5-1.2,3.7l0,0c-0.8,1.2-2.1,2.1-3.3,2.1l0,0c0,0,0,0-0.4,0l0,0c0.4,1.2,0.8,2.1,0.8,2.9l0,0c0,1.7-0.8,3.3-2.1,4.1
		l0,0c-1.2,0.8-2.9,1.7-5,1.7l0,0c-2.9,0-6.6-1.7-8.3-5l0,0c-7.9,6.2-18.6,12.4-30.2,13.3l0,0c0,1.2,0.4,2.9,0.4,4.1l0,0
		c0,0.8,0,1.7,0,2.5l0,0c2.5,1.2,4.1,3.7,4.1,6.6l0,0c0,1.2-0.4,2.5-1.7,3.7l0,0h-0.4l0,0c-19.5,1.2-38.9,0-58.4,1.2l0,0l0,0l0,0
		C80.7,111,80.3,111,80.3,110.6L80.3,110.6z M50.8,77.1c7.9,6.6,19.5,12.8,31.1,13.7l0,0c0.4,0,0.4,0,0.4,0.4l0,0c0,0,0,0.4,0,0.8
		l0,0c-0.4,1.7-0.4,3.3-0.4,5l0,0c0,0.8,0,2.1,0,2.9l0,0c0,0.4,0,0.8-0.4,0.8l0,0c-1.7,0.4-3.7,3.3-3.7,5.4l0,0
		c0,1.2,0.4,2.5,2.9,2.9l0,0c0.4,0,0.4,0.4,0.4,0.4l0,0c19.1-1.2,38.5-0.4,57.6-1.2l0,0c0.8-0.4,0.8-1.2,0.8-2.1l0,0
		c0-2.1-2.1-4.6-3.7-5.4l0,0c-0.4,0-0.8-0.4-0.4-0.8l0,0c0-0.8,0-2.1,0-2.9l0,0c0-1.7,0-3.3-0.4-5l0,0c0-0.4,0-0.4,0-0.8l0,0
		l0.4-0.4l0,0c11.6-0.8,23.2-7,31.1-13.7l0,0c0.4,0,0.4-0.4,0.8,0l0,0c0.4,0,0.4,0.4,0.4,0.4l0,0c1.2,3.3,4.1,5,7,5l0,0
		c1.7,0,2.9-0.4,3.7-1.2l0,0c0.8-0.8,1.7-1.7,1.7-2.9l0,0c0-1.2-0.4-2.5-1.7-4.1l0,0c-0.4-0.4,0-0.8,0-1.2l0,0
		c0.4-0.4,0.8-0.4,1.2,0l0,0c0.8,0.4,1.2,0.4,1.7,0.4l0,0c0.8,0,1.2-0.4,2.1-1.2l0,0c0.4-0.8,0.8-1.7,0.8-2.9l0,0
		c0-1.2-0.4-2.1-1.2-2.9l0,0c-0.4,0-0.4-0.4-0.4-0.8l0,0c0-0.4,0-0.4,0.4-0.8l0,0c1.7-0.8,2.5-2.5,2.5-4.1l0,0
		c0-1.7-0.4-3.3-1.7-4.1l0,0c-0.8-1.2-2.5-2.1-4.1-2.1l0,0c-0.4,0-1.2,0-1.7,0.4l0,0c-0.4,0-0.4,0-0.8,0l0,0c-0.4,0-0.4-0.4-0.4-0.8
		l0,0v-0.4l0,0c0-2.5-2.5-4.6-5-4.6l0,0c-1.7,0-3.3,0.8-4.6,2.5l0,0c0,0.4-0.4,0.4-0.8,0.4l0,0c-0.4,0-0.4-0.4-0.8-0.4l0,0
		c-0.8-2.1-2.5-2.9-4.1-2.9l0,0c-1.7,0-3.3,0.8-4.6,1.7l0,0c-1.2,1.2-2.1,2.5-2.1,4.6l0,0c0,1.2,0.4,2.9,2.1,4.6l0,0
		c0.4,0.4,0.4,0.4,0,0.8l0,0c0,0.4-0.4,0.4-0.8,0.4l0,0c-6.2,0.4-13.7,1.7-19.9,4.1l0,0c-0.4,0-0.8,0-0.8-0.4l0,0
		c-0.4-0.4-0.4-0.8,0-0.8l0,0c2.5-3.7,3.7-6.6,4.6-10.4l0,0c0-0.4,0.4-0.8,0.8-0.8l0,0c6.6,0,9.9-3.3,9.9-7.5l0,0c0-4.1-2.9-7-9.5-7
		l0,0c-0.4,0-0.8-0.4-0.8-0.8l0,0c-1.7-6.2-5-12.8-9.5-17l0,0c-0.4-0.4-0.4-0.8,0-1.2l0,0c0-0.4,0.8-0.4,0.8-0.4l0,0l12.4,4.1
		l-0.8-1.7c-5-7.5-13.3-11.6-21.5-13.3l0,0c-0.4,0-0.4-0.4-0.8-0.8l0,0c0-0.4,0-0.8,0.4-0.8l0,0c2.5-1.7,5-2.5,7.5-2.5l0,0
		c-2.9-1.2-5.8-1.7-8.7-1.7l0,0c-5.4,0-9.5,1.7-11.2,2.5l0,0c-0.4,0-0.4,0-0.8,0l0,0c-1.7-0.8-5.8-2.5-11.2-2.5l0,0
		c-2.5,0-5.4,0.4-8.7,1.7l0,0c2.5,0,5,0.8,7.5,2.5l0,0C96,5.8,96,6.2,96,6.6l0,0C96,7,95.6,7,95.2,7.5l0,0
		c-8.3,1.7-16.6,5.8-21.5,13.3l0,0L72,23.6l12.4-4.1c0.4,0,0.8,0,0.8,0.4l0,0c0.4,0.4,0,0.8,0,1.2l0,0c-4.6,3.7-7.9,10.8-9.5,17l0,0
		c0,0.4-0.4,0.4-0.8,0.4l0,0c-6.6,0-9.5,2.9-9.5,7l0,0c0,4.1,3.3,7,9.9,7.5l0,0c0.4,0,0.8,0.4,0.8,0.8l0,0c0.8,3.7,2.1,6.6,4.6,10.4
		l0,0c0.4,0.4,0.4,0.8,0,0.8l0,0c-0.4,0.4-0.8,0.4-0.8,0.4l0,0c-6.2-2.9-13.3-3.7-19.9-4.1l0,0c-0.4,0-0.4-0.4-0.8-0.4l0,0
		c0-0.4,0-0.8,0-0.8l0,0c1.7-1.7,2.1-3.3,2.1-4.6l0,0c0-1.7-0.8-3.3-2.1-4.6l0,0c-1.2-1.2-3.3-1.7-4.6-1.7l0,0
		c-1.7,0-3.3,0.8-4.1,2.9l0,0c0,0.4-0.4,0.4-0.8,0.4l0,0c-0.4,0-0.4,0-0.8-0.4l0,0c-1.2-1.7-2.9-2.5-4.6-2.5l0,0c-2.5,0-5,2.1-5,4.6
		l0,0v0.4l0,0c0,0.4,0,0.4-0.4,0.8l0,0c-0.4,0-0.4,0.4-0.8,0l0,0c-0.4,0-1.2-0.4-1.7-0.4l0,0c-1.7,0-2.9,0.8-4.1,2.1l0,0
		c-0.8,1.2-1.7,2.9-1.7,4.1l0,0c0,1.7,0.8,3.3,2.5,4.1l0,0c0.4,0,0.4,0.4,0.4,0.8l0,0c0,0.4,0,0.4-0.4,0.8l0,0
		c0.8,0,0.4,1.2,0.4,2.5l0,0c0,0.8,0,2.1,0.8,2.9l0,0c0.4,0.8,1.2,1.2,2.1,1.2l0,0c0.4,0,0.8,0,1.7-0.4l0,0c0.4-0.4,0.8,0,1.2,0l0,0
		c0.4,0.4,0.4,0.8,0,1.2l0,0c-1.2,1.7-1.7,2.9-1.7,4.1l0,0c0,1.2,0.4,2.1,1.7,2.9l0,0c0.8,0.8,2.5,1.2,3.7,1.2l0,0
		c2.9,0,5.8-1.7,7-5l0,0c0-0.4,0.4-0.4,0.4-0.4l0,0c0,0,0,0,0.4,0l0,0C50.4,77.1,50.8,77.1,50.8,77.1L50.8,77.1z M179.3,54.3h-0.8
		H179.3L179.3,54.3z"/>
	<path class="st4" d="M108.8,133c1.2,0,2.5,0,3.7,0c1.7,11.2,11.2,9.9,12.4,18.2c0.4,2.5-0.8,3.7-0.4,7c0.8,4.1,5,6.2,10.4,6.6
		c3.7,0,9.1,1.2,12,3.7c4.6,3.3,7,4.1,10.4,4.1c2.9,0,5.8-4.1,3.7-7c3.3,0,4.1-3.3,2.9-4.6c1.2,0.8,3.7-2.1,2.5-3.7
		c1.7,0,3.7-2.5,2.5-5c2.5-1.7,1.7-5.4-1.2-8.7c-6.2-3.3-7.5-3.3-16.2-3.3c-5.4,0.8-5-1.7-6.2-6.2c-0.4-4.6-3.3-12.4-9.9-16.2
		c1.2-2.1,1.7-5,1.2-7.9c6.2-1.2,2.9-8.7-0.8-9.9c0.4-2.9,0-5.8-0.4-8.3c12-0.8,23.6-7,31.5-14.1c3.3,9.1,19.1,5.8,12.4-4.1
		c5,3.3,7.5-5.4,4.1-7.5c6.2-3.3,2.1-14.1-5.4-12c0.8-5.4-7-8.7-11.2-3.3c-3.7-8.3-18.6,0-10.8,9.1c-6.2,0.4-13.7,1.7-19.9,4.6
		c2.9-3.7,4.1-7,5-10.8c7,0,10.8-3.3,10.8-8.3c0-4.6-3.7-7.9-10.4-8.3c-1.7-6.2-5-13.3-9.5-17.4l14.9,5l-2.5-5
		c-5.4-7.5-14.1-11.6-22.4-13.3c3.7-2.9,7-2.5,11.2-2.5c-10.8-5.8-21.1-2.1-24-0.4c-2.9-1.7-13.3-5.4-24,0.4c4.1,0,7.5,0,10.8,2.5
		c-8.3,1.7-17,5.8-22,13.3l-2.9,5l14.5-5c-4.6,4.1-7.9,11.2-9.5,17.4c-7,0-10.4,3.3-10.8,8.3c0,4.6,4.1,8.3,10.8,8.3
		c0.8,4.1,2.1,7,5,10.8c-6.2-2.9-13.7-4.1-19.9-4.6c7.9-8.7-7-17-10.8-9.1c-4.1-5.4-12-2.1-11.2,3.3c-7.5-2.1-11.6,8.7-5.4,12
		c-3.7,2.1-0.8,10.8,4.1,7.5c-7,9.9,9.1,13.3,12.4,4.1c7.9,6.6,19.5,13.3,31.5,14.1c-0.4,2.5-0.4,5.4-0.4,8.3
		c-3.7,1.2-7,8.3-0.8,9.9c-0.4,2.9,0,5.8,1.2,7.9c-6.6,3.7-9.5,12-9.9,16.2c-0.8,4.6-0.4,7-6.2,6.2c-8.7,0-9.9,0-16.2,3.3
		c-3.3,3.3-4.1,6.6-1.2,8.7c-1.2,2.5,0.8,5,2.5,5c-1.2,1.7,1.2,4.6,2.5,3.7c-1.2,1.2-0.4,4.6,2.9,4.6c-2.1,2.9,0.8,7,3.7,7
		c3.7,0,5.8-0.8,10.4-4.1c2.9-2.5,8.3-3.7,12-3.7c5.4,0,9.9-2.1,10.4-6.6c0.4-2.9-0.8-4.1-0.4-6.6c1.2-8.3,11.2-7,12.4-18.2
		C106.8,133,108,133,108.8,133L108.8,133z"/>
	<path class="st1" d="M156.9,144.2c-5-0.4-10.8,0.4-12-1.2c-2.9-1.2-2.5-4.6-3.3-7.5c-1.2-5.8-2.1-8.3-5-11.6c0,0,0-0.4-0.4-0.4
		c-2.5-3.7-5.8-3.7-10.8-3.3l0,0c-3.3,0.8-4.6,1.7-6.6,4.1c-0.4,0.4-0.8,0.8-1.2,1.7c-3.3,6.6-1.7,9.9,1.2,12.8
		c2.1,2.1,4.6,3.7,6.6,6.2c2.1,2.5,3.3,5.4,2.9,9.5c-1.2,5,1.7,6.6,5.4,6.2c1.2,0,2.1,0,3.3,0.4c5.8,0.4,6.6,0.8,10.4,2.5
		c3.3,2.5,5,3.3,7.9,4.6c3.3,1.2,4.6-2.5,2.5-4.6c-1.7-1.2-1.7-1.7-4.1-2.9c-1.7-0.8-0.4-2.9,1.2-1.7c2.1,1.7,2.5,2.1,4.6,3.3
		c1.7,0.8,3.7-0.8,1.7-2.9c-1.7-1.2-2.5-2.1-4.1-3.3c-1.2-0.8-0.4-2.5,0.8-1.2c1.2,0.8,2.5,2.1,4.6,3.7c2.1,1.7,2.9-0.8,2.1-2.1
		c-2.9-3.3-2.5-2.9-4.6-4.1c-0.4-0.8-0.4-1.7,0.8-1.2c1.2,0.8,2.1,1.2,4.1,3.3c1.7,1.2,3.3-0.8,2.1-1.7c-1.2-1.2-2.1-2.1-4.1-3.3
		c-1.2-0.8-0.4-1.7,0.8-0.8c1.7,0.8,1.7,0.8,3.3,2.5c0.4,1.2,2.1-0.4,0.8-2.1C164.8,146.2,161.5,144.2,156.9,144.2L156.9,144.2z"/>
	<path class="st1" d="M173.9,60.1c5.8-6.6-5.4-13.3-5.8-1.7c-1.2-10.8-14.9-6.6-6.6,4.6c-7.9,0.4-16.6,1.7-24.4,5
		c-1.2,0.4-2.5,0.8-3.7,1.7c-2.1,2.1-5.4,3.7-7.9,5.4c-0.4,0-0.8,0.4-0.8,0.4c0.4,1.7,0.4,2.9,0.8,4.6c1.7,7,5,13.7,7.5,17l-0.8-8.7
		c1.7,0,2.9,0,4.6-0.4c12-1.7,22.4-7,31.5-14.5c6.2,10.4,13.3,2.1,5.8-2.9c7.9,4.1,10.4-5.4,0.8-6.2c4.6,0.4,6.6-1.2,7-2.9v-1.2
		C182.2,58,178.4,55.9,173.9,60.1L173.9,60.1z"/>
	<path class="st1" d="M60.8,143.8c5-0.4,10.8,0.4,12-1.2c2.9-1.2,2.5-4.6,3.3-7.5c1.2-5.8,2.1-8.3,5-11.6c0,0,0,0,0.4-0.4
		c2.5-3.3,5.8-3.7,10.8-3.3l0,0c3.3,0.8,4.6,1.7,6.6,4.1c0.4,0.4,0.8,0.8,1.2,1.7c3.3,6.6,1.7,9.9-1.2,12.8
		c-2.1,2.1-4.6,3.7-6.6,6.2c-2.1,2.5-3.3,5-2.9,9.5c1.2,5-1.7,6.6-5.4,6.2c-1.2,0-2.1,0-3.3,0.4c-5.8,0.4-6.6,0.8-10.4,2.5
		c-3.3,2.5-5,3.3-7.9,4.6c-3.3,1.2-4.6-2.5-2.5-4.6c1.7-1.2,1.7-1.7,4.1-2.9c1.7-0.8,0.4-2.9-0.8-1.7c-2.1,1.2-2.5,2.1-4.1,3.3
		c-1.7,0.8-3.7-0.8-1.7-2.9c1.7-1.2,2.5-2.1,4.1-3.3c1.2-0.8,0.4-2.5-0.8-1.2c-1.2,0.8-2.5,2.1-4.6,3.7c-2.1,1.7-2.9-0.8-1.7-2.1
		c2.9-3.3,2.5-2.9,4.6-4.1c0.4-0.8,0-1.7-0.8-0.8c-1.2,0.8-2.1,1.2-4.1,3.3c-1.7,1.2-3.3-0.8-2.1-1.7c1.2-1.2,2.1-1.7,4.6-3.3
		c1.2-0.8,0.4-1.7-0.8-0.8c-1.7,0.8-1.7,0.8-3.7,2.5c-0.4,1.2-1.7-0.4-0.8-2.1C52.9,146.2,56.2,144.2,60.8,143.8L60.8,143.8z"/>
	<path class="st1" d="M43.8,60.1c-5.8-6.6,5.4-13.3,5.8-1.7c1.2-10.4,14.9-6.6,6.6,4.6c7.9,0.4,16.6,1.7,24.4,5
		c1.2,0.4,2.5,1.2,3.7,1.7c2.1,2.1,5.4,3.7,7.9,5.4c0.4,0,0.8,0.4,0.8,0.4c-0.4,1.7-0.4,2.9-0.8,4.6c-1.7,7-5,13.7-7.5,17l0.8-8.7
		c-1.7,0-2.9-0.4-4.6-0.4c-12-1.7-22.4-7-31.5-14.5c-6.2,10.4-13.3,2.1-5.8-2.9c-7.9,4.1-10.4-5.4-0.8-6.2c-4.6,0.4-6.6-1.2-7-2.9
		v-1.2C35.5,57.6,39.2,55.5,43.8,60.1L43.8,60.1z"/>
	<path class="st1" d="M118,91.1l-2.9-12c-4.1,0.4-8.7,0.4-12.8,0l-2.5,12H118L118,91.1z"/>
	<path class="st5" d="M122.9,97.4c1.2,0,2.1,0.8,2.9,1.7c2.5,2.9,5.4,5.4,8.7,7.5c1.7,0.8,3.3-0.8,1.7-2.5
		c-9.5-7.5-12.4-15.7-14.9-26.9l-3.3,1.2c0.4,2.5,3.7,12.8,5.4,16.6H93.9c1.7-3.7,5-14.1,5.4-16.6l-2.9-1.2
		C93.9,88.2,91,96.5,81.5,104c-2.1,1.7-0.4,3.3,1.7,2.5c3.7-2.1,6.2-4.6,8.7-7.5c0.8-0.8,1.7-1.7,2.9-1.7H122.9L122.9,97.4z"/>
	<path class="st6" d="M111.7,128.8c2.5-9.1,10.4-14.1,20.3-12.4c0.8-2.1,1.2-2.1,1.2-6.6c-3.3-1.7-7.9-6.6-10.4-7.9
		c-0.4-0.4-0.8-0.4-1.2-0.4H96c-0.4,0-0.8,0-1.2,0.4c-2.5,1.7-7,6.6-10.8,7.9c0,4.6,0.4,4.6,1.2,6.6c10.4-1.7,18.2,3.3,20.3,12.4
		C108,128.8,109.7,128.8,111.7,128.8L111.7,128.8z"/>
	<path class="st4" d="M119.6,104c-7,0-14.5,0-21.5,0C95.2,125.1,122.5,125.1,119.6,104L119.6,104z"/>
	<path class="st7" d="M116.3,107.3L116.3,107.3h-14.5l0,0C100.6,119.7,117.1,119.7,116.3,107.3L116.3,107.3z"/>
	<path class="st1" d="M108.8,75.8c15.3,0,28.2-9.9,30.2-25.7c5.8,0,9.9-0.8,9.9-5s-4.1-5-9.9-5c-0.8-8.3-4.6-14.9-11.2-19.9l1.7,5.4
		c-6.6-5-14.1-8.3-20.7-10.4c-6.6,1.7-14.5,5.4-20.7,10.4l1.7-5c-6.6,5-9.9,11.6-11.2,19.9c-5.8,0-9.9,0.8-9.9,5s4.1,5,9.9,5
		C80.7,65.9,93.5,75.8,108.8,75.8L108.8,75.8z"/>
	<path class="st4" d="M108.8,74.2c-3.7,0-7.5-2.5-9.1-5.4c-1.7-2.9-1.7-5.8-2.9-8.7c-0.8-2.9-3.3-6.6-5.4-9.1
		c-0.8-1.2,0-2.1,0.4-2.1c0.4-0.4,1.2,0,1.2,0.4c3.7,5,9.5,7.9,15.3,7.9s11.2-2.5,15.3-7.9c0.4-0.4,0.8-0.4,1.7-0.4
		c0.4,0,1.2,0.8,0.4,2.1c-1.7,2.5-4.1,6.2-5.4,9.1c-0.8,2.9-1.2,6.2-2.9,8.7C116.3,71.7,113,74.2,108.8,74.2L108.8,74.2z"/>
	<path class="st7" d="M108.8,72.9c-18.2-8.3-5-19.9,0-11.2C113.8,53,127.1,64.6,108.8,72.9L108.8,72.9z"/>
	<path class="st8" d="M108.8,44.7c2.5,0,4.1,1.7,4.1,3.7c0,2.1-2.1,3.7-4.1,3.7c-2.5,0-4.1-1.7-4.1-3.7
		C104.7,46.4,106.4,44.7,108.8,44.7L108.8,44.7z"/>
	<path class="st9" d="M108.8,46c1.7,0,2.9,1.2,2.9,2.5c0,1.2-1.2,2.5-2.9,2.5c-1.7,0-2.9-1.2-2.9-2.5C105.9,47.2,107.2,46,108.8,46
		L108.8,46z"/>
	<path class="st4" d="M119.2,21.5c6.2,0,8.7,7.5,8.7,12.4s-2.9,12.4-8.7,12.4c-6.2,0-8.7-7.5-8.7-12.4S113,21.5,119.2,21.5
		L119.2,21.5z"/>
	<path class="st9" d="M119.2,43.5c-4.6,0-6.2-5.8-6.2-9.5c0-2.5,0.4-5,2.1-7c0.4,1.7,1.7,2.9,4.1,2.9c2.1,0,3.3-1.2,4.1-2.9
		c1.2,2.1,2.1,4.6,2.1,7C125.4,37.7,123.8,43.5,119.2,43.5L119.2,43.5z"/>
	<path class="st4" d="M98.5,21.5c-6.2,0-8.7,7.5-8.7,12.4s2.9,12.4,8.7,12.4c6.2,0,8.7-7.5,8.7-12.4S104.7,21.5,98.5,21.5L98.5,21.5
		z"/>
	<path class="st9" d="M98.5,43.5c4.6,0,6.2-5.8,6.2-9.5c0-2.5-0.4-5-2.1-7c-0.4,1.7-1.7,2.9-4.1,2.9c-2.1,0-3.3-1.2-4.1-2.9
		c-1.7,2.1-2.1,4.6-2.1,7.5C92.7,37.7,93.9,43.5,98.5,43.5L98.5,43.5z"/>
	<g>
		<g>
			<g>
				<path class="st9" d="M173.9,167.4v-8.3h3.7c0.8,0,1.2,0,1.7,0c0.4,0,0.8,0.4,0.8,0.8c0.4,0.4,0.4,0.8,0.4,1.2s-0.4,1.2-0.4,1.7
					c-0.4,0.4-0.8,0.8-1.7,0.8c0.4,0,0.4,0.4,0.4,0.4c0.4,0.4,0.4,0.8,0.8,1.2l1.2,2.5h-1.2l-1.2-2.1c-0.4-0.4-0.4-0.8-0.8-1.2
					c-0.4-0.4-0.4-0.4-0.4-0.4h-0.4h-0.4h-1.2v3.7h-1.2V167.4z M175.1,162.8h2.1c0.4,0,0.8,0,1.2,0s0.4-0.4,0.8-0.4
					c0,0,0.4-0.4,0.4-0.8c0-0.4,0-0.8-0.4-0.8c-0.4-0.4-0.8-0.4-1.2-0.4h-2.5v2.5H175.1z"/>
				<path class="st1" d="M179.3,168.2l-1.2-2.1c-0.4-0.4-0.4-0.8-0.8-1.2l0,0c0-0.4-0.4-0.4-0.4-0.4l0,0l0,0l0,0l0,0l0,0l0,0l0,0
					l0,0l0,0h-0.4v3.7h-2.1v-0.8h0.8h-0.8v0.8h-0.8v-9.9h4.6c0.8,0,1.2,0,2.1,0.4l0,0c0.8,0.4,1.2,0.8,1.2,1.2l0,0
					c0.4,0.4,0.4,1.2,0.4,1.7l0,0c0,0.8-0.4,1.7-0.8,2.1l0,0c0,0-0.4,0.4-0.8,0.4l0,0c0,0.4,0.4,0.4,0.4,0.8l0,0l0,0l2.1,3.7h-3.3
					V168.2z M177.2,162c0.4,0,0.8,0,0.8,0l0,0l0,0l0,0l0,0l0,0l0,0l0,0l0,0l0,0l0,0l0,0c0-0.4,0-0.4,0-0.4l0,0c0,0-0.4,0-0.8,0l0,0
					h-1.7v0.8h1.7V162z"/>
			</g>
			<g>
				<path class="st1" d="M177.2,157c1.7,0,3.3,0.8,4.6,2.1c1.2,1.2,2.1,2.9,2.1,4.6c0,1.7-0.8,3.3-2.1,4.6c-1.2,1.2-2.9,2.1-4.6,2.1
					c-1.7,0-3.3-0.8-4.6-2.1c-1.2-1.2-2.1-2.9-2.1-4.6c0-1.7,0.8-3.3,2.1-4.6C173.5,157.4,175.1,157,177.2,157L177.2,157z
					 M177.2,157.8c-1.7,0-2.9,0.8-4.1,1.7c-1.2,1.2-1.7,2.5-1.7,4.1s0.8,2.9,1.7,4.1c1.2,1.2,2.5,1.7,4.1,1.7c1.7,0,2.9-0.8,4.1-1.7
					c1.2-1.2,1.7-2.5,1.7-4.1s-0.8-2.9-1.7-4.1C180.1,158.3,178.4,157.8,177.2,157.8L177.2,157.8z"/>
				<path class="st1" d="M177.2,171.1c-2.1,0-4.1-0.8-5.4-2.1l0,0c-1.2-1.2-2.1-3.3-2.1-5.4l0,0c0-2.1,0.8-4.1,2.1-5.4l0,0
					c1.2-1.2,3.3-2.1,5.4-2.1l0,0v0.8v-0.8c2.1,0,4.1,0.8,5.4,2.1l0,0c1.2,1.2,2.1,3.3,2.1,5.4l0,0c0,2.1-0.8,4.1-2.1,5.4l0,0
					C180.9,170.3,179.3,171.1,177.2,171.1L177.2,171.1L177.2,171.1L177.2,171.1z M177.2,158.7c-1.2,0-2.5,0.4-3.7,1.7l0,0
					c-0.8,0.8-1.7,2.1-1.7,3.7l0,0c0,1.2,0.4,2.5,1.7,3.3l0,0c0.8,0.8,2.1,1.7,3.7,1.7l0,0c1.2,0,2.5-0.4,3.7-1.7l0,0
					c0.8-0.8,1.7-2.1,1.7-3.3l0,0c0-1.2-0.4-2.5-1.7-3.7l0,0C179.7,159.1,178.4,158.7,177.2,158.7L177.2,158.7v-0.8V158.7
					L177.2,158.7z"/>
			</g>
		</g>
		<g>
			<g>
				<path class="st8" d="M173.9,167.4v-8.3h3.7c0.8,0,1.2,0,1.7,0c0.4,0,0.8,0.4,0.8,0.8c0.4,0.4,0.4,0.8,0.4,1.2s-0.4,1.2-0.4,1.7
					c-0.4,0.4-0.8,0.8-1.7,0.8c0.4,0,0.4,0.4,0.4,0.4c0.4,0.4,0.4,0.8,0.8,1.2l1.2,2.5h-1.2l-1.2-2.1c-0.4-0.4-0.4-0.8-0.8-1.2
					c-0.4-0.4-0.4-0.4-0.4-0.4h-0.4h-0.4h-1.2v3.7h-1.2V167.4z M175.1,162.8h2.1c0.4,0,0.8,0,1.2,0s0.4-0.4,0.8-0.4
					c0,0,0.4-0.4,0.4-0.8c0-0.4,0-0.8-0.4-0.8c-0.4-0.4-0.8-0.4-1.2-0.4h-2.5v2.5H175.1z"/>
			</g>
			<g>
				<path class="st4" d="M177.2,157c1.7,0,3.3,0.8,4.6,2.1c1.2,1.2,2.1,2.9,2.1,4.6c0,1.7-0.8,3.3-2.1,4.6c-1.2,1.2-2.9,2.1-4.6,2.1
					c-1.7,0-3.3-0.8-4.6-2.1c-1.2-1.2-2.1-2.9-2.1-4.6c0-1.7,0.8-3.3,2.1-4.6C173.5,157.4,175.1,157,177.2,157L177.2,157z
					 M177.2,157.8c-1.7,0-2.9,0.8-4.1,1.7c-1.2,1.2-1.7,2.5-1.7,4.1s0.8,2.9,1.7,4.1c1.2,1.2,2.5,1.7,4.1,1.7c1.7,0,2.9-0.8,4.1-1.7
					c1.2-1.2,1.7-2.5,1.7-4.1s-0.8-2.9-1.7-4.1C180.1,158.3,178.4,157.8,177.2,157.8L177.2,157.8z"/>
			</g>
		</g>
	</g>
</g>
</svg>
