<?xml version="1.0" encoding="utf-8"?>
<!-- Generator: Adobe Illustrator 23.0.0, SVG Export Plug-In . SVG Version: 6.00 Build 0)  -->
<svg version="1.1" id="圖層_1" xmlns="http://www.w3.org/2000/svg" xmlns:xlink="http://www.w3.org/1999/xlink" x="0px" y="0px"
	 viewBox="0 0 400 70" style="enable-background:new 0 0 400 70;" xml:space="preserve">
<style type="text/css">
	.st0{fill:none;}
	.st1{fill:#878787;}
	.st2{fill:#FFFFFF;}
	.st3{fill:#BE990E;}
	.st4{fill:#C28302;}
	.st5{fill:#231815;}
	.st6{fill:#FFF100;}
	.st7{fill:#008CD6;}
	.st8{fill:#E60012;}
	.st9{fill-rule:evenodd;clip-rule:evenodd;fill:#231815;}
	.st10{fill-rule:evenodd;clip-rule:evenodd;fill:#FFFFFF;}
</style>
<rect class="st0" width="400" height="70"/>
<g>
	<g>
		<path class="st1" d="M141.8,24c-1-1.2-2-1.7-3.1-1.7c-0.9,0.1-2.9,1.4-6,3.9c-0.6,0.5-1,1.2-1.2,2.1l0,0l0,0
			c0.1,0.8,0.8,1.3,2.1,1.4l0,0l0,0c1.1-0.5,2.1-0.8,2.8-0.8c1,0,1.4,1.4,1.4,4.1c0,1.7,0,3.2-0.1,4.5c-1.4-0.6-3.7-1.1-6.9-1.5
			c0-1.6-0.4-3-1.1-4.4c-0.8-2-1.1-2.2-1.2-2.2c-0.2,0-0.6,0.1-0.6,0.7l0,0l0,0c0.3,1.3,0.4,2.5,0.4,3.5c0,1.7-0.2,3.8-0.7,6.4
			c-0.6,3.1-0.9,5.1-0.9,6c0,1.1,0.2,2.6,0.6,4.6c0.2,0.8,0.4,1.4,0.6,1.9c-0.7,0.6-1.5,0.9-2.2,0.9l0,0l0,0
			c-0.5,0.1-0.8,0.6-0.8,1.5c0.1,2.4,0.7,3.7,1.9,3.7c0.3,0,1.1-0.3,3.5-2.8c2.8-3.1,5-5.8,6.7-8.1c-0.1,1.3-0.1,2.6-0.1,3.9
			c0,1.2,0.2,2.3,0.5,3.2c0.4,1,0.8,1.6,1.4,1.6c1.2,0,2.1-0.8,2.6-2.4c0.7-2.8,1.1-11.8,1.1-26.8C142.8,26,142.4,25,141.8,24z
			 M137.4,43.5c-2.7,2.8-4.9,5-6.6,6.6c-0.2-2.4-0.3-4.2-0.3-5.3c0-1.6,0.1-3.2,0.2-4.7c3.1,1.1,5.4,1.7,6.8,1.7L137.4,43.5z
			 M173.3,50.9c-1.7-0.7-4-1.1-6.9-1.1c-2.5,0-5.1,0.5-7.6,1.6c0.1-1.2,0.2-2.5,0.3-3.7c1.6-2.1,3.3-4.2,5-6.3
			c2.4-3.1,3.6-5.3,3.6-6.7c0-1.2-0.9-1.8-2.6-1.8c-1.2,0-2.9,0.5-5.2,1.5c0.3-4.4,0.4-7.2,0.4-8.4c0-1.1-0.4-2.1-1.1-2.8
			c1.7-0.4,3.4-0.9,5-1.4c1.5-0.6,2.3-1.4,2.3-2.4c0-2-1.1-3-3.2-3c-1.3,0-6.2,1.8-15,5.4c-1.1,0.5-1.6,0.9-1.6,1.4
			c0,1.2,0.8,1.7,2.5,1.7c1.1,0,2.9-0.2,5.2-0.7c0.1,0,0.2-0.1,0.4-0.1c0.2,0.4,0.4,1.1,0.4,1.9c0,1.8,0,5.3,0.1,10.8
			c-4.3,2.3-7.2,3.7-8.5,4c-0.9,0.1-1.3,0.2-1.3,0.4c0,0.4,0.3,0.8,0.9,1.3c0.9,0.6,1.8,0.9,2.7,0.9c1.1,0,3.1-0.6,6.1-1.9
			c0,2.3,0.1,4.7,0.2,7l-4,4.7l-1.2,1.4c-2,0.5-4.2,0.8-6.7,1.1c-0.9,0.1-1.4,0.5-1.4,1.2l0,0l0,0c0.1,0.5,0.7,1.1,1.7,1.6
			c1.3,0.8,2.7,1.2,4.2,1.3c1.6,0,3.5-0.6,5.6-1.9c3.1-1.7,6.8-2.6,11-2.6c1.9,0,3.7,0.2,5.3,0.7c1.4,0.4,2.7,0.6,3.8,0.6
			c0.6,0,1-0.2,1.3-0.7c0.3-0.4,0.4-1.1,0.4-1.9C175.6,52.7,174.8,51.6,173.3,50.9z M159.7,39.5c1.9-0.8,3.1-1.2,3.5-1.2
			c0,0,0.1,0.1,0.1,0.8c-0.1,0.2-0.8,1.2-3.9,4.9C159.5,42.5,159.5,41,159.7,39.5z M155.6,52.9l-0.6,0.2c0.2-0.2,0.4-0.5,0.6-0.7
			V52.9z M67.3,59.5c0.3,0,1.1-0.3,3.5-2.8c2.8-3.1,5-5.8,6.7-8.1c-0.1,1.3-0.1,2.6-0.1,3.9c0,1.2,0.2,2.3,0.5,3.2
			c0.4,1,0.8,1.6,1.4,1.6c1.2,0,2.1-0.8,2.6-2.4C82.6,52,83,42.9,83,28c0-1-0.3-2.1-1-3.1c-1-1.1-2-1.7-3.1-1.7
			c-0.9,0.1-2.9,1.4-6,3.9c-0.6,0.5-1,1.2-1.2,2.1l0,0l0,0c0.1,0.8,0.8,1.3,2.1,1.4l0,0l0,0c1.1-0.5,2.1-0.8,2.8-0.8
			c1,0,1.4,1.4,1.4,4.1c0,1.7,0,3.2,0,4.5c-1.4-0.6-3.7-1.1-6.9-1.5c0-1.6-0.4-3.1-1.1-4.4c-0.8-2-1.1-2.2-1.2-2.2
			c-0.2,0-0.6,0.1-0.6,0.7l0,0l0,0c0.3,1.3,0.4,2.5,0.4,3.5c0,1.6-0.2,3.8-0.7,6.4C67.3,44,67,46,67,46.9c0,1.1,0.2,2.6,0.6,4.6
			c0.2,0.8,0.4,1.4,0.6,1.9c-0.7,0.6-1.5,0.9-2.3,0.9l0,0l0,0c-0.5,0.1-0.8,0.6-0.8,1.5C65.5,58.3,66.1,59.5,67.3,59.5z M71,41
			c3.1,1.1,5.4,1.7,6.8,1.7l-0.1,1.6c-2.7,2.8-4.9,5-6.6,6.6c-0.2-2.4-0.3-4.2-0.3-5.3C70.7,44.1,70.8,42.5,71,41z M90.6,55.5
			c-2,0.5-4.3,0.9-6.7,1.1c-0.9,0.1-1.4,0.5-1.4,1.2l0,0l0,0c0.2,0.5,0.7,1.1,1.7,1.6c1.3,0.8,2.7,1.2,4.2,1.3
			c1.6,0,3.5-0.6,5.6-1.9c3.1-1.7,6.8-2.6,11-2.6c1.9,0,3.7,0.2,5.3,0.7c1.4,0.4,2.7,0.6,3.7,0.6c1.2,0,1.8-0.9,1.8-2.6
			c0-1.4-0.8-2.5-2.3-3.2c-1.7-0.7-4-1.1-6.9-1.1c-2.5,0-5.1,0.5-7.6,1.6c0.1-1.2,0.3-2.5,0.3-3.7c1.6-2.1,3.3-4.2,5-6.3
			c2.5-3.1,3.7-5.3,3.7-6.7c0-1.2-0.9-1.9-2.6-1.9c-1.2,0-3,0.5-5.2,1.5c0.3-4.4,0.4-7.2,0.4-8.4c0-1.1-0.4-2.1-1.1-2.8
			c1.7-0.4,3.4-0.9,5-1.4c1.5-0.6,2.3-1.4,2.3-2.4c0-2-1.1-2.9-3.2-2.9c-1.3,0-6.2,1.8-15,5.4C87.5,23.1,87,23.5,87,24
			c0,1.1,0.8,1.7,2.5,1.7c1.1,0,2.9-0.2,5.1-0.7c0.1,0,0.2-0.1,0.4-0.1c0.3,0.4,0.4,1.1,0.4,1.9c0,1.8,0,5.2,0.1,10.8
			c-4.3,2.3-7.2,3.7-8.4,4c-0.9,0.1-1.3,0.2-1.3,0.4c0,0.4,0.3,0.8,0.9,1.3c0.9,0.6,1.8,0.9,2.8,0.9c1.1,0,3.1-0.6,6.1-1.9
			c0,2.3,0.1,4.7,0.2,7l-4,4.8L90.6,55.5z M99.9,40.4c1.9-0.8,3.1-1.2,3.5-1.2c0,0,0.1,0.1,0.1,0.8c0,0.2-0.8,1.2-3.9,4.9
			C99.7,43.4,99.8,41.9,99.9,40.4z M95.9,53.2v0.5h-0.1L95.3,54C95.5,53.7,95.7,53.5,95.9,53.2z"/>
	</g>
	<g>
		<g>
			<path class="st1" d="M307.6,12.7c1.7-1.4,5.1,0.1,6.9,1.3s2.1,1.1,2.6,2.2s0.6,3.7,0.6,3.7s3.4-0.2,5.4-0.6
				c2.1-0.4,3.7-1.3,4.4-0.3c0.8,1,0.9,1.4,0.6,2.3s-1.1,1.7-2.4,2.3c-1.3,0.6-6.5-0.1-10.2,0.7c-3.7,0.8-8.4,2.9-10.3,3.6
				c-2,0.6-3.4,0.1-4.6-0.8s-2-1.6-0.2-3.3c1.7-1.6,3.9-1,6-1.3s4.2-0.3,4.2-1.7c0-1.4-3.3-2.8-3.5-4.2
				C306.9,15,306.3,13.8,307.6,12.7z"/>
			<path class="st1" d="M300.4,27.2c-0.7-0.5-1.4-1-1.4-1.9l0,0c0-0.6,0.4-1.2,1.1-1.9l0,0c1.9-1.8,4.2-1,6.2-1.4l0,0
				c2.1-0.3,4.1-0.5,3.9-1.4l0,0c0.1-1.1-3.1-2.5-3.5-4.2l0,0c-0.1-0.7-0.4-1.4-0.4-2.1l0,0c0-0.6,0.2-1.3,0.9-1.9l0,0
				c0.6-0.5,1.2-0.6,2-0.6l0,0c1.8,0,4,1,5.3,1.9l0,0c1.7,1.2,2.1,1.1,2.7,2.3l0,0c0.5,0.9,0.6,2.7,0.7,3.5l0,0
				c0.9-0.1,3.4-0.3,5.1-0.6l0,0c1.4-0.3,2.5-0.8,3.5-0.8l0,0c0.5,0,1,0.2,1.3,0.6l0,0c0.5,0.6,0.8,1.1,0.8,1.7l0,0
				c0,0.3-0.1,0.6-0.2,0.9l0,0c-0.4,1-1.2,1.9-2.6,2.5l0,0c-0.7,0.3-1.9,0.3-3.4,0.3l0,0c-0.3,0-0.6,0-0.9,0l0,0c-1.9,0-4.2,0-6,0.4
				l0,0c-3.6,0.7-8.3,2.9-10.3,3.6l0,0c-0.6,0.2-1.2,0.3-1.8,0.3l0,0C302.3,28.3,301.3,27.9,300.4,27.2L300.4,27.2z M307.1,14.3
				c0,0.6,0.2,1.3,0.3,2l0,0c0.1,1.1,3.3,2.5,3.5,4.3l0,0c-0.2,1.9-2.5,1.7-4.5,2l0,0c-2.2,0.3-4.2-0.3-5.8,1.2l0,0
				c-0.7,0.7-0.9,1.1-0.9,1.4l0,0c0,0.4,0.4,0.8,1.1,1.3l0,0c0.8,0.6,1.7,1,2.7,1l0,0c0.5,0,1-0.1,1.6-0.3l0,0
				c1.9-0.6,6.6-2.8,10.3-3.6l0,0c1.9-0.4,4.2-0.4,6.1-0.4l0,0c0.3,0,0.6,0,0.9,0l0,0c1.5,0,2.8,0,3.2-0.2l0,0
				c1.2-0.5,1.9-1.3,2.2-2.1l0,0c0.1-0.3,0.1-0.5,0.1-0.7l0,0c0-0.3-0.2-0.7-0.7-1.3l0,0c-0.2-0.2-0.4-0.3-0.8-0.3l0,0
				c-0.7,0-1.9,0.5-3.4,0.8l0,0c-2.1,0.4-5.5,0.7-5.5,0.7l0,0h-0.3v-0.3c0,0-0.1-2.6-0.6-3.6l0,0c-0.5-1-0.7-0.8-2.5-2.1l0,0
				c-1.2-0.8-3.3-1.8-4.9-1.8l0,0c-0.6,0-1.2,0.1-1.6,0.5l0,0C307.2,13.4,307.1,13.8,307.1,14.3L307.1,14.3z"/>
		</g>
		<g>
			<path class="st1" d="M320.2,24.7c-1.1-0.9-2.5,0-3.1,0.3c-0.7,0.3-3.9,1.5-5.3,1.8s-3,0-3.8,0.3c-0.5,0.2-0.1,2.4,0.5,4.1
				c0.7,1.7,1.8,2.1,1.5,3.5c-0.3,1.4-1.7,1-3.2,1.2c-1.4,0.2-3.8,0.7-5.2,1c-1.4,0.3-3.9,2-3.8,3c0.1,1.1,1.3,1.5,3.1,1.7
				c1.7,0.2,2.9-0.7,4-1.7c1.1-1.1,2.9-1.6,4.1-1.1s-4,5.6-5.4,7.6c-1.4,2.1-5.2,7-6.7,8.9c-1.5,1.9-6.1,6.6-5.6,7.3
				c1.2,1.4,3.8,0.5,5,0s2-1.8,3-3.3c1.1-1.4,5.5-9.5,6.3-11.1s5.3-7.5,6.5-9s4-2.9,6-3.8c2-0.9,2.3-1.5,2.3-2.6
				c0-1.1-0.9-1.4-0.9-2.6s1.4-2.6,1.5-3.4C321.2,26.2,321.3,25.6,320.2,24.7z M315.9,30.2c-1,1.1-1.5,1.7-2.6,1.4
				c-1.1-0.3-1.5-1.8-1.1-2.9s1.5-1.2,2.2-1.4c1.9-0.6,2.8-0.3,3.2,0C317.9,27.6,316.9,29.1,315.9,30.2z"/>
			<path class="st1" d="M291,62.9c-0.1-0.1-0.1-0.3-0.1-0.4l0,0c0.1-1.4,4.2-5.4,5.7-7.3l0,0c1.5-2,5.3-6.8,6.7-8.9l0,0
				c1.3-1.8,5.7-6.3,5.5-7.1l0,0l0,0c-0.3-0.1-0.6-0.2-0.9-0.2l0,0c-1,0-2.1,0.5-2.8,1.2l0,0c-1,1-2.2,1.9-3.7,1.9l0,0
				c-0.2,0-0.4,0-0.6,0l0,0c-1.7-0.2-3.2-0.6-3.3-2l0,0c0-0.1,0-0.1,0-0.1l0,0c0.1-1.5,2.6-2.9,4.1-3.3l0,0c1.4-0.3,3.8-0.8,5.2-1
				l0,0c1.6-0.2,2.7,0.1,2.9-0.9l0,0c0-0.2,0-0.3,0-0.4l0,0c0-0.8-0.9-1.3-1.6-2.9l0,0c-0.5-1.2-0.8-2.6-0.8-3.5l0,0
				c0-0.4,0-0.8,0.4-1l0,0c0.5-0.2,1.1-0.2,1.9-0.2l0,0c0.7,0,1.4,0,2-0.1l0,0c1.3-0.3,4.7-1.5,5.3-1.8l0,0c0.4-0.2,1.3-0.8,2.2-0.8
				l0,0c0.4,0,0.9,0.1,1.3,0.5l0,0l-0.2,0.2l0.2-0.2c0.8,0.6,1.1,1.3,1.1,1.9l0,0c0,0.2,0,0.5-0.1,0.7l0,0c-0.2,1-1.5,2.3-1.5,3.3
				l0,0c0,1,0.8,1.3,0.9,2.6l0,0c0,1.2-0.5,2.1-2.5,2.9l0,0c-1.9,0.9-4.7,2.3-5.8,3.7l0,0c-1.2,1.5-5.8,7.4-6.5,8.9l0,0
				c-0.8,1.7-5.2,9.7-6.3,11.2l0,0c-1.1,1.4-1.8,2.7-3.2,3.4l0,0c-0.8,0.3-2,0.8-3.2,0.8l0,0C292.4,63.8,291.6,63.6,291,62.9
				L291,62.9z M293.2,63.2c1,0,2.2-0.4,2.9-0.7l0,0c1.1-0.5,1.8-1.7,2.9-3.2l0,0c1-1.3,5.5-9.4,6.3-11l0,0c0.8-1.7,5.3-7.5,6.6-9.1
				l0,0c1.3-1.6,4.1-3,6.1-3.9l0,0c1.9-0.9,2.1-1.3,2.1-2.3l0,0c0.1-0.9-0.8-1.2-0.9-2.6l0,0c0-1.4,1.5-2.9,1.5-3.4l0,0
				c0-0.2,0.1-0.4,0.1-0.6l0,0c0-0.4-0.1-0.8-0.8-1.4l0,0l0,0c-0.3-0.2-0.6-0.3-0.9-0.3l0,0c-0.7,0-1.5,0.4-1.9,0.7l0,0
				c-0.7,0.3-3.9,1.5-5.4,1.9l0,0c-1.5,0.3-3.2,0-3.8,0.3l0,0l0,0c0,0.1,0,0.2,0,0.4l0,0c0,0.8,0.3,2.1,0.8,3.3l0,0
				c0.5,1.4,1.5,1.8,1.6,3.1l0,0c0,0.2,0,0.3-0.1,0.5l0,0c-0.5,1.7-2.2,1.2-3.4,1.4l0,0c-1.4,0.2-3.8,0.7-5.2,1l0,0
				c-1.3,0.2-3.7,2-3.6,2.7l0,0l0,0l0,0c0.1,0.8,1,1.2,2.8,1.4l0,0c0.2,0,0.3,0,0.5,0l0,0c1.3,0,2.3-0.7,3.3-1.7l0,0
				c0.8-0.9,2.1-1.4,3.3-1.4l0,0c0.4,0,0.8,0.1,1.2,0.2l0,0c0.2,0.1,0.4,0.4,0.4,0.6l0,0c-0.1,1.6-4.4,5.6-5.7,7.5l0,0
				c-1.4,2.1-5.2,7-6.7,8.9l0,0c-1.4,1.8-5.5,6.2-5.5,6.9l0,0C291.9,63,292.5,63.2,293.2,63.2L293.2,63.2z M313.2,32
				c-1-0.3-1.5-1.4-1.5-2.3l0,0c0-0.3,0.1-0.7,0.2-1l0,0c0.5-1.3,1.8-1.4,2.4-1.6l0,0c0.8-0.3,1.5-0.4,2-0.4l0,0
				c0.7,0,1.2,0.2,1.5,0.5l0,0c0.1,0.1,0.1,0.3,0.1,0.4l0,0c0,0.8-0.9,2-1.8,3l0,0c-0.8,0.9-1.4,1.6-2.3,1.6l0,0
				C313.7,32.1,313.5,32,313.2,32L313.2,32z M314.5,27.6c-0.7,0.2-1.6,0.3-2,1.2l0,0c-0.1,0.2-0.1,0.5-0.1,0.8l0,0
				c0,0.8,0.4,1.6,1,1.7l0,0c0.2,0.1,0.3,0.1,0.4,0.1l0,0c0.5,0,1-0.5,1.8-1.4l0,0c0.8-0.9,1.7-2.2,1.6-2.5l0,0
				c-0.1-0.1-0.4-0.3-1-0.3l0,0C315.9,27.2,315.3,27.3,314.5,27.6L314.5,27.6z"/>
		</g>
		<g>
			<path class="st1" d="M317.7,35.6c1.3-0.7,1.9,0,2.5,0.9c0.5,0.9,0.4,2.4-0.3,3.4c-0.8,1-1.2,2.9-0.9,3.5c0.3,0.5,2.4-0.1,3.4-0.8
				c1-0.6,2-3.1,3.5-2.3c1.5,0.9,0.9,2.8,0,3.4c-0.9,0.5-4.1,2.1-5,2.8c-0.9,0.8-3,2.2-3,3c0,0.9,1,1.7,1.7,2.6
				c0.8,0.9,1.5,1.4,0.8,2.3c-0.8,0.9-1.5,1.5-1.5,2.9s0,2.2,2.8,1.1c2.8-1.1,4.3,0.1,4.6,1.1c0.2,1-0.9,2.8-2.6,3.3
				c-1.7,0.4-3.4-0.9-5.9-0.9s-4.5,0.9-6.2,0.3c-1.7-0.5-2-1.8-1.7-2.8c0.2-1,1.6-2.3,2.8-3.1c1.2-0.8,2.5-0.5,2.5-2.3
				c0-1.7-0.2-1-1.6-1.1s-1.3-0.8-2.3-1.5c-1-0.8-1.3-0.9-2.8-0.9s-2.5-1.6-2.3-3.4c0.2-1.7,1.2-3.8,3-4c1.9-0.2,1.2,0.2,1.4,1.1
				c0.2,0.9,0.5,1.6,1.4,1.5s1.2-1.2,2.3-1.2c1.1,0,1.8,0.1,2.1-1.6c0.2-1.7,0.5-4.6,0.5-5.4C316.8,36.7,316.9,36.1,317.7,35.6z"/>
			<path class="st1" d="M317.7,62.3c-1.9,0-3.4,0.5-4.9,0.5l0,0c-0.5,0-0.9-0.1-1.4-0.2l0,0c-1.5-0.5-2.1-1.6-2-2.5l0,0
				c0-0.2,0-0.5,0.1-0.7l0,0c0.3-1.2,1.7-2.4,3-3.2l0,0c1.4-0.8,2.4-0.5,2.3-2l0,0c0-0.5,0-0.7-0.1-0.8l0,0c-0.1,0-0.5,0.1-1,0.1
				l0,0c-0.1,0-0.2,0-0.3,0l0,0c-1.6-0.1-1.6-1-2.5-1.6l0,0c-1-0.7-1.1-0.8-2.6-0.8l0,0c-1.6,0-2.6-1.6-2.6-3.2l0,0
				c0-0.2,0-0.4,0-0.5l0,0c0.2-1.8,1.2-4,3.3-4.3l0,0c0.3,0,0.6-0.1,0.8-0.1l0,0c0.3,0,0.5,0,0.7,0.2l0,0c0.2,0.2,0.2,0.4,0.2,0.6
				l0,0v0.1l0,0c0,0.1,0,0.3,0.1,0.4l0,0c0.2,0.8,0.5,1.3,0.9,1.3l0,0h0.1l0,0c0.6,0,1-1.1,2.3-1.2l0,0c0.1,0,0.2,0,0.4,0l0,0
				c0.9-0.1,1.1,0.1,1.4-1.3l0,0c0.2-1.7,0.5-4.6,0.5-5.4l0,0c0-0.9,0.1-1.7,1-2.2l0,0l0,0c0.4-0.2,0.8-0.3,1.1-0.3l0,0
				c0.9,0,1.4,0.7,1.8,1.3l0,0c0.3,0.4,0.4,1,0.4,1.5l0,0c0,0.8-0.3,1.6-0.7,2.2l0,0c-0.5,0.7-0.9,2-0.9,2.7l0,0
				c0,0.2,0,0.4,0.1,0.4l0,0c0,0,0,0,0.1,0l0,0c0,0,0.1,0,0.2,0l0,0c0.6,0,2-0.5,2.6-0.9l0,0c0.7-0.4,1.5-2.4,3-2.5l0,0
				c0.3,0,0.5,0.1,0.8,0.2l0,0c0.7,0.4,1.1,1.2,1.1,1.8l0,0c0,0.9-0.5,1.7-1.1,2.1l0,0c-0.9,0.6-4.2,2.1-5,2.8l0,0
				c-0.9,0.7-3,2.3-2.9,2.8l0,0c0,0.6,0.9,1.5,1.7,2.4l0,0c0.5,0.6,1.1,1,1.2,1.8l0,0c0,0.3-0.1,0.6-0.4,0.9l0,0
				c-0.8,0.9-1.4,1.5-1.4,2.7l0,0c0,1,0,1.3,0.5,1.3l0,0c0.3,0,0.9-0.1,1.9-0.5l0,0c0.8-0.3,1.6-0.5,2.2-0.5l0,0
				c1.6,0,2.6,0.9,2.8,1.8l0,0c0,0.1,0,0.2,0,0.3l0,0c0,1.2-1.1,2.8-2.9,3.3l0,0c-0.3,0.1-0.6,0.1-0.8,0.1l0,0
				C321.2,63.2,319.7,62.3,317.7,62.3L317.7,62.3z M322.8,62.6c0.2,0,0.4,0,0.7-0.1l0,0c1.4-0.3,2.4-1.9,2.4-2.7l0,0
				c0-0.1,0-0.1,0-0.2l0,0c-0.1-0.5-0.8-1.3-2.2-1.3l0,0c-0.5,0-1.2,0.1-2,0.4l0,0c-0.9,0.4-1.6,0.5-2.1,0.5l0,0
				c-1.1,0-1.2-1.1-1.2-1.9l0,0c0-1.6,0.9-2.3,1.6-3.2l0,0c0.2-0.2,0.2-0.4,0.2-0.5l0,0c0-0.3-0.4-0.7-1-1.4l0,0
				c-0.7-0.9-1.8-1.7-1.8-2.8l0,0c0.1-1.3,2.3-2.5,3.1-3.3l0,0c1-0.8,4.2-2.3,5-2.8l0,0c0.4-0.2,0.8-0.9,0.8-1.6l0,0
				c0-0.5-0.2-0.9-0.8-1.3l0,0c-0.2-0.1-0.3-0.1-0.5-0.1l0,0c-0.8-0.1-1.7,1.7-2.7,2.4l0,0c-0.8,0.5-2.1,1-3,1l0,0
				c-0.3,0-0.6,0-0.8-0.3l0,0c-0.1-0.2-0.2-0.5-0.2-0.7l0,0c0-0.9,0.4-2.3,1-3.1l0,0c0.4-0.5,0.6-1.2,0.6-1.8l0,0
				c0-0.5-0.1-0.9-0.3-1.2l0,0c-0.4-0.6-0.8-1-1.2-1l0,0c-0.2,0-0.5,0.1-0.8,0.3l0,0c-0.6,0.4-0.7,0.8-0.7,1.7l0,0
				c0,0.9-0.3,3.7-0.5,5.5l0,0c-0.1,1.6-1.1,2-2,1.9l0,0c-0.1,0-0.2,0-0.4,0l0,0c-0.8-0.1-1.1,1-2.3,1.2l0,0c-0.1,0-0.1,0-0.2,0l0,0
				c-1,0-1.4-1-1.5-1.8l0,0c-0.1-0.2-0.1-0.4-0.1-0.6l0,0c0-0.1,0-0.1,0-0.1l0,0c0-0.1,0-0.1,0-0.1l0,0c0,0,0,0-0.1,0l0,0
				c0,0-0.1,0-0.2,0l0,0c-0.2,0-0.4,0-0.7,0.1l0,0c-1.6,0.2-2.6,2.1-2.8,3.7l0,0c0,0.1,0,0.3,0,0.4l0,0c0,1.4,0.8,2.6,2,2.6l0,0
				c1.5,0,2,0.2,3,0.9l0,0c1.1,0.9,0.8,1.4,2.1,1.5l0,0c0.1,0,0.2,0,0.3,0l0,0c0.4,0,0.7-0.1,1-0.1l0,0c0.6,0,0.7,0.6,0.7,1.5l0,0
				c0,2-1.7,1.9-2.6,2.6l0,0c-1.1,0.7-2.5,2.1-2.7,2.8l0,0c0,0.2-0.1,0.3-0.1,0.5l0,0c0,0.8,0.3,1.5,1.6,1.9l0,0
				c0.4,0.1,0.8,0.2,1.2,0.2l0,0c1.3,0,2.9-0.5,4.9-0.5l0,0C319.9,61.6,321.4,62.6,322.8,62.6L322.8,62.6z"/>
		</g>
	</g>
	<g>
		<g>
			<path class="st1" d="M387.6,29.8c-1.4-0.7-6.6-1.5-7.9-1.6s-7.5-3.6-8.9-4.8s0.9-3.2,0.9-4.9c0-1.7-1.1-3.4-5.1-3.4
				s-3.5,6.6-3.8,7.5s-1.4,2.3-5.1,9.9s-3.7-1.7-4.2-3.1s-0.9-2.7-0.3-4c0.5-1.3,2-2.2,2.8-3c0.9-0.9,2.6-1.6,2.8-3.2
				c0.2-1.5-0.8-3.4-2.2-3.7c-1.4-0.3-3.9,0.9-5.8,1.6c-1.8,0.8-3.6,1-5.1,2.1s-6.1,3.7-5.1,4.9c0.9,1.1,1.2,0.9,2.3,0.5
				c1.1-0.3,1.5-0.3,5.4-1.5s1.5,1.5,1.3,2.3s0.2,2.3,0.8,3.5c0.5,1.2,0.6,4.6-1.2,4.9c-1.8,0.3-2-2.6-2.5-3.7
				c-0.6-1.1-0.3-1.6-2.3-1.9c-2-0.2-1.8,3.3-1.6,5c0.1,1.7-0.5,7.5-0.8,10.2c-0.2,2.7-2.1,7.9-2.3,9.9c-0.2,1.9,0.2,7,1.4,7.2
				c1.2,0.2,2.2-1.4,2.5-3.2c0.3-1.7-0.9-2.6-1.1-4.2c-0.2-1.6,0.8-3.5,1-5s0.7-4.6,1.1-6.3c0.3-1.7,0.4-5,1.2-5.9
				c0.7-0.9,0.3,1.4,3.2,1.4c2.8,0,3.2,0.9,2.9,1.5c-0.2,0.7-3.8,2.5-2.7,4.1c1.1,1.6,2.9,0.1,4.5-0.6c1.6-0.6,3.7-2.9,4.8-4.4
				c1.1-1.5,3.7-4.6,4.8-4.7c1.1-0.1,3.2,0.7,4.4,0.7c1.3,0,5.4-0.7,6.1-0.4c0.7,0.2,3.4-2.1,4.6-2s3.2,2.9,5.2,3.8
				c2,0.9,4.6,0.5,6.5,0.5s3.4-0.3,3.8-2.3C394.3,31.7,389,30.5,387.6,29.8z M373.6,29.8c-1,1-4.6,0.5-6.3,0.9
				c-1.7,0.3-2.4,1-2.9-0.3s2.9-5.2,3.5-5.4c1.3-0.5,2.3,2,4,2.6C373.6,28.2,374.5,28.9,373.6,29.8z"/>
			<path class="st1" d="M341,60.8c-1.5-0.5-1.6-4-1.7-6.4l0,0c0-0.4,0-0.9,0.1-1.2l0,0c0.2-2,2.1-7.2,2.3-9.9l0,0
				c0.2-2.5,0.8-7.6,0.8-9.7l0,0c0-0.2,0-0.4,0-0.5l0,0c0-0.5-0.1-1.1-0.1-1.7l0,0c0-1.6,0.2-3.6,1.9-3.7l0,0c0.1,0,0.1,0,0.2,0l0,0
				c2,0.2,2.1,1.1,2.5,2l0,0c0.5,1.2,0.8,3.7,1.9,3.6l0,0c0.1,0,0.1,0,0.2,0l0,0c0.9-0.1,1.3-1.3,1.3-2.6l0,0c0-0.7-0.1-1.5-0.3-1.9
				l0,0c-0.5-1-0.9-2.2-0.9-3.1l0,0c0-0.2,0-0.4,0.1-0.6l0,0c0.2-0.5,0.9-1.6,0.9-2l0,0c0-0.1,0.1-0.1-0.4-0.2l0,0
				c-0.3,0-0.8,0.1-1.4,0.3l0,0c-3.9,1.2-4.4,1.2-5.4,1.5l0,0c-0.5,0.1-0.8,0.3-1.2,0.3l0,0c-0.5,0-0.9-0.3-1.4-0.9l0,0
				c-0.1-0.2-0.2-0.4-0.2-0.6l0,0c0.1-1.7,4-3.7,5.4-4.8l0,0c1.6-1.1,3.4-1.4,5.2-2.1l0,0c1.6-0.7,3.8-1.7,5.4-1.7l0,0
				c0.2,0,0.4,0,0.6,0.1l0,0c1.5,0.4,2.4,2,2.5,3.6l0,0c0,0.1,0,0.3,0,0.5l0,0c-0.3,1.8-2.2,2.5-2.9,3.3l0,0
				c-0.9,0.9-2.3,1.8-2.8,2.9l0,0c-0.2,0.4-0.3,0.9-0.3,1.3l0,0c0,0.8,0.2,1.6,0.6,2.5l0,0c0.3,1.2,0.8,6.2,1.6,5.9l0,0
				c0.2,0.1,1-0.6,2.1-2.8l0,0c3.7-7.6,4.8-9.1,5.1-9.9l0,0c0.3-0.6-0.4-7.6,4.1-7.7l0,0c4.1,0,5.4,1.8,5.4,3.7l0,0
				c0,1.5-1.4,3-1.3,3.9l0,0c0,0.3,0.1,0.5,0.3,0.7l0,0c1.3,1.1,7.7,4.7,8.7,4.7l0,0c1.4,0.1,6.5,1,8,1.7l0,0l-0.1,0.3l-0.1,0.3
				c-1.3-0.6-6.6-1.5-7.8-1.6l0,0c-1.5-0.2-7.6-3.6-9.1-4.9l0,0c-0.4-0.3-0.6-0.8-0.6-1.2l0,0c0-1.4,1.4-2.8,1.3-3.9l0,0
				c0-1.6-0.8-3-4.8-3l0,0c-3.6-0.1-3.2,6.2-3.5,7.3l0,0c-0.4,1-1.4,2.3-5.1,9.9l0,0c-1.1,2.2-1.8,3.1-2.6,3.1l0,0
				c-2-0.3-1.7-5.4-2.2-6.3l0,0c-0.4-0.9-0.6-1.8-0.6-2.7l0,0c0-0.5,0.1-1,0.3-1.5l0,0c0.6-1.4,2.1-2.3,2.9-3.2l0,0
				c1-0.9,2.6-1.7,2.7-3l0,0c0-0.1,0-0.3,0-0.4l0,0c0-1.3-0.9-2.7-2-3l0,0c-0.1,0-0.3-0.1-0.4-0.1l0,0c-1.3,0-3.5,1-5.1,1.7l0,0
				c-1.9,0.8-3.6,1-5,2l0,0c-1.4,0.9-5.3,3.4-5.1,4.2l0,0c0,0.1,0,0.1,0.1,0.2l0,0c0.5,0.6,0.7,0.7,0.9,0.7l0,0c0.2,0,0.5-0.1,1-0.3
				l0,0c1.1-0.3,1.5-0.3,5.4-1.5l0,0c0.7-0.2,1.2-0.3,1.6-0.3l0,0c0.6,0,1,0.3,1,0.8l0,0c0,0.8-0.9,1.9-0.9,2.2l0,0
				c0,0.1,0,0.2,0,0.4l0,0c0,0.7,0.4,1.9,0.8,2.9l0,0c0.2,0.5,0.4,1.3,0.4,2.1l0,0c0,1.3-0.4,2.9-1.8,3.2l0,0c-0.1,0-0.2,0-0.3,0
				l0,0c-2-0.1-2-3-2.5-3.9l0,0c-0.7-1.2-0.2-1.4-2-1.7l0,0c-0.1,0-0.1,0-0.1,0l0,0c-0.9,0-1.2,1.4-1.2,3l0,0c0,0.6,0,1.2,0.1,1.7
				l0,0c0,0.1,0,0.3,0,0.5l0,0c0,2.2-0.6,7.3-0.8,9.7l0,0c-0.2,2.8-2.1,8-2.3,9.9l0,0c0,0.3-0.1,0.7-0.1,1.1l0,0
				c0,1.1,0.1,2.6,0.3,3.7l0,0c0.2,1.2,0.7,2,0.8,2l0,0c0,0,0.1,0,0.2,0l0,0c0.8,0.1,1.7-1.3,1.9-2.9l0,0c0-0.2,0.1-0.4,0.1-0.5l0,0
				c0-1.2-0.9-2-1.1-3.6l0,0c0-0.2,0-0.4,0-0.5l0,0c0-1.6,0.8-3.3,1-4.6l0,0c0.2-1.5,0.8-4.6,1.1-6.3l0,0c0.3-1.7,0.4-4.9,1.3-6l0,0
				c0.1-0.2,0.3-0.3,0.5-0.3l0,0c1,0.3,0.6,1.6,2.9,1.6l0,0c2.4,0,3.3,0.6,3.3,1.5l0,0c0,0.2,0,0.3-0.1,0.4l0,0
				c-0.4,0.8-3,2.2-2.9,3.4l0,0c0,0.2,0,0.3,0.1,0.5l0,0c0.3,0.5,0.6,0.6,1,0.6l0,0c0.8,0,2-0.8,3.2-1.3l0,0
				c1.5-0.6,3.6-2.8,4.7-4.3l0,0c1.1-1.6,3.6-4.6,5-4.8l0,0c0.1,0,0.2,0,0.3,0l0,0c1.2,0,3.1,0.7,4.2,0.7l0,0c1.1,0,4.3-0.5,5.6-0.5
				l0,0c0.2,0,0.4,0,0.6,0.1l0,0l0,0c0.5,0.1,3-1.9,4.4-2l0,0c0.1,0,0.1,0,0.1,0l0,0c1.5,0.2,3.4,3,5.3,3.8l0,0
				c1.1,0.5,2.3,0.6,3.6,0.6l0,0c1,0,1.9-0.1,2.8-0.1l0,0c1.9,0,3.1-0.3,3.5-2l0,0c0-0.1,0-0.1,0-0.2l0,0c0.2-1.3-4.7-2.7-6.1-3.3
				l0,0l0.1-0.3l0.1-0.3c1.3,0.7,6.3,1.5,6.5,3.9l0,0c0,0.1,0,0.2,0,0.3l0,0c-0.5,2.1-2.2,2.6-4.1,2.5l0,0c-0.8,0-1.8,0.1-2.8,0.1
				l0,0c-1.3,0-2.7-0.1-3.9-0.6l0,0c-2.1-0.9-4.2-3.8-5.1-3.8l0,0l0,0c-1,0-3.3,1.9-4.4,2l0,0c-0.1,0-0.1,0-0.2,0l0,0
				c0,0-0.2,0-0.4,0l0,0c-1.2,0-4.4,0.5-5.6,0.5l0,0c-1.3,0-3.2-0.7-4.2-0.7l0,0c-0.1,0-0.1,0-0.2,0l0,0c-0.8,0-3.5,3.1-4.5,4.5l0,0
				c-1.1,1.6-3.2,3.8-4.9,4.6l0,0c-1,0.4-2.2,1.3-3.4,1.3l0,0c-0.6,0-1.1-0.3-1.5-0.9l0,0c-0.2-0.3-0.3-0.6-0.3-0.8l0,0
				c0.1-1.7,3-3.3,2.9-3.6l0,0c0-0.1,0-0.2,0-0.2l0,0c0-0.3-0.3-0.9-2.7-0.9l0,0c-2,0-2.6-1.2-2.9-1.5l0,0l0,0l0,0
				c-0.6,0.6-0.8,4-1.1,5.7l0,0c-0.3,1.7-0.9,4.8-1.1,6.3l0,0c-0.2,1.4-1,3.1-1,4.5l0,0c0,0.2,0,0.3,0,0.5l0,0
				c0.1,1.3,1.1,2.2,1.1,3.7l0,0c0,0.2,0,0.4-0.1,0.6l0,0c-0.3,1.7-1.2,3.4-2.6,3.4l0,0C341.2,60.8,341.1,60.8,341,60.8L341,60.8z
				 M364,30.5c-0.1-0.1-0.1-0.3-0.1-0.4l0,0c0.1-1.8,3-5,3.7-5.4l0,0c0.2,0,0.3-0.1,0.5-0.1l0,0c1.5,0.1,2.3,2.2,3.8,2.7l0,0
				c1.3,0.5,2.3,0.9,2.3,1.8l0,0c0,0.3-0.2,0.7-0.5,1l0,0c-1.3,1.2-4.8,0.6-6.5,1l0,0c-0.9,0.2-1.5,0.5-2.1,0.5l0,0l0,0l0,0
				C364.7,31.5,364.3,31.1,364,30.5L364,30.5z M368.2,25.2c-0.1,0-0.2,0-0.3,0.1l0,0c-0.3,0-3.4,3.6-3.3,4.8l0,0c0,0.1,0,0.1,0,0.2
				l0,0c0.3,0.5,0.4,0.6,0.6,0.6l0,0c0.3,0,1-0.3,2-0.5l0,0c1.8-0.3,5.5,0,6.1-0.8l0,0l0,0c0.2-0.2,0.3-0.4,0.3-0.5l0,0
				c0.1-0.2-0.6-0.8-1.9-1.2l0,0C370,27.2,369,25.2,368.2,25.2L368.2,25.2L368.2,25.2L368.2,25.2z"/>
		</g>
		<g>
			<path class="st1" d="M380.3,37.4c-0.5-0.7-2.1-1.3-3.7-1.4c-1.6-0.1-2.4,0.5-3.6,1.2s-2.5,1-3.3,1.5c-0.7,0.5-0.1,3.8-1.5,4.3
				s-0.9-1.5-1.7-2.8c-0.9-1.3-1.9-1.6-3.1-1.7c-1.2-0.1-5.5,1.1-6.1,3.2c-0.3,1.1-0.2,4.2,0.9,5.3s2.5,1,3.7,1s-1.3,3.6-2.5,4.7
				c-1.2,1.1-3.8,2.2-4,3.1c-0.2,0.9,0,1.4,1.6,1.2s3.2-2.4,4.6-2.4s2.9,2.2,3.6,2.6c0.6,0.4,2.1,1.2,2.9,0.3
				c0.9-0.9-0.3-2.7-1.7-3.2c-1.4-0.4-2.3-1.3-2.6-2c-0.3-0.6,1.7-3.2,2.4-4.3c0.7-1.2,0.8-2.4,1.4-2.6c0.6-0.2,1.3,0.8,2.5,0.8
				s5.1,0.3,6.6-0.1c1.5-0.4,1.3-1.8,1.4-2.8s2-2.3,2.2-3.2C380.5,39.2,380.8,38.1,380.3,37.4z M363.3,43.1
				c-0.3,1.3-0.2,1.5-1.5,1.5s-1.4-1.4-1-2.3c0.4-0.9,1.2-0.8,1.4-0.7C363.4,42.3,363.7,41.8,363.3,43.1z M376.2,40.8
				c-0.1,1.2-0.5,2.4-2,2.5c-1.4,0.1-1.6-0.3-1.7-1.1s1-1.8,1.7-1.7C375.1,40.6,376.3,39.6,376.2,40.8z"/>
			<path class="st1" d="M367.1,58.2c-0.9,0-1.6-0.5-2.1-0.8l0,0c-0.7-0.6-2.3-2.6-3.4-2.5l0,0c-1.1-0.1-2.7,2.1-4.5,2.4l0,0
				c-0.3,0-0.5,0-0.7,0l0,0c-0.8,0-1.4-0.4-1.4-1.1l0,0c0-0.2,0-0.4,0.1-0.6l0,0c0.4-1.2,3-2.1,4.1-3.2l0,0c0.9-0.8,2.8-3.5,2.7-4.1
				l0,0l0,0c-0.2,0-0.4,0-0.6,0l0,0c-1.1,0-2.3-0.1-3.3-1.1l0,0c-0.9-0.9-1.1-2.7-1.1-4l0,0c0-0.7,0.1-1.2,0.2-1.6l0,0
				c0.8-2.2,4.7-3.3,6.2-3.4l0,0c0.1,0,0.1,0,0.2,0l0,0c1.2,0.1,2.4,0.5,3.3,1.9l0,0c0.8,1.4,0.7,3,1.1,2.8l0,0c0.1,0,0.2,0,0.3-0.1
				l0,0c1.1-0.3,0.5-3.3,1.5-4.3l0,0c0.8-0.6,2.1-0.9,3.3-1.6l0,0c1.1-0.6,1.9-1.2,3.4-1.2l0,0c0.1,0,0.2,0,0.4,0l0,0
				c1.7,0.1,3.2,0.8,3.9,1.5l0,0l-0.2,0.2l-0.3,0.2c-0.4-0.5-1.9-1.2-3.5-1.3l0,0c-0.1,0-0.2,0-0.3,0l0,0c-1.3,0-2,0.5-3.1,1.2l0,0
				c-1.2,0.7-2.6,1-3.2,1.5l0,0c-0.5,0.1,0.1,3.6-1.6,4.4l0,0c-0.2,0.1-0.4,0.1-0.5,0.1l0,0c-1.4-0.2-0.8-2.1-1.6-3.1l0,0
				c-0.8-1.2-1.6-1.5-2.8-1.6l0,0h-0.1l0,0c-1.3,0-5.2,1.3-5.6,2.9l0,0c-0.1,0.3-0.2,0.8-0.2,1.4l0,0c0,1.3,0.3,3,0.9,3.6l0,0
				c0.8,0.8,1.8,0.9,2.9,0.9l0,0c0.2,0,0.4,0,0.6,0l0,0c0.4,0,0.6,0.3,0.6,0.6l0,0c-0.1,1.2-1.9,3.6-2.9,4.6l0,0
				c-1.3,1.1-3.9,2.3-3.9,2.9l0,0c0,0.2-0.1,0.3-0.1,0.4l0,0c0,0.3,0,0.4,0.7,0.4l0,0c0.2,0,0.4,0,0.6,0l0,0
				c1.4-0.1,2.9-2.3,4.6-2.4l0,0c1.7,0.1,3.2,2.3,3.8,2.7l0,0c0.4,0.3,1.2,0.7,1.8,0.7l0,0c0.3,0,0.6-0.1,0.8-0.3l0,0
				c0.1-0.1,0.2-0.3,0.2-0.5l0,0c0-0.7-0.9-1.8-1.8-2.1l0,0c-1.5-0.5-2.4-1.4-2.8-2.1l0,0c-0.1-0.1-0.1-0.2-0.1-0.3l0,0
				c0.1-1.1,1.9-3.2,2.5-4.3l0,0c0.7-1.1,0.6-2.3,1.6-2.7l0,0c0.1,0,0.2-0.1,0.3-0.1l0,0c0.9,0.1,1.4,0.8,2.3,0.8l0,0
				c0.7,0,2.4,0.1,4,0.1l0,0c1,0,2-0.1,2.5-0.2l0,0c1.3-0.3,1.1-1.4,1.2-2.6l0,0c0.2-1.2,2.1-2.5,2.2-3.2l0,0
				c0.1-0.5,0.3-1.1,0.3-1.5l0,0c0-0.3-0.1-0.6-0.2-0.8l0,0l0.3-0.2l0.2-0.2c0.3,0.3,0.4,0.8,0.4,1.2l0,0c0,0.6-0.2,1.2-0.3,1.7l0,0
				c-0.3,1.1-2.1,2.4-2.2,3.1l0,0c-0.1,0.9,0.1,2.6-1.7,3.1l0,0c-0.7,0.2-1.7,0.2-2.7,0.2l0,0c-1.6,0-3.3-0.1-4-0.1l0,0
				c-1.2,0-2-0.9-2.3-0.8l0,0h-0.1l0,0c-0.3,0-0.6,1.2-1.2,2.5l0,0c-0.6,1.1-2.4,3.5-2.4,4l0,0l0,0l0,0c0.3,0.6,1.1,1.4,2.4,1.8l0,0
				c1.2,0.4,2.2,1.6,2.3,2.7l0,0c0,0.3-0.1,0.7-0.4,1l0,0C368,58,367.6,58.2,367.1,58.2L367.1,58.2L367.1,58.2L367.1,58.2z
				 M361.8,44.9c-1.1,0-1.5-0.9-1.5-1.6l0,0c0-0.4,0.1-0.8,0.3-1.1l0,0c0.3-0.7,0.9-0.9,1.3-0.9l0,0c0.2,0,0.4,0,0.5,0.1l0,0
				c0.7,0.4,1.3,0.2,1.4,1l0,0c0,0.2,0,0.4-0.1,0.8l0,0c-0.2,1.1-0.4,1.8-1.6,1.8l0,0C362,45,361.9,45,361.8,44.9L361.8,44.9z
				 M361.1,42.5c-0.1,0.2-0.2,0.5-0.2,0.8l0,0c0,0.6,0.2,1,0.9,1l0,0c1.2-0.1,0.8,0.1,1.2-1.3l0,0l0,0c0.1-0.3,0.1-0.5,0.1-0.6l0,0
				l0,0c0,0,0,0-0.1,0l0,0c-0.2-0.1-0.5-0.2-1-0.4l0,0c0,0-0.1,0-0.2,0l0,0C361.7,41.9,361.4,42,361.1,42.5L361.1,42.5z M372.1,42.3
				c0-0.1,0-0.1,0-0.2l0,0c0.1-1,1-1.9,2-2l0,0h0.1l0,0h0.1l0,0c0.4,0,0.9-0.3,1.4-0.3l0,0c0.3,0,0.7,0.3,0.7,0.8l0,0
				c0,0,0,0.1,0,0.2l0,0h-0.3h0.3c-0.1,1.2-0.6,2.7-2.3,2.8l0,0c-0.2,0-0.3,0-0.4,0l0,0c-0.1,0-0.1,0-0.1,0l0,0
				C372.6,43.7,372.2,42.9,372.1,42.3L372.1,42.3z M372.8,42.1C372.8,42.1,372.8,42.2,372.8,42.1L372.8,42.1c0.2,0.7,0.1,0.8,1,0.9
				l0,0c0.1,0,0.3,0,0.4,0l0,0c1.2-0.1,1.5-1,1.7-2.2l0,0l0,0v-0.1l0,0c0-0.1,0-0.1,0-0.1l0,0l0,0c-0.2,0-0.8,0.3-1.4,0.3l0,0
				c-0.1,0-0.1,0-0.2,0l0,0l0,0C373.6,40.8,372.8,41.6,372.8,42.1L372.8,42.1z"/>
		</g>
		<g>
			<path class="st1" d="M373.9,47.7c1.1,0,1.8,0.8,2.3,2c0.4,1.2-0.7,1.7-0.7,2.6c0,0.9,1.3,1.5,2.1,2.7c0.8,1.2,1.4,3,1,3.8
				s-0.4,1.4-1.6,1.1c-1.2-0.3-1.8-4.1-3.1-4.5c-1.3-0.3-3.7,0.7-4.1-0.1c-0.4-0.7,0.3-2.2,1.2-3.6
				C371.8,50.3,372.9,47.7,373.9,47.7z"/>
			<path class="st1" d="M376.8,60.2c-1.5-0.6-2.1-4.4-3-4.5l0,0c-0.2,0-0.4-0.1-0.6-0.1l0,0c-0.8,0-1.9,0.2-2.6,0.2l0,0
				c-0.4,0-0.9-0.1-1.1-0.5l0,0c-0.1-0.2-0.2-0.5-0.2-0.7l0,0c0-1,0.7-2.1,1.4-3.2l0,0c0.9-1.4,1.8-4,3.2-4.2l0,0v0.3V48
				c-0.5-0.2-1.8,2.4-2.7,3.9l0,0c-0.7,1.1-1.3,2.3-1.3,2.9l0,0c0,0.2,0,0.3,0.1,0.4l0,0c0,0,0.2,0.1,0.5,0.1l0,0
				c0.7,0,1.7-0.3,2.6-0.3l0,0c0.2,0,0.5,0,0.7,0.1l0,0c1.6,0.6,2.2,4.4,3.1,4.5l0,0c0.2,0.1,0.3,0.1,0.4,0.1l0,0
				c0.4,0,0.4-0.3,0.8-1l0,0c0.1-0.1,0.1-0.3,0.1-0.5l0,0c0-0.8-0.5-2.1-1.1-3l0,0c-0.7-1.1-2-1.7-2.1-2.9l0,0
				c0.1-1,0.8-1.4,0.8-2.1l0,0c0-0.1,0-0.3-0.1-0.4l0,0c-0.4-1.1-1.1-1.7-2-1.7l0,0v-0.3v-0.3c1.3,0,2.1,0.9,2.6,2.2l0,0
				c0.1,0.2,0.1,0.4,0.1,0.6l0,0c0,1-0.8,1.6-0.7,2.1l0,0c-0.1,0.5,1.2,1.3,2,2.5l0,0c0.6,1,1.2,2.3,1.2,3.3l0,0
				c0,0.3,0,0.6-0.2,0.8l0,0c-0.3,0.5-0.4,1.3-1.4,1.3l0,0C377.3,60.2,377.1,60.2,376.8,60.2L376.8,60.2z"/>
		</g>
	</g>
	<g>
		<path class="st1" d="M231.6,59.3c-2.1-1.1-1.9-0.7-5.4-1.9c-3.4-1.2-18.4-8.6-18.8-10.5c-0.2-1,0.7-2.1,0.9-2.5
			c0.7-1.4,2.1-4,3.4-6.5c1.2-2.2,2.2-4.3,0.3-4.4c-1.9-0.1-7.7,1.9-9.1,1c-1.4-0.8-1.3-1.7-0.1-2.7c1.2-1.1,1.3-1.8,5.8-2.7
			c4.5-1,10-0.9,12.1-2c2.2-1.1,3-2,2.4-3.4s-0.8-2.2-2.8-2.5s-4.9,1.3-6.8,2c-1.6,0.5-3.1,1.6-4.4,1.1c-1.3-0.5-0.9-3.9-1-6.5
			s0.3-3.8-0.7-3.9c-1.1-0.1-2,0.6-2,0.6c-1.1,1.2-2.2,8.7-3.9,10.5c-0.1,0.1-0.4,0.9-1.1,1c-4.7,0.5-10.9-0.3-12.7-0.5
			c-1.8-0.1-1.5,0.8-1.5,2.5s0.2,2.2,1.4,3.5s2.1,1.7,3.2,1.8c1.1,0.1,5-2.9,6.7-1.5c1.7,1.3-0.2,2.9-1.2,3.6
			c-1,0.7-4.5,0.4-4.5,0.4s-1.3-0.5-0.4,0.9c1,1.4,2.9,1.6,2.5,3c-0.1,0.6-2.1,4.4-4.7,8.2c-3.5,5.2-8,10.7-8.5,10.8
			c-0.8,0.1,4.1,0.4,7.7-3.6c3.6-3.9,6.6-9.8,7.6-11.5c1.1-1.7,0.7-1.6,1.6-1.4c2,0.4,4.8,3.7,5,4.9c0.3,1.6-0.8,4.9-3.1,5.8
			c-1.9,0.8-2.5,1-3.9,1.4c-1.3,0.4-2.1,1.7-1.5,2.6c0.6,0.9,1,1.5,3.1,0.9s4.9-3.4,5.8-4.9c0.8-1.2,0.9-1.8,2-2
			c1.4-0.3,1.9,1.2,2.7,2.4s3.9,4.5,5.7,5.5c2.7,1.4,7.1,1.7,10,1.8s7.7,1.9,8.5,1.2C233,61,233,60,231.6,59.3z M204.9,43.7
			c-1.1,0.7-5.2-5-5.2-5s-0.1-0.9,0.6-1.6c0.7-0.7,0.5-0.2,3.3-0.5c2.8-0.2,3.7,0,3.8,1.2C207.6,39.1,206,43,204.9,43.7z"/>
		<path class="st1" d="M223.8,60.8c-2.9-0.1-7.3-0.3-10.1-1.8l0,0c-1.9-1-4.9-4.3-5.8-5.6l0,0c-0.8-1.2-1.3-2.3-2.1-2.3l0,0
			c-0.1,0-0.2,0-0.3,0l0,0c-1,0.2-0.9,0.6-1.8,1.9l0,0c-1,1.5-3.7,4.4-6,5l0,0c-0.6,0.2-1.1,0.3-1.6,0.3l0,0c-1,0-1.5-0.6-1.9-1.3
			l0,0c-0.2-0.3-0.3-0.6-0.3-0.9l0,0c0-1,0.8-1.9,1.9-2.2l0,0c1.4-0.4,1.9-0.6,3.9-1.4l0,0c1.8-0.7,3-3.4,2.9-5l0,0
			c0-0.2,0-0.4,0-0.5l0,0c-0.1-1-2.9-4.4-4.8-4.7l0,0c-0.3,0-0.4-0.1-0.5-0.1l0,0c0,0,0,0-0.1,0.1l0,0c-0.1,0.2-0.3,0.6-0.7,1.2l0,0
			c-1.1,1.6-4.1,7.6-7.7,11.5l0,0c-3,3.3-6.8,3.7-7.8,3.7l0,0c-0.1,0-0.2,0-0.3,0l0,0c0,0-0.2,0-0.3-0.3l0,0
			c0.1-0.3,0.2-0.3,0.3-0.3l0,0h0.1l0,0l0,0c0.1,0,0.1-0.1,0.2-0.2l0,0c0.2-0.2,0.4-0.4,0.7-0.7l0,0c0.5-0.6,1.3-1.5,2.1-2.5l0,0
			c1.6-2,3.6-4.7,5.4-7.3l0,0c2.6-3.8,4.6-7.7,4.7-8.1l0,0c0-0.1,0-0.2,0-0.3l0,0c0.1-0.7-1.5-1.1-2.5-2.5l0,0
			c-0.3-0.4-0.4-0.7-0.4-1l0,0c0-0.4,0.4-0.6,0.6-0.6l0,0c0.2,0,0.4,0.1,0.4,0.1l0,0c0.1,0,0.9,0.1,1.9,0.1l0,0c1,0,2.1-0.1,2.4-0.4
			l0,0c0.7-0.5,1.8-1.5,1.7-2.2l0,0c0-0.3-0.1-0.6-0.5-0.9l0,0c-0.2-0.2-0.5-0.3-0.9-0.3l0,0c-1.7,0-4.3,1.8-5.5,1.9l0,0H191l0,0
			c-1.1-0.1-2.2-0.5-3.4-1.9l0,0c-1.2-1.3-1.5-2-1.5-3.7l0,0c0-0.3,0-0.7,0-1l0,0c0-0.5,0-1,0.3-1.3l0,0c0.3-0.4,0.7-0.6,1.4-0.5
			l0,0c0.1,0,0.2,0,0.3,0l0,0c1.4,0.1,5.5,0.6,9.4,0.6l0,0c1.1,0,2.2,0,3.3-0.1l0,0c0.5-0.1,0.8-0.7,0.9-0.9l0,0
			c1.6-1.6,2.7-9.1,3.9-10.5l0,0c0,0,0.9-0.7,2-0.7l0,0c0.1,0,0.2,0,0.3,0l0,0c0.9,0.1,1.1,0.9,1,1.7l0,0c0,0.4,0,1,0,1.6l0,0
			c0,0.3,0,0.6,0,1l0,0c0,0.4,0,0.8,0,1.2l0,0c0,0.5,0,1,0,1.5l0,0c0,1.9,0.2,3.5,0.8,3.6l0,0c0.2,0.1,0.4,0.1,0.6,0.1l0,0
			c1,0,2.3-0.8,3.6-1.2l0,0c1.7-0.6,4.3-2,6.4-2l0,0c0.2,0,0.4,0,0.5,0l0,0c2.1,0.2,2.6,1.3,3.1,2.7l0,0c0.1,0.3,0.2,0.6,0.2,1l0,0
			c0,1.2-1,2.1-2.7,2.9l0,0c-2.3,1.1-7.8,1-12.2,2l0,0c-4.5,1-4.4,1.6-5.7,2.7l0,0c-0.6,0.5-0.8,0.9-0.8,1.2l0,0
			c0,0.3,0.2,0.6,0.9,1l0,0c0.2,0.1,0.5,0.2,0.9,0.1l0,0c2.1,0,6-1.2,7.8-1.2l0,0c0.1,0,0.1,0,0.2,0l0,0c0.9,0,1.4,0.6,1.4,1.3l0,0
			c0,1-0.7,2.3-1.4,3.6l0,0c-1.3,2.4-2.8,5.1-3.4,6.5l0,0c-0.3,0.5-0.9,1.3-0.9,2l0,0c0,0.1,0,0.2,0,0.3l0,0
			c0.1,1.5,15.2,9.2,18.6,10.2l0,0c3.4,1.2,3.3,0.8,5.4,1.9l0,0l-0.1,0.3l-0.2,0.3c-2.1-1.1-1.8-0.7-5.3-1.9l0,0
			c-3.6-1.3-18.3-8.4-19-10.7l0,0c0-0.1-0.1-0.3-0.1-0.4l0,0c0-1.1,0.9-2,1-2.3l0,0c0.7-1.4,2.1-4.1,3.4-6.5l0,0
			c0.7-1.3,1.4-2.6,1.3-3.3l0,0c0-0.4-0.1-0.6-0.7-0.7l0,0c-0.1,0-0.1,0-0.2,0l0,0c-1.6,0-5.6,1.2-7.8,1.2l0,0
			c-0.5,0-0.9-0.1-1.3-0.3l0,0c-0.8-0.4-1.2-0.9-1.2-1.6l0,0c0-0.6,0.4-1.1,1-1.7l0,0c1.1-1,1.4-1.9,6-2.8l0,0
			c4.6-0.9,10.1-0.9,12.1-1.9l0,0c1.7-0.8,2.4-1.6,2.4-2.3l0,0c0-0.2,0-0.4-0.2-0.7l0,0c-0.6-1.5-0.7-2-2.6-2.3l0,0
			c-0.1,0-0.3,0-0.5,0l0,0c-1.8,0-4.4,1.4-6.2,2l0,0c-1.2,0.4-2.5,1.3-3.8,1.3l0,0c-0.3,0-0.5,0-0.8-0.1l0,0
			c-1.2-0.6-1.2-2.3-1.2-4.2l0,0c0-0.5,0-1,0-1.5l0,0c0-0.4,0-0.8,0-1.2l0,0c0-0.3,0-0.7,0-1l0,0c0-0.6,0-1.2,0-1.6l0,0
			c0-0.9,0-1-0.4-1l0,0c-0.1,0-0.1,0-0.2,0l0,0c-0.4,0-0.8,0.1-1.1,0.2l0,0c-0.3,0.1-0.5,0.2-0.5,0.2l0,0c-1,1-2.1,8.5-3.9,10.5l0,0
			c0,0-0.4,1-1.4,1.1l0,0c-1,0.1-2.2,0.2-3.3,0.2l0,0c-4,0-8.1-0.5-9.4-0.6l0,0c-0.1,0-0.2,0-0.2,0l0,0c-1,0.1-0.9,0.2-1,1.2l0,0
			c0,0.3,0,0.6,0,1l0,0c0,1.6,0.2,1.9,1.3,3.3l0,0c1.2,1.3,2,1.6,3,1.7l0,0l0,0c0.7,0.1,3.5-1.8,5.5-1.9l0,0c0.5,0,0.9,0.1,1.3,0.4
			l0,0c0.5,0.4,0.8,0.9,0.8,1.4l0,0c0,1.2-1.3,2.1-2,2.7l0,0c-0.6,0.4-1.8,0.5-2.8,0.5l0,0c-1,0-2-0.1-2-0.1l0,0c0,0,0,0-0.1,0l0,0
			c0,0-0.1,0-0.2,0l0,0c0,0.1,0.1,0.3,0.3,0.5l0,0c0.7,1.2,2.5,1.3,2.6,2.8l0,0c0,0.1,0,0.3,0,0.4l0,0c-0.2,0.7-2.1,4.4-4.8,8.4l0,0
			c-2.9,4.3-6.3,8.6-7.9,10.3l0,0c1.5-0.2,4.4-1,6.6-3.5l0,0c3.5-3.9,6.5-9.8,7.6-11.5l0,0c0.8-1.1,0.7-1.5,1.4-1.6l0,0
			c0.2,0,0.3,0,0.6,0.1l0,0c2.3,0.5,4.9,3.8,5.3,5.2l0,0c0,0.2,0.1,0.4,0.1,0.6l0,0c0,1.8-1.2,4.6-3.3,5.6l0,0
			c-1.9,0.8-2.5,1-3.9,1.4l0,0c-0.9,0.2-1.5,1-1.4,1.6l0,0c0,0.2,0,0.4,0.1,0.5l0,0c0.5,0.7,0.6,1,1.4,1l0,0c0.3,0,0.8-0.1,1.4-0.2
			l0,0c2-0.5,4.7-3.3,5.7-4.7l0,0c0.8-1.2,0.9-1.9,2.2-2.2l0,0c0.1,0,0.3,0,0.4,0l0,0c1.5,0,1.9,1.5,2.7,2.6l0,0
			c0.8,1.1,3.9,4.5,5.6,5.4l0,0c2.6,1.4,7,1.6,9.9,1.7l0,0c2.5,0.1,6.3,1.4,7.8,1.4l0,0c0.3,0,0.4-0.1,0.4-0.1l0,0
			c0.3-0.3,0.4-0.5,0.4-0.8l0,0c0-0.3-0.2-0.7-0.9-1.1l0,0l0.2-0.3l0.1-0.3c0.8,0.4,1.3,1,1.3,1.7l0,0c0,0.5-0.2,0.9-0.6,1.3l0,0
			c-0.2,0.2-0.5,0.2-0.9,0.3l0,0C229.9,62.2,226.1,60.9,223.8,60.8L223.8,60.8z M199.4,38.8c0,0,0-0.1,0-0.2l0,0
			c0-0.3,0.1-1.1,0.7-1.7l0,0c0.3-0.4,0.7-0.5,1.1-0.5l0,0c0.2,0,0.5,0,0.8,0l0,0c0.4,0,0.9,0,1.6-0.1l0,0c0.6-0.1,1.2-0.1,1.7-0.1
			l0,0c1.6-0.1,2.4,0.5,2.5,1.6l0,0c0,0.1,0,0.1,0,0.2l0,0c-0.1,1.6-1.5,5.1-2.7,6l0,0c-0.1,0.1-0.3,0.1-0.4,0.1l0,0
			C202.9,44,199.6,38.9,199.4,38.8L199.4,38.8z M204.7,43.5L204.7,43.5c0.9-0.5,2.5-4.3,2.5-5.5l0,0v-0.1l0,0c-0.1-0.8-0.3-1-1.9-1
			l0,0c-0.4,0-1,0-1.6,0.1l0,0c-0.7,0.1-1.2,0.1-1.6,0.1l0,0c-0.4,0-0.7,0-0.8,0l0,0c-0.3,0-0.2,0-0.6,0.3l0,0
			c-0.5,0.5-0.5,1-0.5,1.2l0,0l0,0l0,0C200.5,39.2,203.8,43.6,204.7,43.5L204.7,43.5z"/>
	</g>
	<g>
		<g>
			<path class="st1" d="M235.6,21.8c0,0,1.8,6.7,4.3,5.6c2.4-1.2,2.9-1.8,8.9-2.9c5.9-1.1,7.9-1.5,9.7-1.6c1.8-0.2,2.3-1.1,2.8-2.5
				c0.5-1.3,1.3-2.8-0.5-2.9c-1.8-0.2-3.3-0.8-6.1,0.5c-2.8,1.3-5.9,2.3-10.2,3.1C240.2,21.8,235.6,21.8,235.6,21.8z"/>
			<path class="st1" d="M235.3,21.9l-0.1-0.4h0.4c0,0,4.6,0,8.8-0.8l0,0c4.2-0.8,7.3-1.8,10.1-3.1l0,0c1.3-0.6,2.4-0.8,3.4-0.8l0,0
				c1.1,0,1.9,0.2,2.8,0.3l0,0c0.9,0,1.4,0.6,1.4,1.2l0,0c0,0.7-0.4,1.4-0.6,2.1l0,0c-0.5,1.3-1.1,2.5-3.1,2.7l0,0
				c-1.8,0.2-3.7,0.5-9.6,1.6l0,0c-5.9,1.1-6.3,1.8-8.8,2.9l0,0c-0.2,0.1-0.5,0.2-0.7,0.2l0,0C236.6,27.6,235.4,21.9,235.3,21.9
				L235.3,21.9z M239.3,27.2c0.1,0,0.3,0,0.4-0.1l0,0c2.4-1.1,3-1.8,8.9-3l0,0c5.9-1.2,7.9-1.5,9.7-1.7l0,0c1.7-0.2,2-0.9,2.5-2.2
				l0,0c0.3-0.7,0.6-1.5,0.6-1.9l0,0c0-0.3-0.1-0.5-0.8-0.6l0,0c-1-0.1-1.8-0.3-2.8-0.3l0,0c-0.9,0-1.8,0.2-3.1,0.8l0,0
				c-2.8,1.3-6,2.3-10.2,3.1l0,0c-3.5,0.7-7.2,0.8-8.5,0.8l0,0C236.5,23.4,237.9,27.3,239.3,27.2L239.3,27.2z M235.6,22.1v-0.3V22.1
				L235.6,22.1z"/>
		</g>
		<g>
			<path class="st1" d="M243.4,29.9c0,0-1.1,5.6-2.2,6.8c-0.9,0.9-0.6,2.6-0.1,2.9c0.5,0.3,3.6,1.1,3.4-0.3
				c-0.2-1.5-0.2-0.8,0.2-4.3c0.3-3.4,1.5-5.1,0.7-5.3C244.5,29.6,243.7,29.5,243.4,29.9z"/>
			<path class="st1" d="M241.1,39.9c-0.4-0.3-0.6-1-0.6-1.7l0,0c0-0.6,0.2-1.3,0.6-1.8l0,0c1-1,2.1-6.6,2.1-6.6l0,0l0.3,0.1
				l-0.3-0.2c0.2-0.4,0.7-0.5,1.2-0.5l0,0c0.4,0,0.8,0.1,1.3,0.2l0,0c0.4,0,0.6,0.4,0.6,0.7l0,0c0,0.9-0.7,2.4-1,4.9l0,0
				c-0.2,2-0.3,2.6-0.3,3l0,0c0,0.3,0,0.5,0.1,1.2l0,0v0.1l0,0c0,0.8-0.8,1.1-1.5,1.1l0,0C242.5,40.5,241.5,40.2,241.1,39.9
				L241.1,39.9z M241.5,37c-0.3,0.3-0.5,0.8-0.5,1.3l0,0c0,0.6,0.2,1.1,0.3,1.1l0,0c0.2,0.1,1.3,0.5,2.1,0.5l0,0
				c0.6,0,0.8-0.1,0.8-0.4l0,0v-0.1l0,0c-0.1-0.6-0.1-0.9-0.1-1.3l0,0c0-0.5,0.1-1.1,0.3-3.1l0,0c0.3-2.6,1-4.3,1-4.9l0,0
				c0-0.1,0-0.1,0-0.1l0,0c-0.4-0.1-0.8-0.1-1.1-0.1l0,0c-0.3,0-0.5,0.1-0.6,0.1l0,0C243.6,30.7,242.7,35.6,241.5,37L241.5,37z"/>
		</g>
		<g>
			<path class="st1" d="M253.3,29.4c-0.5,0.8-1.3,1.2-1.3,1.2s-1.3-0.8-2.4-0.8c-1.3,0.1-1.5,0.6-1.5,1.3c0.1,1.2,3.8,2,3.9,3.1
				c0.2,1.1-0.2,2.5-1.1,2.3c-1-0.2-2.7-0.3-2.4,0.5s-0.7,0.9,0.1,1.3c0.8,0.3,1.3,0.5,1.5,1s-6.3,7.5-8.5,8.8
				c-2.1,1.3-4.7,2.3-4.1,4.1c0.6,1.9,0.6,2.4,2.6,2.2s2.2-1,2.9-2.3s2.7-4.1,3.7-4.9c1-0.8,1.9-1.7,3.4-1.7s1.2,0.6,1.2,1.6
				s-0.2,3.5-0.7,4.2s-1.3,1-1.3,2s-0.3,4,0.5,5.6s1.7,2.7,2.5,2.6c0.8-0.2,1.7-0.6,1.5-3.1c-0.2-2.8,0-4.4-0.3-6.4
				c-0.3-2.1,0.4-5.8,0.9-7.3s1.3-1.8,3.4-2.3s5.4-0.8,6.6-0.5c1.1,0.3,0.7,0.6,0,2.3c-0.7,1.6-4.4,5.6-6.2,6.1
				c-1.8,0.5-2.1,1.1-1.2,1.6c1,0.5,2.7-0.1,4.5-0.6s3.1-2.5,4.6-3.5s1.6-1.5,2.8-0.5c1.1,1,5.5,5.2,5.3,7.2s-1.4,3.2-1.2,4
				c0.2,0.8,1,2.3,2.8,2.2s2.1-0.3,2.9-2.1s1.5-2.6,1.1-3.4c-0.3-0.8-3-4.9-5.3-6.2s-3.5-1.7-4.9-3.6c-0.8-1-0.2-1.5-0.1-3.2
				c0.1-1.6,14.6-1,15.6-1.1c1-0.2,2.3-0.5,0.7-2.3c-1.6-1.8-0.3-2.5-3.8-1.8c-3.4,0.7-7.7,2-8.5,1.5s0.3-1.5,1.8-2.1
				c0.5-0.2,7-5.6,8-6.9c1.5-1.9-1.8-3.3-1.8-3.3c-1.8,0.1-2.9,0.3-4.3-0.6c-1.2-0.8,1.6-3.4,2.6-4.4s2.3-5.9-0.5-5.7
				s-1.1,0.3-2.9-0.6c-1.1-0.6-2.4-1.4-3-0.5c-0.6,1.2,1.2,2.7,0.3,5.5c-0.8,2.8-2.1,3.2-2,5c0.2,1.9,1.5,3.8,3.1,4.3
				s2.1,0.8,1.3,2.3c-0.8,1.5-6.7,4.8-8.2,4.9c-1.5,0.2-0.5,2.5-0.8,3.1c-0.3,0.7-3.1,0.8-3.8,0.2c-0.7-0.7-0.8-2.5,1.1-2.8
				c2-0.3,0-2,0.8-3.1s2.1-2.5,1.5-3.3c-0.7-0.8-3.3-0.7-3.3-2s0.7-2.5,2-3.3s2.1-2.3,1.1-3.3s-1.6-1.8-2.1-1.5s-0.8,3.1-2.3,4.1
				s-2,4.3-3.6,4.8s-0.8,1.3,0.3,1.6c1.1,0.3,2.6-0.2,2.8,1.1c0.2,1.3-1.3,3.4-1.1,4.8c0.2,1.3,0.6,3.3-0.2,3.6
				c-0.8,0.3-4.9,0.6-5.4,0.6c-0.8,0,0.2-2.1,0.6-4.3c0.6-2.6-0.4-2.9-0.3-3.6c0.3-2.6,2.1-6.9,0.7-7
				C255,26.1,254.2,28.1,253.3,29.4z"/>
			<path class="st1" d="M249.4,59.2c-0.5-1.1-0.6-2.6-0.6-3.8l0,0c0-0.8,0.1-1.6,0.1-2l0,0c0-1.2,1-1.6,1.4-2.2l0,0
				c0.4-0.4,0.6-3.1,0.6-4l0,0c0-0.3,0-0.5,0-0.7l0,0c-0.1-0.5,0.1-0.5-0.9-0.6l0,0c-1.3,0-2.2,0.8-3.2,1.6l0,0
				c-0.9,0.7-3,3.6-3.6,4.8l0,0c-0.6,1.3-1.1,2.3-3.1,2.5l0,0c-0.2,0-0.4,0-0.6,0l0,0c-1.5,0.1-1.8-0.9-2.3-2.5l0,0
				c-0.1-0.2-0.1-0.4-0.1-0.6l0,0c0.1-1.8,2.5-2.7,4.4-3.9l0,0c1.9-1.1,7.7-7.3,8.3-8.5l0,0l0,0l0,0c-0.1-0.2-0.5-0.4-1.3-0.7l0,0
				c-0.2-0.1-0.5-0.2-0.5-0.6l0,0c0.1-0.5,0.3-0.5,0.3-0.7l0,0c0-0.1,0-0.1,0-0.2l0,0c0-0.1-0.1-0.2-0.1-0.3l0,0
				c0.1-0.8,0.9-0.8,1.5-0.8l0,0c0.5,0,1,0.1,1.3,0.1l0,0h0.1l0,0c0.4,0,0.7-0.6,0.7-1.4l0,0c0-0.2,0-0.3,0-0.5l0,0
				c0.1-0.8-3.7-1.6-3.9-3.1l0,0c0-0.1,0-0.2,0-0.2l0,0c-0.1-0.7,0.5-1.4,1.8-1.5l0,0c0.1,0,0.1,0,0.2,0l0,0c0.9,0,1.9,0.5,2.3,0.7
				l0,0c0.2-0.1,0.7-0.4,1-1l0,0c0.9-1.3,1.6-3.2,2.9-3.4l0,0h0.1l0,0c0.7,0.1,0.9,0.7,0.9,1.3l0,0c0,1.6-1,4.3-1.2,6.1l0,0l0,0
				c0,0.2,0.5,0.8,0.5,2.1l0,0c0,0.4-0.1,0.9-0.2,1.5l0,0c-0.3,1.6-0.9,3.2-0.9,3.8l0,0c0,0.1,0,0.1,0,0.1l0,0
				c0.6,0,4.6-0.4,5.2-0.6l0,0c0.1,0,0.3-0.3,0.3-0.8l0,0c0-0.7-0.2-1.7-0.3-2.4l0,0c0-0.1,0-0.2,0-0.3l0,0c0-1.4,1.2-3.2,1.2-4.3
				l0,0c0-0.1,0-0.1,0-0.2l0,0c0-0.9-1.2-0.5-2.6-0.9l0,0c-0.7-0.2-1.4-0.5-1.5-1.2l0,0c0-0.5,0.5-0.8,1.2-1l0,0
				c1.4-0.3,1.9-3.5,3.5-4.7l0,0c1.4-0.9,1.6-3.5,2.3-4.1l0,0c0.1-0.1,0.3-0.1,0.4-0.1l0,0c0.8,0.1,1.3,0.8,2.1,1.6l0,0
				c0.4,0.4,0.5,0.8,0.5,1.2l0,0c0,1-0.8,1.9-1.7,2.5l0,0c-1.2,0.8-1.8,1.8-1.8,3l0,0c-0.2,0.8,2.2,0.8,3.2,1.8l0,0
				c0.2,0.2,0.2,0.5,0.2,0.7l0,0c0,1-1.1,2-1.7,3l0,0c-0.1,0.2-0.1,0.3-0.1,0.5l0,0c0,0.5,0.3,1,0.3,1.6l0,0c0,0.5-0.4,1-1.2,1.1
				l0,0c-1.1,0.2-1.3,0.7-1.3,1.3l0,0c0,0.4,0.2,0.8,0.3,0.9l0,0c0.1,0.2,0.8,0.3,1.5,0.3l0,0c0.9,0,1.8-0.3,1.8-0.4l0,0
				c0,0,0-0.1,0-0.3l0,0c0-0.4-0.1-0.9-0.1-1.4l0,0c0-0.6,0.2-1.5,1.1-1.6l0,0c1.2-0.1,7.3-3.5,7.9-4.7l0,0c0.2-0.5,0.3-0.8,0.3-1
				l0,0c0-0.3-0.3-0.5-1.5-0.9l0,0c-1.8-0.6-3.1-2.5-3.3-4.5l0,0c0-0.1,0-0.3,0-0.4l0,0c0-1.8,1.3-2.3,2-4.8l0,0
				c0.2-0.5,0.2-1,0.2-1.4l0,0c0-1.4-0.7-2.4-0.7-3.4l0,0c0-0.2,0.1-0.5,0.2-0.7l0,0c0.2-0.4,0.6-0.6,1-0.6l0,0c0.8,0,1.6,0.6,2.4,1
				l0,0c1.1,0.6,1,0.8,1.1,0.7l0,0c0.2,0,0.6-0.1,1.6-0.1l0,0c0.1,0,0.2,0,0.2,0l0,0c1.4,0,1.9,1.2,1.9,2.4l0,0
				c0,1.5-0.6,3.2-1.3,3.9l0,0c-0.8,0.8-2.9,2.9-2.8,3.7l0,0c0,0.1,0,0.2,0.1,0.3l0,0c0.8,0.5,1.5,0.6,2.3,0.7l0,0
				c0.5,0,1-0.1,1.7-0.1l0,0h0.1l0,0c0,0,0.1,0,0.2,0.1l0,0l0,0l0,0c0.6,0.3,2.2,1.1,2.3,2.6l0,0c0,0.4-0.1,0.8-0.5,1.2l0,0
				c-1.1,1.4-7.5,6.6-8.2,7l0,0c-1.1,0.5-2,1.3-1.9,1.4l0,0c0,0,0,0.1,0.1,0.1l0,0c0,0,0.2,0.1,0.4,0.1l0,0c1.4,0,4.9-1,7.9-1.6l0,0
				c0.9-0.2,1.5-0.3,1.9-0.3l0,0c1.4,0.1,1.1,1,2.2,2.2l0,0c0.6,0.6,0.9,1.1,0.9,1.6l0,0c-0.1,1-1.1,1.1-1.7,1.2l0,0
				c-0.2,0-0.5,0-1.1,0l0,0c-1.1,0-2.8,0-4.7,0l0,0c-3.8,0-8.6,0.2-9.4,0.7l0,0c-0.1,0.1-0.1,0.1-0.1,0.1l0,0
				c-0.1,1.1-0.3,1.7-0.3,2.2l0,0c0,0.3,0.1,0.5,0.3,0.8l0,0c1.4,1.9,2.5,2.2,4.9,3.5l0,0c2.4,1.4,5,5.4,5.4,6.3l0,0
				c0.1,0.2,0.1,0.4,0.1,0.6l0,0c0,0.9-0.6,1.7-1.3,3.1l0,0c-0.7,1.8-1.4,2.2-3.2,2.3l0,0h-0.1l0,0c-1.9,0-2.8-1.6-3-2.5l0,0
				c0-0.1,0-0.2,0-0.3l0,0c0-1.1,1.1-2.1,1.2-3.8l0,0c0-0.1,0-0.1,0-0.1l0,0c0.1-1.7-4.1-5.9-5.2-6.8l0,0c-0.4-0.4-0.7-0.5-0.8-0.5
				l0,0c-0.2,0-0.7,0.3-1.6,1l0,0c-1.4,0.9-2.7,3-4.7,3.5l0,0c-1.3,0.4-2.6,0.8-3.6,0.8l0,0c-0.4,0-0.7-0.1-1.1-0.2l0,0
				c-0.4-0.2-0.7-0.5-0.7-0.9l0,0c0.1-0.7,0.8-1,1.9-1.4l0,0c1.6-0.4,5.5-4.4,6-5.9l0,0c0.4-0.9,0.7-1.5,0.7-1.6l0,0
				c0,0,0.1-0.1-0.5-0.2l0,0c-0.3-0.1-0.7-0.1-1.3-0.1l0,0c-1.5,0-3.6,0.3-5.1,0.6l0,0c-2.2,0.5-2.7,0.7-3.2,2.1l0,0
				c-0.4,1.2-0.9,3.8-0.9,5.9l0,0c0,0.5,0,0.9,0.1,1.2l0,0c0.3,2,0.1,3.6,0.3,6.4l0,0c0,0.2,0,0.4,0,0.6l0,0c0.1,2-0.9,2.7-1.8,2.8
				l0,0c-0.1,0-0.1,0-0.2,0l0,0C251,61.9,250.2,60.8,249.4,59.2L249.4,59.2z M251.2,45.7c0.3,0.3,0.3,0.6,0.3,0.9l0,0
				c0,0.2,0,0.5,0,0.7l0,0c0,1-0.2,3.5-0.7,4.4l0,0c-0.6,0.8-1.3,1-1.3,1.8l0,0c0,0.4,0,1.1,0,2l0,0c0,1.2,0.1,2.7,0.6,3.5l0,0
				c0.7,1.5,1.6,2.4,2.1,2.4l0,0h0.1l0,0c0.7-0.2,1.2-0.3,1.3-2.2l0,0c0-0.2,0-0.4,0-0.6l0,0c-0.2-2.8,0-4.4-0.3-6.4l0,0
				c-0.1-0.4-0.1-0.9-0.1-1.3l0,0c0-2.2,0.5-4.8,1-6.1l0,0c0.5-1.6,1.6-2,3.7-2.5l0,0c1.6-0.4,3.7-0.6,5.2-0.6l0,0
				c0.6,0,1.1,0,1.5,0.1l0,0c0.5,0.1,0.9,0.4,0.9,0.8l0,0c0,0.5-0.3,1-0.7,1.9l0,0c-0.8,1.8-4.4,5.7-6.5,6.3l0,0
				c-1.1,0.3-1.5,0.7-1.5,0.7l0,0c0,0,0,0.1,0.4,0.3l0,0c0.2,0.1,0.4,0.2,0.7,0.2l0,0c0.9,0,2.1-0.4,3.5-0.8l0,0
				c1.6-0.4,2.9-2.4,4.5-3.4l0,0c0.9-0.6,1.3-1,1.9-1.1l0,0c0.4,0,0.8,0.2,1.2,0.6l0,0c1.1,1,5.3,5,5.4,7.3l0,0c0,0.1,0,0.1,0,0.1
				l0,0c-0.2,1.9-1.3,3.2-1.2,3.8l0,0c0,0.1,0,0.1,0,0.1l0,0c0.1,0.7,0.9,2,2.4,2l0,0h0.1l0,0c1.8-0.1,1.7-0.1,2.6-1.9l0,0
				c0.7-1.5,1.2-2.3,1.2-2.9l0,0c0-0.1,0-0.2-0.1-0.3l0,0c-0.3-0.7-3-4.8-5.2-6l0,0c-2.3-1.3-3.5-1.7-5-3.7l0,0
				c-0.3-0.4-0.5-0.8-0.5-1.2l0,0c0-0.6,0.2-1.2,0.3-2.2l0,0c0.3-1,1.7-1,3.6-1.3l0,0c1.9-0.2,4.4-0.2,6.6-0.2l0,0
				c1.9,0,3.6,0,4.7,0l0,0c0.5,0,0.9,0,1,0l0,0c0.7-0.1,1.2-0.3,1.2-0.6l0,0c0-0.2-0.2-0.6-0.7-1.2l0,0c-1.3-1.5-0.9-2-1.7-2l0,0
				c-0.4,0-0.9,0.1-1.8,0.2l0,0c-2.9,0.6-6.4,1.6-8,1.6l0,0c-0.3,0-0.5,0-0.8-0.1l0,0c-0.2-0.1-0.4-0.4-0.4-0.7l0,0
				c0.1-0.9,1.1-1.5,2.3-2l0,0c0.4-0.1,7-5.6,7.9-6.8l0,0c0.2-0.3,0.3-0.6,0.3-0.8l0,0c0.1-0.9-1.5-1.8-1.9-2l0,0l0,0
				c-0.6,0-1.2,0.1-1.7,0.1l0,0c-0.9,0-1.7-0.1-2.7-0.7l0,0c-0.3-0.2-0.4-0.5-0.4-0.8l0,0c0.1-1.4,2.2-3.3,3-4.1l0,0
				c0.4-0.4,1.1-2.1,1.1-3.5l0,0c0-1.1-0.3-1.7-1.2-1.7l0,0h-0.1l0,0c-1.1,0.1-1.4,0.1-1.7,0.1l0,0c-0.6-0.1-0.3-0.3-1.4-0.8l0,0
				c-0.7-0.4-1.6-0.9-2.1-0.9l0,0c-0.2,0-0.3,0.1-0.5,0.3l0,0c-0.1,0.1-0.1,0.2-0.1,0.4l0,0c0,0.7,0.7,1.8,0.7,3.4l0,0
				c0,0.5-0.1,1-0.2,1.6l0,0c-0.8,2.7-2,3.3-2,4.6l0,0c0,0.1,0,0.2,0,0.3l0,0c0.2,1.8,1.4,3.6,2.9,4l0,0c1.1,0.3,1.9,0.6,1.9,1.5
				l0,0c0,0.4-0.2,0.8-0.4,1.3l0,0c-1,1.7-6.7,4.8-8.4,5.1l0,0c-0.5,0.1-0.5,0.3-0.6,0.9l0,0c0,0.4,0.1,1,0.1,1.4l0,0
				c0,0.2,0,0.4-0.1,0.6l0,0c-0.4,0.6-1.4,0.7-2.4,0.8l0,0c-0.8,0-1.5-0.1-1.9-0.5l0,0c-0.3-0.3-0.5-0.9-0.5-1.4l0,0
				c0-0.8,0.6-1.7,1.9-1.9l0,0c0.7-0.1,0.6-0.2,0.6-0.5l0,0c0-0.3-0.3-1-0.3-1.6l0,0c0-0.3,0.1-0.6,0.3-0.9l0,0
				c0.7-0.9,1.6-2,1.6-2.6l0,0c0-0.1,0-0.2-0.1-0.3l0,0c-0.3-0.7-3.2-0.4-3.3-2.2l0,0c0-1.4,0.7-2.7,2.1-3.6l0,0
				c0.9-0.5,1.4-1.4,1.4-2l0,0c0-0.3-0.1-0.5-0.3-0.8l0,0c-0.8-0.9-1.5-1.5-1.7-1.5l0,0h-0.1l0,0c-0.2,0-0.7,3-2.3,4.1l0,0
				c-1.3,0.8-1.7,4.1-3.7,4.8l0,0C258,29.8,258,30,258,30l0,0c0,0,0.4,0.5,1,0.6l0,0c0.9,0.3,2.7-0.3,3,1.4l0,0c0,0.1,0,0.2,0,0.2
				l0,0c0,1.4-1.2,3.2-1.2,4.3l0,0c0,0.1,0,0.1,0,0.2l0,0c0.1,0.7,0.3,1.7,0.3,2.5l0,0c0,0.6-0.1,1.2-0.7,1.4l0,0
				c-1,0.4-5,0.7-5.5,0.7l0,0c-0.4,0-0.6-0.5-0.6-0.8l0,0c0-0.9,0.6-2.4,0.9-3.9l0,0c0.1-0.6,0.2-1,0.2-1.4l0,0
				c0-1.2-0.4-1.4-0.5-2.1l0,0c0-0.1,0-0.1,0-0.1l0,0c0.2-1.9,1.2-4.7,1.2-6l0,0c0-0.5-0.1-0.6-0.3-0.6l0,0l0,0
				c-0.5-0.1-1.5,1.7-2.3,3.1l0,0c-0.6,0.9-1.4,1.3-1.4,1.3l0,0L252,31l-0.1-0.1c0,0-1.2-0.7-2.1-0.7l0,0h-0.1l0,0
				c-1.2,0.1-1.1,0.3-1.2,0.8l0,0c0,0.1,0,0.1,0,0.2l0,0c-0.2,0.8,3.5,1.6,3.9,3.1l0,0c0,0.2,0,0.4,0,0.6l0,0c0,0.9-0.3,2-1.3,2.1
				l0,0c-0.1,0-0.1,0-0.2,0l0,0c-0.4-0.1-0.8-0.1-1.2-0.1l0,0c-0.3,0-0.5,0-0.7,0.1l0,0c-0.1,0.1-0.1,0.1-0.1,0.1l0,0c0,0,0,0,0,0.1
				l0,0c0.1,0.2,0.1,0.3,0.1,0.4l0,0c0,0.3-0.1,0.5-0.2,0.6l0,0l0,0l0,0c0.8,0.3,1.4,0.5,1.7,1.2l0,0c0,0.1,0,0.1,0,0.1l0,0
				c-0.2,1.1-6.4,7.6-8.6,9.1l0,0c-2,1.2-4.1,2.2-4,3.4l0,0c0,0.1,0,0.2,0.1,0.4l0,0c0.6,1.8,0.4,2,1.6,2l0,0c0.2,0,0.4,0,0.6,0l0,0
				c1.9-0.2,1.9-0.7,2.6-2.1l0,0c0.7-1.4,2.7-4.1,3.8-5l0,0c1-0.8,2-1.8,3.6-1.8l0,0C250.6,45.3,250.9,45.4,251.2,45.7L251.2,45.7z
				 M281.4,26.7L281.4,26.7L281.4,26.7L281.4,26.7L281.4,26.7z"/>
		</g>
	</g>
</g>
<g>
	<path class="st2" d="M3.2,56.2c1.1,1.6,4.2,6.3,6.7,8.1c2.4,1.8,4.8,3,7.1,3.9c3.9,1.5,7.3,1.8,10,1.8c0.5,0,0.9,0,1.4,0
		c2.4-0.1,4.8-0.5,7-1.2c5.1-1.5,9.3-4.4,12.4-8.2c1.4-1.8,2.6-3.8,3.5-6c0.3-0.8,1-0.1,1.8-1.2c0.6-0.7,0.2-2.7,0.8-3.3
		c0.1-0.5,1-1.1,1.1-2.1c0.1-1.4-1-2.1-1.7-2.9c0-0.1-0.1-0.1-0.1-0.2c-0.1-0.9-0.2-1.8-0.3-2.6c-0.5-2.4-1.3-4.8-2.4-6.9
		c-1-2-2.3-3.8-3.9-5.4c-2.1-2.2-4.5-4-7.3-5.4c-3.1-1.5-6.5-2.4-10.3-2.6c-0.6,0-1.2-0.1-1.8-0.1c-1,0-2,0.1-3,0.2
		c-2.6,0.3-5.1,0.9-7.4,1.8c-3.4,1.3-6.4,3.3-8.9,5.7C5.7,31.7,4,34.2,2.8,37c-1.2,2.8-1.9,5.8-1.9,9c0,0.4,0.1,0.7,0.1,0.9
		c0,0.3,0.1,0.5-0.1,0.9c-0.5,1.2-0.6,2-0.5,2.7c0.2,0.7,0.6,1.2,1.2,1.9C1.2,56.1,2.3,56.2,3.2,56.2z"/>
	<rect x="27.2" y="49.2" class="st3" width="0.3" height="19.8"/>
	<rect x="27.2" y="22.3" class="st3" width="0.3" height="18.3"/>
	<path class="st3" d="M54.2,47.4c-0.1-1-0.3-0.8-0.8-1.5c-0.6-0.7-1.1-1.3-1.1-1.9c-1-12.1-12-21.7-25.4-21.7
		c-14.1,0-25.4,10.5-25.4,23.5c0,0.3,0,0.9,0,1.2c-0.1,0.7-0.8,0.4-0.7,2.8c0.1,1.6,0.8,1.4,1.1,2.1c0.4,1.2-0.3,1.2,0.4,2.9
		c0.8,2,1.6,0.6,2,1.4c4.1,8,12.5,13.1,22.7,13.1c11,0,20.2-6.1,23.8-15.2c0.2-0.6,1,0.2,1.8-1.1c0.6-0.9,0.3-2.2,0.4-2.7
		C53.2,49.2,54.3,48.9,54.2,47.4z M48.7,34.3c0.8,1.3,1.3,2,1.2,2.5c-0.2,0.5-0.7,0.6-1,0.6c-0.3,0.1-0.5,0.1-0.8,0.7
		c-0.5,1,0.2,2.7-0.3,2.5c-0.4-0.2-0.9,0.1-1,0.3s0,0.8-0.7,1.3s-1.3,0.3-1.3,0.3L44,42.2c0,0-0.1,0.1-0.7-1.5
		c-0.5-1.1-0.6-1.4-0.6-1.4l0,0l0,0c0,0,0.8-0.5,2.5-2.1s2.2-4.7,2.2-4.7S47.8,33.1,48.7,34.3z M40.6,40.4c1-0.4,1.8-0.9,1.8-0.9
		s0.2,0.4,0.6,1.2c0.4,1,0.6,1.5,0.6,1.5s-1.2-0.3-2.6-0.5c-1.2-0.2-2.4-0.3-2.4-0.3S39.6,40.8,40.6,40.4z M38.1,41.2
		c0,0-0.2-0.1-2.3-0.3c-2.2-0.2-2.3-0.2-2.3-0.2s-0.2,0-0.4-0.6s-0.4-0.8-0.3-1.7c0-1.2,0.2-1.4,0.9-2.8c0.7-1.6,2.5-2.8,2.5-2.8
		s1,0.7,3,2.7c2.1,2,3.1,3.8,3.1,3.8s-0.2,0.1-1.9,0.9C38.5,41,38.1,41.2,38.1,41.2z M46.8,31.7c0.2,0.2,0.3,0.5,0.3,0.5
		s-0.2,1.1-0.6,2.1c-0.4,1-0.5,1.3-1.5,2.5s-2.5,2.1-2.5,2.1s0,0-0.9-1.2s-0.3-0.5-1.6-1.9c-1.3-1.5-0.5-0.5-1.9-1.8
		s-1.7-1.5-1.7-1.5s0.4-1.1,0.4-2.8c0-1.7-0.8-2.3-0.8-2.3s0.2,0,1.4,0.1s3.2,0.3,5.7,1.3C45.9,29.9,46.5,31.5,46.8,31.7z M32.8,24
		c0.6-0.8,0.9-0.6,0.9-0.6s1.5,0.4,2.9,1c1.9,0.7,1.6,0.7,3.7,1.8c2.1,1.1,3.1,2.1,3.1,2.1l0.7,0.6c0,0-1.4-0.6-3.7-1.2
		s-4.6-0.5-4.6-0.5s-0.4-0.3-1.8-1.5c-0.9-0.7-1-0.9-1-0.9S32.6,24.2,32.8,24z M19.5,23.5c0,0,2.9-0.7,3.4-0.8
		c0.7-0.1,1.3-0.2,1.9-0.2c0.3,0,0.5-0.1,0.8,0H26h1.3h0.5l2.6,0.3l1.6,0.4c0,0,0.1,1.8,1.6,2.7c1.1,0.6,1.7,1.3,1.7,1.3
		s-0.2-0.1-2.5,0s-3.4,0.2-3.4,0.2L28,27.5c0,0.8,0-0.5,0,0.2v0.1c0,0,3.4-0.4,4.6-0.4c1.2,0,2.9,0,2.9,0s0.8,0.8,0.9,2.2
		c0,1.3-0.3,2.8-0.3,2.8s-1.2-1-3.3-2.2s-3-1.3-3.7-1.2c-0.4,0.1-0.8,0.3-1,0.4c0,0.4,0,0.7,0,0.8c0,0.1,0.4,0.7,1.3,2.2
		c0.9,1.5,1.3,2.3,1.3,2.3h-1.5c0,0-0.6,0.1-0.7-0.8c0-0.9,0.2-1.5-0.2-1.5c-0.4,0-0.4-0.1-0.6,0.3c-0.2,0.3-0.3,1.3-1.1,1.8
		c-0.9,0.6-0.3,0.6-1.7,0.7c-1.4,0-1.5,0.1-1.5,0.1s0.2-0.8,0.8-2c0.7-1.3,0.1-0.3,1-2.1c0.9-1.9,0.5-2.8,0.5-2.8V27
		c0,0.1-0.1,0-0.1,0c-0.1,0.1-0.1,0.1-0.2,0.2l0.1,0.3l-0.1,1.8c0,0-0.8,2.1-1.5,3.6c-0.7,1.5-0.8,2.1-0.8,2.1s-0.2,0.1-0.9,0
		c-1-0.2-1.1-0.2-1.8-0.7c-1.3-0.8-2.1-1.7-2.1-1.7s1.2-1,2.2-1.6c0.9-0.6,2.3-1.5,2.3-1.5l0.1-0.5c-0.4,0.3-0.6,0.4-0.6,0.4
		s-1.2,0.9-4.8,3.1c-0.3,0.2-3.7,3.8-3.7,3.8s-0.3-1.2-0.5-1.5s-0.5-0.4-0.7-0.1c-0.2,0.3-0.2,0.4-0.4,1s-0.3,3-0.3,3s0,0.5-0.7,0
		C10.6,38.3,9.9,38,8.6,36c-1.2-1.8-2-4-2-4s0-0.3,2.4-2.5s3.4-2.7,3.4-2.7l2.3-1.4l2.2-1 M26.2,39.4c-0.3-1-0.5-0.9-0.4-1.4
		s0.3-0.5,0.8-0.4s0.4,0.6,1.3,0.9c0.9,0.3,1.2,0.1,1.5,0.3s0.3,0.3,0.4,0.7s0.3,0.4,0.4,0.6c0.1,0.2,0.1,0.5,0.1,0.5s-1-0.1-2-0.1
		c-0.9,0-1.8,0.1-1.8,0.1S26.5,40.4,26.2,39.4z M24.8,35.5l-0.3,1h-1.3l0.3-1H24.8z M19.3,37.7c-0.7-0.1-0.6,0.2-1,0.3
		c-0.4,0.2-1.3,0.1-1.3,0.1s-0.2-0.2-0.1-0.5c0.2-0.3,0.7-0.4,0.7-0.7c0.1-0.3,0.3-0.5-0.1-0.6c-0.6-0.2-0.9,0.8-1.5,1.1
		s-1.2,0.3-1.6,0.1c-0.4-0.2-0.1-0.6-0.1-0.6S14,37,16,34.7c2.1-2.3,2.1-1.8,2.1-1.8s0.1,0.2,1.5,1.2c1.4,1.1,2.3,1.1,3.1,1.3
		c0.8,0.2,0.4,0.3,0.2,0.8c-0.2,0.5-0.8,1.7-1.2,1.9c-0.3,0.2-0.3,0.3-1.1,0.2C19.7,38.1,20,37.8,19.3,37.7z M20.4,39.2
		c0,0-0.8,0-1.4,0.4C18.4,40,18.1,41,18.1,41H15c0,0-0.6-0.1-0.9-0.5c-0.4-0.4-0.3-0.4-0.5-0.8c-0.2-0.4,0.1-0.4,0.7-0.7
		c0.7-0.2,0.5,0.3,1.2,0.4c0.9,0.1,0.2,0,1.4-0.1s1.6-0.6,2.1-0.8s0.6-0.2,1.1,0.1C20.7,38.9,20.4,39.2,20.4,39.2z M3.6,37.2
		c1.4-3.3,2.8-4.9,2.8-4.9s0.5,1.7,2,4s3.1,2.8,3.1,2.8s0.3,0.3-0.2,0.6c-0.5,0.2-0.5,0.3-0.9,0.8C10,41,9.7,41.2,9.3,40.9
		c-0.5-0.3,0-0.8-0.2-1.1S8.2,39.7,7.8,40c-0.4,0.2-0.8,1-0.9,1.5c-0.1,0.6,0.8,0.8,1,1C8,42.7,7.7,43.7,7.3,44
		c-0.4,0.3-0.7,0.4-2.2,0.4c-1.5-0.1-2.8-2.9-2.8-2.9S2.2,40.6,3.6,37.2z M6.6,56.7c-1.5-0.6-2.4-1.2-2.4-1.2s1.3-1,2.4-1.5
		s2.2-0.9,2.2-0.9s0,0.8,0.2,2.3c0.2,1.4,0.6,2.5,0.6,2.5S8,57.3,6.6,56.7z M9.4,55.7c-0.3-1.5-0.3-2.6-0.3-2.6s0.3-0.3,1.1-0.6
		c0.3-0.2,0.9-0.4,1.3-0.6c1.1-0.4,2.2-0.7,2.2-0.7l1.4-0.1c0,0-0.1,0.7,0.9,2.1c0.9,1.3,1.4,1.5,1.9,2.2l0.4,4.1
		c0,0-2.7-0.3-4.5-0.7C12.1,58.5,10,58,10,58S9.7,57.4,9.4,55.7z M25.5,55.8c0,0-1.2,0.1-1.6-0.1c-0.4-0.2-0.4-0.5-0.9-0.7
		s-0.9-0.1-0.9-0.1s-0.5-1-0.6-1.5s0.6-0.6,0.6-0.6s3.9,0.3,6.7,0.1c4.9-0.5,7.7-1.2,7.7-1.2s0.3,1.6,0.2,3.9
		c-0.1,1.1-0.4,3.6-0.4,3.6s-4.4,0.9-9.1,0.9c-5.9,0-8.6-0.3-8.6-0.3s-0.3-1.2-0.3-2.2c0-0.9,0-2.1,0-2.1s0.3-0.1,1.1-0.3
		c0.9-0.2,1.4,0,1.4,0s0.8,0.9,1.4,1.3c0.6,0.4,2,1,2.3,0.9c3-1.4,3.9-2.8,3.9-2.8L25.5,55.8z M36.7,51.2l-0.3-1.3
		c0,0,0.8,0.1,1.4,0.2c0.7,0.1,1.7,0.4,1.7,0.4L36.7,51.2z M40,50.6c0,0,1.2,0.1,2.4,0.4c1.3,0.3,1.4,0.3,3,0.9c0,0,0,1-0.1,2.5
		c-0.2,1.7-0.5,2.4-0.5,2.4s-2,0.6-3.7,1.1s-4.4,1-4.4,1s0.4-1.8,0.4-4.1s-0.3-3.4-0.3-3.4s0.4-0.1,1.7-0.4
		C39.6,50.8,40,50.6,40,50.6z M36.4,51.2c0,0-4,0.9-6.8,1.2c-3,0.3-5.5,0.1-6.4,0S22.1,52,22.1,52s-0.1-1,0.6-1.9
		c0.6-0.7,0.8-0.7,0.8-0.7s3.8-0.3,6.6-0.2s5.1,0.3,5.6,0.4C36.2,49.8,36.4,51.2,36.4,51.2z M14.3,65.7c-3-2.2-4.1-7.4-4.1-7.4
		s0.6,0.2,4,0.9c3.2,0.6,4.2,0.7,4.2,0.7s0.4,2.1,1.3,4c1.2,2.6,4.1,4.9,4.1,4.9S17.8,68.3,14.3,65.7z M27.2,69.1
		c-1.3,0-2.9-0.2-2.9-0.2s-2.1-1.5-4-4.4c-1-1.5-1.7-4.5-1.7-4.5s5.6,0.2,8.8,0.2c5.3-0.1,8.9-0.8,8.9-0.8S36,61.9,34,65.2
		c-1.1,1.7-3.6,3.5-3.6,3.5S29.6,69,27.2,69.1z M40.2,65.2c-3.3,2.8-9.5,3.5-9.5,3.5c1.9-1.5,2.8-2.3,3.6-3.5
		c1.9-3.1,2.3-5.9,2.3-5.9s0.9-0.1,4.1-0.9c3.4-0.9,3.9-1.1,3.9-1.1S43.1,62.8,40.2,65.2z M47,57.7c-0.4,1-1.1,2.5-2.4,4.2
		c-1.2,1.6-3.5,3-3.5,3s2-2.6,2.8-4.8c0.8-2,1.1-3,1.1-3l2.4-1.1C47.3,56,47.6,56.5,47,57.7z M48,55.4c-1.4,0.7-2.9,1.3-2.9,1.3
		s0.3-1,0.5-2.4c0.1-1.4,0.1-2.2,0.1-2.2s1.1,0.3,2.2,0.8c1.1,0.4,2.4,1.3,2.4,1.3S49.4,54.7,48,55.4z M53.5,48.8
		c-0.7,1-0.9,1.1-1,2c-0.1,0.8,0.1,1.3-0.3,2c-0.4,0.8-0.8,0.9-1.8,1c-0.4,0-1.4-0.8-2.5-1.2c-1-0.4-2.2-0.8-2.8-1.1
		c-1.3-0.5-6.9-1.9-9.9-2.2c-3.4-0.4-9.8-0.3-12.3-0.1c-1.4,0.1-5.3,0.6-8.4,1.5c-1.1,0.3-3.1,1-3.1,1S9,52.6,7.7,53.2
		C6,54,4.4,54.9,4.2,55.1c-0.5,0.4-0.8,0.6-1,0.4c-0.2-0.2-0.4-0.4-0.7-1.2c-0.3-0.7,0.1-1.9-0.2-2.5s-0.8-0.3-1-1.2
		c-0.5-1.9,0.4-3.3,0.4-3.3s1-0.9,3.7-2s5-1.8,9.4-3s7.1-1.7,12.8-1.6c6.6,0.1,10.2,0.8,12.7,1.2c4.1,0.6,9.1,2.4,11.1,3.2
		c1.9,0.8,2.4,1.6,2.5,2C54,47.9,54,48.1,53.5,48.8z"/>
	<path class="st3" d="M4.1,56.2C4,56,3.8,55.9,3.6,55.9l0,0c-0.1,0-0.2,0-0.3,0l0,0c-0.4,0-0.8-0.1-1.2-1.2l0,0
		c-0.2-0.6-0.3-1-0.3-1.3l0,0c0-0.3,0.1-0.6,0.1-0.9l0,0c0-0.2,0-0.4-0.1-0.7l0,0c-0.2-0.7-1-0.5-1.1-2.1l0,0c0-0.2,0-0.4,0-0.5l0,0
		c0-1.9,0.6-1.6,0.7-2.3l0,0c0-0.1,0-0.3,0-0.5l0,0c0-0.2,0-0.5,0-0.7l0,0c0-6.5,2.9-12.4,7.5-16.6l0,0c4.6-4.2,11-6.9,18-6.9l0,0
		c13.4,0,24.4,9.6,25.4,21.7l0,0c0.1,0.6,0.5,1.1,1.1,1.9l0,0c0.6,0.7,0.8,0.6,0.8,1.5l0,0l0,0l0,0c-0.1-0.9-0.3-0.8-0.8-1.5l0,0
		c-0.6-0.7-1.1-1.3-1.1-1.9l0,0c-1-12.1-12-21.7-25.4-21.7l0,0c-7,0-13.4,2.6-18,6.9l0,0c-4.6,4.2-7.4,10.1-7.4,16.6l0,0
		c0,0.2,0,0.4,0,0.7l0,0c0,0.2,0,0.4,0,0.5l0,0c-0.1,0.7-0.7,0.4-0.7,2.3l0,0c0,0.2,0,0.3,0,0.5l0,0c0.1,1.6,0.8,1.4,1.1,2.1l0,0
		c0,0.4,0.1,0.6,0.1,0.8l0,0c0,0.3-0.1,0.5-0.1,0.9l0,0c0,0.3,0.1,0.7,0.3,1.3l0,0c0.4,1,0.8,1.1,1.2,1.1l0,0c0.1,0,0.2,0,0.3,0l0,0
		C3.9,55.9,4,55.9,4.1,56.2L4.1,56.2c4.1,8,12.6,13,22.8,13l0,0c11,0,20.2-6.1,23.7-15.1l0,0c0.3-0.6,1,0.1,1.8-1.1l0,0
		c0.6-0.9,0.3-2.2,0.4-2.7l0,0c0.3-1.1,1.3-1.4,1.3-2.7l0,0c0-0.1,0-0.1,0-0.2l0,0l0,0l0,0c0,0.1,0,0.1,0,0.2l0,0
		c0,1.3-1,1.7-1.3,2.7l0,0c-0.1,0.5,0.1,1.8-0.4,2.7l0,0c-0.8,1.3-1.6,0.5-1.8,1.1l0,0c-3.5,9.1-12.7,15.2-23.8,15.2l0,0
		C16.7,69.3,8.2,64.2,4.1,56.2L4.1,56.2z M24.3,68.9c0,0-2.1-1.5-4-4.4l0,0c-1-1.5-1.6-4.5-1.6-4.5l0,0l0,0l0,0c0,0,4.4,0.2,7.6,0.2
		l0,0c0.4,0,0.8,0,1.2,0l0,0c5.3-0.1,8.9-0.8,8.9-0.8l0,0l0,0l0,0c0,0-0.3,2.5-2.4,5.9l0,0c-1.1,1.7-3.6,3.5-3.6,3.5l0,0
		c0,0-0.7,0.3-3.2,0.3l0,0h-0.1l0,0C25.7,69.1,24.3,68.9,24.3,68.9L24.3,68.9z M27,69h0.1l0,0c2.4,0,3.1-0.3,3.1-0.3l0,0
		c0,0,2.5-1.8,3.6-3.5l0,0c1.9-3.2,2.3-5.5,2.3-5.8l0,0c-0.4,0.1-3.8,0.7-8.9,0.8l0,0c-0.4,0-0.8,0-1.2,0l0,0c-3,0-7.1-0.2-7.5-0.2
		l0,0c0.1,0.3,0.7,3.1,1.6,4.4l0,0c1.9,2.9,4,4.4,4,4.4l0,0C24.3,68.8,25.7,69,27,69L27,69z M30.6,68.7c1.9-1.5,2.8-2.3,3.6-3.5l0,0
		c1.9-3,2.3-5.9,2.3-5.9l0,0l0,0l0,0c0,0,0.9-0.1,4.1-0.9l0,0c3.4-0.9,3.9-1.1,3.9-1.1l0,0l0,0v0.1c0,0-1.6,5.6-4.4,8l0,0
		C36.9,68,30.7,68.8,30.6,68.7L30.6,68.7L30.6,68.7L30.6,68.7L30.6,68.7z M34.2,65.2c-0.8,1.2-1.6,2-3.5,3.5l0,0
		c0.4,0,1.8-0.2,3.4-0.7l0,0c2-0.5,4.4-1.4,6-2.8l0,0c1.4-1.2,2.5-3.2,3.3-4.9l0,0c0.7-1.5,1-2.8,1.1-3l0,0c-0.2,0.1-1,0.4-3.9,1.1
		l0,0c-2.9,0.8-4,0.9-4.1,0.9l0,0C36.5,59.6,36.1,62.3,34.2,65.2L34.2,65.2z M23.8,68.8c0,0-6-0.4-9.5-3l0,0l0,0l0,0
		c1.7,1.3,4.1,2,6,2.5l0,0C22,68.5,23.4,68.7,23.8,68.8L23.8,68.8c-0.5-0.4-3-2.5-4.1-4.9l0,0c-0.8-1.8-1.3-3.7-1.3-4l0,0
		c-0.2,0-1.2-0.1-4.2-0.7l0,0c-2.9-0.6-3.7-0.8-3.9-0.9l0,0c0.1,0.2,0.3,1.4,0.9,2.8l0,0c0.7,1.6,1.7,3.4,3.2,4.5l0,0l0,0l0,0
		c-3-2.2-4.1-7.4-4.1-7.4l0,0l0,0l0,0c0,0,0.6,0.2,4,0.9l0,0c3.2,0.6,4.2,0.7,4.2,0.7l0,0l0,0l0,0c0,0,0.5,2.1,1.3,4l0,0
		C21,66.5,23.8,68.7,23.8,68.8L23.8,68.8L23.8,68.8L23.8,68.8L23.8,68.8z M41.1,64.9c0,0,1.9-2.6,2.8-4.8l0,0c0.8-2,1.1-3,1.1-3l0,0
		l0,0l2.4-1.1l0,0c0,0,0,0.1,0,0.3l0,0c0,0.3-0.1,0.7-0.4,1.4l0,0c-0.4,1-1.1,2.5-2.4,4.2l0,0C43.5,63.5,41.1,65,41.1,64.9
		L41.1,64.9L41.1,64.9L41.1,64.9z M43.9,60.1c-0.7,2-2.3,4.2-2.7,4.7l0,0c0.5-0.3,2.4-1.6,3.4-2.9l0,0c1.3-1.7,2-3.2,2.4-4.2l0,0
		c0.3-0.7,0.4-1.2,0.4-1.4l0,0c0-0.1,0-0.2,0-0.3l0,0L45,57.1C44.9,57.3,44.6,58.2,43.9,60.1L43.9,60.1z M18.6,59.7L18.6,59.7
		L18.6,59.7c0,0-0.3-1.3-0.3-2.2l0,0c0-0.6,0-1.4,0-1.8l0,0c0-0.2,0-0.3,0-0.3l0,0l0,0l0,0c0,0,0.3-0.1,1.1-0.3l0,0
		C19.8,55,20,55,20.3,55l0,0c0.4,0,0.5,0,0.6,0.1l0,0c0,0,0.8,0.9,1.4,1.3l0,0c0.6,0.3,1.8,1,2.2,0.9l0,0h0.1l0,0
		c1.5-0.7,2.5-1.4,3.1-1.9l0,0c0.4-0.4,0.6-0.7,0.7-0.8l0,0l-2.8,1.3l0,0l0,0c0,0-0.3,0-0.7,0l0,0c-0.3,0-0.7,0-0.9-0.1l0,0
		c-0.4-0.2-0.4-0.5-0.9-0.7l0,0C22.9,55,22.7,55,22.5,55l0,0c-0.2,0-0.3,0-0.3,0l0,0l0,0l0,0c0,0-0.5-1-0.6-1.5l0,0v-0.1l0,0
		c0-0.5,0.7-0.6,0.7-0.6l0,0c0,0,2,0.2,4.1,0.2l0,0c0.9,0,1.8,0,2.6-0.1l0,0c4.9-0.5,7.7-1.2,7.7-1.2l0,0l0,0l0,0l0,0l0,0l0,0l0,0
		l0,0l0,0c0,0.2,0.3,1.4,0.3,3.1l0,0c0,0.2,0,0.5,0,0.7l0,0c-0.1,1.1-0.4,3.6-0.4,3.6l0,0l0,0l0,0c0,0-4.4,0.9-9.1,0.9l0,0
		C21.3,60,18.6,59.7,18.6,59.7L18.6,59.7z M27.2,59.9c2.4,0,4.6-0.2,6.3-0.5l0,0c1.6-0.2,2.6-0.4,2.7-0.5l0,0c0-0.2,0.4-2.5,0.4-3.6
		l0,0c0-0.2,0-0.5,0-0.7l0,0c0-1.7-0.2-2.9-0.3-3.1l0,0c-0.3,0.1-3.1,0.8-7.7,1.2l0,0c-0.8,0.1-1.7,0.1-2.6,0.1l0,0
		c-2.1,0-4.1-0.2-4.1-0.2l0,0c0,0-0.6,0.1-0.6,0.5l0,0v0.1l0,0c0.1,0.5,0.5,1.4,0.6,1.5l0,0c0,0,0.2,0,0.3,0l0,0
		c0.2,0,0.4,0,0.6,0.1l0,0c0.5,0.2,0.5,0.5,0.9,0.7l0,0c0.2,0.1,0.6,0.1,0.9,0.1l0,0c0.3,0,0.7,0,0.7,0l0,0l2.9-1.4v0.1
		c0,0-0.8,1.4-3.9,2.8l0,0h-0.1l0,0c-0.4,0-1.6-0.6-2.2-1l0,0c-0.6-0.4-1.4-1.3-1.4-1.3l0,0c0,0-0.2-0.1-0.5-0.1l0,0
		c-0.2,0-0.5,0-0.9,0.1l0,0c-0.7,0.2-1,0.3-1.1,0.3l0,0c0,0,0,0.1,0,0.3l0,0c0,0.4,0,1.2,0,1.8l0,0c0,0.9,0.3,2,0.3,2.2l0,0
		C18.9,59.7,21.6,59.9,27.2,59.9L27.2,59.9z M18.3,59.6c0,0-2.7-0.3-4.5-0.7l0,0C12.1,58.5,10,58,10,58l0,0l0,0l0,0
		c0,0-0.3-0.7-0.7-2.3l0,0l0,0l0,0c0.3,1.6,0.6,2.2,0.7,2.3l0,0c0.2,0,2.1,0.5,3.8,0.8l0,0C15.5,59.2,18,59.5,18.3,59.6L18.3,59.6
		l-0.4-4.1c-0.5-0.7-1-0.9-1.9-2.2l0,0c-0.8-1.2-0.9-1.9-0.9-2.1l0,0l-1.4,0.1c0,0-1.1,0.3-2.2,0.7l0,0c-0.4,0.2-1,0.4-1.3,0.6l0,0
		c-0.7,0.3-1,0.6-1.1,0.6l0,0c0,0.1,0,1.2,0.3,2.5l0,0l0,0l0,0c-0.3-1.5-0.3-2.6-0.3-2.6l0,0l0,0l0,0c0,0,0.3-0.3,1.1-0.6l0,0
		c0.3-0.1,0.9-0.4,1.3-0.6l0,0c1.1-0.4,2.2-0.7,2.2-0.7l0,0l1.4-0.1l0,0l0,0l0,0c0,0.1,0,0.8,0.9,2l0,0c0.9,1.3,1.4,1.5,1.9,2.2l0,0
		L18.3,59.6L18.3,59.6L18.3,59.6z M36.6,59c0,0,0.4-1.8,0.4-4.1l0,0c0-2.3-0.3-3.4-0.3-3.4l0,0l0,0l0,0c0,0,0.4-0.1,1.7-0.4l0,0
		c1.2-0.3,1.6-0.4,1.6-0.4l0,0l0,0l0,0c0,0,1.2,0.1,2.4,0.4l0,0c1.3,0.3,1.4,0.3,3,1l0,0l0,0l0,0c0,0,0,0.1,0,0.3l0,0
		c0,0.4,0,1.2-0.2,2.2l0,0C45,56.3,44.7,57,44.7,57l0,0l0,0l0,0c0,0-2,0.6-3.7,1.1l0,0C39.3,58.5,36.6,59,36.6,59L36.6,59L36.6,59
		L36.6,59L36.6,59z M37,54.8c0,2.1-0.3,3.8-0.4,4.1l0,0c0.3-0.1,2.8-0.5,4.4-1l0,0c1.6-0.5,3.6-1,3.7-1.1l0,0c0-0.1,0.3-0.8,0.5-2.4
		l0,0c0.1-1,0.2-1.8,0.2-2.2l0,0c0-0.1,0-0.2,0-0.3l0,0c-1.5-0.6-1.7-0.6-2.9-0.9l0,0c-1.2-0.3-2.3-0.4-2.4-0.4l0,0
		c-0.1,0-0.5,0.2-1.6,0.4l0,0c-1.1,0.2-1.5,0.4-1.6,0.4l0,0C36.8,51.6,37,52.7,37,54.8L37,54.8z M9.6,57.9c0,0-1.6-0.6-3.1-1.2l0,0
		l0,0l0,0C7.9,57.2,9.3,57.7,9.6,57.9L9.6,57.9c-0.1-0.3-0.4-1.2-0.6-2.5l0,0c-0.2-1.3-0.2-2.1-0.2-2.3l0,0
		c-0.2,0.1-1.2,0.4-2.2,0.9l0,0c-1,0.5-2.2,1.3-2.4,1.4l0,0c0.2,0.1,1.1,0.6,2.4,1.2l0,0l0,0l0,0c-1.5-0.6-2.4-1.2-2.4-1.2l0,0l0,0
		l0,0c0,0,1.3-1,2.4-1.5l0,0C7.7,53.4,8.8,53,8.8,53l0,0l0,0l0,0c0,0,0,0.8,0.2,2.3l0,0C9.3,56.9,9.7,57.9,9.6,57.9L9.6,57.9
		L9.6,57.9L9.6,57.9L9.6,57.9z M45.1,56.7c0,0,0.3-1,0.5-2.4l0,0c0.1-1,0.1-1.8,0.1-2.1l0,0c0-0.1,0-0.1,0-0.1l0,0l0,0l0,0
		c0,0,1.1,0.3,2.2,0.8l0,0c1.1,0.4,2.4,1.3,2.4,1.3l0,0l0,0l0,0c0,0-0.9,0.6-2.2,1.2l0,0C46.6,56.1,45.1,56.7,45.1,56.7L45.1,56.7
		L45.1,56.7L45.1,56.7L45.1,56.7z M45.7,52.3c0,0.3,0,1-0.1,2.1l0,0c-0.1,1.2-0.4,2.1-0.5,2.3l0,0c0.3-0.1,1.6-0.7,2.8-1.3l0,0
		c1.2-0.6,2-1.1,2.2-1.2l0,0c-0.2-0.1-1.3-0.9-2.3-1.3l0,0c-1-0.4-2-0.7-2.1-0.7l0,0C45.7,52.2,45.7,52.2,45.7,52.3L45.7,52.3z
		 M3.1,55.5c-0.2-0.2-0.4-0.4-0.7-1.2l0,0c-0.1-0.2-0.1-0.5-0.1-0.8l0,0c0-0.3,0-0.7,0-1l0,0c0-0.3,0-0.5-0.1-0.7l0,0
		c-0.3-0.6-0.7-0.3-1-1.2l0,0c-0.1-0.4-0.1-0.8-0.1-1.1l0,0c0-1.3,0.6-2.2,0.6-2.2l0,0c0,0,1-0.9,3.7-2l0,0c2.7-1.1,5-1.8,9.4-3l0,0
		c4.2-1.1,6.8-1.6,11.9-1.6l0,0c0.3,0,0.6,0,0.8,0l0,0c6.6,0.1,10.2,0.8,12.7,1.2l0,0c4.1,0.6,9.1,2.4,11.1,3.2l0,0
		c1.9,0.8,2.5,1.6,2.5,2l0,0c0.1,0.3,0.1,0.6,0.1,0.8l0,0c0,0.3-0.1,0.6-0.4,1l0,0l0,0l0,0c-0.7,1-0.9,1.1-0.9,1.9l0,0
		c-0.1,0.8,0.1,1.3-0.3,2l0,0c-0.4,0.8-0.9,0.9-1.8,1l0,0l0,0l0,0c-0.5,0-1.5-0.7-2.5-1.2l0,0c-1-0.4-2.2-0.8-2.8-1.1l0,0
		c-1.3-0.5-6.9-1.9-9.9-2.2l0,0c-1.6-0.2-3.9-0.3-6.1-0.3l0,0c-2.5,0-4.8,0.1-6.2,0.2l0,0c-1.4,0.1-5.3,0.6-8.4,1.5l0,0
		c-1.1,0.3-3.1,1-3.1,1l0,0c0,0-2.3,0.9-3.6,1.5l0,0C6,54,4.5,54.9,4.2,55.1l0,0c-0.4,0.3-0.6,0.5-0.8,0.5l0,0l0,0l0,0
		C3.3,55.6,3.2,55.6,3.1,55.5L3.1,55.5z M1.1,49.5c0,0.3,0,0.7,0.1,1.1l0,0c0.2,0.9,0.7,0.6,1,1.2l0,0c0.1,0.2,0.1,0.5,0.1,0.7l0,0
		c0,0.3,0,0.7,0,1l0,0c0,0.3,0,0.6,0.1,0.8l0,0c0.3,0.8,0.5,1,0.7,1.2l0,0c0.1,0,0.1,0.1,0.2,0.1l0,0c0.2,0,0.4-0.1,0.8-0.5l0,0
		C4.4,54.8,6,54,7.7,53.2l0,0c1.3-0.6,3.6-1.5,3.6-1.5l0,0c0,0,2-0.7,3.1-1l0,0c3.1-0.8,7-1.3,8.4-1.5l0,0c1.3-0.1,3.7-0.2,6.2-0.2
		l0,0c2.2,0,4.5,0.1,6.1,0.3l0,0c3,0.3,8.7,1.7,9.9,2.2l0,0c0.6,0.2,1.8,0.6,2.8,1.1l0,0c1,0.4,2,1.2,2.5,1.2l0,0l0,0l0,0
		c0.9-0.1,1.3-0.2,1.7-1l0,0c0.4-0.7,0.3-1.2,0.3-2l0,0c0.1-0.8,0.3-1,1-2l0,0c0.3-0.4,0.4-0.6,0.4-1l0,0c0-0.2,0-0.4-0.1-0.7l0,0
		c-0.1-0.3-0.6-1.1-2.5-2l0,0c-1.9-0.8-6.9-2.6-11.1-3.2l0,0c-2.6-0.4-6.1-1.1-12.7-1.2l0,0c-0.3,0-0.6,0-0.8,0l0,0
		c-5.1,0-7.7,0.5-11.9,1.6l0,0c-4.4,1.2-6.7,1.8-9.4,3l0,0c-2.7,1.1-3.7,2-3.7,2l0,0C1.7,47.3,1.1,48.2,1.1,49.5L1.1,49.5z
		 M23.2,52.5c-0.9-0.1-1.1-0.4-1.1-0.4l0,0c0,0,0-0.1,0-0.2l0,0c0-0.3,0.1-1.1,0.6-1.7l0,0c0.6-0.7,0.8-0.8,0.8-0.8l0,0
		c0,0,2.9-0.2,5.5-0.2l0,0c0.4,0,0.7,0,1.1,0l0,0c2.8,0.1,5.1,0.3,5.6,0.4l0,0c0.5,0.1,0.6,1.5,0.7,1.6l0,0l0,0l0,0l0,0l0,0
		c0,0-4,0.9-6.8,1.2l0,0c-1.2,0.1-2.4,0.2-3.3,0.2l0,0C24.8,52.7,23.7,52.6,23.2,52.5L23.2,52.5z M22.3,52.2
		c0.2,0.1,0.4,0.2,0.9,0.2l0,0c0.5,0,1.6,0.1,3,0.1l0,0c1,0,2.1,0,3.3-0.2l0,0c2.7-0.3,6.5-1.1,6.8-1.2l0,0c0-0.1,0-0.4-0.1-0.7l0,0
		c-0.1-0.4-0.3-0.7-0.5-0.8l0,0c-0.5-0.1-2.8-0.3-5.6-0.4l0,0c-0.3,0-0.7,0-1.1,0l0,0c-2.6,0-5.5,0.2-5.5,0.2l0,0c0,0,0,0-0.2,0.1
		l0,0c-0.1,0.1-0.3,0.3-0.6,0.6l0,0c-0.6,0.6-0.6,1.3-0.6,1.6l0,0c0,0.1,0,0.2,0,0.2l0,0C22.1,52.1,22.2,52.2,22.3,52.2L22.3,52.2z
		 M36.3,49.8L36.3,49.8c0,0,0.8,0.1,1.4,0.2l0,0c0.7,0.1,1.7,0.4,1.7,0.4l0,0h0.1l-2.9,0.7l0,0L36.3,49.8L36.3,49.8z M36.7,51.2
		L36.7,51.2L36.7,51.2L36.7,51.2z M36.7,51.1l2.6-0.6c-0.3-0.1-1-0.3-1.6-0.4l0,0c-0.5-0.1-1.2-0.2-1.4-0.2l0,0L36.7,51.1L36.7,51.1
		z M5.7,44.4c-0.2,0-0.3,0-0.5,0l0,0c-1.5-0.1-2.9-2.9-2.9-2.9l0,0l0,0l0,0c0-0.2,0.1-1.2,1.3-4.2l0,0C5,34,6.4,32.4,6.4,32.4l0,0
		l0,0l0,0c0,0,0.5,1.7,1.9,4l0,0c1.4,2.3,3.1,2.8,3.1,2.8l0,0c0,0,0.1,0.1,0.1,0.3l0,0c0,0.1-0.1,0.2-0.3,0.3l0,0
		c-0.5,0.2-0.5,0.3-0.9,0.8l0,0C10.1,40.9,9.8,41,9.6,41l0,0c-0.1,0-0.3-0.1-0.5-0.2l0,0c0,0-0.1-0.2-0.1-0.3l0,0
		c0-0.2,0.1-0.4,0.1-0.5l0,0c0-0.1,0-0.1,0-0.1l0,0c0-0.1-0.2-0.1-0.3-0.1l0,0c-0.3,0-0.7,0.2-1,0.3l0,0C7.4,40.3,7,41,6.9,41.6l0,0
		c0,0,0,0,0,0.1l0,0c0,0.5,0.8,0.7,1,0.9l0,0c0,0.1,0,0.1,0,0.2l0,0c0,0.4-0.3,1.1-0.6,1.3l0,0C7,44.3,6.7,44.4,5.7,44.4L5.7,44.4
		L5.7,44.4L5.7,44.4z M5.1,44.4c0.2,0,0.4,0,0.5,0l0,0c1,0,1.3-0.2,1.6-0.4l0,0c0.3-0.2,0.6-0.9,0.6-1.3l0,0c0-0.1,0-0.1,0-0.2l0,0
		c-0.1-0.2-1-0.4-1-1l0,0c0,0,0,0,0-0.1l0,0c0.1-0.6,0.5-1.3,0.9-1.5l0,0c0.3-0.2,0.7-0.3,1-0.3l0,0c0.2,0,0.3,0,0.4,0.1l0,0
		c0,0.1,0,0.1,0,0.2l0,0c0,0.2-0.1,0.4-0.1,0.5l0,0c0,0.1,0,0.2,0.2,0.3l0,0C9.4,41,9.6,41,9.7,41l0,0c0.2,0,0.5-0.1,0.7-0.4l0,0
		c0.4-0.4,0.4-0.6,0.9-0.8l0,0c0.2-0.1,0.3-0.2,0.3-0.3l0,0c0-0.1-0.1-0.2-0.1-0.2l0,0c0,0-1.7-0.6-3.1-2.9l0,0
		c-1.3-2.1-1.8-3.7-1.9-4l0,0c-0.2,0.2-1.5,1.8-2.8,4.8l0,0c-1.3,3-1.3,4-1.3,4.2l0,0l0,0l0,0C2.4,41.6,3.7,44.3,5.1,44.4L5.1,44.4z
		 M44.6,42.4L44,42.2l0,0c-0.1,0-0.2-0.1-0.8-1.5l0,0c-0.4-1-0.6-1.3-0.6-1.4l0,0l0,0l0,0l0,0l0,0l0,0l0,0l0,0l0,0l0,0l0,0l0,0l0,0
		c0,0,0.1,0,0.1-0.1l0,0c0.1-0.1,0.3-0.2,0.5-0.4l0,0c0.4-0.3,1-0.9,1.9-1.7l0,0c1.7-1.6,2.2-4.6,2.2-4.6l0,0l0,0l0,0
		c0,0,0.5,0.6,1.3,1.8l0,0l0,0l0,0c-0.7-1.1-1.2-1.6-1.3-1.8l0,0c-0.1,0.4-0.6,3.1-2.2,4.6l0,0c-1.5,1.4-2.3,2-2.5,2.1l0,0
		c0,0.1,0.2,0.4,0.6,1.4l0,0c0.5,1.3,0.7,1.5,0.7,1.5l0,0L44.6,42.4c0,0,0.1,0,0.4,0l0,0c0.2,0,0.6-0.1,1-0.3l0,0
		c0.7-0.4,0.7-1,0.7-1.2l0,0c0.1-0.2,0.4-0.3,0.7-0.3l0,0c0.1,0,0.2,0,0.3,0.1l0,0l0,0l0,0c0.1,0,0.1-0.1,0.1-0.2l0,0
		c0-0.3-0.1-0.7-0.1-1.2l0,0c0-0.4,0-0.8,0.2-1.1l0,0c0.3-0.6,0.5-0.6,0.8-0.7l0,0c0.3-0.1,0.8-0.1,1-0.6l0,0c0-0.1,0-0.1,0-0.2l0,0
		c0-0.5-0.5-1.1-1.2-2.3l0,0l0,0l0,0c0.7,1.1,1.2,1.8,1.2,2.3l0,0c0,0.1,0,0.1,0,0.2l0,0c-0.2,0.6-0.7,0.6-1,0.7l0,0
		c-0.3,0.1-0.5,0.1-0.8,0.7l0,0c-0.2,0.3-0.2,0.7-0.2,1.1l0,0c0,0.5,0.1,0.9,0.1,1.2l0,0c0,0.2,0,0.3-0.1,0.3l0,0c0,0,0,0-0.1,0l0,0
		c-0.1,0-0.2-0.1-0.3-0.1l0,0c-0.3,0-0.6,0.2-0.7,0.3l0,0c-0.1,0.2,0,0.8-0.8,1.3l0,0c-0.4,0.3-0.8,0.3-1,0.3l0,0
		C44.7,42.5,44.6,42.4,44.6,42.4L44.6,42.4z M42.6,39.2L42.6,39.2L42.6,39.2L42.6,39.2z M43.5,42.2c0,0-1.2-0.3-2.6-0.5l0,0
		c-1.2-0.2-2.4-0.3-2.4-0.3l0,0h-0.1h0.1c0,0,1.1-0.5,2-0.9l0,0c1-0.4,1.8-0.9,1.8-0.9l0,0l0,0l0,0c0,0,0.2,0.4,0.6,1.2l0,0
		C43.4,41.8,43.6,42.2,43.5,42.2L43.5,42.2L43.5,42.2L43.5,42.2L43.5,42.2z M40.9,41.7c1.3,0.2,2.4,0.5,2.6,0.5l0,0
		c-0.1-0.1-0.2-0.6-0.6-1.4l0,0c-0.3-0.7-0.5-1.1-0.5-1.2l0,0c-0.1,0.1-0.9,0.5-1.8,0.8l0,0c-0.8,0.3-1.7,0.8-2,0.9l0,0
		C38.9,41.4,39.9,41.5,40.9,41.7L40.9,41.7z M38.1,41.3L38.1,41.3L38.1,41.3c-0.1,0-0.2,0-0.3-0.1l0,0c-0.3-0.1-0.9-0.1-2-0.3l0,0
		c-1.7-0.2-2.1-0.2-2.2-0.2l0,0l0,0l0,0l0,0l0,0l0,0l0,0l0,0c-0.1,0-0.2,0-0.4-0.6l0,0c-0.2-0.6-0.3-0.8-0.3-1.5l0,0
		c0-0.1,0-0.1,0-0.2l0,0c0-1.2,0.3-1.5,0.9-2.8l0,0c0.7-1.6,2.5-2.8,2.5-2.8l0,0l0,0l0,0c0,0,1,0.7,3,2.7l0,0
		c2.1,2.1,3.1,3.8,3.1,3.8l0,0l0,0l0,0c0,0-0.2,0.1-1.9,0.9l0,0C38.5,41,38.1,41.3,38.1,41.3L38.1,41.3L38.1,41.3L38.1,41.3
		L38.1,41.3z M38.1,41.2L38.1,41.2L38.1,41.2L38.1,41.2z M35.8,40.9c1.9,0.2,2.3,0.3,2.3,0.3l0,0c0.1,0,0.6-0.3,2.2-1.1l0,0
		c1.4-0.7,1.8-0.8,1.9-0.9l0,0c-0.1-0.2-1.1-1.8-3.1-3.7l0,0c-1.9-1.8-2.9-2.6-3-2.7l0,0c-0.2,0.1-1.8,1.3-2.5,2.8l0,0
		c-0.6,1.4-0.8,1.6-0.9,2.8l0,0c0,0.1,0,0.1,0,0.2l0,0c0,0.7,0.1,0.9,0.3,1.5l0,0c0.2,0.6,0.4,0.6,0.4,0.6l0,0l0,0l0,0
		c0,0,0,0,0.1,0l0,0C33.6,40.7,34.1,40.7,35.8,40.9L35.8,40.9z M14.9,41c0,0-0.6-0.1-1-0.5l0,0c-0.4-0.4-0.3-0.4-0.5-0.8l0,0
		c0-0.1-0.1-0.2-0.1-0.2l0,0c0-0.2,0.3-0.3,0.8-0.5l0,0c0.1,0,0.2-0.1,0.3-0.1l0,0c0.4,0,0.4,0.4,1,0.4l0,0c0.3,0,0.4,0,0.5,0l0,0
		c0.2,0,0.1-0.1,0.9-0.2l0,0c1.2-0.1,1.6-0.6,2.1-0.8l0,0c0.2-0.1,0.4-0.1,0.5-0.1l0,0c0.2,0,0.3,0.1,0.6,0.2l0,0
		c0.3,0.1,0.4,0.3,0.4,0.4l0,0c0,0.1-0.1,0.2-0.1,0.2l0,0l0,0l0,0c0,0-0.8,0-1.4,0.4l0,0C18.4,40,18.1,41,18.1,41l0,0l0,0H14.9
		L14.9,41z M18.1,41c0-0.1,0.4-1.1,1-1.4l0,0c0.6-0.4,1.3-0.4,1.4-0.4l0,0c0,0,0.1-0.1,0.1-0.2l0,0c0-0.1-0.1-0.3-0.3-0.4l0,0
		c-0.3-0.1-0.4-0.2-0.6-0.2l0,0c-0.1,0-0.3,0.1-0.5,0.1l0,0c-0.5,0.2-0.9,0.7-2.1,0.8l0,0c-0.8,0.1-0.7,0.2-0.9,0.2l0,0
		c-0.1,0-0.2,0-0.5,0l0,0c-0.6-0.1-0.6-0.5-1-0.4l0,0c-0.1,0-0.2,0-0.3,0.1l0,0c-0.5,0.2-0.8,0.3-0.8,0.4l0,0c0,0.1,0,0.1,0.1,0.2
		l0,0c0.2,0.4,0.1,0.4,0.4,0.8l0,0C14.4,40.8,15,41,15,41l0,0H18.1L18.1,41z M20.4,39.2L20.4,39.2L20.4,39.2L20.4,39.2z M33.5,40.7
		L33.5,40.7L33.5,40.7L33.5,40.7z M30.2,40.6c0,0-1-0.1-2-0.2l0,0c-0.1,0-0.3,0-0.4,0l0,0c-0.8,0-1.4,0.1-1.4,0.1l0,0l0,0l0,0l0,0
		l0,0l0,0l0,0c0-0.1,0-0.3-0.3-1l0,0l0,0l0,0c0.2,0.7,0.3,1,0.3,1.1l0,0l0,0l0,0c0.1,0,0.7-0.1,1.4-0.1l0,0c0.1,0,0.3,0,0.4,0l0,0
		C29.1,40.4,30.1,40.5,30.2,40.6L30.2,40.6C30.2,40.5,30.2,40.5,30.2,40.6L30.2,40.6c0-0.2,0-0.3-0.1-0.5l0,0
		c-0.1-0.2-0.3-0.2-0.4-0.6l0,0c-0.1-0.4,0-0.5-0.4-0.7l0,0c-0.3-0.2-0.6,0-1.5-0.3l0,0c-0.9-0.3-0.8-0.8-1.3-0.9l0,0
		c-0.2,0-0.3-0.1-0.4-0.1l0,0c-0.2,0-0.3,0.1-0.4,0.4l0,0c0,0.1,0,0.2,0,0.2l0,0c0,0.3,0.2,0.3,0.4,1.2l0,0l0,0l0,0
		c-0.3-0.8-0.4-0.9-0.4-1.2l0,0c0-0.1,0-0.1,0-0.2l0,0c0.1-0.3,0.2-0.5,0.4-0.5l0,0c0.1,0,0.2,0,0.4,0.1l0,0
		c0.5,0.1,0.4,0.6,1.3,0.9l0,0c0.9,0.3,1.2,0.1,1.5,0.3l0,0c0.3,0.2,0.3,0.3,0.4,0.7l0,0c0.1,0.4,0.2,0.4,0.4,0.6l0,0
		c0.1,0.1,0.1,0.3,0.1,0.4l0,0C30.3,40.5,30.3,40.6,30.2,40.6L30.2,40.6L30.2,40.6L30.2,40.6L30.2,40.6z M11.3,38.8
		c-0.7-0.5-1.4-0.9-2.7-2.8l0,0c-1.2-1.8-2-4-2-4l0,0c0,0,0-0.3,2.4-2.5l0,0c2.4-2.2,3.4-2.7,3.5-2.7l0,0l2.3-1.4l2.2-1v0.1l-2.2,1
		l-2.3,1.4c0,0-1.1,0.5-3.4,2.7l0,0c-1.8,1.7-2.2,2.2-2.3,2.4l0,0v0.1l0,0c0,0.1,0.8,2.3,2,4l0,0C9.9,37.9,10.6,38.3,11.3,38.8
		L11.3,38.8c0.3,0.1,0.4,0.2,0.5,0.2l0,0c0.2,0,0.2-0.1,0.2-0.2l0,0l0,0l0,0c0,0,0.2-2.5,0.3-3l0,0c0.2-0.6,0.2-0.7,0.4-1l0,0
		c0.1-0.2,0.2-0.2,0.3-0.2l0,0c0.2,0,0.3,0.1,0.4,0.3l0,0c0.2,0.3,0.5,1.2,0.5,1.4l0,0c0.4-0.4,3.4-3.6,3.7-3.8l0,0
		c3.7-2.2,4.8-3.1,4.8-3.1l0,0c0,0,0.2-0.2,0.6-0.4l0,0l0,0l0,0.5l0,0c0,0-1.4,0.9-2.3,1.5l0,0c-0.9,0.6-2,1.5-2.1,1.6l0,0
		c0.1,0.1,0.9,0.9,2.1,1.6l0,0c0.7,0.4,0.8,0.5,1.7,0.7l0,0C22.6,35,22.9,35,23,35l0,0c0.2,0,0.2,0,0.3,0l0,0c0-0.1,0.2-0.7,0.8-2.1
		l0,0c0.7-1.5,1.5-3.6,1.5-3.6l0,0l0.1-1.8l-0.1-0.3l0,0c0.1-0.1,0.1-0.1,0.2-0.2l0,0l0,0l0,0c0.1,0,0.1,0.1,0.1,0.1l0,0l0,0l0,0H26
		v1.2c0,0,0.1,0.2,0.1,0.6l0,0c0,0.5-0.1,1.2-0.6,2.3l0,0c-0.8,1.9-0.3,0.8-1,2.1l0,0c-0.6,1.1-0.7,1.8-0.8,2l0,0
		c0.1,0,0.4,0,1.5-0.1l0,0c1.4,0,0.8-0.1,1.7-0.7l0,0c0.8-0.6,0.9-1.5,1.1-1.8l0,0c0.1-0.2,0.2-0.3,0.4-0.3l0,0c0.1,0,0.1,0,0.3,0
		l0,0c0.2,0,0.2,0.2,0.2,0.4l0,0c0,0.2,0,0.5,0,0.9l0,0c0,0.1,0,0.1,0,0.2l0,0c0,0.7,0.4,0.8,0.6,0.8l0,0h0.1l0,0H31
		c-0.1-0.2-0.5-0.9-1.3-2.2l0,0c-0.9-1.5-1.3-2-1.3-2.2l0,0l0,0l0,0v-0.1l0,0c0-0.1,0-0.3,0-0.6l0,0l0,0l0,0c0.2-0.1,0.5-0.3,1-0.4
		l0,0c0.1,0,0.3-0.1,0.5-0.1l0,0c0.7,0,1.6,0.3,3.2,1.2l0,0c1.9,1,3.1,2,3.3,2.1l0,0c0.1-0.2,0.3-1.4,0.3-2.6l0,0c0-0.1,0-0.1,0-0.2
		l0,0c0-1.3-0.8-2-0.8-2.1l0,0c-0.1,0-0.8,0-1.6,0l0,0c-0.4,0-0.9,0-1.3,0l0,0c-1.2,0-4.6,0.4-4.6,0.4l0,0l0,0l0,0v-0.1
		c0-0.1,0-0.1,0-0.2l0,0v-0.1l0,0l0,0l0,0l0,0l1.4-0.1c0,0,1.1-0.1,3.4-0.2l0,0c0.8,0,1.3,0,1.7,0l0,0c0.5,0,0.7,0,0.8,0l0,0
		C35.5,27,35,26.5,34,25.9l0,0c-1.5-0.8-1.6-2.5-1.6-2.7l0,0l-1.6-0.4l-2.6-0.3h-0.5h-1.3H26c-0.1,0-0.2,0-0.3,0l0,0
		c-0.2,0-0.3,0-0.5,0l0,0c-0.6,0-1.2,0.1-1.9,0.2l0,0c-0.5,0.1-3.4,0.7-3.4,0.8l0,0v-0.1c0,0,2.9-0.7,3.4-0.8l0,0
		c0.7-0.1,1.3-0.2,1.9-0.2l0,0c0.2,0,0.3,0,0.5,0l0,0c0.1,0,0.2,0,0.3,0l0,0h0.4h1.3h0.5l2.6,0.3l1.7,0.4l0,0c0,0,0.1,1.8,1.6,2.7
		l0,0c1.1,0.7,1.7,1.3,1.7,1.3l0,0l0,0c0,0,0,0-0.1,0l0,0c-0.1,0-0.3,0-0.7,0l0,0c-0.4,0-0.9,0-1.7,0l0,0c-2.3,0.1-3.4,0.2-3.4,0.2
		l0,0l-1.4,0.1c0,0.1,0,0.2,0,0.2l0,0c0,0,0,0,0,0.1l0,0l0,0l0,0v0.1c0.3,0,3.4-0.4,4.6-0.4l0,0c0.4,0,0.8,0,1.3,0l0,0
		c0.8,0,1.6,0,1.6,0l0,0l0,0l0,0c0,0,0.8,0.8,0.9,2.2l0,0c0,0.1,0,0.1,0,0.2l0,0c0,1.3-0.3,2.6-0.3,2.6l0,0l0,0l0,0
		c0,0-1.2-1-3.3-2.2l0,0c-1.7-0.9-2.6-1.2-3.2-1.2l0,0c-0.2,0-0.3,0-0.5,0.1l0,0c-0.4,0.1-0.8,0.3-0.9,0.4l0,0c0,0.3,0,0.5,0,0.6
		l0,0c0,0.1,0,0.1,0,0.2l0,0l0,0l0,0c0,0.1,0.5,0.7,1.3,2.2l0,0c0.9,1.5,1.3,2.3,1.3,2.3l0,0l0,0h-1.5c0,0,0,0-0.1,0l0,0
		c-0.2,0-0.6-0.1-0.6-0.8l0,0c0-0.1,0-0.2,0-0.2l0,0c0-0.4,0-0.7,0-0.9l0,0c0-0.2,0-0.4-0.2-0.4l0,0c-0.1,0-0.2,0-0.3,0l0,0
		c-0.2,0-0.2,0-0.3,0.3l0,0c-0.2,0.3-0.3,1.3-1.1,1.8l0,0c-0.8,0.5-0.3,0.6-1.7,0.7l0,0c-1.1,0-1.4,0.1-1.5,0.1l0,0l0,0l0,0l0,0l0,0
		c0,0,0.1-0.8,0.8-2.1l0,0c0.7-1.3,0.1-0.3,1-2.1l0,0c0.5-1,0.6-1.8,0.6-2.3l0,0c0-0.4-0.1-0.5-0.1-0.6l0,0v-1.1l0,0l0,0
		c0,0-0.1,0-0.1-0.1l0,0c-0.1,0.1-0.1,0.1-0.2,0.1l0,0l0.1,0.3L26,29.4c0,0-0.8,2.1-1.5,3.6l0,0c-0.7,1.5-0.8,2.1-0.8,2.1l0,0l0,0
		l0,0c0,0-0.1,0-0.3,0l0,0c-0.1,0-0.4,0-0.7-0.1l0,0c-1-0.2-1.1-0.3-1.8-0.7l0,0c-1.3-0.8-2.1-1.7-2.1-1.7l0,0l0,0l0,0
		c0,0,1.2-1,2.2-1.6l0,0c0.9-0.6,2.2-1.4,2.3-1.5l0,0l0.1-0.4c-0.3,0.2-0.6,0.4-0.5,0.4l0,0c0,0-1.2,0.9-4.8,3.1l0,0
		c-0.1,0.1-1.1,1-1.9,2l0,0c-0.9,0.9-1.8,1.9-1.8,1.9l0,0l0,0l0,0c0,0-0.3-1.2-0.5-1.5l0,0c-0.1-0.2-0.3-0.3-0.4-0.3l0,0
		c-0.1,0-0.2,0.1-0.3,0.2l0,0c-0.2,0.3-0.2,0.4-0.4,1l0,0c-0.2,0.6-0.3,3-0.3,3l0,0l0,0l0,0c0,0,0,0.2-0.2,0.2l0,0
		C11.7,39,11.5,39,11.3,38.8L11.3,38.8z M42.4,38.9c0,0,0,0-0.9-1.2l0,0c-0.9-1.2-0.3-0.5-1.6-1.9l0,0c-1.3-1.5-0.5-0.5-1.9-1.8l0,0
		c-1.4-1.3-1.6-1.5-1.6-1.5l0,0l0,0l0,0c0,0,0.4-1.1,0.4-2.8l0,0c0-1.7-0.8-2.3-0.8-2.3l0,0l0,0h0.1c0,0,0,0,0.2,0l0,0
		c0.2,0,0.5,0,1.2,0.1l0,0c1.2,0.1,3.2,0.3,5.7,1.3l0,0c2.8,1.1,3.5,2.7,3.7,2.9l0,0l0,0c0.2,0.2,0.3,0.5,0.3,0.5l0,0l0,0l0,0
		c0,0-0.2,1.1-0.6,2.1l0,0c-0.4,1-0.5,1.3-1.5,2.5l0,0C44,38,42.5,38.9,42.4,38.9L42.4,38.9L42.4,38.9L42.4,38.9L42.4,38.9z
		 M38.1,34c1.4,1.3,0.5,0.3,1.9,1.8l0,0c1.3,1.4,0.7,0.7,1.6,1.9l0,0c0.7,0.9,0.8,1.1,0.9,1.2l0,0c0.2-0.1,1.6-1,2.5-2.1l0,0
		c1-1.2,1.1-1.5,1.5-2.5l0,0c0.4-1,0.6-2,0.6-2.1l0,0c0-0.1-0.1-0.4-0.3-0.5l0,0l0,0l0,0c-0.2-0.2-0.9-1.7-3.7-2.9l0,0
		c-2.5-1-4.5-1.2-5.7-1.3l0,0c-0.7,0-1.1-0.1-1.2-0.1l0,0h-0.1l0,0c0.2,0.2,0.7,0.8,0.7,2.3l0,0c0,1.6-0.3,2.7-0.4,2.8l0,0
		C36.5,32.6,36.9,32.9,38.1,34L38.1,34z M21,38.3c-0.1,0-0.3,0-0.5,0l0,0c-0.8-0.1-0.6-0.5-1.3-0.5l0,0l0,0l0,0c-0.1,0-0.1,0-0.2,0
		l0,0c-0.5,0-0.4,0.2-0.8,0.3l0,0c-0.2,0.1-0.4,0.1-0.7,0.1l0,0c-0.3,0-0.7,0-0.7,0l0,0l0,0l0,0c0,0-0.1-0.1-0.1-0.3l0,0
		c0-0.1,0-0.1,0.1-0.2l0,0c0.2-0.3,0.7-0.5,0.7-0.7l0,0c0-0.2,0.1-0.3,0.1-0.4l0,0c0-0.1,0-0.1-0.2-0.2l0,0h-0.1l0,0
		c-0.5,0-0.8,0.8-1.4,1.1l0,0c-0.3,0.1-0.6,0.2-0.9,0.2l0,0c-0.2,0-0.5-0.1-0.7-0.2l0,0c-0.2-0.1-0.2-0.2-0.2-0.3l0,0
		c0-0.1,0.1-0.2,0.1-0.3l0,0l0,0l0,0c0-0.1,0.2-0.5,1.8-2.2l0,0c1.4-1.6,1.9-1.8,2-1.8l0,0c0.1,0,0.1,0,0.1,0.1l0,0
		c0,0,0.1,0.1,0.2,0.2l0,0c0.2,0.2,0.6,0.5,1.3,1l0,0c1.4,1.1,2.3,1.1,3,1.3l0,0c0.4,0.1,0.5,0.2,0.5,0.3l0,0c0,0.1-0.2,0.3-0.3,0.6
		l0,0c-0.2,0.5-0.8,1.7-1.2,1.9l0,0C21.4,38.2,21.4,38.3,21,38.3L21,38.3L21,38.3L21,38.3z M20.5,38.2c0.2,0,0.4,0,0.5,0l0,0
		c0.3,0,0.3-0.1,0.6-0.3l0,0c0.3-0.2,0.9-1.4,1.2-1.9l0,0c0.1-0.3,0.3-0.4,0.3-0.5l0,0c0-0.1-0.1-0.2-0.5-0.2l0,0
		c-0.8-0.2-1.7-0.2-3.1-1.3l0,0c-1.4-1.1-1.5-1.2-1.5-1.2l0,0l0,0l0,0l0,0l0,0c-0.1,0-0.6,0.2-2,1.8l0,0c-1.5,1.7-1.8,2.1-1.8,2.2
		l0,0h0.1v0.1c0,0-0.1,0.1-0.1,0.2l0,0c0,0.1,0,0.2,0.2,0.3l0,0c0.2,0.1,0.4,0.2,0.6,0.2l0,0c0.3,0,0.6-0.1,0.9-0.2l0,0
		c0.6-0.2,0.9-1.1,1.4-1.1l0,0h0.1l0,0c0.2,0,0.2,0.1,0.2,0.2l0,0c0,0.1-0.1,0.3-0.1,0.4l0,0c-0.1,0.3-0.6,0.5-0.7,0.7l0,0
		c0,0.1-0.1,0.1-0.1,0.2l0,0c0,0.1,0.1,0.2,0.1,0.3l0,0c0.1,0,0.3,0,0.6,0l0,0c0.3,0,0.5,0,0.7-0.1l0,0c0.3-0.1,0.3-0.3,0.8-0.3l0,0
		c0.1,0,0.1,0,0.2,0l0,0l0,0C20,37.8,19.7,38.1,20.5,38.2L20.5,38.2z M23.2,36.5l0.3-1h1.3l0,0l-0.3,1.1L23.2,36.5L23.2,36.5z
		 M23.5,35.6l-0.3,0.9h1.3l0.3-1L23.5,35.6L23.5,35.6z M40.4,27.7c-1.8-0.5-3.7-0.5-4.3-0.5l0,0c-0.2,0-0.2,0-0.2,0l0,0l0,0l0,0
		c0,0-0.4-0.3-1.8-1.5l0,0c-0.9-0.7-1-0.9-1-0.9l0,0c0,0-0.2-0.4-0.3-0.7l0,0c0-0.1,0-0.1,0-0.1l0,0c0.4-0.6,0.7-0.6,0.8-0.6l0,0
		c0.1,0,0.1,0,0.1,0l0,0c0,0,1.5,0.4,2.9,1l0,0c1.9,0.7,1.6,0.7,3.7,1.8l0,0c2.1,1.1,3.1,2.1,3.1,2.1l0,0l0.7,0.6l0,0
		C44.1,28.9,42.7,28.3,40.4,27.7L40.4,27.7z M40.4,27.7c1.9,0.5,3.1,1,3.5,1.1l0,0l-0.5-0.5c0,0-1-1-3.1-2.1l0,0
		c-2.1-1.1-1.8-1.1-3.7-1.8l0,0c-1.4-0.5-2.9-1-2.9-1l0,0c0,0,0,0-0.1,0l0,0c-0.1,0-0.4,0.1-0.8,0.6l0,0v0.1l0,0
		c0,0.2,0.2,0.6,0.2,0.6l0,0c0,0,0.1,0.1,1,0.9l0,0c1.3,1.1,1.8,1.4,1.8,1.5l0,0c0,0,0.1,0,0.2,0l0,0C36.7,27.1,38.6,27.2,40.4,27.7
		L40.4,27.7z M19.5,23.5L19.5,23.5L19.5,23.5L19.5,23.5L19.5,23.5L19.5,23.5z"/>
	<path class="st3" d="M12.4,44.2l0.9-0.3l1,3.2c0.2,0.6,0.2,1,0.2,1.4c-0.1,0.4-0.3,0.7-0.6,1.1c-0.4,0.3-0.9,0.6-1.6,0.8
		c-0.7,0.2-1.3,0.3-1.7,0.3c-0.5,0-0.9-0.2-1.2-0.5s-0.5-0.7-0.7-1.3l-1-3.2l1-0.3l1,3.2c0,0.4,0.1,0.4,0.2,0.6
		c0.2,0.2,0.4,0.3,0.8,0.3c0.3,0,0.7,0,1.1-0.1c0.7-0.2,1.2-0.5,1.4-0.8s0.2-0.9,0-1.5L12.4,44.2z"/>
	<path class="st3" d="M10.5,50.6c-0.5,0-0.9-0.2-1.2-0.5l0,0c-0.3-0.3-0.5-0.7-0.7-1.3l0,0l-1-3.2l1-0.3l1,3.2
		C9.8,49,9.8,49,10,49.2l0,0c0.2,0.2,0.4,0.3,0.7,0.3l0,0c0.1,0,0.1,0,0.2,0l0,0c0.3,0,0.6-0.1,0.9-0.2l0,0c0.7-0.2,1.2-0.5,1.4-0.8
		l0,0c0.1-0.2,0.2-0.4,0.2-0.6l0,0c0-0.3-0.1-0.5-0.2-0.9l0,0l-0.9-2.9l0,0l0,0l0,0l0,0l0,0l1-0.3l1,3.2c0.1,0.4,0.2,0.8,0.2,1.1
		l0,0c0,0.1,0,0.2,0,0.3l0,0c-0.1,0.4-0.3,0.7-0.7,1.1l0,0c-0.4,0.3-0.9,0.6-1.6,0.8l0,0c-0.6,0.2-1.1,0.3-1.5,0.3l0,0
		C10.7,50.6,10.6,50.6,10.5,50.6L10.5,50.6z M7.7,45.7l1,3.1c0.2,0.6,0.4,1,0.7,1.3l0,0c0.3,0.3,0.7,0.4,1.1,0.5l0,0
		c0.1,0,0.2,0,0.2,0l0,0c0.4,0,0.9-0.1,1.5-0.3l0,0c0.7-0.2,1.2-0.5,1.6-0.8l0,0c0.4-0.3,0.6-0.7,0.6-1.1l0,0c0-0.1,0-0.2,0-0.3l0,0
		c0-0.3-0.1-0.7-0.2-1.1l0,0l-1-3.1l-0.9,0.3l0.9,2.8c0.1,0.3,0.2,0.6,0.2,0.9l0,0c0,0.3-0.1,0.5-0.2,0.7l0,0
		c-0.2,0.3-0.7,0.6-1.4,0.8l0,0c-0.3,0.1-0.6,0.2-0.9,0.2l0,0c-0.1,0-0.1,0-0.2,0l0,0c-0.3,0-0.6-0.2-0.8-0.3l0,0
		c-0.2-0.2-0.2-0.2-0.4-0.7l0,0l-1-3.1L7.7,45.7L7.7,45.7z"/>
	<path class="st3" d="M17.4,48.9l-0.7-5.4l1.1-0.1l4.7,3.7l-0.6-4.3l1-0.1l0.7,5.4l-1.1,0.1l-4.7-3.7l0.6,4.3L17.4,48.9z"/>
	<path class="st3" d="M16.6,43.5l1.1-0.1l4.7,3.7l-0.6-4.2l1-0.1l0.7,5.5l-1.1,0.1l-4.7-3.7l0.6,4.2l-1,0.1l0,0L16.6,43.5L16.6,43.5
		z M17.4,48.9L17.4,48.9L17.4,48.9L17.4,48.9z M16.7,43.5l0.7,5.4l1-0.1l-0.6-4.3l4.8,3.7l1-0.1l-0.7-5.4L22,42.8l0.6,4.3l-4.8-3.7
		L16.7,43.5L16.7,43.5z"/>
	<path class="st3" d="M25.8,47.8v-5.5h1v5.5H25.8z"/>
	<path class="st3" d="M25.8,47.9L25.8,47.9L25.8,47.9L25.8,47.9L25.8,47.9L25.8,47.9v-5.5h1.1v5.5H25.8L25.8,47.9z M25.8,47.8h1
		v-5.4h-1V47.8L25.8,47.8z"/>
	<path class="st3" d="M31.4,43.6c0.6-0.3,1.4-0.4,2.3-0.3c0.6,0,1.2,0.2,1.6,0.3c0.5,0.2,0.8,0.4,1.1,0.8c0.2,0.3,0.3,0.7,0.3,1.1
		c0,0.6-0.4,1.1-1,1.4c-0.6,0.3-1.4,0.4-2.3,0.4c-0.9-0.1-1.6-0.3-2.2-0.6c-0.6-0.4-0.8-0.9-0.8-1.4C30.4,44.4,30.7,43.9,31.4,43.6z
		 M29.5,46.3c0.3,0.4,0.8,0.7,1.5,1s1.4,0.4,2.3,0.5c0.8,0,1.6,0,2.3-0.2s1.3-0.4,1.7-0.8c0.4-0.4,0.6-0.8,0.6-1.3s-0.1-0.9-0.5-1.3
		c-0.3-0.4-0.8-0.7-1.5-1s-1.4-0.4-2.3-0.5c-1.3-0.1-2.4,0.1-3.2,0.5c-0.9,0.4-1.3,1-1.3,1.8C29,45.4,29.2,45.9,29.5,46.3z"/>
	<path class="st3" d="M33.9,47.8c-0.2,0-0.4,0-0.5,0l0,0c-0.9-0.1-1.6-0.2-2.3-0.5l0,0c-0.7-0.3-1.2-0.6-1.5-1l0,0l0,0
		c-0.3-0.4-0.5-0.8-0.5-1.2l0,0V45l0,0c0-0.8,0.5-1.4,1.4-1.8l0,0c0.7-0.3,1.6-0.5,2.6-0.5l0,0c0.2,0,0.4,0,0.6,0l0,0
		c0.9,0.1,1.6,0.2,2.3,0.5l0,0c0.7,0.3,1.2,0.6,1.5,1l0,0c0.3,0.4,0.5,0.8,0.5,1.2l0,0v0.1l0,0c0,0.5-0.2,0.9-0.7,1.3l0,0
		c-0.4,0.4-1,0.6-1.7,0.8l0,0C35.1,47.7,34.5,47.8,33.9,47.8L33.9,47.8L33.9,47.8L33.9,47.8z M31,47.2c0.7,0.3,1.4,0.4,2.3,0.5l0,0
		c0.2,0,0.4,0,0.5,0l0,0c0.6,0,1.2-0.1,1.7-0.2l0,0c0.7-0.2,1.2-0.4,1.6-0.8l0,0c0.4-0.4,0.6-0.8,0.6-1.3l0,0v-0.1l0,0
		c0-0.4-0.2-0.8-0.5-1.2l0,0c-0.3-0.4-0.8-0.7-1.5-1l0,0c-0.7-0.3-1.4-0.4-2.3-0.5l0,0c-0.2,0-0.4,0-0.6,0l0,0c-1,0-1.9,0.2-2.6,0.5
		l0,0c-0.8,0.4-1.3,1-1.3,1.8l0,0V45l0,0c0,0.4,0.2,0.8,0.5,1.1l0,0l0,0l0,0C29.9,46.6,30.4,47,31,47.2L31,47.2z M33.4,47.2
		c-0.9-0.1-1.7-0.3-2.2-0.6l0,0c-0.5-0.4-0.8-0.8-0.8-1.4l0,0v-0.1l0,0c0-0.7,0.4-1.3,1-1.5l0,0c0.5-0.2,1.2-0.4,1.9-0.4l0,0
		c0.1,0,0.3,0,0.4,0l0,0c0.6,0,1.2,0.2,1.6,0.3l0,0c0.5,0.2,0.8,0.4,1.1,0.8l0,0c0.2,0.3,0.3,0.6,0.3,1l0,0v0.1l0,0
		c0,0.6-0.4,1.1-1,1.4l0,0c-0.5,0.3-1.2,0.4-1.9,0.4l0,0C33.6,47.2,33.5,47.2,33.4,47.2L33.4,47.2z M30.3,45.1
		C30.3,45.1,30.3,45.2,30.3,45.1L30.3,45.1c0,0.6,0.3,1.1,0.8,1.4l0,0c0.6,0.4,1.3,0.6,2.2,0.6l0,0c0.1,0,0.3,0,0.4,0l0,0
		c0.7,0,1.4-0.1,1.9-0.4l0,0c0.6-0.3,0.9-0.7,1-1.4l0,0v-0.1l0,0c0-0.4-0.1-0.7-0.3-1l0,0c-0.2-0.3-0.6-0.6-1.1-0.7l0,0
		c-0.5-0.2-1-0.3-1.6-0.3l0,0c-0.1,0-0.3,0-0.4,0l0,0c-0.7,0-1.3,0.1-1.8,0.3l0,0C30.7,43.9,30.4,44.4,30.3,45.1L30.3,45.1z"/>
	<path class="st3" d="M39.8,48.5l1-5.4l1.1,0.2l3.3,5l0.8-4.2l1,0.2l-1,5.4l-1-0.2l-3.3-5l-0.8,4.2L39.8,48.5z"/>
	<path class="st3" d="M44.9,49.5l-3.3-5l-0.8,4.2l-1-0.2l0,0l0,0l0,0l0,0l0,0l1-5.4l1.1,0.2l3.3,4.9L46,44l1,0.2l-1,5.4L44.9,49.5
		L44.9,49.5z M45,49.5l1,0.2l1-5.3l-0.9-0.2l-0.8,4.3l-3.4-5l-1-0.2l-1,5.3l0.9,0.2l0.8-4.3L45,49.5L45,49.5z"/>
	<path class="st3" d="M18.2,32.5c-2.3-1.1-3.9-3.5-5.7-5.3"/>
	<path class="st3" d="M18.3,32.2c-2.3-1.2-4-3.5-5.8-5.4c-0.3-0.3-0.5,0-0.3,0.3c1.7,2,2.7,3.1,5.8,5.6C18.4,33,18.6,32.4,18.3,32.2
		L18.3,32.2z"/>
	<path class="st0" d="M23,29.3c1.7-1.5,3.4-2,5.5-1.5"/>
	<path class="st4" d="M23.2,29.5c1.6-1.3,3.3-1.8,5.3-1.5c0.4,0.1,0.4-0.5,0.1-0.6c-2.2-0.4-4.1,0.2-5.8,1.6
		C22.5,29.3,22.9,29.8,23.2,29.5L23.2,29.5z"/>
	<path class="st0" d="M25.8,28.9c0.9-3.7-4-4.2-5.5-5.5"/>
	<path class="st4" d="M26,29c0.3-1.6-0.3-2.8-1.6-3.7c-1.2-0.8-2.8-1.1-4-2.1c-0.3-0.2-0.6,0.2-0.3,0.5c1.9,1.7,6,1.8,5.3,5.3
		C25.4,29.3,26,29.3,26,29L26,29z"/>
	<path class="st2" d="M19.3,26.7c0,0,0-0.1-0.1-0.1l0,0c-0.6-0.2-0.8-0.6-0.8-1.1l0,0c0-0.7,0.5-1.3,1-1.6l0,0c0-0.2,0-0.4,0-0.6
		l0,0c0-0.4,0-0.7,0.1-1l0,0c-2.8-0.3-5.4-1.7-7.3-3.2l0,0c-0.4,0.8-1.2,1.2-2,1.2l0,0c-0.4,0-0.8-0.1-1.2-0.4l0,0
		c-0.3-0.2-0.5-0.6-0.5-1l0,0c0-0.2,0.1-0.5,0.2-0.7l0,0l0,0l0,0c-0.3,0-0.6-0.2-0.8-0.5l0,0c-0.2-0.3-0.3-0.6-0.3-0.9l0,0
		c0-0.3,0.1-0.6,0.3-0.8l0,0c-0.4-0.3-0.6-0.8-0.6-1.2l0,0c0-0.9,0.7-1.9,1.8-1.9l0,0c0.1,0,0.2,0,0.2,0l0,0
		c0.1-0.8,0.8-1.4,1.6-1.4l0,0c0.4,0,0.9,0.2,1.2,0.5l0,0c0.3-0.5,0.8-0.7,1.3-0.6l0,0c1,0,2.1,0.8,2.1,1.9l0,0
		c0,0.3-0.1,0.7-0.4,1.1l0,0c1.2,0.1,2.6,0.3,3.9,0.8l0,0c-0.4-0.7-0.6-1.3-0.8-2l0,0c-0.8,0-1.4-0.2-1.9-0.6l0,0
		c-0.5-0.4-0.8-0.9-0.8-1.6l0,0c0-0.6,0.3-1.2,0.7-1.6l0,0c0.5-0.4,1.1-0.6,1.9-0.6l0,0c0.4-1.2,0.9-2.5,1.8-3.5l0,0l-2.7,0.9
		c-0.1,0-0.2,0-0.2-0.1l0,0c-0.1-0.1-0.1-0.2,0-0.2l0,0l0.6-1.2l0,0c1.2-1.7,3.1-2.7,5-3.2l0,0c-0.5-0.2-1.1-0.3-1.7-0.3l0,0
		c-0.1,0-0.3,0-0.4,0l0,0c-0.1,0-0.2-0.1-0.2-0.2l0,0c0-0.1,0-0.2,0.1-0.2l0,0C21.5,0.2,22.5,0,23.5,0l0,0c1.3,0,2.3,0.4,2.8,0.6
		l0,0C26.7,0.4,27.8,0,29,0l0,0c0.9,0,2,0.2,3.1,0.8l0,0c0.1,0,0.1,0.1,0.1,0.2l0,0c0,0.1-0.1,0.2-0.2,0.2l0,0c-0.1,0-0.3,0-0.4,0
		l0,0c-0.6,0-1.1,0-1.7,0.3l0,0c1.9,0.5,3.8,1.5,5,3.2l0,0l0,0l0.6,1.2c0,0.1,0,0.2,0,0.2l0,0c-0.1,0.1-0.1,0.1-0.2,0.1l0,0
		l-2.7-0.9c0.8,1,1.4,2.3,1.7,3.5l0,0c0.8,0,1.4,0.2,1.9,0.6l0,0c0.5,0.4,0.7,0.9,0.7,1.6l0,0c0,0.6-0.3,1.2-0.8,1.6l0,0
		c-0.5,0.4-1.1,0.6-1.9,0.6l0,0c-0.2,0.7-0.4,1.3-0.8,2l0,0c1.3-0.5,2.7-0.7,3.9-0.8l0,0c-0.3-0.4-0.4-0.7-0.4-1.1l0,0
		c0-1.1,1.1-1.9,2.1-1.9l0,0c0.5,0,1,0.2,1.3,0.7l0,0c0.4-0.4,0.8-0.5,1.2-0.5l0,0c0.8,0,1.6,0.6,1.6,1.4l0,0c0.1,0,0.2,0,0.2,0l0,0
		c1.1,0,1.8,1,1.8,1.9l0,0c0,0.5-0.2,0.9-0.6,1.2l0,0c0.2,0.2,0.3,0.5,0.3,0.8l0,0c0,0.3-0.1,0.6-0.3,0.9l0,0
		c-0.2,0.3-0.5,0.5-0.8,0.5l0,0c0,0,0,0-0.1,0l0,0c0.1,0.3,0.2,0.5,0.2,0.7l0,0c0,0.4-0.2,0.8-0.5,1l0,0c-0.3,0.2-0.7,0.4-1.2,0.4
		l0,0c-0.7,0-1.6-0.4-2-1.2l0,0c-1.9,1.5-4.5,3-7.3,3.2l0,0c0,0.3,0.1,0.7,0.1,1l0,0c0,0.2,0,0.4,0,0.6l0,0c0.6,0.3,1,0.9,1,1.6l0,0
		c0,0.3-0.1,0.6-0.4,0.9l0,0h-0.1l0,0C28.7,26.8,24,26.5,19.3,26.7L19.3,26.7L19.3,26.7L19.3,26.7C19.4,26.8,19.3,26.8,19.3,26.7
		L19.3,26.7z M12.2,18.6c1.9,1.6,4.7,3.1,7.5,3.3l0,0c0.1,0,0.1,0,0.1,0.1l0,0c0,0,0,0.1,0,0.2l0,0c-0.1,0.4-0.1,0.8-0.1,1.2l0,0
		c0,0.2,0,0.5,0,0.7l0,0c0,0.1,0,0.2-0.1,0.2l0,0c-0.4,0.1-0.9,0.8-0.9,1.3l0,0c0,0.3,0.1,0.6,0.7,0.7l0,0c0.1,0,0.1,0.1,0.1,0.1
		l0,0c4.6-0.3,9.3-0.1,13.9-0.3l0,0c0.2-0.1,0.2-0.3,0.2-0.5l0,0c0-0.5-0.5-1.1-0.9-1.3l0,0c-0.1,0-0.2-0.1-0.1-0.2l0,0
		c0-0.2,0-0.5,0-0.7l0,0c0-0.4,0-0.8-0.1-1.2l0,0c0-0.1,0-0.1,0-0.2l0,0l0.1-0.1l0,0c2.8-0.2,5.6-1.7,7.5-3.3l0,0
		c0.1,0,0.1-0.1,0.2,0l0,0c0.1,0,0.1,0.1,0.1,0.1l0,0c0.3,0.8,1,1.2,1.7,1.2l0,0c0.4,0,0.7-0.1,0.9-0.3l0,0c0.2-0.2,0.4-0.4,0.4-0.7
		l0,0c0-0.3-0.1-0.6-0.4-1l0,0c-0.1-0.1,0-0.2,0-0.3l0,0c0.1-0.1,0.2-0.1,0.3,0l0,0c0.2,0.1,0.3,0.1,0.4,0.1l0,0
		c0.2,0,0.3-0.1,0.5-0.3l0,0c0.1-0.2,0.2-0.4,0.2-0.7l0,0c0-0.3-0.1-0.5-0.3-0.7l0,0C44,16,44,15.9,44,15.8l0,0c0-0.1,0-0.1,0.1-0.2
		l0,0c0.4-0.2,0.6-0.6,0.6-1l0,0c0-0.4-0.1-0.8-0.4-1l0,0c-0.2-0.3-0.6-0.5-1-0.5l0,0c-0.1,0-0.3,0-0.4,0.1l0,0c-0.1,0-0.1,0-0.2,0
		l0,0c-0.1,0-0.1-0.1-0.1-0.2l0,0v-0.1l0,0c0-0.6-0.6-1.1-1.2-1.1l0,0c-0.4,0-0.8,0.2-1.1,0.6l0,0c0,0.1-0.1,0.1-0.2,0.1l0,0
		c-0.1,0-0.1-0.1-0.2-0.1l0,0c-0.2-0.5-0.6-0.7-1-0.7l0,0c-0.4,0-0.8,0.2-1.1,0.4l0,0c-0.3,0.3-0.5,0.6-0.5,1.1l0,0
		c0,0.3,0.1,0.7,0.5,1.1l0,0c0.1,0.1,0.1,0.1,0,0.2l0,0c0,0.1-0.1,0.1-0.2,0.1l0,0c-1.5,0.1-3.3,0.4-4.8,1l0,0c-0.1,0-0.2,0-0.2-0.1
		l0,0c-0.1-0.1-0.1-0.2,0-0.2l0,0c0.6-0.9,0.9-1.6,1.1-2.5l0,0c0-0.1,0.1-0.2,0.2-0.2l0,0c1.6,0,2.4-0.8,2.4-1.8l0,0
		c0-1-0.7-1.7-2.3-1.7l0,0c-0.1,0-0.2-0.1-0.2-0.2l0,0c-0.4-1.5-1.2-3.1-2.3-4.1l0,0c-0.1-0.1-0.1-0.2,0-0.3l0,0
		c0-0.1,0.2-0.1,0.2-0.1l0,0l3,1L34.5,5c-1.2-1.8-3.2-2.8-5.2-3.2l0,0c-0.1,0-0.1-0.1-0.2-0.2l0,0c0-0.1,0-0.2,0.1-0.2l0,0
		C29.8,1,30.4,0.8,31,0.8l0,0c-0.7-0.3-1.4-0.4-2.1-0.4l0,0c-1.3,0-2.3,0.4-2.7,0.6l0,0c-0.1,0-0.1,0-0.2,0l0,0
		c-0.4-0.2-1.4-0.6-2.7-0.6l0,0c-0.6,0-1.3,0.1-2.1,0.4l0,0c0.6,0,1.2,0.2,1.8,0.6l0,0c0.1,0,0.1,0.1,0.1,0.2l0,0
		c0,0.1-0.1,0.1-0.2,0.2l0,0c-2,0.4-4,1.4-5.2,3.2l0,0l-0.4,0.7l3-1c0.1,0,0.2,0,0.2,0.1l0,0c0.1,0.1,0,0.2,0,0.3l0,0
		c-1.1,0.9-1.9,2.6-2.3,4.1l0,0c0,0.1-0.1,0.1-0.2,0.1l0,0c-1.6,0-2.3,0.7-2.3,1.7l0,0c0,1,0.8,1.7,2.4,1.8l0,0
		c0.1,0,0.2,0.1,0.2,0.2l0,0c0.2,0.9,0.5,1.6,1.1,2.5l0,0c0.1,0.1,0.1,0.2,0,0.2l0,0c-0.1,0.1-0.2,0.1-0.2,0.1l0,0
		c-1.5-0.7-3.2-0.9-4.8-1l0,0c-0.1,0-0.1-0.1-0.2-0.1l0,0c0-0.1,0-0.2,0-0.2l0,0c0.4-0.4,0.5-0.8,0.5-1.1l0,0c0-0.4-0.2-0.8-0.5-1.1
		l0,0c-0.3-0.3-0.8-0.4-1.1-0.4l0,0c-0.4,0-0.8,0.2-1,0.7l0,0c0,0.1-0.1,0.1-0.2,0.1l0,0c-0.1,0-0.1,0-0.2-0.1l0,0
		C11.4,12.2,11,12,10.6,12l0,0c-0.6,0-1.2,0.5-1.2,1.1l0,0v0.1l0,0c0,0.1,0,0.1-0.1,0.2l0,0c-0.1,0-0.1,0.1-0.2,0l0,0
		c-0.1,0-0.3-0.1-0.4-0.1l0,0c-0.4,0-0.7,0.2-1,0.5l0,0c-0.2,0.3-0.4,0.7-0.4,1l0,0c0,0.4,0.2,0.8,0.6,1l0,0C8,15.8,8,15.9,8,16l0,0
		c0,0.1,0,0.1-0.1,0.2l0,0c0.2,0,0.1,0.3,0.1,0.6l0,0c0,0.2,0,0.5,0.2,0.7l0,0c0.1,0.2,0.3,0.3,0.5,0.3l0,0c0.1,0,0.2,0,0.4-0.1l0,0
		c0.1-0.1,0.2,0,0.3,0l0,0c0.1,0.1,0.1,0.2,0,0.3l0,0C9.1,18.4,9,18.7,9,19l0,0c0,0.3,0.1,0.5,0.4,0.7l0,0C9.6,19.9,10,20,10.3,20
		l0,0c0.7,0,1.4-0.4,1.7-1.2l0,0c0-0.1,0.1-0.1,0.1-0.1l0,0C12.1,18.7,12.1,18.7,12.2,18.6L12.2,18.6C12.1,18.6,12.2,18.6,12.2,18.6
		L12.2,18.6z M43.2,13.1H43H43.2L43.2,13.1z"/>
	<path class="st5" d="M26.2,32.1c0.3,0,0.6,0,0.9,0c0.4,2.7,2.7,2.4,3,4.4c0.1,0.6-0.2,0.9-0.1,1.7c0.2,1,1.2,1.5,2.5,1.6
		c0.9,0,2.2,0.3,2.9,0.9c1.1,0.8,1.7,1,2.5,1c0.7,0,1.4-1,0.9-1.7c0.8,0,1-0.8,0.7-1.1c0.3,0.2,0.9-0.5,0.6-0.9
		c0.4,0,0.9-0.6,0.6-1.2c0.6-0.4,0.4-1.3-0.3-2.1c-1.5-0.8-1.8-0.8-3.9-0.8c-1.3,0.2-1.2-0.4-1.5-1.5c-0.1-1.1-0.8-3-2.4-3.9
		c0.3-0.5,0.4-1.2,0.3-1.9c1.5-0.3,0.7-2.1-0.2-2.4c0.1-0.7,0-1.4-0.1-2c2.9-0.2,5.7-1.7,7.6-3.4c0.8,2.2,4.6,1.4,3-1
		c1.2,0.8,1.8-1.3,1-1.8c1.5-0.8,0.5-3.4-1.3-2.9c0.2-1.3-1.7-2.1-2.7-0.8c-0.9-2-4.5,0-2.6,2.2c-1.5,0.1-3.3,0.4-4.8,1.1
		c0.7-0.9,1-1.7,1.2-2.6c1.7,0,2.6-0.8,2.6-2c0-1.1-0.9-1.9-2.5-2c-0.4-1.5-1.2-3.2-2.3-4.2L35.4,6l-0.6-1.2C33.5,3,31.4,2,29.4,1.6
		C30.3,0.9,31.1,1,32.1,1c-2.6-1.4-5.1-0.5-5.8-0.1c-0.7-0.4-3.2-1.3-5.8,0.1c1,0,1.8,0,2.6,0.6C21.1,2,19,3,17.8,4.8L17.1,6
		l3.5-1.2c-1.1,1-1.9,2.7-2.3,4.2c-1.7,0-2.5,0.8-2.6,2c0,1.1,1,2,2.6,2c0.2,1,0.5,1.7,1.2,2.6c-1.5-0.7-3.3-1-4.8-1.1
		c1.9-2.1-1.7-4.1-2.6-2.2c-1-1.3-2.9-0.5-2.7,0.8c-1.8-0.5-2.8,2.1-1.3,2.9c-0.9,0.5-0.2,2.6,1,1.8c-1.7,2.4,2.2,3.2,3,1
		c1.9,1.6,4.7,3.2,7.6,3.4c-0.1,0.6-0.1,1.3-0.1,2c-0.9,0.3-1.7,2-0.2,2.4c-0.1,0.7,0,1.4,0.3,1.9c-1.6,0.9-2.3,2.9-2.4,3.9
		c-0.2,1.1-0.1,1.7-1.5,1.5c-2.1,0-2.4,0-3.9,0.8c-0.8,0.8-1,1.6-0.3,2.1c-0.3,0.6,0.2,1.2,0.6,1.2c-0.3,0.4,0.3,1.1,0.6,0.9
		c-0.3,0.3-0.1,1.1,0.7,1.1c-0.5,0.7,0.2,1.7,0.9,1.7c0.9,0,1.4-0.2,2.5-1c0.7-0.6,2-0.9,2.9-0.9c1.3,0,2.4-0.5,2.5-1.6
		c0.1-0.7-0.2-1-0.1-1.6c0.3-2,2.7-1.7,3-4.4C25.7,32.1,26,32.1,26.2,32.1L26.2,32.1z"/>
	<path class="st2" d="M37.8,34.8c-1.2-0.1-2.6,0.1-2.9-0.3c-0.7-0.3-0.6-1.1-0.8-1.8c-0.3-1.4-0.5-2-1.2-2.8c0,0,0-0.1-0.1-0.1
		c-0.6-0.9-1.4-0.9-2.6-0.8l0,0c-0.8,0.2-1.1,0.4-1.6,1c-0.1,0.1-0.2,0.2-0.3,0.4c-0.8,1.6-0.4,2.4,0.3,3.1c0.5,0.5,1.1,0.9,1.6,1.5
		s0.8,1.3,0.7,2.3c-0.3,1.2,0.4,1.6,1.3,1.5c0.3,0,0.5,0,0.8,0.1c1.4,0.1,1.6,0.2,2.5,0.6c0.8,0.6,1.2,0.8,1.9,1.1
		c0.8,0.3,1.1-0.6,0.6-1.1c-0.4-0.3-0.4-0.4-1-0.7c-0.4-0.2-0.1-0.7,0.3-0.4c0.5,0.4,0.6,0.5,1.1,0.8c0.4,0.2,0.9-0.2,0.4-0.7
		c-0.4-0.3-0.6-0.5-1-0.8c-0.3-0.2-0.1-0.6,0.2-0.3c0.3,0.2,0.6,0.5,1.1,0.9s0.7-0.2,0.5-0.5c-0.7-0.8-0.6-0.7-1.1-1
		c-0.1-0.2-0.1-0.4,0.2-0.3c0.3,0.2,0.5,0.3,1,0.8c0.4,0.3,0.8-0.2,0.5-0.4c-0.3-0.3-0.5-0.5-1-0.8c-0.3-0.2-0.1-0.4,0.2-0.2
		c0.4,0.2,0.4,0.2,0.8,0.6c0.1,0.3,0.5-0.1,0.2-0.5C39.7,35.3,38.9,34.8,37.8,34.8L37.8,34.8z"/>
	<path class="st2" d="M41.9,14.5c1.4-1.6-1.3-3.2-1.4-0.4c-0.3-2.6-3.6-1.6-1.6,1.1c-1.9,0.1-4,0.4-5.9,1.2
		c-0.3,0.1-0.6,0.2-0.9,0.4c-0.5,0.5-1.3,0.9-1.9,1.3c-0.1,0-0.2,0.1-0.2,0.1c0.1,0.4,0.1,0.7,0.2,1.1c0.4,1.7,1.2,3.3,1.8,4.1
		l-0.2-2.1c0.4,0,0.7,0,1.1-0.1c2.9-0.4,5.4-1.7,7.6-3.5c1.5,2.5,3.2,0.5,1.4-0.7c1.9,1,2.5-1.3,0.2-1.5c1.1,0.1,1.6-0.3,1.7-0.7
		v-0.3C43.9,14,43,13.5,41.9,14.5L41.9,14.5z"/>
	<path class="st2" d="M14.6,34.7c1.2-0.1,2.6,0.1,2.9-0.3c0.7-0.3,0.6-1.1,0.8-1.8c0.3-1.4,0.5-2,1.2-2.8c0,0,0,0,0.1-0.1
		c0.6-0.8,1.4-0.9,2.6-0.8l0,0c0.8,0.2,1.1,0.4,1.6,1c0.1,0.1,0.2,0.2,0.3,0.4c0.8,1.6,0.4,2.4-0.3,3.1c-0.5,0.5-1.1,0.9-1.6,1.5
		s-0.8,1.2-0.7,2.3c0.3,1.2-0.4,1.6-1.3,1.5c-0.3,0-0.5,0-0.8,0.1c-1.4,0.1-1.6,0.2-2.5,0.6c-0.8,0.6-1.2,0.8-1.9,1.1
		c-0.8,0.3-1.1-0.6-0.6-1.1c0.4-0.3,0.4-0.4,1-0.7c0.4-0.2,0.1-0.7-0.2-0.4c-0.5,0.3-0.6,0.5-1,0.8c-0.4,0.2-0.9-0.2-0.4-0.7
		c0.4-0.3,0.6-0.5,1-0.8c0.3-0.2,0.1-0.6-0.2-0.3c-0.3,0.2-0.6,0.5-1.1,0.9s-0.7-0.2-0.4-0.5c0.7-0.8,0.6-0.7,1.1-1
		c0.1-0.2,0-0.4-0.2-0.2c-0.3,0.2-0.5,0.3-1,0.8c-0.4,0.3-0.8-0.2-0.5-0.4c0.3-0.3,0.5-0.4,1.1-0.8c0.3-0.2,0.1-0.4-0.2-0.2
		c-0.4,0.2-0.4,0.2-0.9,0.6c-0.1,0.3-0.4-0.1-0.2-0.5C12.7,35.3,13.5,34.8,14.6,34.7L14.6,34.7z"/>
	<path class="st2" d="M10.5,14.5c-1.4-1.6,1.3-3.2,1.4-0.4c0.3-2.5,3.6-1.6,1.6,1.1c1.9,0.1,4,0.4,5.9,1.2c0.3,0.1,0.6,0.3,0.9,0.4
		c0.5,0.5,1.3,0.9,1.9,1.3c0.1,0,0.2,0.1,0.2,0.1c-0.1,0.4-0.1,0.7-0.2,1.1c-0.4,1.7-1.2,3.3-1.8,4.1l0.2-2.1
		c-0.4,0-0.7-0.1-1.1-0.1c-2.9-0.4-5.4-1.7-7.6-3.5c-1.5,2.5-3.2,0.5-1.4-0.7c-1.9,1-2.5-1.3-0.2-1.5c-1.1,0.1-1.6-0.3-1.7-0.7v-0.3
		C8.5,13.9,9.4,13.4,10.5,14.5L10.5,14.5z"/>
	<path class="st2" d="M28.4,22l-0.7-2.9c-1,0.1-2.1,0.1-3.1,0L24,22H28.4L28.4,22z"/>
	<path class="st6" d="M29.6,23.5c0.3,0,0.5,0.2,0.7,0.4c0.6,0.7,1.3,1.3,2.1,1.8c0.4,0.2,0.8-0.2,0.4-0.6c-2.3-1.8-3-3.8-3.6-6.5
		l-0.8,0.3c0.1,0.6,0.9,3.1,1.3,4h-7.1c0.4-0.9,1.2-3.4,1.3-4l-0.7-0.3c-0.6,2.7-1.3,4.7-3.6,6.5c-0.5,0.4-0.1,0.8,0.4,0.6
		c0.9-0.5,1.5-1.1,2.1-1.8c0.2-0.2,0.4-0.4,0.7-0.4H29.6L29.6,23.5z"/>
	<path class="st7" d="M26.9,31.1c0.6-2.2,2.5-3.4,4.9-3c0.2-0.5,0.3-0.5,0.3-1.6c-0.8-0.4-1.9-1.6-2.5-1.9c-0.1-0.1-0.2-0.1-0.3-0.1
		h-6.2c-0.1,0-0.2,0-0.3,0.1c-0.6,0.4-1.7,1.6-2.6,1.9c0,1.1,0.1,1.1,0.3,1.6c2.5-0.4,4.4,0.8,4.9,3C26,31.1,26.4,31.1,26.9,31.1
		L26.9,31.1z"/>
	<path class="st5" d="M28.8,25.1c-1.7,0-3.5,0-5.2,0C22.9,30.2,29.5,30.2,28.8,25.1L28.8,25.1z"/>
	<path class="st8" d="M28,25.9L28,25.9h-3.5l0,0C24.2,28.9,28.2,28.9,28,25.9L28,25.9z"/>
	<path class="st2" d="M26.2,18.3c3.7,0,6.8-2.4,7.3-6.2c1.4,0,2.4-0.2,2.4-1.2s-1-1.2-2.4-1.2c-0.2-2-1.1-3.6-2.7-4.8l0.4,1.3
		c-1.6-1.2-3.4-2-5-2.5c-1.6,0.4-3.5,1.3-5,2.5L21.6,5c-1.6,1.2-2.4,2.8-2.7,4.8c-1.4,0-2.4,0.2-2.4,1.2s1,1.2,2.4,1.2
		C19.4,15.9,22.5,18.3,26.2,18.3L26.2,18.3z"/>
	<path class="st5" d="M26.2,17.9c-0.9,0-1.8-0.6-2.2-1.3c-0.4-0.7-0.4-1.4-0.7-2.1c-0.2-0.7-0.8-1.6-1.3-2.2c-0.2-0.3,0-0.5,0.1-0.5
		c0.1-0.1,0.3,0,0.3,0.1c0.9,1.2,2.3,1.9,3.7,1.9c1.4,0,2.7-0.6,3.7-1.9c0.1-0.1,0.2-0.1,0.4-0.1c0.1,0,0.3,0.2,0.1,0.5
		c-0.4,0.6-1,1.5-1.3,2.2c-0.2,0.7-0.3,1.5-0.7,2.1C28,17.3,27.2,17.9,26.2,17.9L26.2,17.9z"/>
	<path class="st8" d="M26.2,17.6c-4.4-2-1.2-4.8,0-2.7C27.4,12.8,30.6,15.6,26.2,17.6L26.2,17.6z"/>
	<path class="st9" d="M26.2,10.8c0.6,0,1,0.4,1,0.9s-0.5,0.9-1,0.9c-0.6,0-1-0.4-1-0.9S25.6,10.8,26.2,10.8L26.2,10.8z"/>
	<path class="st10" d="M26.2,11.1c0.4,0,0.7,0.3,0.7,0.6s-0.3,0.6-0.7,0.6c-0.4,0-0.7-0.3-0.7-0.6C25.5,11.4,25.8,11.1,26.2,11.1
		L26.2,11.1z"/>
	<path class="st5" d="M28.7,5.2c1.5,0,2.1,1.8,2.1,3s-0.7,3-2.1,3c-1.5,0-2.1-1.8-2.1-3S27.2,5.2,28.7,5.2L28.7,5.2z"/>
	<path class="st10" d="M28.7,10.5c-1.1,0-1.5-1.4-1.5-2.3c0-0.6,0.1-1.2,0.5-1.7c0.1,0.4,0.4,0.7,1,0.7c0.5,0,0.8-0.3,1-0.7
		C30,7,30.2,7.6,30.2,8.2C30.2,9.1,29.8,10.5,28.7,10.5L28.7,10.5z"/>
	<path class="st5" d="M23.7,5.2c-1.5,0-2.1,1.8-2.1,3s0.7,3,2.1,3c1.5,0,2.1-1.8,2.1-3S25.2,5.2,23.7,5.2L23.7,5.2z"/>
	<path class="st10" d="M23.7,10.5c1.1,0,1.5-1.4,1.5-2.3c0-0.6-0.1-1.2-0.5-1.7c-0.1,0.4-0.4,0.7-1,0.7c-0.5,0-0.8-0.3-1-0.7
		c-0.4,0.5-0.5,1.1-0.5,1.8C22.3,9.1,22.6,10.5,23.7,10.5L23.7,10.5z"/>
	<g>
		<g>
			<g>
				<path class="st10" d="M41.9,40.4v-2h0.9c0.2,0,0.3,0,0.4,0c0.1,0,0.2,0.1,0.2,0.2c0.1,0.1,0.1,0.2,0.1,0.3s-0.1,0.3-0.1,0.4
					c-0.1,0.1-0.2,0.2-0.4,0.2c0.1,0,0.1,0.1,0.1,0.1c0.1,0.1,0.1,0.2,0.2,0.3l0.3,0.6h-0.3L43,40c-0.1-0.1-0.1-0.2-0.2-0.3
					c-0.1-0.1-0.1-0.1-0.1-0.1h-0.1h-0.1h-0.3v0.9h-0.3V40.4z M42.2,39.3h0.5c0.1,0,0.2,0,0.3,0s0.1-0.1,0.2-0.1
					c0,0,0.1-0.1,0.1-0.2c0-0.1,0-0.2-0.1-0.2c-0.1-0.1-0.2-0.1-0.3-0.1h-0.6v0.6H42.2z"/>
				<path class="st2" d="M43.2,40.6l-0.3-0.5c-0.1-0.1-0.1-0.2-0.2-0.3l0,0c0-0.1-0.1-0.1-0.1-0.1l0,0l0,0l0,0l0,0l0,0l0,0l0,0l0,0
					l0,0h-0.1v0.9H42v-0.2h0.2H42v0.2h-0.2v-2.4h1.1c0.2,0,0.3,0,0.5,0.1l0,0c0.2,0.1,0.3,0.2,0.3,0.3l0,0c0.1,0.1,0.1,0.3,0.1,0.4
					l0,0c0,0.2-0.1,0.4-0.2,0.5l0,0c0,0-0.1,0.1-0.2,0.1l0,0c0,0.1,0.1,0.1,0.1,0.2l0,0l0,0l0.5,0.9h-0.8V40.6z M42.7,39.1
					c0.1,0,0.2,0,0.2,0l0,0l0,0l0,0l0,0l0,0l0,0l0,0l0,0l0,0l0,0l0,0c0-0.1,0-0.1,0-0.1l0,0C42.9,39,42.8,39,42.7,39.1L42.7,39.1
					L42.3,39v0.2h0.4V39.1z"/>
			</g>
			<g>
				<path class="st2" d="M42.7,37.9c0.4,0,0.8,0.2,1.1,0.5s0.5,0.7,0.5,1.1c0,0.4-0.2,0.8-0.5,1.1s-0.7,0.5-1.1,0.5
					c-0.4,0-0.8-0.2-1.1-0.5s-0.5-0.7-0.5-1.1c0-0.4,0.2-0.8,0.5-1.1C41.8,38,42.2,37.9,42.7,37.9L42.7,37.9z M42.7,38.1
					c-0.4,0-0.7,0.2-1,0.4c-0.3,0.3-0.4,0.6-0.4,1s0.2,0.7,0.4,1c0.3,0.3,0.6,0.4,1,0.4s0.7-0.2,1-0.4c0.3-0.3,0.4-0.6,0.4-1
					s-0.2-0.7-0.4-1C43.4,38.2,43,38.1,42.7,38.1L42.7,38.1z"/>
				<path class="st2" d="M42.7,41.3c-0.5,0-1-0.2-1.3-0.5l0,0c-0.3-0.3-0.5-0.8-0.5-1.3l0,0c0-0.5,0.2-1,0.5-1.3l0,0
					c0.3-0.3,0.8-0.5,1.3-0.5l0,0v0.2v-0.2c0.5,0,1,0.2,1.3,0.5l0,0c0.3,0.3,0.5,0.8,0.5,1.3l0,0c0,0.5-0.2,1-0.5,1.3l0,0
					C43.6,41.1,43.2,41.3,42.7,41.3L42.7,41.3L42.7,41.3L42.7,41.3z M42.7,38.3c-0.3,0-0.6,0.1-0.9,0.4l0,0
					c-0.2,0.2-0.4,0.5-0.4,0.9l0,0c0,0.3,0.1,0.6,0.4,0.8l0,0c0.2,0.2,0.5,0.4,0.9,0.4l0,0c0.3,0,0.6-0.1,0.9-0.4l0,0
					c0.2-0.2,0.4-0.5,0.4-0.8l0,0c0-0.3-0.1-0.6-0.4-0.9l0,0C43.3,38.4,43,38.3,42.7,38.3L42.7,38.3v-0.2V38.3L42.7,38.3z"/>
			</g>
		</g>
		<g>
			<g>
				<path class="st9" d="M41.9,40.4v-2h0.9c0.2,0,0.3,0,0.4,0c0.1,0,0.2,0.1,0.2,0.2c0.1,0.1,0.1,0.2,0.1,0.3s-0.1,0.3-0.1,0.4
					c-0.1,0.1-0.2,0.2-0.4,0.2c0.1,0,0.1,0.1,0.1,0.1c0.1,0.1,0.1,0.2,0.2,0.3l0.3,0.6h-0.3L43,40c-0.1-0.1-0.1-0.2-0.2-0.3
					c-0.1-0.1-0.1-0.1-0.1-0.1h-0.1h-0.1h-0.3v0.9h-0.3V40.4z M42.2,39.3h0.5c0.1,0,0.2,0,0.3,0s0.1-0.1,0.2-0.1
					c0,0,0.1-0.1,0.1-0.2c0-0.1,0-0.2-0.1-0.2c-0.1-0.1-0.2-0.1-0.3-0.1h-0.6v0.6H42.2z"/>
			</g>
			<g>
				<path class="st5" d="M42.7,37.9c0.4,0,0.8,0.2,1.1,0.5s0.5,0.7,0.5,1.1c0,0.4-0.2,0.8-0.5,1.1s-0.7,0.5-1.1,0.5
					c-0.4,0-0.8-0.2-1.1-0.5s-0.5-0.7-0.5-1.1c0-0.4,0.2-0.8,0.5-1.1C41.8,38,42.2,37.9,42.7,37.9L42.7,37.9z M42.7,38.1
					c-0.4,0-0.7,0.2-1,0.4c-0.3,0.3-0.4,0.6-0.4,1s0.2,0.7,0.4,1c0.3,0.3,0.6,0.4,1,0.4s0.7-0.2,1-0.4c0.3-0.3,0.4-0.6,0.4-1
					s-0.2-0.7-0.4-1C43.4,38.2,43,38.1,42.7,38.1L42.7,38.1z"/>
			</g>
		</g>
	</g>
</g>
</svg>
