<?xml version="1.0" encoding="utf-8"?>
<!-- Generator: Adobe Illustrator 23.0.0, SVG Export Plug-In . SVG Version: 6.00 Build 0)  -->
<svg version="1.1" id="圖層_1" xmlns="http://www.w3.org/2000/svg" xmlns:xlink="http://www.w3.org/1999/xlink" x="0px" y="0px"
	 viewBox="0 0 80 70" style="enable-background:new 0 0 80 70;" xml:space="preserve">
<style type="text/css">
	.st0{fill:none;}
	.st1{fill:#000050;}
	.st2{fill:#FF0035;}
	.st3{fill:#FFFFFF;}
</style>
<rect class="st0" width="80" height="70"/>
<rect y="10" class="st0" width="80" height="60"/>
<g>
	<g>
		<path class="st1" d="M28.6,67.3C12.8,67.3,0,54.4,0,38.6S12.8,10,28.6,10s28.6,12.8,28.6,28.6S44.4,67.3,28.6,67.3z M28.6,12.7
			c-14.3,0-25.9,11.6-25.9,25.9s11.6,25.9,25.9,25.9s25.9-11.6,25.9-25.9S42.9,12.7,28.6,12.7z"/>
	</g>
	<path class="st2" d="M12.7,17.3v4.7c8.2,0.9,14.5,7.8,14.5,16.3s-6.4,15.4-14.5,16.3v6.5H80V17.3H12.7z"/>
	<path class="st1" d="M23.1,37.1H9c0,1.4,0.3,2.6,0.9,3.8c0.6,1.2,1.5,2.1,2.6,2.9c0.8,0.5,1.6,0.8,2.6,1.1c1,0.2,2.1,0.4,3.5,0.4
		c0.7,0,1.4,0,2-0.1c0.6,0,1-0.1,1.1-0.1l-0.4,2.6c-0.1,0-0.4,0-1,0.1c-0.6,0-1.3,0-2.1,0c-2.1,0-3.9-0.3-5.4-0.8
		c-1.5-0.5-2.8-1.3-3.8-2.2c-0.8-0.8-1.6-1.8-2.2-3C6.3,40.5,6,39.1,6,37.6c0-1.5,0.2-2.8,0.7-4c0.4-1.2,1.1-2.3,2-3.3
		c0.8-0.9,1.7-1.6,2.9-2.1c1.1-0.5,2.3-0.7,3.5-0.7c1.2,0,2.3,0.2,3.2,0.5c0.9,0.4,1.8,0.9,2.4,1.7c0.8,0.8,1.4,1.9,1.8,3.1
		C22.9,34,23.1,35.4,23.1,37.1z M20.1,35c-0.2-1.6-0.8-2.9-1.7-3.8c-0.9-0.9-2.1-1.4-3.5-1.4c-1.5,0-2.7,0.5-3.7,1.4
		c-1,0.9-1.7,2.2-2,3.8H20.1z"/>
	<path class="st3" d="M31.5,39.5C30.8,39.8,30,40,29,40.2c-0.1,0-0.2,0-0.3,0L28.4,38c0.2,0,0.4-0.1,0.5-0.1
		c0.8-0.1,1.6-0.3,2.4-0.6c0.1,0,0.2,0,0.3-0.1v-5.1h-3.1v-2.1h3.1v-4.6h2.2v4.6h2.7v2.1h-2.7v4.3l1.4-0.5c0.7-0.3,1.2-0.5,1.4-0.6
		l0.1,2.2l-0.4,0.2c-0.2,0.1-0.6,0.2-0.9,0.4l-1.5,0.6v6.4v0.3c0,0.9-0.2,1.5-0.5,1.9C32.8,47.8,32.1,48,31,48h-1.6l-0.5-2.3
		l1.9,0.1c0.5,0,0.8-0.3,0.8-0.8V39.5z M40.2,34.8h-0.3c-0.8,0-1.4-0.2-1.8-0.6c-0.4-0.4-0.6-1.1-0.6-2.2v-6.4h2.3v3
		c3.2-0.3,6.4-0.9,9.7-1.9l0.8,2c-2.7,0.8-5.9,1.4-9.5,1.8c-0.2,0-0.5,0.1-0.9,0.1v1.3c0,0.6,0.3,0.8,0.9,0.8h7
		c0.4,0,0.7-0.1,0.9-0.2c0.1-0.2,0.2-0.7,0.3-1.6c0-0.1,0-0.3,0-0.6L51,31v0.5c-0.1,0.8-0.3,1.5-0.6,2.2c-0.3,0.7-1.1,1-2.2,1H40.2z
		 M37.5,36.4h12.1v11.8h-2.2V47h-7.6v1.2h-2.2V36.4z M39.7,40.6h7.6v-2.3h-7.6V40.6z M39.7,45h7.6v-2.6h-7.6V45z"/>
	<path class="st3" d="M52.9,35.1c1.9-2.8,3.4-6,4.4-9.5l2.2,0.8c-0.1,0.2-0.1,0.4-0.1,0.5c-0.5,1.7-1,3.1-1.5,4.3v17h-2.3V35.5
		c-0.1,0.1-0.1,0.3-0.2,0.4c-0.4,0.7-0.9,1.5-1.6,2.2L52.9,35.1z M59.4,46.8l-1.4-2c2.1-1.3,3.9-3.2,5.4-5.7h-4.8v-2.2h7v-2.2h-5.4
		v-8h13.2v8H68v2.2h7.3v2.2h-5.2c1.2,2.2,3,4.1,5.4,5.7l-1.4,2c-2.6-2-4.7-4.6-6.1-7.7v9h-2.3v-9c-0.9,1.8-1.8,3.3-2.7,4.4
		C62.1,44.6,60.9,45.7,59.4,46.8z M71.2,28.9h-8.7v3.7h8.7V28.9z"/>
</g>
</svg>
