<?xml version="1.0" encoding="utf-8"?>
<!-- Generator: Adobe Illustrator 23.0.0, SVG Export Plug-In . SVG Version: 6.00 Build 0)  -->
<svg version="1.1" id="圖層_1" xmlns="http://www.w3.org/2000/svg" xmlns:xlink="http://www.w3.org/1999/xlink" x="0px" y="0px"
	 viewBox="0 0 50 50" style="enable-background:new 0 0 50 50;" xml:space="preserve">
<style type="text/css">
	.st0{fill:none;}
	.st1{fill:#878787;}
</style>
<rect class="st0" width="50" height="50"/>
<g>
	<path class="st1" d="M25,3.3C13,3.3,3.3,13,3.3,25S13,46.7,25,46.7S46.7,37,46.7,25S37,3.3,25,3.3z M25,50C11.2,50,0,38.8,0,25
		S11.2,0,25,0s25,11.2,25,25S38.8,50,25,50z"/>
	<path class="st1" d="M33.3,26.7H16.7C15.8,26.7,15,26,15,25s0.7-1.7,1.7-1.7h16.7c0.9,0,1.7,0.7,1.7,1.7S34.3,26.7,33.3,26.7z"/>
	<path class="st1" d="M33.3,18.3H16.7c-0.9,0-1.7-0.7-1.7-1.7c0-0.9,0.7-1.7,1.7-1.7h16.7c0.9,0,1.7,0.7,1.7,1.7
		C35,17.6,34.3,18.3,33.3,18.3z"/>
	<path class="st1" d="M33.3,35H16.7c-0.9,0-1.7-0.7-1.7-1.7c0-0.9,0.7-1.7,1.7-1.7h16.7c0.9,0,1.7,0.7,1.7,1.7
		C35,34.3,34.3,35,33.3,35z"/>
</g>
</svg>
