<?xml version="1.0" encoding="utf-8"?>
<!-- Generator: Adobe Illustrator 23.0.0, SVG Export Plug-In . SVG Version: 6.00 Build 0)  -->
<svg version="1.1" id="圖層_1" xmlns="http://www.w3.org/2000/svg" xmlns:xlink="http://www.w3.org/1999/xlink" x="0px" y="0px"
	 viewBox="0 0 40 40" style="enable-background:new 0 0 40 40;" xml:space="preserve">
<style type="text/css">
	.st0{fill:none;}
	.st1{fill:#007798;}
</style>
<rect class="st0" width="40" height="40"/>
<g>
	<g>
		<g>
			<g>
				<path class="st1" d="M20,40C9.1,40,0.3,31,0.3,20c0-5,1.8-9.7,5.1-13.4c0.3-0.3,0.8-0.4,1.1-0.1c0.3,0.3,0.4,0.8,0.1,1.1
					c-3,3.4-4.7,7.8-4.7,12.3C1.9,30.1,10,38.4,20,38.4S38.1,30.1,38.1,20C38.1,9.9,30,1.6,20,1.6c-2.8,0-5.5,0.6-8.1,1.9
					c-0.4,0.2-0.9,0-1.1-0.4c-0.2-0.4,0-0.9,0.4-1.1C14,0.7,16.9,0,20,0c10.9,0,19.7,9,19.7,20C39.7,31,30.9,40,20,40z M20,36.3
					C11.1,36.3,3.9,29,3.9,20c0-9,7.2-16.3,16.1-16.3c4.5,0,8.9,1.9,11.9,5.3c0.3,0.3,0.3,0.8-0.1,1.1c0,0,0,0,0,0
					c0,0,0,0.1-0.1,0.1L16.5,25.7c-0.2,0.2-0.4,0.2-0.6,0.2h0c-0.2,0-0.4-0.1-0.6-0.2l-5-5.1L8.9,22l7,7.1l4-4.1
					c0.3-0.3,0.8-0.3,1.1,0c0.3,0.3,0.3,0.8,0,1.1l-4.6,4.7c-0.2,0.2-0.4,0.2-0.6,0.2h0c-0.2,0-0.4-0.1-0.6-0.2l-8.1-8.3
					c-0.3-0.3-0.3-0.8,0-1.1l2.6-2.6c0.2-0.2,0.4-0.2,0.6-0.2h0c0.2,0,0.4,0.1,0.6,0.2l5,5.1L30.2,9.5C27.5,6.8,23.8,5.3,20,5.3
					C12,5.3,5.5,11.9,5.5,20S12,34.7,20,34.7c8,0,14.5-6.6,14.5-14.7c0-2.1-0.4-4.2-1.3-6l-9.6,9.8c-0.3,0.3-0.8,0.3-1.1,0
					c-0.3-0.3-0.3-0.8,0-1.1L32.9,12c0.2-0.2,0.4-0.3,0.7-0.2c0.3,0,0.5,0.2,0.6,0.4c1.3,2.4,1.9,5.1,1.9,7.8
					C36.1,29,28.9,36.3,20,36.3z M8.5,5.3C8,5.3,7.7,5,7.7,4.5S8,3.7,8.5,3.7h0c0.4,0,0.8,0.4,0.8,0.8S8.9,5.3,8.5,5.3z"/>
			</g>
		</g>
	</g>
</g>
</svg>
