<?xml version="1.0" encoding="utf-8"?>
<!-- Generator: Adobe Illustrator 23.0.0, SVG Export Plug-In . SVG Version: 6.00 Build 0)  -->
<svg version="1.1" id="圖層_1" xmlns="http://www.w3.org/2000/svg" xmlns:xlink="http://www.w3.org/1999/xlink" x="0px" y="0px"
	 viewBox="0 0 40 40" style="enable-background:new 0 0 40 40;" xml:space="preserve">
<style type="text/css">
	.st0{fill:none;}
</style>
<rect class="st0" width="40" height="40"/>
<g>
	<g>
		<path d="M33.5,34.4c-0.2,0-0.4-0.1-0.6-0.2c-0.3-0.3-0.3-0.8,0-1.1c7.1-7.2,7.1-18.9,0-26C29.5,3.5,24.9,1.6,20,1.6
			c-4.9,0-9.5,1.9-12.9,5.4C6.5,7.5,6,8.1,5.5,8.8C5.2,9.1,4.7,9.2,4.4,8.9C4,8.7,4,8.2,4.2,7.8c0.5-0.7,1.1-1.3,1.7-2
			C9.7,2.1,14.7,0,20,0s10.3,2.1,14.1,5.9c7.8,7.8,7.8,20.5,0,28.3C33.9,34.3,33.7,34.4,33.5,34.4z"/>
	</g>
	<g>
		<path d="M2.8,12.4c-0.2,0-0.4-0.1-0.6-0.2C2.1,12,2,11.8,2,11.6c0-0.2,0.1-0.4,0.2-0.6c0.3-0.3,0.8-0.3,1.1,0
			c0.2,0.2,0.2,0.4,0.2,0.6c0,0.2-0.1,0.4-0.2,0.6C3.2,12.3,3,12.4,2.8,12.4z"/>
	</g>
	<g>
		<path d="M20,40c-5.3,0-10.4-2.1-14.1-5.9c-4.9-5-6.9-12-5.3-18.8c0.1-0.4,0.5-0.7,1-0.6c0.4,0.1,0.7,0.5,0.6,1
			C0.7,22,2.5,28.4,7.1,33c3.6,3.6,8.6,5.6,13.7,5.4c0.4,0,0.8,0.3,0.8,0.8c0,0.4-0.3,0.8-0.8,0.8C20.6,40,20.3,40,20,40z"/>
	</g>
	<g>
		<path d="M28.4,38.8c-0.2,0-0.4-0.1-0.6-0.3c-0.2-0.2-0.2-0.5-0.2-0.7l1.9-7.6c0.1-0.3,0.3-0.5,0.6-0.6c0.3-0.1,0.6,0,0.8,0.2
			l6.1,6.5c0.2,0.2,0.3,0.5,0.2,0.8c-0.1,0.3-0.3,0.5-0.6,0.5l-8,1.1C28.5,38.8,28.5,38.8,28.4,38.8z M30.8,32l-1.3,5.1l5.3-0.7
			L30.8,32z"/>
	</g>
</g>
<g>
	<g>
		<path d="M28.4,29.3c-0.2,0-0.4-0.1-0.5-0.2L11.1,12c-0.3-0.3-0.3-0.8,0-1c0.3-0.3,0.8-0.3,1,0l16.8,17c0.3,0.3,0.3,0.8,0,1
			C28.8,29.2,28.6,29.3,28.4,29.3z"/>
	</g>
	<g>
		<path d="M11.9,29c-0.2,0-0.4-0.1-0.5-0.2c-0.3-0.3-0.3-0.8,0-1l16.3-16.5c0.3-0.3,0.8-0.3,1,0c0.3,0.3,0.3,0.8,0,1L12.4,28.8
			C12.2,28.9,12,29,11.9,29z"/>
	</g>
</g>
</svg>
