<?xml version="1.0" encoding="utf-8"?>
<!-- Generator: Adobe Illustrator 23.0.0, SVG Export Plug-In . SVG Version: 6.00 Build 0)  -->
<svg version="1.1" id="圖層_1" xmlns="http://www.w3.org/2000/svg" xmlns:xlink="http://www.w3.org/1999/xlink" x="0px" y="0px"
	 viewBox="0 0 115 115" style="enable-background:new 0 0 115 115;" xml:space="preserve">
<style type="text/css">
	.st0{fill:none;}
	.st1{fill:#937061;}
	.st2{fill:url(#SVGID_1_);}
	.st3{fill:#FFFFFF;}
</style>
<rect y="0" class="st0" width="115" height="115"/>
<g>
	<circle class="st1" cx="57.5" cy="59" r="56"/>
	<radialGradient id="SVGID_1_" cx="57.5" cy="56" r="56" gradientUnits="userSpaceOnUse">
		<stop  offset="0" style="stop-color:#D4A58D"/>
		<stop  offset="1" style="stop-color:#D49576"/>
	</radialGradient>
	<circle class="st2" cx="57.5" cy="56" r="56"/>
	<g>
		<g>
			<path class="st3" d="M66.8,74.1v4.7H16.2v-4.7H66.8z M61.6,51.8v18.7H22.1V51.8l-3.4,1.7l-2.5-4.7c7.1-2.4,12.9-5.7,17.6-9.9
				H16.3v-4.6H39v-4.6h5.1v4.6h22.4v4.6H49.4c3.9,3.6,9.7,6.7,17.4,9.5l-2.5,4.7L61.6,51.8z M44.1,39.1V48H39v-8.7
				c-3.6,4.6-8,8.2-13.3,10.9h32.8C53.2,47.8,48.4,44.1,44.1,39.1z M56.4,54.5H27.2v3.6h29.2V54.5z M56.4,62H27.2v4.1h29.2V62z"/>
		</g>
	</g>
	<g>
		<path class="st3" d="M68.4,55.2c-0.2,0-0.5,0.1-0.8,0.2l-0.2-1.8c1.5-0.1,2.7-0.3,3.3-0.5v-5.9h-3.2v-1.6h3.2v-1.7h-1.9v-0.7
			L67.9,44l-0.8-1.8c1.5-1.2,2.7-2.8,3.7-4.7h1.7l1.5,1.6l1.5,1.8l-1.3,1.3c-0.3-0.5-0.7-1-1.3-1.7L71.8,39
			c-0.6,1.1-1.3,2.2-2.2,3.2h4.9v1.6h-2.2v1.7h2.8v1.6h-2.8v5.7l1.4-0.4c0.6-0.1,1.1-0.3,1.5-0.5v1.7C73.6,54.2,71.3,54.7,68.4,55.2
			z M68.2,52.4c0-0.2,0-0.3,0-0.4c-0.1-1.6-0.3-2.8-0.5-3.6l1.5-0.2c0.2,0.5,0.3,1.2,0.4,1.9l0.3,2L68.2,52.4z M75.3,48.3l-0.3,1.6
			c-0.2,0.8-0.3,1.4-0.4,1.7l-1.6-0.3c0.3-1.1,0.5-2,0.6-2.7c0-0.1,0-0.3,0.1-0.5L75.3,48.3z M84.8,38.2V47h-3.5
			c0,0.2,0.1,0.3,0.1,0.5c0.1,0.8,0.4,1.6,0.7,2.3c0.8-0.4,1.5-1,2.1-1.8l1.3,1.1c-0.6,0.7-1.4,1.3-2.3,1.8
			c-0.1,0.1-0.2,0.2-0.4,0.3c0.7,1.2,1.6,2.2,2.8,3.2l-1.3,1.3c-1.3-1.1-2.2-2.2-2.9-3.3s-1.2-3-1.6-5.4h-2v6.4l1.5-0.4
			c0.5-0.1,1.1-0.3,1.7-0.5l0.1,1.6c-1,0.3-2,0.7-3.2,1l-2.5,0.7l-0.6-1.7l1.1-0.2V38.2H84.8z M77.7,41.7H83v-2h-5.3V41.7z
			 M77.7,45.4H83v-2.2h-5.3V45.4z"/>
		<path class="st3" d="M93.7,55.8h-1.8v-8.3c-0.3,0.4-0.6,0.7-0.8,0.9l-0.9,0.9l-1-1.9c2-1.9,3.6-3.7,4.6-5.5l1.5,1.1l-0.7,1.1
			l-0.8,1.4V55.8z M95,38.4c-0.3,0.3-0.5,0.6-0.7,0.8c-1.3,1.5-2.6,2.7-3.9,3.7l-1.2-1.7c1.5-0.9,2.9-2.2,4.2-3.8L95,38.4z
			 M104.6,45.4v7.9v0.3c0,0.8-0.2,1.3-0.5,1.6c-0.3,0.3-1,0.5-2.2,0.5l-2.8,0l-0.4-2l2.7,0.1h0.3c0.4,0,0.7-0.1,0.8-0.2
			s0.1-0.4,0.1-0.8v-7.5h-7.1v-1.8h12v1.8H104.6z M96.5,40.2v-1.8h9.9v1.8H96.5z"/>
		<path class="st3" d="M67.1,69.6c1.8-2.4,3.2-5.1,4.2-8.2l1.8,0.5l-0.7,1.8l-0.9,2.1v13.9h-1.9V69.4c-0.2,0.4-0.4,0.8-0.8,1.2
			L68,71.8L67.1,69.6z M77.8,61.5l0.3,2.7l0.3,2.6l6.9-0.4l0.1,1.8l-6.8,0.4c0.3,2.4,0.9,4.5,1.7,6.3c0.8,1.8,1.6,2.7,2.4,2.7
			c0.3,0,0.5-0.2,0.6-0.5s0.2-1.1,0.4-2.3c0-0.2,0-0.5,0.1-0.8l1.8,1.2c-0.2,1.6-0.5,2.8-0.9,3.6c-0.4,0.8-1,1.2-1.9,1.2
			c-1.3,0-2.5-1-3.7-2.9c-1.2-2-2-4.7-2.4-8.2L72.7,69l-0.2-1.9l3.9-0.2l-0.3-2.7l-0.2-2.6L77.8,61.5z M82.2,65.7
			c-0.7-1-1.4-1.8-2.1-2.6l-0.4-0.4l1.6-1l1.4,1.4c0.3,0.3,0.6,0.7,1,1.2c0.1,0.1,0.1,0.2,0.2,0.3L82.2,65.7z"/>
		<path class="st3" d="M95.7,67.9v9.8h-3.1v1.4h-1.6v-7.8l-0.3,0.5c-0.1,0.3-0.3,0.4-0.4,0.5l-1.1-1.6c1.1-1.7,1.9-3.6,2.3-5.7
			l0.2-1.1h-2.2v-1.8h6.7v1.8h-2.7c-0.3,1.7-0.6,3-0.9,4H95.7z M94.1,69.5h-1.5V76h1.5V69.5z M98.3,73.2c-0.3,2.6-0.7,4.6-1.3,6
			l-1.5-0.7c0.6-1.1,1-2.7,1.3-4.6c0-0.2,0.1-0.5,0.1-0.9L98.3,73.2z M107.5,61.9v1.6h-4v1.3h3.7v1.4h-3.7v1.5h3.7v1.4h-3.7v1.5h3.7
			c0,0.9,0,1.7,0,2.2c-0.1,2.6-0.2,4.3-0.4,5.1c-0.2,0.8-0.6,1.3-1.1,1.5c-0.5,0.2-1.3,0.3-2.5,0.3c-0.5,0-0.8,0-0.8,0l-0.5-1.8
			c0.7,0,1.5,0,2.3,0c0.4,0,0.6-0.1,0.8-0.3s0.3-0.8,0.3-1.8c0.1-1,0.1-1.9,0.1-2.7c0-0.6,0-0.9,0-1h-8.5V61.9H107.5z M98.7,64.8
			h3.1v-1.3h-3.1V64.8z M101.7,67.7v-1.5h-3.1v1.5H101.7z M101.7,70.6v-1.5h-3.1v1.5H101.7z M98.8,78.2c0.1-1.1,0.1-1.9,0.1-2.5
			c0-1.2,0-2.1-0.1-2.6l1.3,0l0.1,2.4v2.6L98.8,78.2z M101.4,77.3v-0.4v-0.3c0-1.3-0.1-2.4-0.4-3.4l1.2-0.1c0.2,0.8,0.4,2,0.5,3.4
			c0,0.2,0,0.4,0,0.6L101.4,77.3z M103.6,76.2l-0.3-1.8c-0.1-0.6-0.2-1-0.4-1.4l1.1-0.2c0.5,1.2,0.7,2.3,0.8,3.2L103.6,76.2z"/>
	</g>
</g>
</svg>
