<?xml version="1.0" encoding="utf-8"?>
<!-- Generator: Adobe Illustrator 23.0.0, SVG Export Plug-In . SVG Version: 6.00 Build 0)  -->
<svg version="1.1" id="圖層_1" xmlns="http://www.w3.org/2000/svg" xmlns:xlink="http://www.w3.org/1999/xlink" x="0px" y="0px"
	 viewBox="0 0 80 50" style="enable-background:new 0 0 80 50;" xml:space="preserve">
<style type="text/css">
	.st0{fill:none;}
	.st1{fill:#FFFFFF;}
</style>
<rect class="st0" width="80" height="50"/>
<g>
	<g>
		<path class="st1" d="M68.6,43.3c-1.1,0-2.1-0.8-2.2-1.9c-0.2-1.2,0.6-2.4,1.9-2.6c3.8-0.6,6.5-3.8,6.5-7.6c0-4.2-3.5-7.7-7.8-7.7
			h-1.6c-1.3,0-2.3-1-2.3-2.3c0-1.3,1-2.3,2.3-2.3h1.6c6.8,0,12.4,5.5,12.4,12.2c0,6-4.3,11-10.3,12.1
			C68.8,43.3,68.7,43.3,68.6,43.3z"/>
	</g>
	<g>
		<path class="st1" d="M57.8,43.5H45.2c-1.3,0-2.3-1-2.3-2.3c0-1.3,1-2.3,2.3-2.3h12.6c1.3,0,2.3,1,2.3,2.3
			C60.1,42.5,59.1,43.5,57.8,43.5z"/>
	</g>
	<g>
		<path class="st1" d="M33.4,43.5H22.2c-1.3,0-2.3-1-2.3-2.3c0-1.3,1-2.3,2.3-2.3h11.2c1.3,0,2.3,1,2.3,2.3
			C35.7,42.5,34.7,43.5,33.4,43.5z"/>
	</g>
	<g>
		<path class="st1" d="M11,43.3c-0.2,0-0.4,0-0.7-0.1l-1.7-0.5c-4.9-1.9-7.9-6.4-7.9-11.4C0.7,24.5,6.3,19,13.1,19h1.6
			c1.3,0,2.3,1,2.3,2.3c0,1.3-1,2.3-2.3,2.3h-1.6c-4.3,0-7.8,3.4-7.8,7.7c0,3.1,1.9,5.9,4.9,7.1l1.5,0.4c1.2,0.4,1.9,1.6,1.5,2.8
			C12.9,42.6,12,43.3,11,43.3z"/>
	</g>
	<g>
		<path class="st1" d="M14.7,23.6c-1.3,0-2.3-1-2.3-2.3c0-4.4,1.1-8.2,3.3-11.2c0.7-1,2.2-1.3,3.2-0.5c1,0.7,1.3,2.2,0.5,3.2
			C17.8,15,17,17.9,17,21.3C17,22.6,15.9,23.6,14.7,23.6z"/>
	</g>
	<g>
		<path class="st1" d="M65.3,23.6c-1.3,0-2.3-1-2.3-2.3c0-10.5-7.5-15.6-23-15.6c-5.9,0-10.8,0.8-14.4,2.3c-1.2,0.5-2.5-0.1-3-1.2
			c-0.5-1.2,0.1-2.5,1.2-3C28,2.1,33.5,1.2,40,1.2c22.8,0,27.6,10.9,27.6,20.1C67.6,22.6,66.6,23.6,65.3,23.6z"/>
	</g>
	<g>
		<path class="st1" d="M40,23.6c-1.3,0-2.3-1-2.3-2.3V3.5c0-1.3,1-2.3,2.3-2.3c1.3,0,2.3,1,2.3,2.3v17.8
			C42.3,22.6,41.3,23.6,40,23.6z"/>
	</g>
	<g>
		<path class="st1" d="M40,23.6H27.1c-1.3,0-2.3-1-2.3-2.3c0-1.3,1-2.3,2.3-2.3H40c1.3,0,2.3,1,2.3,2.3C42.3,22.6,41.3,23.6,40,23.6
			z"/>
	</g>
	<g>
		<path class="st1" d="M52.9,23.6H40c-1.3,0-2.3-1-2.3-2.3c0-1.3,1-2.3,2.3-2.3h12.9c1.3,0,2.3,1,2.3,2.3
			C55.2,22.6,54.2,23.6,52.9,23.6z"/>
	</g>
	<g>
		<g>
			<path class="st1" d="M63.2,48.8c-4.2,0-7.7-3.4-7.7-7.6c0-4.2,3.4-7.6,7.7-7.6c4.2,0,7.7,3.4,7.7,7.6
				C70.9,45.4,67.4,48.8,63.2,48.8z M63.2,38.2c-1.7,0-3.1,1.4-3.1,3c0,1.7,1.4,3,3.1,3c1.7,0,3.1-1.4,3.1-3
				C66.3,39.5,64.9,38.2,63.2,38.2z"/>
		</g>
		<g>
			<path class="st1" d="M16.8,48.8L16.8,48.8c-0.4,0-0.8,0-1.2-0.1c-3.4-0.5-6.1-3.3-6.5-6.7c-0.1-0.6-0.1-1.3,0-1.9
				c0.6-4,4.2-6.9,8.4-6.5c3.4,0.3,6.3,3,6.8,6.4c0.3,2.2-0.3,4.4-1.7,6.1C21.2,47.8,19.1,48.8,16.8,48.8z M16.8,38.2
				c-1.6,0-2.9,1.1-3.1,2.6c0,0.3,0,0.5,0,0.8c0.1,1.3,1.3,2.5,2.6,2.7c0.2,0,0.3,0,0.5,0l0,0c0.9,0,1.8-0.4,2.4-1.1
				c0.6-0.7,0.8-1.5,0.7-2.4c-0.2-1.3-1.4-2.4-2.8-2.5C17,38.2,16.9,38.2,16.8,38.2z"/>
		</g>
	</g>
</g>
</svg>
