<?xml version="1.0" encoding="utf-8"?>
<!-- Generator: Adobe Illustrator 23.0.0, SVG Export Plug-In . SVG Version: 6.00 Build 0)  -->
<svg version="1.1" id="圖層_1" xmlns="http://www.w3.org/2000/svg" xmlns:xlink="http://www.w3.org/1999/xlink" x="0px" y="0px"
	 viewBox="0 0 115 115" style="enable-background:new 0 0 115 115;" xml:space="preserve">
<style type="text/css">
	.st0{fill:none;}
	.st1{fill:#937061;}
	.st2{fill:url(#SVGID_1_);}
	.st3{fill:#FFFFFF;}
</style>
<rect y="0" class="st0" width="115" height="115"/>
<g>
	<circle class="st1" cx="57.5" cy="59" r="56"/>
	<radialGradient id="SVGID_1_" cx="57.5" cy="56" r="56" gradientUnits="userSpaceOnUse">
		<stop  offset="0" style="stop-color:#FAA82F"/>
		<stop  offset="1" style="stop-color:#FF902F"/>
	</radialGradient>
	<circle class="st2" cx="57.5" cy="56" r="56"/>
	<g>
		<g>
			<path class="st3" d="M23.1,69.1c-0.8,4.8-1.7,8.5-2.7,11.2l-4.1-3.7c1.9-6.2,3.2-12.7,3.8-19.6c0-0.6,0.1-1.3,0.2-2.3l4.6,0.6
				l-0.3,4.3l-0.4,3.7c0.8,1.9,2,3.4,3.4,4.5V51.8H17.2v-4.7h9.5v-5.9h-8.4v-4.7h8.4v-6.7h4.8v6.7h7.4v4.7h-7.4v5.9h8.1v4.7h-7.3
				v6.3h6.9v4.7h-6.9v8.7c2.8,1.4,6.1,2.1,10,2.1c11,0,19.1-0.1,24.5-0.3l-1,5c-2.6,0.1-6.4,0.1-11.4,0.1c-7.6,0-13-0.2-16.4-0.5
				c-3.4-0.3-6.2-1.2-8.6-2.6C27.1,74.1,25,72,23.1,69.1z M43.1,51.5l-3.2-4.4c4-2.3,6.7-6,8.1-10.9h-7.5v-4.7h25.1
				c-0.1,4.2-0.4,7.7-0.7,10.5c-0.4,2.8-1,4.7-1.9,5.9c-0.9,1.1-2.8,1.7-5.6,1.7c-1.2,0-2.2,0-3-0.1l-1.1-4.6
				c0.3,0.1,0.5,0.1,0.7,0.1c1.2,0.2,2.3,0.3,3.1,0.3c1.2,0,2.1-0.6,2.5-1.9c0.4-1.3,0.7-2.7,0.8-4.2c0.1-1.6,0.2-2.5,0.2-2.9h-7.7
				C51.6,42.9,48.4,48,43.1,51.5z M42.3,52.9h22.3v16.9H42.3V52.9z M59.7,57.6H47V65h12.7V57.6z"/>
		</g>
	</g>
	<g>
		<path class="st3" d="M85.2,38.8v1.6H67.4v-1.6h8L75,38.2l-0.5-0.6l1.9-0.2c0.2,0.3,0.4,0.5,0.5,0.7l0.4,0.6H85.2z M81.1,41.2
			c-0.1,0.1-0.1,0.2-0.2,0.3c-0.4,0.8-0.8,1.3-1,1.6h4.6v10.1c0,0.9-0.1,1.6-0.4,1.9c-0.2,0.4-0.8,0.5-1.6,0.5l-1.5,0l-0.5-1.8
			l1.4,0.1c0.5,0,0.7-0.2,0.7-0.6v-8.7h-3.6v1.1c0,0.4,0.2,0.6,0.5,0.6h2.6v1.6h-2.5h-0.5c-0.6,0-1-0.1-1.3-0.4s-0.5-0.9-0.5-1.9
			v-0.9h-2c-0.1,1.1-0.5,2-1,2.6s-1.4,1-2.5,1.4c-0.2,0.1-0.4,0.1-0.6,0.2l-1-1.4c0.9-0.1,1.6-0.4,2.3-0.8s1-0.8,1-1.1
			c0-0.3,0.1-0.6,0.1-0.7h-3.7v11.2h-1.8V43h4.6c-0.2-0.3-0.4-0.6-0.6-0.9l-0.7-0.9l1.7-0.7c0.1,0.1,0.1,0.2,0.2,0.2
			c0.4,0.6,0.9,1.3,1.3,2c0,0.1,0.1,0.1,0.1,0.2h3.2c0.8-0.8,1.3-1.6,1.7-2.5L81.1,41.2z M81,53.6h-9.4v-4.9H81V53.6z M79.2,50.3
			h-5.7V52h5.7V50.3z"/>
		<path class="st3" d="M69.2,74.2c0,0.3,0,0.7,0,1.1c0,0.4,0,0.9-0.1,1.6c0,0.7-0.1,1.6-0.4,2.5l-1.6-0.5c0.4-1.3,0.7-2.9,0.8-4.7
			L69.2,74.2z M73.5,65.3c-1.2,2.7-2.4,4.8-3.7,6.4l1.1-0.1l0.9-0.1l-0.2-0.6l-0.2-0.7l1.2-0.2c0.3,0.8,0.6,1.8,0.9,3
			c0,0.1,0,0.2,0.1,0.3L72,73.5l0-0.3l-0.1-0.3c-1,0.3-2.5,0.4-4.4,0.5l-0.3-1.6l0.4,0l0.4,0c0.9-1.1,1.8-2.3,2.4-3.6
			c-0.1,0-0.2,0-0.2,0c-0.9,0.2-1.6,0.2-1.9,0.3c-0.3,0-0.6,0-0.8,0l-0.3-1.5h0.3l0.4,0c0.9-1.4,1.6-2.9,2.1-4.5
			c0.1-0.2,0.2-0.5,0.3-0.8L72,62c-0.9,2.2-1.7,3.8-2.4,4.9l0.7-0.1l0.8-0.1l0.1-0.2c0.3-0.6,0.5-1.1,0.7-1.6c0,0,0-0.1,0.1-0.2
			L73.5,65.3z M69.7,78.4c0-0.2,0-0.3,0-0.4c0.1-0.8,0.1-1.4,0.1-1.8c0-1,0-1.7-0.1-2.1L71,74c0.1,0.8,0.2,1.6,0.2,2.3l0.1,2.1
			L69.7,78.4z M72,76.8c-0.2-1.3-0.4-2.3-0.6-2.9l1.1-0.2c0.3,0.7,0.5,1.4,0.7,2.2c0,0.1,0,0.3,0.1,0.4L72,76.8z M80.1,70.7v1.4
			h-3.8l-0.1,1.3h3.2c-0.1,2.8-0.2,4.5-0.5,5c-0.3,0.6-1,0.8-2.2,0.8c-0.4,0-0.7,0-0.8,0l-0.3-1.6c0.4,0.1,0.7,0.1,1.1,0.1
			c0.5,0,0.8-0.1,0.9-0.4s0.2-0.9,0.2-2c0-0.1,0-0.3,0-0.5H76c-0.3,1.8-1.2,3.5-2.8,5L72,78.4l0.5-0.4c1.5-1.3,2.2-3.3,2.2-5.9h-1.4
			v-1.4h2.6l-0.1-0.6c-0.1-0.2-0.1-0.4-0.2-0.5c0,0,0-0.1,0-0.1h-2V63h1.8c0.1-0.2,0.2-0.5,0.3-0.7l0.2-0.9l1.6,0.2l-0.2,0.8
			C77,62.6,77,62.9,76.9,63h2.5v4.9c0.9-1.8,1.6-4,2.1-6.5l1.5,0.4l-0.3,1.4c-0.1,0.6-0.3,1.1-0.4,1.5h3.2v1.7h-0.7
			c-0.2,3.3-0.7,6.1-1.5,8.3c0.1,0.2,0.2,0.4,0.3,0.5c0.5,0.9,1.2,1.8,1.9,2.6l-1,1.8c-0.8-0.9-1.5-2-2.1-3.3
			c-0.7,1.4-1.4,2.5-2.3,3.4L79.2,78c0.8-0.6,1.6-1.8,2.4-3.4c-0.5-1.7-0.9-3.5-1.1-5.4l-0.6,1l-0.5-0.8h-2.3l0.2,0.6l0.2,0.7H80.1z
			 M77.9,64.3h-3v1.4h3V64.3z M75,68.3h3v-1.5h-3V68.3z M81.8,66.4l-0.3,0.7c0.2,2.3,0.5,4.2,0.9,5.6c0.4-1.8,0.7-3.6,0.9-5.4
			c0-0.2,0-0.5,0.1-0.9H81.8z"/>
		<path class="st3" d="M92.5,73.8c-0.1,0.3-0.1,0.6-0.2,0.8c-0.4,1.8-1,3.3-1.7,4.3l-1.5-1.1c0.8-1.1,1.4-2.5,1.9-4.4L92.5,73.8z
			 M95.5,77.5v0.2c0,1.2-0.6,1.9-1.8,1.9h-1.4l-0.4-1.8l1.3,0.1c0.3,0,0.4,0,0.5-0.1c0.1-0.1,0.1-0.2,0.1-0.5v-4.7h-4.6V71h10v1.6
			h-3.6V77.5z M95.1,61.4v1.5h3.7v1.6h-3.7v1.3h3.1v1.5h-8.1v-1.5h3.3v-1.3h-4v-1.6h4v-1.5H95.1z M98,68.3v1.5h-8.1v-1.5H98z
			 M97.7,76.8c-0.1-0.3-0.2-0.5-0.3-0.6c-0.3-0.8-0.7-1.6-1.1-2.3l1.3-0.6c0.3,0.4,0.6,0.8,0.8,1.3l0.7,1.4L97.7,76.8z M101.4,68.8
			v-1.9h1.8v1.9c0,1.4,0.4,2.9,1.1,4.7c0.7,1.7,1.8,3.2,3.1,4.5l-1.2,1.7c-1.7-1.7-3-4-3.9-6.9c-0.7,2.7-1.9,5-3.8,6.9l-1.3-1.5
			c1.3-1.1,2.3-2.5,3-4.4C101.1,72,101.4,70.3,101.4,68.8z M101.4,65.7c-0.3,0.8-0.7,1.5-1.1,2.1l-0.9,1.4l-1.7-1.2
			c1.5-1.8,2.6-4.1,3.2-6.7l1.7,0.2l-0.3,1.3c-0.1,0.5-0.2,0.9-0.3,1.1h5.1v1.4c0,0.6-0.1,1.5-0.4,2.8c-0.2,1.3-0.6,2.5-1,3.6
			l-1.6-1.2c0.4-1,0.8-2.3,1.1-4c0-0.2,0.1-0.5,0.2-0.8H101.4z"/>
	</g>
</g>
</svg>
