<?xml version="1.0" encoding="utf-8"?>
<!-- Generator: Adobe Illustrator 23.0.0, SVG Export Plug-In . SVG Version: 6.00 Build 0)  -->
<svg version="1.1" id="圖層_1" xmlns="http://www.w3.org/2000/svg" xmlns:xlink="http://www.w3.org/1999/xlink" x="0px" y="0px"
	 viewBox="0 0 45 55" style="enable-background:new 0 0 45 55;" xml:space="preserve">
<style type="text/css">
	.st0{fill:none;}
	.st1{fill:#FFFFFF;}
	.st2{fill:#FF684A;}
	.st3{fill:#FFD5C5;}
</style>
<rect x="0" class="st0" width="45" height="55"/>
<g>
	<g>
		<g>
			<g>
				<g>
					<g>
						<path class="st1" d="M29.6,54.2H1.4c-0.7,0-1.3-0.6-1.3-1.3V23.5c0-0.7,0.6-1.3,1.3-1.3s1.3,0.6,1.3,1.3v28.1h26.9
							c0.7,0,1.3,0.6,1.3,1.3C30.9,53.6,30.3,54.2,29.6,54.2z"/>
					</g>
				</g>
			</g>
			<g>
				<g>
					<g>
						<path class="st1" d="M40.8,42.5c-0.7,0-1.3-0.6-1.3-1.3V17.8L24.1,2.6H2.7v9.1c0,0.7-0.6,1.3-1.3,1.3s-1.3-0.6-1.3-1.3V1.3
							C0.1,0.6,0.7,0,1.4,0h23.2c0.3,0,0.7,0.1,0.9,0.4l16.2,15.9c0.2,0.2,0.4,0.6,0.4,0.9v24C42.1,41.9,41.6,42.5,40.8,42.5z"/>
					</g>
				</g>
			</g>
			<g>
				<g>
					<g>
						<path class="st1" d="M1.4,18.9c-0.3,0-0.7-0.1-0.9-0.4c-0.2-0.2-0.4-0.6-0.4-0.9c0-0.3,0.1-0.7,0.4-0.9c0.5-0.5,1.4-0.5,1.8,0
							c0.2,0.2,0.4,0.6,0.4,0.9c0,0.4-0.1,0.7-0.4,0.9C2.1,18.8,1.7,18.9,1.4,18.9z"/>
					</g>
				</g>
			</g>
			<g>
				<g>
					<g>
						<path class="st1" d="M24.6,18.5c-0.7,0-1.3-0.6-1.3-1.3V1.3c0-0.7,0.6-1.3,1.3-1.3s1.3,0.6,1.3,1.3v15.9
							C25.9,18,25.4,18.5,24.6,18.5z"/>
					</g>
				</g>
			</g>
			<g>
				<g>
					<g>
						<path class="st1" d="M40.8,18.5H24.6c-0.7,0-1.3-0.6-1.3-1.3s0.6-1.3,1.3-1.3h16.2c0.7,0,1.3,0.6,1.3,1.3S41.6,18.5,40.8,18.5
							z"/>
					</g>
				</g>
			</g>
		</g>
		<g>
			<g>
				<g>
					<path class="st1" d="M18.1,17.7H8.8c-0.7,0-1.3-0.6-1.3-1.3s0.6-1.3,1.3-1.3h9.3c0.7,0,1.3,0.6,1.3,1.3S18.8,17.7,18.1,17.7z"
						/>
				</g>
			</g>
		</g>
		<g>
			<g>
				<g>
					<path class="st1" d="M24.6,28.7H8.8c-0.7,0-1.3-0.6-1.3-1.3s0.6-1.3,1.3-1.3h15.8c0.7,0,1.3,0.6,1.3,1.3S25.3,28.7,24.6,28.7z"
						/>
				</g>
			</g>
		</g>
		<g>
			<g>
				<g>
					<path class="st1" d="M24.6,39.7H8.8c-0.7,0-1.3-0.6-1.3-1.3c0-0.7,0.6-1.3,1.3-1.3h15.8c0.7,0,1.3,0.6,1.3,1.3
						C25.9,39.1,25.3,39.7,24.6,39.7z"/>
				</g>
			</g>
		</g>
	</g>
	<g>
		<path class="st0" d="M36.4,31.9c0-2.2-1.8-4.1-4.1-4.1c-2.2,0-4.1,1.8-4.1,4.1c0,1.1,0.5,2.2,1.2,2.9l0-2.4c0-0.8,0.3-1.5,0.8-2
			c0.5-0.5,1.3-0.8,2-0.8c0.7,0,1.4,0.3,1.9,0.7c0.6,0.5,0.9,1.3,0.9,2.1l0,2.4C35.9,34.1,36.4,33.1,36.4,31.9z"/>
		<path class="st2" d="M28.3,31.9c0-2.2,1.8-4.1,4.1-4.1c2.2,0,4.1,1.8,4.1,4.1c0,1.2-0.5,2.2-1.3,2.9l0,1.2c0,0,0,0,0.1,0
			c0.1,0,0.2,0,0.3,0c1.3-1,2.1-2.5,2.1-4.2c0-2.9-2.4-5.3-5.3-5.3s-5.3,2.4-5.3,5.3c0,1.9,1,3.5,2.4,4.4l0-1.5
			C28.7,34.1,28.3,33.1,28.3,31.9z"/>
		<path class="st3" d="M43.6,42.3c-0.4-2.3-2-2.6-2.7-2.6c-0.2,0-0.4-0.1-0.5-0.3c-0.5-0.8-1.3-1.1-1.9-1.1c-0.3,0-0.5,0-0.7,0.1
			c-0.1,0-0.1,0-0.2,0c-0.2,0-0.4-0.1-0.6-0.3c-0.5-0.7-1.2-0.9-1.8-0.9c-0.2,0-0.3,0-0.4,0c0,0-0.1,0-0.1,0c-0.4,0-0.7-0.3-0.7-0.7
			l0-4.2c0-1.1-0.8-1.6-1.6-1.6c-0.8,0-1.6,0.5-1.6,1.6c0,1.8,0,7.3,0,8.9c0,0.3-0.2,0.5-0.4,0.6c-3.2,1.4,0.8,7.4,1.5,8.4
			c0.1,0.1,0.1,0.2,0.1,0.3l0.2,2.4c0,0.4,0.3,0.7,0.7,0.7c0,0,0,0,0,0l7.8-0.1c0.3,0,0.6-0.3,0.7-0.6l0.3-2.4
			c0-0.1,0.1-0.2,0.1-0.3C43.8,47.3,43.9,44.4,43.6,42.3z"/>
		<path d="M44.7,42.1c-0.3-1.6-1.1-2.5-1.8-2.9c-0.6-0.4-1.3-0.6-1.8-0.6c-0.7-0.9-1.6-1.4-2.7-1.4c-0.2,0-0.5,0-0.7,0.1
			c-0.6-0.7-1.4-1.1-2.2-1.1c-0.1,0-0.2,0-0.3,0c0,0,0,0-0.1,0l0-1.2l0-2.4c0-0.8-0.3-1.6-0.9-2.1c-0.5-0.5-1.2-0.7-1.9-0.7
			c-0.8,0-1.5,0.3-2,0.8c-0.5,0.5-0.8,1.2-0.8,2l0,2.4l0,1.5l0,1.4l0,3.4c-0.8,0.4-1.3,1-1.5,1.9c-0.4,1.3-0.1,2.9,0.9,5
			c0.6,1.4,1.4,2.6,1.8,3.1l0.2,2.2c0.1,1,0.9,1.7,1.9,1.7l7.8,0c0.9,0,1.7-0.7,1.9-1.6l0.3-2.3C44.6,48.1,45.2,45.2,44.7,42.1z
			 M41.6,50.8l-0.3,2.4c0,0.3-0.3,0.6-0.7,0.6l-7.8,0.1c0,0,0,0,0,0c-0.4,0-0.7-0.3-0.7-0.7l-0.2-2.3c0-0.1-0.1-0.3-0.1-0.4
			c-0.7-1-4.7-7.1-1.5-8.5c0.3-0.1,0.4-0.4,0.4-0.6c0-1.6,0-7.1,0-8.9c0-1.1,0.8-1.6,1.6-1.6c0.8,0,1.6,0.5,1.6,1.6l0,4.2
			c0,0.4,0.3,0.7,0.7,0.7c0,0,0.1,0,0.1,0c0.1,0,0.3,0,0.4,0c0.6,0,1.3,0.2,1.8,0.9c0.1,0.2,0.3,0.3,0.6,0.3c0.1,0,0.1,0,0.2,0
			c0.2-0.1,0.5-0.1,0.7-0.1c0.6,0,1.3,0.2,1.9,1.1c0.1,0.2,0.3,0.3,0.5,0.3c0.7,0,2.3,0.3,2.7,2.6c0.4,2.1,0.2,4.9-1.9,8.2
			C41.6,50.6,41.6,50.7,41.6,50.8z"/>
	</g>
</g>
</svg>
