<?xml version="1.0" encoding="utf-8"?>
<!-- Generator: Adobe Illustrator 23.0.0, SVG Export Plug-In . SVG Version: 6.00 Build 0)  -->
<svg version="1.1" id="圖層_1" xmlns="http://www.w3.org/2000/svg" xmlns:xlink="http://www.w3.org/1999/xlink" x="0px" y="0px"
	 viewBox="0 0 115 115" style="enable-background:new 0 0 115 115;" xml:space="preserve">
<style type="text/css">
	.st0{fill:none;}
	.st1{fill:#AF962F;}
	.st2{fill:url(#SVGID_1_);}
	.st3{fill:#FFFFFF;}
</style>
<rect y="0" class="st0" width="115" height="115"/>
<g>
	<circle class="st1" cx="57.5" cy="59" r="56"/>
	<radialGradient id="SVGID_1_" cx="57.5" cy="56" r="56" gradientUnits="userSpaceOnUse">
		<stop  offset="0" style="stop-color:#EFCB37"/>
		<stop  offset="1" style="stop-color:#EFD437"/>
	</radialGradient>
	<circle class="st2" cx="57.5" cy="56" r="56"/>
	<g>
		<g>
			<path class="st3" d="M16.2,51.4c4.6-6.1,8.1-13.3,10.6-21.6l4.6,1.7l-1.8,5.4c-0.7,1.9-1.3,3.5-1.9,5v38.5h-5v-30
				c-0.5,1.1-1.1,2.2-2,3.4L18.2,57L16.2,51.4z M66.8,40.8H30.4v-4.6h15.6l-1-2.8c-0.4-1.1-0.9-2-1.4-2.9l5-0.7l0.4,0.9
				c0.7,1.4,1.3,3.3,2,5.5h15.8V40.8z M32.2,61.9h32.6v18.5H60v-2.9H37.1v2.9h-4.9V61.9z M33.3,44.6h30.6V49H33.3V44.6z M33.3,53.1
				h30.6v4.4H33.3V53.1z M60,66.3H37.1v6.9H60V66.3z"/>
		</g>
	</g>
	<g>
		<path class="st3" d="M67,73.3v-9.1h15.8v15.1v0.3c0,0.7-0.1,1.2-0.4,1.5c-0.3,0.3-0.9,0.5-1.9,0.5h-2.3l-0.5-1.9l2.4,0.1
			c0.4,0,0.6-0.2,0.6-0.6v-3.6h-5.1v5.7h-1.9v-5.7h-5c-0.2,2.1-0.9,4.2-2,6.2l-1.6-1.4c0.7-1.1,1.2-2.2,1.4-3.1
			C66.9,76.2,67,74.9,67,73.3z M68.9,68.9h4.9v-3.1h-4.9V68.9z M73.9,70.6h-4.9v3.2h4.9V70.6z M80.8,65.9h-5.1v3.1h5.1V65.9z
			 M80.8,70.6h-5.1v3.2h5.1V70.6z"/>
		<path class="st3" d="M95.9,70.6h9.7v2h-9.7v9.2h-2v-9.2h-6.7v-2h6.7v-7.2h2v2.5h8.1v1.9h-8.1V70.6z M103.6,79.8
			c-1.6-1.2-4-2.8-7-4.6l1.2-1.4c2.9,1.5,5.3,2.9,7.1,4.1L103.6,79.8z"/>
	</g>
</g>
</svg>
