<?xml version="1.0" encoding="utf-8"?>
<!-- Generator: Adobe Illustrator 23.0.0, SVG Export Plug-In . SVG Version: 6.00 Build 0)  -->
<svg version="1.1" id="圖層_1" xmlns="http://www.w3.org/2000/svg" xmlns:xlink="http://www.w3.org/1999/xlink" x="0px" y="0px"
	 viewBox="0 0 115 115" style="enable-background:new 0 0 115 115;" xml:space="preserve">
<style type="text/css">
	.st0{fill:none;}
	.st1{fill:#9B6423;}
	.st2{fill:url(#SVGID_1_);}
	.st3{fill:#FFFFFF;}
</style>
<rect y="0" class="st0" width="115" height="115"/>
<g>
	<circle class="st1" cx="57.5" cy="59" r="56"/>
	<radialGradient id="SVGID_1_" cx="57.5" cy="56" r="56" gradientUnits="userSpaceOnUse">
		<stop  offset="0" style="stop-color:#FACE2F"/>
		<stop  offset="1" style="stop-color:#FFC019"/>
	</radialGradient>
	<circle class="st2" cx="57.5" cy="56" r="56"/>
	<g>
		<g>
			<path class="st3" d="M19.6,76.8c-0.6,0.1-1.3,0.3-2.1,0.4l-0.5-5c4.3-0.3,7.3-0.8,9.1-1.3V54.6h-8.7v-4.5h8.7v-4.6h-5.2v-2
				L18.4,46l-2.2-4.8c4.1-3.3,7.5-7.6,10.2-13h4.7l4.1,4.5l4.2,4.9L35.8,41c-0.9-1.3-2.1-2.9-3.5-4.7l-3.2-4c-1.7,3.2-3.7,6.1-6,8.9
				h13.5v4.5h-5.9v4.6h7.8v4.5h-7.8v15.6l3.7-1c1.6-0.4,3-0.8,4.2-1.3v4.7C34,74.1,27.7,75.5,19.6,76.8z M19.2,69.1
				c0-0.4-0.1-0.8-0.1-1.1c-0.4-4.5-0.8-7.7-1.3-9.8l4.2-0.7c0.4,1.5,0.8,3.2,1,5.2l0.8,5.6L19.2,69.1z M38.8,57.7l-0.7,4.3
				c-0.4,2.2-0.8,3.8-1.1,4.7l-4.4-0.9c0.9-3,1.5-5.5,1.8-7.5c0-0.4,0.1-0.8,0.2-1.4L38.8,57.7z M64.8,29.9v24.4h-9.5
				c0.1,0.5,0.2,0.9,0.3,1.3c0.4,2.3,1,4.4,1.8,6.4c2.2-1.2,4.1-2.8,5.8-4.8l3.5,3.1c-1.7,1.9-3.8,3.5-6.3,5
				c-0.3,0.2-0.7,0.4-1.2,0.7c1.9,3.2,4.5,6.1,7.6,8.7l-3.7,3.6c-3.4-2.9-6.1-5.9-7.9-9.1c-1.8-3.2-3.3-8.1-4.5-14.9h-5.4v17.6
				l4.2-1.2c1.5-0.4,3-0.9,4.7-1.5l0.3,4.3c-2.7,1-5.6,1.8-8.7,2.6l-7,1.9l-1.5-4.8l3.1-0.5V29.9H64.8z M45.4,39.7H60v-5.4H45.4
				V39.7z M45.4,49.9H60v-6.1H45.4V49.9z"/>
		</g>
	</g>
	<g>
		<path class="st3" d="M71.7,53.8h-1.8v-8.3c-0.3,0.4-0.6,0.7-0.8,0.9l-0.9,0.9l-1-1.9c2-1.9,3.6-3.7,4.6-5.5l1.5,1.1l-0.7,1.1
			l-0.8,1.4V53.8z M73,36.4c-0.3,0.3-0.5,0.6-0.7,0.8c-1.3,1.5-2.6,2.7-3.9,3.7l-1.2-1.7c1.5-0.9,2.9-2.2,4.2-3.8L73,36.4z
			 M82.6,43.4v7.9v0.3c0,0.8-0.2,1.3-0.5,1.6c-0.3,0.3-1,0.5-2.2,0.5l-2.8,0l-0.4-2l2.7,0.1h0.3c0.4,0,0.7-0.1,0.8-0.2
			s0.1-0.4,0.1-0.8v-7.5h-7.1v-1.8h12v1.8H82.6z M74.5,38.2v-1.8h9.9v1.8H74.5z"/>
		<path class="st3" d="M74.5,68.7h1.1v-8.6h9.1v1.6h-7.3v1.2H84v1.5h-6.5v1.3H84v1.5h-6.5v1.4h7.9v1.6h-4.9c0.2,1,0.5,1.9,1,2.6
			c1.1-0.7,1.9-1.4,2.3-1.9l1.3,1.2c-0.5,0.5-0.9,0.9-1.3,1.2l-1.2,0.9c0.7,0.8,1.7,1.4,3,1.8l-1,1.7c-1.7-0.8-3-1.8-3.9-3
			c-0.9-1.2-1.5-2.7-1.8-4.5h-1.4V75l1.3-0.4l1.2-0.5l0.2,1.7c-1.9,0.8-3.9,1.5-5.9,2l-0.5-1.8l0.9-0.2l0.9-0.2v-5.2h-1v1v0.2
			c0,0.6-0.1,1.1-0.4,1.4c-0.2,0.3-0.7,0.5-1.3,0.5h-0.6l-0.4-1.7v6h-1.7V64.5h-1v9.2h-1.6V62.7h2.6v-3.3h1.7v3.3h2.7V68.7z
			 M72.4,71.7c0.4,0,0.5-0.2,0.5-0.5v-6.7h-1.1v7.2L72.4,71.7z"/>
		<path class="st3" d="M92.8,68.5l-0.5,2h3.5v0.3v0.3c0,1.4-0.1,2.7-0.2,3.7c-0.1,1-0.4,1.7-0.9,2.1s-1.4,0.6-2.9,0.6h-0.5h-0.2
			l-0.6-1.8c0.2,0,0.3,0,0.4,0c0.8,0.1,1.3,0.1,1.5,0.1c0.5,0,0.8-0.1,1-0.4c0.1-0.3,0.3-1,0.4-2.1c0-0.3,0-0.6,0.1-1.1h-3.9l1-3.6
			h-1.9v-1.7h7.5v1.7H92.8z M90,60h6.2v5.7H90V60z M94.5,61.5h-2.8v2.7h2.8V61.5z M102.5,64.8v1.5l2.4-0.1l0.1,1.5l-2.5,0.1
			c0,0.1,0,0.2,0,0.2c0,0.5,0.3,0.8,0.8,0.8h3.3v1.5h-3.7c-1.3,0-2-0.7-2-2.2v-0.2v0L99,68c-0.1,4-0.7,7.3-1.9,9.7l-1.5-1.1
			c0.6-1.2,1-2.6,1.3-4.2c0.3-1.6,0.4-3.8,0.4-6.7v-2.5h3.5v-3.8h1.7v1.1h3.8v1.5h-3.8v1.2h4.8c-0.1,1.5-0.3,2.7-0.7,3.7l-1.6-0.4
			c0.2-0.4,0.3-0.7,0.3-0.9l0.2-0.8H102.5z M101.8,71.1c-0.1,1.9-0.3,3.3-0.6,4.1s-0.8,1.7-1.4,2.6l-1.6-1c0.6-0.7,1.1-1.4,1.4-2.2
			c0.3-0.8,0.5-2,0.6-3.7L101.8,71.1z M99,64.8v1.7l1.9-0.1v-1.6H99z M104.5,71.1v4.3c0,0.4,0.2,0.6,0.5,0.6h0.4
			c0.3,0,0.5-0.3,0.5-1c0-0.8,0-1.4,0-1.9l1.6,0.5v0.2c0,1.5-0.1,2.5-0.3,3c-0.2,0.5-0.6,0.7-1.2,0.7h-1.4c-0.6,0-1-0.1-1.3-0.4
			c-0.3-0.3-0.4-0.7-0.4-1.3v-4.7H104.5z"/>
	</g>
</g>
</svg>
